<svg width="700" height="500" viewBox="0 0 700 500" fill="none" xmlns="http://www.w3.org/2000/svg">
<path d="M176.56 239.603L181.458 289.071C181.486 289.357 181.535 289.64 181.605 289.918L181.931 291.225C181.976 291.405 182.069 291.569 182.2 291.7C182.392 291.892 182.652 292 182.924 292H183.5H185.5L204.361 289.642C205.115 289.548 205.847 289.326 206.527 288.986C207.171 288.664 207.76 288.24 208.269 287.731L208.891 287.109C209.296 286.704 209.73 286.327 210.189 285.983L211.5 285L212.184 284.59C213.384 283.87 214.709 283.382 216.089 283.152C216.695 283.051 217.309 283 217.923 283H218.486C220.154 283 221.814 283.232 223.418 283.691L224.5 284L227 285L230.5 286.5L232.651 287.36C232.881 287.452 233.091 287.591 233.266 287.766C233.721 288.221 233.904 288.882 233.748 289.507L233.5 290.5L233 292.5C232.335 294.495 231.869 296.551 231.608 298.638L231.5 299.5L231 305L230.5 308L230.214 310C230.072 310.999 230 312.006 230 313.015V314.279C230 315.421 230.159 316.557 230.473 317.655C230.822 318.878 231.359 320.039 232.064 321.096L233 322.5L235.5 325.5L239 329.5C239.989 330.489 241.177 331.254 242.486 331.745L242.965 331.924C243.984 332.306 245.049 332.55 246.132 332.648L250 333H255L263 332.5L266.5 332L270 331C271.649 330.34 273.148 329.352 274.404 328.096L275.1 327.4C275.699 326.801 276.255 326.16 276.764 325.482L277.384 324.654C278.457 323.224 279.336 321.659 280 320L281.5 315C281.833 313.337 282 311.646 282 309.95V309.5V304V301L281.64 298.12C281.547 297.375 281.38 296.641 281.143 295.929C280.718 294.653 280.07 293.462 279.23 292.412L278.5 291.5L276.5 289.5L274.5 287.5L274.275 287.275C273.427 286.427 272.665 285.498 272 284.5L271.108 283.162C271.036 283.054 270.954 282.954 270.862 282.862L270.719 282.719C270.278 282.278 270.124 281.627 270.322 281.035C270.437 280.688 270.665 280.39 270.97 280.187L271.423 279.885C271.803 279.631 272.233 279.461 272.684 279.386L275 279L277.5 278.5L281.5 277.5L284.593 276.34C285.196 276.114 285.771 275.82 286.306 275.462L286.886 275.076C286.962 275.025 287.032 274.968 287.096 274.904C287.355 274.645 287.705 274.5 288.071 274.5H288.5C288.826 274.5 289.145 274.597 289.416 274.777L291.232 275.988C291.743 276.328 292.287 276.615 292.857 276.843L294.5 277.5L298 278.5L300.655 278.879C301.213 278.959 301.781 278.93 302.328 278.793C303.095 278.601 303.795 278.205 304.354 277.646L304.605 277.395C304.868 277.132 305.104 276.844 305.31 276.535L305.428 276.358C305.807 275.79 306.279 275.291 306.825 274.881C307.597 274.302 308.497 273.917 309.448 273.759L309.559 273.74C310.508 273.582 311.48 273.637 312.405 273.901L312.628 273.965C313.856 274.316 314.974 274.974 315.876 275.876L315.934 275.934C316.638 276.638 317.202 277.47 317.594 278.385L318.5 280.5L318.992 281.32C319.661 282.436 320.465 283.465 321.386 284.386C322.127 285.127 322.939 285.793 323.811 286.374L325.5 287.5C327.822 288.827 330.316 289.829 332.911 290.478L333 290.5L335.374 290.896C335.791 290.965 336.201 291.067 336.602 291.201L337.999 291.666C338.651 291.884 339.221 292.294 339.633 292.844C340.187 293.582 340.414 294.515 340.262 295.425L340.11 296.341C340.037 296.779 339.912 297.206 339.737 297.614L338.5 300.5L338.42 300.714C337.475 303.234 336.735 305.826 336.207 308.465L336 309.5L335.722 313.109C335.575 315.028 335.674 316.959 336.019 318.852C336.338 320.611 336.867 322.326 337.593 323.959L337.704 324.208C338.234 325.401 338.864 326.546 339.588 327.631C340.855 329.533 342.399 331.236 344.168 332.683L345.477 333.754C346.487 334.581 347.626 335.268 348.826 335.782C349.926 336.254 351.1 336.586 352.286 336.755C353.424 336.918 354.578 336.936 355.721 336.809L356.453 336.727C357.814 336.576 359.155 336.282 360.454 335.849L360.826 335.725C362.272 335.243 363.666 334.619 364.99 333.863L366.5 333L368.608 331.595C369.201 331.199 369.754 330.746 370.258 330.242L370.4 330.1C371.129 329.371 371.735 328.53 372.195 327.609C372.398 327.204 372.572 326.784 372.715 326.354L373.709 323.373C374.235 321.796 374.583 320.165 374.749 318.511L374.804 317.96C374.934 316.657 374.918 315.344 374.756 314.046C374.586 312.687 374.257 311.352 373.776 310.07L373.654 309.745C373.219 308.584 372.679 307.465 372.041 306.402L371.5 305.5L368.5 300.5L368.183 299.867C368.061 299.623 367.967 299.367 367.901 299.102L367.733 298.433C367.585 297.839 367.694 297.209 368.034 296.7C368.334 296.249 368.791 295.927 369.316 295.796L369.8 295.675C370.262 295.56 370.742 295.54 371.211 295.619L372.646 295.858C373.214 295.952 373.79 296 374.366 296H377.5L383 295.5L387 295L389.5 294.5C390.828 294.168 392.192 294 393.562 294H397H401.5H413.5H417.5H424.5H436H437.9C438.629 294 439.352 294.117 440.043 294.348L440.177 294.392C440.392 294.464 440.602 294.551 440.805 294.652L441.144 294.822C441.38 294.94 441.595 295.095 441.781 295.281C442.242 295.742 442.5 296.366 442.5 297.016V297.5V297.642C442.5 298.527 442.238 299.393 441.746 300.13C441.583 300.376 441.395 300.605 441.186 300.814L440.5 301.5C439.835 302.165 439.237 302.894 438.716 303.677L438.462 304.057C437.822 305.017 437.271 306.034 436.817 307.094L436.756 307.235C436.253 308.409 435.861 309.628 435.583 310.874L435.263 312.318C435.088 313.104 435 313.906 435 314.71C435 315.896 435.191 317.073 435.566 318.198L436 319.5L436.554 320.884C436.85 321.625 437.242 322.323 437.721 322.961C438.238 323.65 438.85 324.262 439.539 324.779L440.107 325.205C440.369 325.402 440.616 325.616 440.847 325.847L441.594 326.594C441.861 326.861 442.062 327.186 442.182 327.545C442.385 328.156 442.338 328.824 442.05 329.401L442 329.5C441.68 330.14 441.118 330.627 440.439 330.854L440.22 330.927C440.073 330.976 439.931 331.035 439.793 331.104L438.715 331.642C438.24 331.88 437.74 332.065 437.224 332.194L437.113 332.222C436.376 332.406 435.677 332.715 435.046 333.136L434.965 333.19C434.656 333.396 434.368 333.632 434.105 333.895L433.711 334.289C433.246 334.754 432.916 335.337 432.756 335.975L432.669 336.324C432.559 336.766 432.576 337.229 432.72 337.661C432.901 338.202 433.269 338.661 433.759 338.955L434.805 339.583C435.266 339.86 435.764 340.069 436.284 340.206L445 342.5L450.602 343.7C451.526 343.898 452.478 343.92 453.41 343.765L454.316 343.614C454.767 343.539 455.197 343.369 455.577 343.115L455.607 343.095C456.186 342.71 456.619 342.142 456.839 341.482C456.946 341.163 457 340.829 457 340.492V339.982C457 339.007 456.773 338.046 456.337 337.175L456 336.5L455 335L454.1 333.8C453.711 333.281 453.5 332.649 453.5 332C453.5 331.351 453.711 330.719 454.1 330.2L454.378 329.829C454.787 329.284 455.317 328.841 455.927 328.536L456.276 328.362C456.757 328.122 457.267 327.947 457.794 327.841L457.928 327.814C458.963 327.607 459.938 327.171 460.782 326.538L460.82 326.51C461.272 326.171 461.683 325.781 462.044 325.347L463.083 324.1C463.694 323.368 464.246 322.59 464.737 321.772L464.999 321.335C465.332 320.779 465.621 320.198 465.862 319.596C466.285 318.537 466.558 317.424 466.671 316.29L467 313C467 311.669 466.88 310.341 466.642 309.032L466.283 307.056C466.095 306.02 465.833 304.999 465.5 304L465.246 303.239C465.086 302.759 465.086 302.241 465.246 301.761C465.411 301.268 465.735 300.843 466.167 300.555L466.297 300.469C466.755 300.163 467.294 300 467.845 300H468.13C468.376 300 468.621 300.024 468.862 300.072L471 300.5L475 301.5L478.5 302C481.161 302.333 483.847 302.425 486.525 302.276L491.5 302L493.705 301.632C494.229 301.545 494.729 301.348 495.17 301.053C495.714 300.691 496.154 300.193 496.446 299.608L496.679 299.142C496.892 298.716 497.051 298.265 497.152 297.799L499.367 287.611C499.455 287.205 499.5 286.79 499.5 286.374V285.859C499.5 285.294 499.368 284.737 499.116 284.231C499.039 284.077 498.973 283.918 498.918 283.755L498.816 283.449C498.607 282.82 498.5 282.162 498.5 281.5V280.945C498.5 280.65 498.548 280.357 498.641 280.078C498.871 279.388 499.366 278.817 500.016 278.492L501 278L503 277L506.024 275.11C506.673 274.705 507.273 274.227 507.814 273.686L508.175 273.325C509.046 272.454 509.703 271.391 510.093 270.222C510.362 269.413 510.5 268.565 510.5 267.712V267C510.5 265.672 510.337 264.348 510.015 263.06L509.5 261L508.5 257L507.5 254L507.134 252.901C507.045 252.635 507 252.357 507 252.078C507 251.388 507.274 250.726 507.762 250.238L508.003 249.997C508.331 249.669 508.722 249.411 509.153 249.239L510.078 248.869C510.691 248.624 511.33 248.453 511.983 248.36L513.294 248.172C514.097 248.058 514.907 248 515.718 248H517.212C518.065 248 518.913 247.862 519.722 247.593L520.177 247.441C521.047 247.151 521.838 246.662 522.486 246.014C522.827 245.673 523.126 245.291 523.374 244.877L523.679 244.368C524.223 243.461 524.63 242.478 524.887 241.452L525.251 239.998C525.416 239.335 525.5 238.655 525.5 237.972V236.559C525.5 236.191 525.414 235.829 525.25 235.5C525.086 235.171 525 234.809 525 234.441V233.842C525 233.617 525.052 233.395 525.153 233.194C525.37 232.76 525.789 232.464 526.27 232.404L529.5 232L530.387 231.778C531.124 231.594 531.823 231.285 532.454 230.864C532.817 230.622 533.155 230.345 533.464 230.036L534 229.5L535.5 228L536.442 226.901C537.801 225.315 538.84 223.481 539.5 221.5L540.153 218.89C540.381 217.977 540.381 217.023 540.153 216.11L540.109 215.938C540.037 215.647 539.932 215.365 539.798 215.097C539.601 214.701 539.341 214.341 539.028 214.028L538.568 213.568C538.19 213.19 537.776 212.851 537.331 212.554L537.269 212.513C536.758 212.172 536.212 211.885 535.642 211.657L535.139 211.456C534.381 211.152 533.597 210.919 532.797 210.759C531.935 210.587 531.057 210.5 530.177 210.5H529H526.792C526.276 210.5 525.771 210.347 525.341 210.061C524.8 209.7 524.413 209.15 524.255 208.519L524 207.5L523.5 206L523.112 204.835C523.038 204.615 522.914 204.414 522.75 204.25C522.586 204.086 522.385 203.962 522.165 203.888L522.012 203.837C521.373 203.624 520.673 203.718 520.113 204.092L519.5 204.5L519.248 204.668C518.434 205.21 517.478 205.5 516.5 205.5H515.508C515.171 205.5 514.837 205.446 514.518 205.339C513.858 205.119 513.29 204.686 512.905 204.107L512.5 203.5L512.164 202.827C512.055 202.609 511.961 202.384 511.884 202.153L511.765 201.795C511.591 201.272 511.297 200.797 510.907 200.407L510.822 200.322C510.609 200.109 510.362 199.931 510.093 199.796L509.987 199.744C509.667 199.583 509.314 199.5 508.955 199.5C508.344 199.5 507.757 199.743 507.324 200.176L506.829 200.671C506.611 200.889 506.43 201.14 506.292 201.416L505.947 202.106C505.673 202.654 505.113 203 504.5 203H504.386C503.843 203 503.347 202.693 503.104 202.208C503.035 202.07 502.944 201.944 502.836 201.836L500.496 199.496C499.834 198.834 499.095 198.257 498.293 197.776C497.435 197.261 496.513 196.861 495.55 196.586L494.496 196.285C493.835 196.096 493.151 196 492.464 196H492.384C491.149 196 489.936 196.322 488.865 196.935C487.649 197.629 486.666 198.668 486.04 199.921L485.899 200.202C485.634 200.732 485.427 201.29 485.284 201.866L484.5 205L484.253 206.727C484.085 207.902 484.099 209.096 484.294 210.266C484.431 211.086 484.656 211.889 484.965 212.661L485.5 214L485.572 214.179C486.188 215.72 487.004 217.172 488 218.5L488.606 219.409C488.85 219.775 488.879 220.242 488.682 220.635C488.564 220.872 488.372 221.064 488.135 221.182L487.155 221.673C486.721 221.889 486.325 222.175 485.982 222.518L485.109 223.391C484.704 223.796 484.327 224.23 483.983 224.689L483 226C482.348 226.978 482 228.127 482 229.303V229.551C482 230.181 482.088 230.807 482.261 231.412L483 234L483.725 235.814C483.908 236.27 484.049 236.743 484.145 237.225L484.319 238.094C484.438 238.691 484.423 239.306 484.276 239.896L484.167 240.331C484.058 240.769 483.832 241.169 483.513 241.487C483.178 241.822 482.755 242.055 482.292 242.157L478.5 243L476.961 243.308C476.322 243.436 475.695 243.622 475.09 243.864C474.037 244.285 472.923 244.536 471.791 244.607L470.101 244.712C467.15 244.897 464.244 243.924 462 242L459.313 239.697C458.773 239.234 458.178 238.839 457.542 238.521C456.85 238.175 456.116 237.923 455.358 237.772L451.5 237L446.5 236.5H443L438.5 237L434.5 237.5C432.508 237.832 430.482 237.907 428.471 237.725L426 237.5H422.031C421.346 237.5 420.664 237.584 420 237.75C419.336 237.916 418.654 238 417.969 238H417.732C417.245 238 416.758 237.965 416.275 237.896L415.25 237.75C414.085 237.584 412.909 237.5 411.732 237.5H407.5H407.003C405.357 237.5 403.734 237.117 402.261 236.381L402.108 236.304C400.405 235.452 398.98 234.133 398 232.5L396.996 230.24C396.334 228.752 395.853 227.19 395.561 225.588L395.375 224.564C395.127 223.196 395.088 221.798 395.26 220.418C395.419 219.146 395.756 217.902 396.261 216.723L397 215C398.331 212.671 399.461 210.233 400.378 207.712L401 206L402 201.5L402.681 197.071C402.893 195.697 402.913 194.3 402.74 192.921L402.598 191.783C402.533 191.263 402.401 190.754 402.207 190.267C401.746 189.116 400.948 188.132 399.916 187.444L399.641 187.261C398.887 186.758 398.045 186.402 397.159 186.213L391.5 185L385.465 184.451C382.166 184.151 378.843 184.226 375.56 184.674L373.472 184.958C370.837 185.318 368.264 186.041 365.827 187.107L365.554 187.226C362.869 188.401 360.394 190.005 358.226 191.977L357.873 192.297C356.628 193.429 355.513 194.696 354.548 196.074L354.495 196.151C353.173 198.039 352.155 200.122 351.477 202.324C350.829 204.43 350.5 206.62 350.5 208.823V209.563C350.5 211.184 350.646 212.802 350.936 214.397L351.412 217.019C351.471 217.339 351.552 217.655 351.655 217.964L352.7 221.1C352.884 221.651 352.74 222.26 352.329 222.671C352.114 222.886 351.841 223.032 351.544 223.091L350.612 223.278C349.881 223.424 349.126 223.393 348.41 223.189L347.165 222.833C346.391 222.612 345.647 222.298 344.948 221.899L344.25 221.5C343.088 220.836 341.845 220.313 340.558 219.945C339.524 219.65 338.461 219.454 337.389 219.362L321.5 218H320.862C320.011 218 319.217 218.425 318.745 219.133C318.583 219.376 318.464 219.645 318.393 219.928L318 221.5L317 229L316.582 231.507C316.535 231.791 316.289 232 316 232L311.5 231.5H310.559C310.191 231.5 309.829 231.586 309.5 231.75C309.171 231.914 308.809 232 308.441 232H308.024C307.048 232 306.112 231.612 305.422 230.922C305.143 230.643 304.91 230.32 304.733 229.966L304.593 229.685C304.203 228.906 304 228.046 304 227.175V225.445C304 225.15 303.952 224.857 303.859 224.578L303.802 224.405C303.609 223.826 303.193 223.346 302.646 223.073C302.549 223.024 302.448 222.983 302.345 222.948L302.008 222.836C301.34 222.613 300.642 222.488 299.938 222.466L285.5 222H282.859C282.294 222 281.737 222.132 281.231 222.384C281.077 222.461 280.918 222.527 280.755 222.582L280.706 222.598C279.918 222.861 279.072 222.893 278.267 222.692L277.5 222.5L273.823 221.887C272.277 221.63 270.712 221.5 269.145 221.5C267.385 221.5 265.63 221.663 263.9 221.987L260.747 222.579C259.256 222.858 257.812 223.344 256.455 224.022L254.956 224.772C254.653 224.923 254.332 225.034 254 225.1L252.782 225.344C252.293 225.441 251.788 225.288 251.436 224.936C251.157 224.657 251 224.278 251 223.883V222.704C251 222.238 251.075 221.775 251.223 221.332L251.908 219.277C252.301 218.096 252.569 216.876 252.707 215.638L253 213V211V210.118C253 209.383 252.829 208.658 252.5 208C252.203 207.406 251.553 207.075 250.897 207.184L249 207.5L245 208.5L243.245 209.202C242.749 209.4 242.237 209.553 241.713 209.657L240.859 209.828C240.292 209.942 239.708 209.942 239.141 209.828L239.038 209.808C238.048 209.61 237.165 209.053 236.559 208.245C236.191 207.755 235.938 207.188 235.817 206.587L235.5 205L235.08 202.478C235.03 202.178 235.128 201.872 235.343 201.657C235.446 201.554 235.572 201.476 235.711 201.43L237 201L237.177 200.941C238.047 200.651 238.838 200.162 239.486 199.514C239.827 199.173 240.126 198.791 240.374 198.377L240.59 198.017C241.191 197.015 241.599 195.908 241.791 194.755L241.868 194.293C241.956 193.765 242 193.231 242 192.696C242 191.902 241.903 191.11 241.71 190.34L241.5 189.5L241.327 188.809C241.112 187.947 241.09 187.048 241.265 186.177C241.42 185.4 241.42 184.6 241.265 183.823L241.201 183.503C241.067 182.837 240.846 182.192 240.543 181.585L240.309 181.118C239.777 180.054 239.005 179.128 238.053 178.415C237.685 178.139 237.293 177.897 236.882 177.691L235.023 176.762C234.675 176.588 234.31 176.452 233.932 176.358L233.27 176.192C232.766 176.067 232.306 175.806 231.939 175.439C231.65 175.15 231.302 174.926 230.919 174.782L227.5 173.5C226.523 173.174 225.47 173.151 224.48 173.434L223.283 173.776C222.762 173.925 222.256 174.122 221.772 174.364L221.273 174.614C220.761 174.87 220.294 175.206 219.889 175.611L219.336 176.164C219.115 176.385 218.949 176.654 218.85 176.951C218.632 177.604 218.095 178.101 217.427 178.268L216.833 178.417C216.612 178.472 216.397 178.552 216.193 178.654L216.097 178.702C215.701 178.899 215.341 179.159 215.028 179.472L213.925 180.575C213.642 180.858 213.388 181.168 213.166 181.5C212.726 182.16 212.42 182.9 212.264 183.678L212.167 184.166C212.056 184.721 212 185.285 212 185.85V186.416C212 187.137 212.071 187.856 212.213 188.563L212.446 189.732C212.482 189.91 212.541 190.082 212.622 190.244C212.864 190.728 212.904 191.288 212.733 191.802L212.641 192.078C212.548 192.357 212.5 192.65 212.5 192.945V193.637C212.5 194.21 212.57 194.781 212.709 195.337L212.764 195.557C212.921 196.184 213.146 196.791 213.435 197.369L214 198.5L214.556 199.427C215.179 200.466 215.998 201.374 216.968 202.101L217.177 202.258C217.392 202.419 217.595 202.595 217.785 202.785C218.577 203.577 219.117 204.586 219.337 205.685L219.377 205.884C219.459 206.294 219.5 206.71 219.5 207.128V208.366C219.5 208.787 219.448 209.207 219.346 209.615L219.206 210.175C219.071 210.715 218.792 211.208 218.399 211.601C217.823 212.177 217.043 212.5 216.229 212.5H216L210.5 212H208.5H207.809C207.313 212 206.86 212.28 206.638 212.724C206.547 212.905 206.5 213.106 206.5 213.309V214.706C206.5 215.234 206.558 215.76 206.672 216.275L206.971 217.621C207.322 219.201 207.866 220.732 208.59 222.18L209.5 224L210.5 226L211.103 226.905C211.367 227.3 211.576 227.728 211.726 228.178C211.908 228.723 212 229.293 212 229.866V230.5C212 231.081 211.59 231.582 211.019 231.696L209.769 231.946C209.59 231.982 209.408 232 209.225 232H203.5L199 232.5L194.5 233.5L191.5 234.5L189.5 235L182 236L179.21 236.399C178.743 236.465 178.296 236.636 177.903 236.898L177.811 236.959C177.285 237.31 176.892 237.825 176.692 238.425C176.565 238.804 176.52 239.206 176.56 239.603Z" fill="#00B00C" stroke="#00B00C" stroke-width="20"/>
<path d="M239.542 258.016L240.01 261.15C240.803 266.467 242.676 270.555 247.107 273.582C247.748 273.972 248.839 274.779 248.995 275.824C249.08 276.394 248.88 277.006 248.286 277.58C248.315 277.77 239.921 285.914 239.921 285.914C239.085 286.816 238.178 287.242 237.324 287.37C235.615 287.625 219.672 284.861 217.149 267.96L216.667 264.732C215.178 254.762 209.712 251.307 202.724 251.962L206.066 286.698C206.208 287.647 205.481 288.629 204.531 288.771L204.341 288.799L185.21 290.685C184.056 290.76 183.169 290.019 182.999 288.88L178.192 239.124C178.131 238.065 178.858 237.083 179.807 236.942L179.997 236.913L190.716 235.895C194.306 234.583 197.762 233.679 201.18 233.168C220.455 230.291 236.835 239.881 239.542 258.016Z" fill="#0EF9FD"/>
<path d="M309.466 263.224L304.518 275.302C303.795 277.002 302.912 277.944 301.668 278.049C300.712 278.131 293.886 277.169 288.721 273.079C283.966 276.084 278.899 277.671 274.02 278.085C258.046 279.442 243.231 268.368 241.923 252.967C240.949 241.489 247.674 224.25 266.614 222.641C271.396 222.235 276.173 222.889 280.042 224.198C280.559 223.48 281.395 223.12 282.543 223.022L283.021 222.982L299.692 223.011C302.195 222.991 302.97 224.178 303.068 225.326L303.108 225.804C302.508 234.623 301.876 243.058 302.412 249.372C302.9 255.111 304.301 259.135 307.5 260.501C308.497 260.898 309.598 261.383 309.68 262.339C309.696 262.53 309.624 262.826 309.466 263.224ZM280.846 258.622C280.347 256.159 279.929 253.497 279.677 250.532C279.465 248.045 279.342 245.454 279.289 242.568C277.979 240.752 275.283 239.632 272.509 239.868C266.482 240.38 263.63 246.499 264.044 251.378C264.499 256.734 268.62 261.009 274.837 260.481C276.655 260.327 278.727 259.765 280.846 258.622Z" fill="#0EF9FD"/>
<path d="M344.54 275.801L338.778 287.55C337.894 289.321 336.97 290.223 335.533 290.13C335.246 290.112 334.958 290.093 334.677 289.979C319.451 285.916 314.631 277.139 315.719 252.871L308.559 252.023C307.511 251.859 306.711 250.846 306.779 249.792L308.956 233.963C309.12 232.916 310.038 232.109 311.188 232.183L317.294 232.963C317.721 229.335 318.167 225.419 318.72 221.319C318.89 220.175 319.2 218.367 321.69 218.528L322.074 218.553L340.124 220.586C341.746 220.787 342.451 221.794 342.346 223.423C341.894 227.434 341.334 231.631 340.787 235.636L347.372 236.446C348.426 236.514 349.226 237.528 349.152 238.677L346.975 254.506C346.817 255.458 345.995 256.27 344.941 256.202L344.749 256.19L338.445 255.494C337.882 264.212 338.604 270.896 342.702 272.989C343.724 273.536 344.849 273.994 344.781 275.047C344.769 275.239 344.654 275.52 344.54 275.801Z" fill="#0EF9FD"/>
<path d="M411.554 292.655L392.715 292.147C388.151 293.72 383.663 294.619 379.441 294.742C366.103 295.13 355.522 287.947 354.139 270.124C353.669 263.895 353.131 252.001 352.856 245.863C352.742 241.928 354.063 241.122 355.212 240.992C355.302 240.797 370.145 239.309 371.776 239.262C373.696 239.206 374.491 240.143 374.621 241.292C375.383 247.704 375.726 252.881 376.634 264.283C377.258 272.524 380.221 275.319 384.251 275.202C386.17 275.146 388.454 274.407 390.819 273.186L391.586 240.126C391.648 238.972 392.586 238.176 393.641 238.145L412.768 238.645C413.919 238.612 414.715 239.549 414.748 240.7L413.609 290.675C413.547 291.829 412.61 292.625 411.554 292.655Z" fill="#0EF9FD"/>
<path d="M438.634 293.243L419.509 292.669C418.361 292.571 417.47 291.724 417.568 290.577L419.137 240.609C419.235 239.461 420.178 238.578 421.23 238.668L432.375 239.042C437.679 237.857 442.718 237.516 447.501 237.924C450.753 238.202 453.877 238.854 456.785 239.777C458.187 240.282 458.695 241.096 458.597 242.244C458.565 242.627 458.436 243.001 458.3 243.471L454.374 256.721C453.973 258.036 452.959 258.624 451.811 258.526C451.524 258.501 451.15 258.373 450.776 258.245C449.286 257.636 447.684 257.21 446.058 257.071C444.719 256.957 443.364 257.034 441.801 257.286L440.727 291.302L440.71 291.493C440.62 292.545 439.686 293.332 438.634 293.243Z" fill="#0EF9FD"/>
<path d="M491.492 300.69L490.351 300.846C468.758 303.786 455.906 290.519 453.937 276.06C452.085 262.458 459.75 246.881 481.437 243.928C505.028 240.716 508.937 261.595 509.364 264.734C509.96 269.11 508.645 272.971 503.292 275.637C499.028 277.768 492.132 279.773 487.211 280.637C485.689 280.844 485.123 280.243 484.587 279.153C483.018 276.17 480.369 270.233 480.317 269.852C480.175 268.806 480.871 268.227 482.069 267.773C486.859 265.958 487.499 265.677 487.318 264.345C487.201 263.489 484.98 260.691 480.985 261.235C476.419 261.857 473.158 266.37 473.961 272.268C474.881 279.022 480.863 285.958 492.753 284.339C493.419 284.248 494.18 284.144 494.833 283.959L495.023 283.933C496.355 283.751 498.089 284.387 498.309 286.004C498.438 286.956 496.846 293.761 495.86 297.189C495.306 298.815 494.251 300.315 491.492 300.69Z" fill="#0EF9FD"/>
<path d="M356.401 233C360.167 219.29 361.422 211.811 376.486 205.579M357.528 223.051C345.739 200.189 364.788 182.361 395.453 189.656C397.616 190.171 399.103 192.142 398.994 194.348C398.043 213.775 389.125 224.786 361.755 225.486C359.992 225.531 358.332 224.61 357.528 223.051Z" stroke="#0EF9FD" stroke-width="6" stroke-linecap="round" stroke-linejoin="round"/>
<path d="M234.993 200.687C237.513 200.023 239.615 198.17 240.624 195.655C241.63 193.151 241.409 190.293 240.111 187.969C240.815 185.402 240.345 182.574 238.769 180.384C237.181 178.18 234.699 176.9 232.11 176.859C230.296 174.904 227.68 173.891 225.04 174.212C222.399 174.533 220.102 176.142 218.807 178.476C216.303 179.136 214.197 180.97 213.186 183.492C212.182 185.996 212.402 188.855 213.7 191.178C212.997 193.745 213.468 196.573 215.042 198.764C216.625 200.963 219.11 202.26 221.714 202.301C222.865 203.536 224.338 204.39 225.934 204.77L229.048 230.407L234.601 229.733L231.487 204.094C232.945 203.343 234.172 202.161 234.993 200.687ZM226.227 183.987C229.294 183.615 232.084 185.814 232.458 188.898C232.833 191.983 230.651 194.786 227.584 195.159C224.518 195.531 221.727 193.332 221.353 190.247C220.978 187.163 223.161 184.36 226.227 183.987Z" fill="#0EF9FD"/>
<path d="M237.554 214.09C235.051 217.305 235.615 221.953 238.815 224.475C242.015 226.997 246.636 226.436 249.139 223.221C253.671 217.401 251.761 207.848 251.761 207.848C251.761 207.848 242.084 208.27 237.554 214.09Z" fill="#0EF9FD"/>
<path d="M207.159 213.362C207.159 213.362 207.593 223.095 213.385 227.66C216.585 230.182 221.206 229.621 223.709 226.406C226.212 223.192 225.648 218.543 222.448 216.021C216.656 211.456 207.159 213.362 207.159 213.362Z" fill="#0EF9FD"/>
<path d="M510.109 214.107C509.997 214.638 510.426 215.09 510.849 214.542C511.27 213.993 511.002 212.591 509.943 209.952C509.04 207.699 507.767 204.563 509.436 203.753C511.316 203.268 511.351 201.22 510.117 200.568C509.012 199.986 507.386 201.15 507.116 203.98C506.845 206.806 510.433 212.588 510.109 214.107Z" fill="#0EF9FD"/>
<path d="M534.472 211.907C526.823 209.105 514.582 215.094 512.365 216.755C512.168 216.149 511.714 215.633 511.071 215.397C510.426 215.161 509.746 215.262 509.205 215.597C508.586 212.895 503.111 200.416 495.463 197.614C487.572 194.722 485.619 202.048 485.092 206.973C484.565 211.9 487.407 218.606 492.499 220.655C485.758 221.109 482.854 227.54 483.504 231.249C484.121 234.768 490.646 244.592 502.567 232.371L501.47 235.366C501.062 236.477 501.634 237.71 502.746 238.118C503.857 238.525 505.089 237.953 505.496 236.841L506.594 233.845C507.797 250.877 519.126 247.595 521.869 245.307C524.762 242.895 526.7 236.11 521.847 231.409C527.06 233.135 533.56 229.852 536.341 225.751C539.121 221.652 542.364 214.799 534.472 211.907Z" fill="#0EF9FD"/>
<path d="M512.637 215.033C513.371 213.665 519.846 211.569 521.467 209.238C523.087 206.903 522.598 204.964 521.378 204.694C520.015 204.395 518.721 205.981 519.84 207.566C520.591 209.262 517.593 210.833 515.449 211.969C512.936 213.299 511.824 214.196 511.791 214.887C511.76 215.579 512.38 215.511 512.637 215.033Z" fill="#0EF9FD"/>
<path d="M250.824 285.347L251.419 287.661M260.925 324.682L261.519 326.996M237.661 310.925L235.347 311.519M239.637 296.394L237.27 294.993M265.95 289.637L267.35 287.27M246.396 322.715L244.994 325.073M272.708 315.959L275.073 317.35M276.996 300.824L274.682 301.419M265.427 303.795C266.739 308.907 263.66 314.114 258.548 315.427C253.436 316.739 248.229 313.66 246.916 308.548C245.604 303.436 248.684 298.229 253.795 296.916C258.907 295.604 264.114 298.684 265.427 303.795Z" stroke="#0EF9FD" stroke-width="7" stroke-linecap="round" stroke-linejoin="round"/>
<path d="M363.888 313.494C364.638 316.144 364.326 318.977 363.021 321.37C362.28 322.728 361.253 323.882 360.03 324.76M370.599 312.315C366.572 298.075 348.22 291.304 348.22 291.304C348.22 291.304 336.132 306.684 340.159 320.923C341.346 325.119 344.087 328.691 347.781 330.851C351.474 333.01 355.817 333.581 359.853 332.439C363.89 331.298 367.29 328.537 369.305 324.763C371.32 320.988 371.786 316.511 370.599 312.315Z" stroke="#0EF9FD" stroke-width="5" stroke-linecap="round" stroke-linejoin="round"/>
<path d="M445.947 326.725L443.883 335.334L437.692 333.849C437.144 333.717 436.566 333.815 436.084 334.119C435.601 334.424 435.255 334.91 435.12 335.472C434.985 336.034 435.074 336.625 435.365 337.115C435.657 337.605 436.128 337.954 436.676 338.085L453.186 342.044C453.733 342.176 454.311 342.078 454.794 341.774C455.276 341.47 455.623 340.983 455.757 340.421C455.892 339.86 455.804 339.269 455.512 338.779C455.22 338.289 454.749 337.939 454.202 337.808L448.01 336.323L450.075 327.715C455.39 328.304 463.364 326.904 465.473 318.112C468.796 304.253 457.461 294.326 456.976 293.909C456.724 293.694 456.427 293.541 456.107 293.465C455.786 293.388 455.452 293.389 455.131 293.467C454.509 293.618 439.904 297.323 436.58 311.182C434.472 319.975 440.944 324.84 445.947 326.725ZM455.013 298.024C457.29 300.362 463.57 307.844 461.345 317.122C459.892 323.182 454.24 323.645 451.109 323.403L451.864 320.255L458.826 315.861C459.297 315.552 459.634 315.067 459.762 314.51C459.891 313.954 459.801 313.37 459.513 312.886C459.224 312.401 458.76 312.054 458.22 311.92C457.68 311.785 457.108 311.874 456.626 312.166L453.301 314.265L454.614 308.788C454.749 308.226 454.661 307.635 454.369 307.145C454.077 306.655 453.606 306.306 453.059 306.174C452.511 306.043 451.933 306.14 451.45 306.445C450.968 306.749 450.622 307.236 450.487 307.798L449.173 313.275L447.162 309.896C446.865 309.417 446.395 309.079 445.853 308.954C445.31 308.829 444.739 308.927 444.262 309.228C443.786 309.529 443.441 310.009 443.303 310.563C443.165 311.117 443.245 311.702 443.525 312.192L447.737 319.265L446.975 322.442C444.076 321.232 439.245 318.273 440.708 312.172C442.933 302.895 451.922 299.083 455.013 298.024Z" fill="#0EF9FD"/>
</svg>
