<svg xmlns="http://www.w3.org/2000/svg" width="700" height="500" fill="none" viewBox="0 0 700 500"><path fill="#FFEA00" stroke="#FFEA00" stroke-width="20" d="M288.029 200.794L287 201L285 201.5C283.345 202.162 281.815 203.1 280.474 204.273L279.197 205.39C278.733 205.796 278.306 206.242 277.921 206.723C276.985 207.894 276.312 209.253 275.948 210.707L275.861 211.057C275.621 212.016 275.5 212.999 275.5 213.987V214.717C275.5 215.903 275.617 217.086 275.85 218.249L276 219L276.684 221.051C276.893 221.68 277 222.338 277 223C277 223.662 276.893 224.32 276.684 224.949L276 227L275 231L269 268.5L267.582 274.737C266.863 277.905 265.819 281.032 264.5 284L264.399 284.201C263.82 285.36 262.836 286.266 261.633 286.747C261.213 286.915 260.773 287.028 260.324 287.085L257 287.5H256.021C255.009 287.5 253.998 287.416 253 287.25L251.829 287.055C251.61 287.018 251.389 287 251.167 287H250.486C249.855 287 249.249 287.251 248.803 287.697C248.602 287.898 248.44 288.132 248.322 288.389L243.19 299.586C243.065 299.859 243 300.155 243 300.456C243 301.113 243.309 301.732 243.835 302.127L244.694 302.771C244.898 302.923 245.114 303.057 245.342 303.171L249 305L250.586 305.705C252.522 306.565 254.584 307.197 256.669 307.576C258.205 307.855 259.785 308 261.346 308C262.78 308 264.211 307.882 265.624 307.646L269.5 307L271.046 306.613C271.348 306.538 271.657 306.5 271.968 306.5H272.684C273.506 306.5 274.274 306.911 274.73 307.595C274.908 307.862 275.032 308.162 275.095 308.477L275.5 310.5L275.847 315.014C275.949 316.336 276.144 317.65 276.432 318.945C276.81 320.645 277.345 322.305 278.031 323.906L278.5 325L278.588 325.146C279.526 326.709 280.652 328.152 281.941 329.441L282.524 330.024C283.833 331.333 285.344 332.422 287 333.25L287.661 333.581C288.879 334.19 290.187 334.598 291.535 334.791C292.508 334.93 293.495 334.955 294.474 334.866L298.5 334.5L300.965 334.007C302.649 333.67 304.288 333.136 305.847 332.417L307.243 331.772C309.061 330.933 310.687 329.727 312.017 328.231C313.325 326.759 314.321 325.037 314.944 323.169L315.319 322.043C315.772 320.685 316.08 319.283 316.238 317.86L316.244 317.804C316.414 316.273 316.414 314.727 316.244 313.196L316 311L315.816 309.714C315.61 308.272 315.849 306.802 316.5 305.5L316.964 304.727C317.649 303.585 318.533 302.574 319.573 301.742L319.959 301.433C320.319 301.145 320.708 300.896 321.12 300.69C322.027 300.236 323.028 300 324.043 300H325L328.141 300.224C330.71 300.408 333.289 300.393 335.856 300.179L338 300C340.329 299.667 342.623 299.126 344.854 298.382L346 298L348.746 296.752C350.577 295.92 352.311 294.891 353.92 293.685C354.972 292.896 355.967 292.033 356.896 291.104L359.5 288.5L361.356 286.644C361.783 286.217 362.275 285.862 362.815 285.593C363.594 285.203 364.454 285 365.325 285H366.389C367.127 285 367.864 285.081 368.584 285.241L369.7 285.489C371.22 285.827 372.665 286.443 373.961 287.307C374.652 287.768 375.296 288.296 375.883 288.883L376.375 289.375C377.449 290.449 378.316 291.712 378.933 293.1C379.637 294.682 380 296.395 380 298.126V299.5V303V305.095C380 305.693 380.114 306.285 380.336 306.841L380.398 306.996C380.786 307.965 381.516 308.758 382.449 309.225C382.815 309.407 383.204 309.536 383.606 309.608L397 312L399.939 312.327C400.95 312.439 401.892 312.892 402.61 313.61C402.869 313.869 403.095 314.159 403.284 314.473L403.945 315.575C404.314 316.191 404.634 316.835 404.901 317.502C405.299 318.497 405.577 319.536 405.728 320.598L406 322.5L406.5 326.5L407 329C407.662 330.987 408.641 332.854 409.897 334.53L411 336L413.5 339C414.495 339.995 415.624 340.847 416.854 341.53L417.065 341.647C418.678 342.543 420.426 343.168 422.24 343.498L425 344L429 344.5H432.5L433.158 344.427C435.703 344.144 438.188 343.46 440.519 342.401C441.837 341.801 443.099 341.085 444.289 340.261L447.518 338.026C448.497 337.348 449.339 336.491 450 335.5C450.997 333.506 451.773 331.409 452.313 329.246L452.5 328.5L453 324V320C453 317.674 452.745 315.354 452.241 313.083L452 312L450.5 308C449.509 306.019 448.143 304.25 446.476 302.791L446.276 302.617C445.428 301.874 444.507 301.218 443.528 300.659C442.182 299.89 440.738 299.309 439.234 298.934L437.5 298.5L432 297.5L427.5 297C425.228 297 423.018 297.737 421.2 299.1L420 300L417.958 301.634C417.653 301.877 417.324 302.088 416.975 302.262L415.806 302.847C414.984 303.258 414.016 303.258 413.194 302.847C412.739 302.62 412.352 302.278 412.07 301.855L412.033 301.799C411.685 301.278 411.5 300.666 411.5 300.04V299.543C411.5 298.856 411.647 298.176 411.931 297.551L414 293L419 282L429 258.5L432.5 249L436 236L436.355 233.872C436.451 233.297 436.427 232.708 436.286 232.142L436.197 231.788C436.068 231.272 435.801 230.801 435.426 230.426C435.145 230.145 434.81 229.924 434.441 229.776L433.208 229.283C432.737 229.095 432.251 228.945 431.756 228.835L428 228L426.5 227.5L426.44 227.48C425.503 227.168 424.682 226.576 424.089 225.785C423.7 225.267 423.419 224.676 423.262 224.048L423.189 223.757C423.064 223.254 423 222.738 423 222.22V222.096C423 221.372 423.138 220.655 423.407 219.982C423.795 219.013 424.442 218.169 425.277 217.542L426 217L428.03 215.477C429.339 214.496 430.755 213.665 432.25 213C433.745 212.335 435.161 211.504 436.47 210.523L438.775 208.794C439.917 207.938 440.904 206.893 441.696 205.706C442.23 204.905 442.671 204.045 443.009 203.143L443.242 202.523C443.745 201.179 444.09 199.781 444.268 198.357L444.5 196.5C444.5 194.506 444.274 192.519 443.825 190.577L443.207 187.898C443.069 187.3 442.879 186.717 442.637 186.153C441.893 184.418 440.687 182.92 439.151 181.822L438 181L433.5 178L429.5 175.5L426 173.5L424.241 172.718C422.434 171.915 420.478 171.5 418.5 171.5C415.841 171.5 413.191 171.791 410.595 172.368L410 172.5L406 174L402.5 175.5L401.75 175.875C400.919 176.291 400.126 176.781 399.382 177.339L399.066 177.576C398.689 177.858 398.333 178.167 398 178.5L397.811 178.689C397.604 178.896 397.412 179.117 397.236 179.351L396.807 179.924C396.283 180.622 396 181.479 396 182.352C396 182.779 396.069 183.206 396.204 183.611C396.399 184.196 396.727 184.727 397.163 185.163L397.5 185.5C397.829 185.829 398.077 186.23 398.224 186.671L398.304 186.911C398.434 187.301 398.5 187.71 398.5 188.121C398.5 188.373 398.475 188.624 398.426 188.872L398 191L397.5 193.5L396 204L394.111 222.888C394.039 223.614 394.173 224.347 394.5 225L395.05 226.099C395.338 226.676 395.385 227.344 395.182 227.955C395.062 228.314 394.861 228.639 394.594 228.906L394.465 229.035C394.158 229.342 393.792 229.583 393.389 229.744L392.71 230.016C391.911 230.336 391.058 230.5 390.197 230.5H388.5H388.458C387.504 230.5 386.568 230.241 385.75 229.75L385.581 229.649C384.874 229.224 384.064 229 383.239 229C382.749 229 382.263 229.079 381.799 229.234L381.521 229.326C381.174 229.442 380.838 229.587 380.517 229.76L368 236.5L366.508 237.395C365.839 237.797 365.221 238.279 364.669 238.831C364.224 239.276 363.824 239.764 363.475 240.287L363 241L362.594 241.811C362.214 242.572 361.546 243.151 360.739 243.42C360.58 243.473 360.417 243.514 360.252 243.541L358.067 243.905C357.69 243.968 357.308 244 356.925 244C355.665 244 354.429 243.658 353.349 243.01L352.5 242.5C350.838 241.503 349.073 240.691 347.234 240.078L347 240L342.5 239L339.344 238.549C339.115 238.516 338.884 238.5 338.653 238.5H337.964C337.659 238.5 337.358 238.429 337.085 238.293C336.705 238.103 336.397 237.795 336.207 237.415L336 237L335.941 236.882C335.651 236.302 335.5 235.662 335.5 235.014C335.5 234.673 335.542 234.332 335.625 234.001L336 232.5L337 230L337.443 228.893C337.811 227.973 338 226.991 338 226V225.351C338 224.486 337.656 223.656 337.045 223.045C336.686 222.686 336.25 222.417 335.769 222.256L335.374 222.125C335.125 222.042 334.87 221.978 334.611 221.935L332 221.5L330.865 221.216C330.299 221.075 329.782 220.782 329.369 220.369L329.322 220.322C329.109 220.109 328.931 219.862 328.796 219.593C328.601 219.203 328.5 218.773 328.5 218.337V218.059C328.5 217.691 328.586 217.329 328.75 217C328.914 216.671 329.153 216.385 329.447 216.165L330.117 215.662C330.701 215.224 331.198 214.683 331.585 214.064L332.736 212.223C333.244 211.409 333.685 210.555 334.055 209.669L334.633 208.28C335.542 206.099 336.233 203.833 336.697 201.515L337.5 197.5L337.779 193.308C337.926 191.11 337.817 188.902 337.455 186.729L337.273 185.641C337.092 184.549 336.804 183.478 336.416 182.443C335.809 180.824 334.96 179.306 333.898 177.941L333.125 176.946C332.377 175.984 331.534 175.101 330.609 174.308L330.398 174.127C329.14 173.048 327.725 172.168 326.203 171.515C325.402 171.172 324.575 170.894 323.731 170.683L323 170.5L322.951 170.49C321.321 170.164 319.663 170 318 170L315.044 170.328C314.017 170.443 313.006 170.665 312.027 170.991C311.012 171.329 310.037 171.778 309.12 172.328L308.604 172.638C306.551 173.869 304.734 175.457 303.239 177.327L302.356 178.43C301.786 179.142 301.273 179.898 300.82 180.69C299.945 182.221 299.305 183.876 298.923 185.598L298.705 186.58C298.569 187.191 298.5 187.816 298.5 188.443C298.5 189.145 298.586 189.844 298.756 190.526L299.5 193.5L300.5 197L300.917 198.667C300.972 198.888 301 199.115 301 199.344V199.653C301 200.195 300.784 200.716 300.401 201.099C300.139 201.361 299.81 201.548 299.45 201.637L299.025 201.744C298.356 201.911 297.652 201.884 296.998 201.666L296.5 201.5L295 201L293.971 200.794C292.993 200.599 291.998 200.5 291 200.5C290.002 200.5 289.007 200.599 288.029 200.794Z"/><path fill="#000" d="M245.174 298.544L248.927 289.908C249.47 288.62 250.896 288.019 251.944 288.146L252.326 288.192C252.981 288.368 253.648 288.449 254.22 288.518C259.939 289.21 265.015 287.214 266.712 282.778C269.87 274.263 274.074 249.92 276.329 232.884C276.689 230.703 277.879 230.46 279.023 230.599C279.118 230.61 295.144 233.227 297.229 233.576C298.731 233.951 299.462 235.103 299.3 236.437C299.22 237.104 293.104 274.851 288.561 288.42C283.322 303.741 270.656 307.72 259.41 306.359C254.454 305.759 249.721 304.123 246.021 301.934C245.03 301.331 244.883 300.153 244.987 299.295C245.021 299.009 245.056 298.723 245.174 298.544ZM304.631 217.162C303.696 224.882 296.645 230.411 288.925 229.476C281.11 228.531 275.582 221.479 276.516 213.76C277.462 205.945 284.513 200.416 292.328 201.362C300.048 202.296 305.577 209.347 304.631 217.162Z"/><path fill="#000" d="M364.827 258.143C371.452 275.652 357.377 292.166 344.628 296.99C329.992 302.528 313.144 296.791 307.164 280.988C300.166 262.492 310.358 247.653 326.16 241.674C346.003 234.165 360.411 246.471 364.827 258.143ZM340.293 279.025C346.668 276.613 347.571 270.318 345.635 265.2C344.989 263.494 341.334 254.921 332.176 258.386C324.634 261.24 324.891 268.43 326.42 272.471C328.764 278.666 335.176 280.962 340.293 279.025Z"/><path fill="#000" d="M399.622 311.18L384.896 308.768C383.368 308.499 382.553 307.885 382.357 306.946C382.219 306.288 382.363 305.571 382.696 304.815L392.867 279.834C392.526 279.612 392.24 279.181 391.84 278.676L365.952 242.606C365.533 242.007 365.227 241.482 365.128 241.013C364.853 239.697 365.804 238.615 367.135 237.945L381.151 230.402C381.507 230.23 381.863 230.057 382.239 229.978C383.931 229.624 385.408 230.59 386.4 232.05L402.87 254.987C406.665 245.464 410.271 235.981 413.361 227.782C413.728 226.724 414.268 226.023 415.302 225.807C415.865 225.689 416.75 225.7 417.808 226.067L433.323 230.373C434.568 230.701 435.27 231.24 435.447 232.086C435.742 233.495 432.631 254.253 403.971 308.995C403.247 310.225 402.519 310.966 401.392 311.201C400.922 311.3 400.339 311.324 399.622 311.18Z"/><path fill="#000" d="M287.723 306.251C287.386 307.583 288.204 308.955 289.535 309.292C290.867 309.629 292.239 308.812 292.576 307.48C292.913 306.149 292.096 304.777 290.764 304.44C289.433 304.102 288.061 304.92 287.723 306.251ZM293.464 324.361C301.394 326.369 304.872 319.599 304.872 319.599L285.699 314.743C285.699 314.743 285.535 322.353 293.464 324.361Z"/><path fill="#000" d="M291.404 332.498C281.255 329.928 275.098 319.552 277.668 309.404C280.238 299.255 290.584 293.091 300.733 295.661C310.882 298.231 317.076 308.584 314.498 318.762C311.92 328.941 301.552 335.068 291.404 332.498ZM300.231 297.643C291.177 295.35 281.944 300.852 279.651 309.906C277.358 318.96 282.859 328.193 291.913 330.486C300.967 332.779 310.2 327.277 312.493 318.223C314.786 309.169 309.285 299.936 300.231 297.643Z"/><path fill="#000" d="M302.281 309.938C301.944 311.269 302.761 312.641 304.092 312.979C305.424 313.316 306.796 312.498 307.133 311.167C307.47 309.835 306.653 308.463 305.321 308.126C303.99 307.789 302.618 308.607 302.281 309.938Z"/><path fill="#000" d="M397.378 212.955L398.867 213.131L398.867 213.131L397.378 212.955ZM399.008 199.222L397.518 199.045L397.518 199.045L399.008 199.222ZM402.28 188.878L401.649 187.518L401.649 187.518L402.28 188.878ZM412.212 193.094L411.375 194.339L411.375 194.339L412.212 193.094ZM422.428 199.959L423.265 198.714L423.264 198.714L422.428 199.959ZM430.126 207.59L428.626 207.546L428.626 207.546L430.126 207.59ZM421.998 214.671L422.751 215.969L422.751 215.969L421.998 214.671ZM410.152 221.539L410.904 222.836L410.904 222.836L410.152 221.539ZM418.034 216.08C418.443 216.8 419.359 217.052 420.079 216.643C420.799 216.233 421.051 215.317 420.641 214.597L418.034 216.08ZM416.925 196.257C417.022 195.434 416.434 194.688 415.611 194.591C414.789 194.495 414.043 195.083 413.946 195.906L416.925 196.257ZM408.095 220.966C408.437 221.721 409.326 222.055 410.081 221.713C410.835 221.371 411.169 220.482 410.827 219.727L408.095 220.966ZM405.218 209.178L406.666 208.786L406.666 208.786L405.218 209.178ZM404.718 189.537C404.72 188.709 404.049 188.036 403.22 188.035C402.392 188.034 401.72 188.705 401.718 189.533L404.718 189.537ZM419.251 193.007C419.255 193.835 419.93 194.503 420.758 194.499C421.587 194.495 422.255 193.82 422.251 192.992L419.251 193.007ZM420.742 191.097L422.242 191.09L422.242 191.09L420.742 191.097ZM423.385 186.451L422.632 185.154L422.632 185.154L423.385 186.451ZM426.028 181.805L427.528 181.798L427.528 181.798L426.028 181.805ZM427.518 179.896C427.514 179.068 426.84 178.399 426.011 178.403C425.183 178.407 424.514 179.082 424.518 179.911L427.518 179.896ZM430.584 198.272C429.8 198.004 428.947 198.423 428.68 199.207C428.412 199.991 428.831 200.844 429.615 201.111L430.584 198.272ZM430.697 199.896L431.181 198.476L431.181 198.476L430.697 199.896ZM435.735 198.325L436.939 199.22L436.939 199.22L435.735 198.325ZM440.289 196.62L439.966 198.084L439.966 198.085L440.289 196.62ZM440.763 198.26C441.572 198.438 442.373 197.927 442.551 197.118C442.729 196.308 442.217 195.508 441.408 195.33L440.763 198.26ZM406.617 177.544C406.896 176.764 406.489 175.906 405.709 175.627C404.929 175.348 404.071 175.754 403.792 176.534L406.617 177.544ZM406.603 181.306L405.767 182.551L405.767 182.551L406.603 181.306ZM406.899 181.505L406.063 182.75L406.063 182.75L406.899 181.505ZM407.125 184.996C407.05 185.821 407.659 186.55 408.484 186.625C409.309 186.7 410.038 186.091 410.113 185.266L407.125 184.996ZM415.287 186.573L416.124 185.328L416.123 185.328L415.287 186.573ZM415.677 188.5L416.932 189.321L416.933 189.321L415.677 188.5ZM413.774 188.885L412.938 190.13L412.938 190.13L413.774 188.885ZM427.472 192.037L426.216 191.216L426.216 191.216L427.472 192.037ZM429.375 191.651L430.212 190.406L430.211 190.406L429.375 191.651ZM429.765 193.578L431.02 194.4L431.021 194.399L429.765 193.578ZM427.862 193.964L427.025 195.209L427.026 195.209L427.862 193.964ZM434.894 204.168L436.149 204.989L436.15 204.988L434.894 204.168ZM436.797 203.782L435.96 205.027L435.961 205.027L436.797 203.782ZM437.188 205.709L435.932 204.887L435.932 204.888L437.188 205.709ZM435.285 206.094L436.122 204.849L436.121 204.849L435.285 206.094ZM431.746 184.712L433.001 185.533L433.001 185.533L431.746 184.712ZM432.616 191.447L431.259 192.085C431.495 192.589 431.992 192.92 432.547 192.945L432.616 191.447ZM439.075 189.637L437.82 188.816L437.82 188.816L439.075 189.637ZM436.261 185.874L434.79 186.168C434.869 186.56 435.1 186.904 435.432 187.124C435.765 187.345 436.172 187.424 436.563 187.344L436.261 185.874ZM419.063 175.919L417.567 175.809L417.567 175.809L419.063 175.919ZM419.044 176.18L417.548 176.07L417.548 176.07L419.044 176.18ZM419.057 176.739L417.64 177.229L417.641 177.232L419.057 176.739ZM419.388 177.171L418.298 178.201L418.299 178.202L419.388 177.171ZM419.562 177.355L420.652 176.324L420.652 176.323L419.562 177.355ZM420.463 178.787L421.905 179.2L421.906 179.199L420.463 178.787ZM418.93 179.563L419.342 181.005L419.342 181.005L418.93 179.563ZM418.683 179.634L418.27 178.191L418.27 178.191L418.683 179.634ZM418.17 179.838L419.123 180.997L419.124 180.996L418.17 179.838ZM417.861 180.31L416.533 179.614L416.533 179.614L417.861 180.31ZM417.739 180.543L419.068 181.24L419.068 181.239L417.739 180.543ZM416.662 181.917L416.755 183.414L416.756 183.414L416.662 181.917ZM415.522 180.681L416.801 179.897L416.801 179.897L415.522 180.681ZM415.389 180.464L414.11 181.247L414.11 181.248L415.389 180.464ZM415.059 180.032L414.221 181.276L414.222 181.277L415.059 180.032ZM414.537 179.892L414.773 178.41L414.773 178.41L414.537 179.892ZM414.288 179.852L414.052 181.333L414.052 181.333L414.288 179.852ZM412.721 179.269L411.304 179.76L411.304 179.761L412.721 179.269ZM413.551 177.729L412.381 176.79L412.38 176.79L413.551 177.729ZM413.715 177.524L414.885 178.463L414.885 178.463L413.715 177.524ZM414.01 176.493L412.521 176.677L412.521 176.678L414.01 176.493ZM413.978 176.236L415.467 176.052L415.467 176.052L413.978 176.236ZM414.086 174.502L413.133 173.344L413.133 173.344L414.086 174.502ZM415.739 174.786L416.28 173.387L416.279 173.386L415.739 174.786ZM415.974 174.876L415.433 176.275L415.433 176.276L415.974 174.876ZM416.495 175.017L416.588 176.514L416.588 176.514L416.495 175.017ZM417.008 174.812L417.701 176.142L417.701 176.142L417.008 174.812ZM417.238 174.692L416.545 173.362L416.545 173.362L417.238 174.692ZM418.871 174.204L419.708 172.959L419.708 172.959L418.871 174.204ZM398.867 213.131L400.497 199.399L397.518 199.045L395.888 212.778L398.867 213.131ZM400.497 199.399C400.873 196.236 401.138 194.034 401.558 192.484C401.972 190.951 402.435 190.46 402.911 190.239L401.649 187.518C399.962 188.301 399.158 189.868 398.662 191.7C398.171 193.514 397.882 195.981 397.518 199.045L400.497 199.399ZM402.911 190.239C403.385 190.019 404.049 189.983 405.471 190.659C406.911 191.344 408.744 192.571 411.375 194.339L413.048 191.849C410.501 190.137 408.449 188.754 406.759 187.95C405.051 187.138 403.339 186.733 401.649 187.518L402.911 190.239ZM411.375 194.339L421.591 201.204L423.264 198.714L413.048 191.849L411.375 194.339ZM421.591 201.204C424.222 202.972 426.051 204.206 427.235 205.284C428.402 206.347 428.642 206.994 428.626 207.546L431.625 207.633C431.679 205.775 430.66 204.346 429.255 203.066C427.868 201.802 425.812 200.426 423.265 198.714L421.591 201.204ZM428.626 207.546C428.61 208.095 428.336 208.718 427.114 209.695C425.871 210.688 423.976 211.791 421.246 213.373L422.751 215.969C425.393 214.437 427.526 213.205 428.986 212.038C430.467 210.856 431.571 209.495 431.625 207.633L428.626 207.546ZM421.246 213.373L409.4 220.241L410.904 222.836L422.751 215.969L421.246 213.373ZM409.4 220.241C406.123 222.14 403.814 223.474 402.051 224.175C400.28 224.878 399.549 224.742 399.087 224.431L397.413 226.921C399.158 228.094 401.146 227.762 403.159 226.963C405.179 226.16 407.717 224.684 410.904 222.836L409.4 220.241ZM399.087 224.431C398.615 224.115 398.203 223.467 398.152 221.53C398.102 219.607 398.416 216.928 398.867 213.131L395.888 212.778C395.449 216.474 395.096 219.414 395.153 221.608C395.21 223.788 395.678 225.755 397.413 226.921L399.087 224.431ZM419.338 215.339C420.641 214.597 420.642 214.597 420.642 214.597C420.642 214.597 420.642 214.597 420.642 214.597C420.642 214.597 420.642 214.597 420.641 214.597C420.641 214.597 420.641 214.596 420.64 214.595C420.639 214.593 420.637 214.59 420.635 214.586C420.63 214.577 420.622 214.563 420.611 214.544C420.59 214.506 420.559 214.449 420.518 214.375C420.436 214.226 420.316 214.007 420.17 213.731C419.878 213.179 419.48 212.404 419.059 211.514C418.201 209.701 417.305 207.527 416.955 205.797L414.015 206.393C414.441 208.498 415.471 210.946 416.346 212.796C416.791 213.737 417.211 214.554 417.519 215.136C417.674 215.427 417.801 215.661 417.89 215.823C417.935 215.904 417.97 215.967 417.994 216.01C418.006 216.032 418.016 216.049 418.022 216.06C418.026 216.066 418.028 216.071 418.03 216.074C418.031 216.076 418.032 216.077 418.033 216.078C418.033 216.079 418.033 216.079 418.033 216.079C418.033 216.08 418.033 216.08 418.033 216.08C418.034 216.08 418.034 216.08 419.338 215.339ZM416.955 205.797C416.604 204.068 416.584 201.716 416.668 199.713C416.709 198.729 416.774 197.86 416.828 197.238C416.856 196.927 416.88 196.679 416.898 196.51C416.907 196.425 416.914 196.36 416.919 196.317C416.921 196.296 416.923 196.28 416.924 196.27C416.924 196.265 416.925 196.261 416.925 196.259C416.925 196.258 416.925 196.257 416.925 196.257C416.925 196.256 416.925 196.256 416.925 196.256C416.925 196.256 416.925 196.256 416.925 196.256C416.925 196.257 416.925 196.257 415.436 196.081C413.946 195.906 413.946 195.906 413.946 195.906C413.946 195.906 413.946 195.906 413.946 195.906C413.946 195.907 413.946 195.907 413.946 195.908C413.946 195.909 413.945 195.911 413.945 195.912C413.945 195.916 413.944 195.921 413.943 195.928C413.942 195.942 413.94 195.961 413.937 195.986C413.931 196.035 413.924 196.107 413.914 196.199C413.895 196.382 413.869 196.647 413.84 196.975C413.782 197.632 413.714 198.547 413.67 199.587C413.584 201.632 413.588 204.288 414.015 206.393L416.955 205.797ZM409.461 220.347C410.827 219.727 410.827 219.727 410.827 219.727C410.827 219.727 410.827 219.727 410.827 219.727C410.827 219.727 410.827 219.727 410.827 219.726C410.827 219.726 410.826 219.725 410.826 219.723C410.824 219.721 410.822 219.716 410.82 219.71C410.814 219.698 410.806 219.68 410.795 219.656C410.773 219.607 410.741 219.535 410.699 219.442C410.616 219.254 410.495 218.98 410.345 218.637C410.046 217.95 409.635 216.987 409.186 215.886C408.282 213.667 407.251 210.945 406.666 208.786L403.77 209.57C404.406 211.915 405.496 214.778 406.408 217.018C406.868 218.145 407.288 219.13 407.594 219.834C407.747 220.185 407.872 220.467 407.959 220.662C408.002 220.759 408.036 220.834 408.059 220.886C408.07 220.912 408.079 220.931 408.085 220.945C408.088 220.952 408.091 220.957 408.092 220.96C408.093 220.962 408.094 220.964 408.094 220.965C408.095 220.965 408.095 220.965 408.095 220.966C408.095 220.966 408.095 220.966 408.095 220.966C408.095 220.966 408.095 220.966 409.461 220.347ZM406.666 208.786C405.699 205.219 405.206 200.435 404.959 196.472C404.837 194.505 404.776 192.768 404.747 191.522C404.732 190.899 404.725 190.401 404.721 190.059C404.72 189.888 404.719 189.756 404.719 189.668C404.718 189.624 404.718 189.59 404.718 189.568C404.718 189.557 404.718 189.549 404.718 189.544C404.718 189.541 404.718 189.54 404.718 189.538C404.718 189.538 404.718 189.537 404.718 189.537C404.718 189.537 404.718 189.537 404.718 189.537C404.718 189.537 404.718 189.537 403.218 189.535C401.718 189.533 401.718 189.533 401.718 189.533C401.718 189.533 401.718 189.534 401.718 189.534C401.718 189.535 401.718 189.535 401.718 189.536C401.718 189.538 401.718 189.541 401.718 189.544C401.718 189.55 401.718 189.56 401.718 189.572C401.718 189.597 401.718 189.633 401.719 189.68C401.719 189.774 401.72 189.912 401.722 190.089C401.725 190.443 401.733 190.956 401.748 191.593C401.778 192.868 401.84 194.645 401.965 196.659C402.214 200.657 402.72 205.694 403.77 209.57L406.666 208.786ZM422.251 192.992L422.242 191.09L419.242 191.105L419.251 193.007L422.251 192.992ZM422.242 191.09C422.235 189.7 422.965 188.429 424.137 187.749L422.632 185.154C420.518 186.38 419.23 188.654 419.242 191.105L422.242 191.09ZM424.137 187.749C426.252 186.523 427.54 184.248 427.528 181.798L424.528 181.812C424.534 183.202 423.805 184.474 422.632 185.154L424.137 187.749ZM427.528 181.798L427.518 179.896L424.518 179.911L424.528 181.812L427.528 181.798ZM429.615 201.111L430.212 201.315L431.181 198.476L430.584 198.272L429.615 201.111ZM430.212 201.315C432.675 202.156 435.386 201.309 436.939 199.22L434.531 197.43C433.754 198.476 432.406 198.894 431.181 198.476L430.212 201.315ZM436.939 199.22C437.643 198.273 438.824 197.833 439.966 198.084L440.612 195.155C438.311 194.648 435.937 195.539 434.531 197.431L436.939 199.22ZM439.966 198.085L440.763 198.26L441.408 195.33L440.611 195.155L439.966 198.085ZM403.792 176.534C402.999 178.752 403.811 181.238 405.767 182.551L407.44 180.061C406.629 179.516 406.284 178.474 406.617 177.544L403.792 176.534ZM405.767 182.551L406.063 182.75L407.736 180.26L407.44 180.061L405.767 182.551ZM406.063 182.75C406.794 183.242 407.206 184.104 407.125 184.996L410.113 185.266C410.292 183.291 409.382 181.367 407.736 180.26L406.063 182.75ZM399.864 182.269C399.824 182.33 399.735 182.348 399.675 182.307L401.348 179.817C400.021 178.925 398.229 179.289 397.353 180.626L399.864 182.269ZM399.675 182.307C399.649 182.289 399.635 182.263 399.631 182.243C399.627 182.224 399.63 182.194 399.647 182.167L402.157 183.81C403.025 182.484 402.663 180.701 401.348 179.817L399.675 182.307ZM399.647 182.167C399.687 182.107 399.775 182.089 399.836 182.129L398.162 184.619C399.489 185.511 401.282 185.148 402.157 183.81L399.647 182.167ZM399.836 182.129C399.862 182.147 399.876 182.173 399.88 182.193C399.884 182.212 399.881 182.242 399.864 182.269L397.353 180.626C396.486 181.952 396.847 183.736 398.162 184.619L399.836 182.129ZM414.639 187.78C414.599 187.841 414.511 187.859 414.45 187.818L416.123 185.328C414.796 184.436 413.004 184.8 412.128 186.137L414.639 187.78ZM414.45 187.818C414.424 187.8 414.41 187.774 414.406 187.754C414.402 187.735 414.405 187.705 414.422 187.679L416.933 189.321C417.8 187.995 417.438 186.212 416.124 185.328L414.45 187.818ZM414.422 187.678C414.462 187.618 414.55 187.6 414.611 187.64L412.938 190.13C414.264 191.022 416.057 190.659 416.932 189.321L414.422 187.678ZM414.611 187.64C414.637 187.658 414.651 187.684 414.655 187.704C414.659 187.724 414.656 187.753 414.639 187.78L412.128 186.137C411.261 187.463 411.622 189.247 412.938 190.13L414.611 187.64ZM428.727 192.858C428.687 192.919 428.598 192.937 428.538 192.896L430.211 190.406C428.884 189.515 427.092 189.878 426.216 191.216L428.727 192.858ZM428.538 192.896C428.512 192.879 428.498 192.852 428.494 192.833C428.49 192.813 428.493 192.784 428.51 192.757L431.021 194.399C431.887 193.073 431.526 191.29 430.212 190.406L428.538 192.896ZM428.51 192.757C428.55 192.696 428.638 192.678 428.698 192.719L427.026 195.209C428.353 196.1 430.145 195.737 431.02 194.4L428.51 192.757ZM428.699 192.719C428.725 192.736 428.739 192.763 428.743 192.782C428.747 192.802 428.744 192.832 428.727 192.858L426.216 191.216C425.349 192.542 425.71 194.325 427.025 195.209L428.699 192.719ZM436.15 204.988C436.11 205.049 436.021 205.067 435.96 205.027L437.634 202.537C436.307 201.645 434.514 202.008 433.639 203.347L436.15 204.988ZM435.961 205.027C435.934 205.009 435.92 204.983 435.916 204.963C435.912 204.943 435.915 204.914 435.932 204.887L438.443 206.53C439.31 205.204 438.949 203.42 437.634 202.537L435.961 205.027ZM435.932 204.888C435.972 204.827 436.061 204.809 436.122 204.849L434.448 207.339C435.775 208.231 437.568 207.868 438.443 206.529L435.932 204.888ZM436.121 204.849C436.147 204.867 436.161 204.893 436.165 204.913C436.169 204.932 436.167 204.962 436.149 204.989L433.639 203.346C432.771 204.672 433.133 206.456 434.448 207.339L436.121 204.849ZM430.49 183.891C429.917 184.767 429.796 185.798 429.818 186.665C429.841 187.555 430.022 188.46 430.231 189.235C430.442 190.02 430.697 190.725 430.896 191.232C430.997 191.486 431.085 191.694 431.149 191.841C431.181 191.914 431.207 191.973 431.226 192.014C431.235 192.034 431.243 192.051 431.248 192.063C431.251 192.069 431.253 192.074 431.255 192.077C431.256 192.079 431.257 192.081 431.257 192.082C431.257 192.083 431.258 192.083 431.258 192.084C431.258 192.084 431.258 192.084 431.258 192.084C431.258 192.085 431.259 192.085 432.616 191.447C433.973 190.808 433.973 190.808 433.973 190.809C433.973 190.809 433.974 190.809 433.974 190.809C433.974 190.809 433.974 190.809 433.974 190.809C433.974 190.81 433.974 190.809 433.974 190.809C433.973 190.808 433.972 190.806 433.971 190.803C433.968 190.797 433.964 190.787 433.957 190.773C433.944 190.744 433.924 190.7 433.898 190.641C433.847 190.523 433.773 190.348 433.687 190.131C433.515 189.694 433.301 189.099 433.128 188.455C432.952 187.803 432.832 187.151 432.817 186.587C432.802 186 432.906 185.678 433.001 185.533L430.49 183.891ZM432.616 191.447C432.547 192.945 432.548 192.945 432.548 192.945C432.548 192.945 432.549 192.945 432.549 192.945C432.549 192.945 432.55 192.945 432.551 192.945C432.552 192.945 432.554 192.945 432.556 192.945C432.56 192.946 432.566 192.946 432.572 192.946C432.585 192.947 432.603 192.947 432.626 192.948C432.671 192.949 432.734 192.951 432.813 192.952C432.972 192.955 433.196 192.956 433.467 192.951C434.006 192.94 434.749 192.903 435.547 192.794C436.335 192.687 437.232 192.503 438.056 192.176C438.86 191.857 439.756 191.337 440.331 190.458L437.82 188.816C437.727 188.959 437.481 189.176 436.949 189.388C436.436 189.591 435.802 189.732 435.142 189.822C434.492 189.91 433.87 189.942 433.407 189.951C433.177 189.956 432.991 189.955 432.864 189.953C432.801 189.952 432.753 189.95 432.722 189.949C432.706 189.949 432.696 189.949 432.689 189.948C432.686 189.948 432.684 189.948 432.683 189.948C432.683 189.948 432.683 189.948 432.683 189.948C432.683 189.948 432.683 189.948 432.683 189.948C432.683 189.948 432.684 189.948 432.684 189.948C432.684 189.948 432.684 189.948 432.616 191.447ZM440.331 190.458C441.299 188.978 441.424 187.205 440.442 185.852C439.469 184.512 437.743 184.038 435.959 184.405L436.563 187.344C437.522 187.147 437.911 187.472 438.014 187.614C438.107 187.742 438.268 188.132 437.82 188.816L440.331 190.458ZM437.732 185.58C437.376 183.797 436.287 182.37 434.679 181.981C433.038 181.584 431.459 182.41 430.49 183.891L433.001 185.533C433.448 184.849 433.848 184.867 433.973 184.897C434.13 184.935 434.591 185.172 434.79 186.168L437.732 185.58ZM417.567 175.809L417.548 176.07L420.54 176.291L420.559 176.03L417.567 175.809ZM417.548 176.07C417.537 176.226 417.47 176.739 417.64 177.229L420.475 176.249C420.486 176.282 420.496 176.315 420.503 176.347C420.511 176.379 420.516 176.407 420.519 176.432C420.526 176.48 420.526 176.511 420.526 176.512C420.526 176.513 420.526 176.499 420.528 176.457C420.53 176.438 420.531 176.415 420.533 176.386C420.535 176.358 420.537 176.327 420.54 176.29L417.548 176.07ZM417.641 177.232C417.816 177.735 418.197 178.094 418.298 178.201L420.479 176.141C420.429 176.088 420.396 176.053 420.369 176.024C420.343 175.995 420.337 175.987 420.339 175.991C420.343 175.995 420.365 176.023 420.392 176.068C420.42 176.116 420.45 176.177 420.474 176.246L417.641 177.232ZM418.299 178.202L418.473 178.386L420.652 176.323L420.478 176.14L418.299 178.202ZM418.472 178.385C418.644 178.567 418.775 178.706 418.882 178.826C418.992 178.948 419.045 179.017 419.07 179.053C419.097 179.092 419.053 179.039 419.018 178.916C418.999 178.849 418.983 178.763 418.982 178.663C418.981 178.561 418.996 178.464 419.021 178.374L421.906 179.199C422.142 178.374 421.79 177.71 421.537 177.346C421.302 177.005 420.952 176.642 420.652 176.324L418.472 178.385ZM419.021 178.373C419.047 178.284 419.086 178.195 419.139 178.112C419.191 178.03 419.247 177.967 419.295 177.923C419.383 177.842 419.442 177.823 419.394 177.845C419.35 177.865 419.264 177.898 419.105 177.948C418.948 177.997 418.761 178.051 418.517 178.121L419.342 181.005C419.77 180.883 420.257 180.747 420.634 180.576C421.032 180.396 421.672 180.016 421.905 179.2L419.021 178.373ZM418.517 178.121L418.27 178.191L419.096 181.076L419.342 181.005L418.517 178.121ZM418.27 178.191C418.12 178.234 417.62 178.348 417.216 178.68L419.124 180.996C419.098 181.017 419.071 181.037 419.044 181.055C419.017 181.073 418.992 181.088 418.97 181.1C418.926 181.123 418.896 181.135 418.892 181.136C418.89 181.137 418.901 181.133 418.939 181.121C418.957 181.116 418.979 181.109 419.005 181.102C419.032 181.094 419.061 181.085 419.096 181.076L418.27 178.191ZM417.217 178.68C416.82 179.006 416.608 179.471 416.533 179.614L419.19 181.007C419.207 180.974 419.221 180.946 419.235 180.921C419.248 180.896 419.259 180.875 419.269 180.857C419.278 180.84 419.285 180.827 419.29 180.818C419.295 180.81 419.297 180.806 419.297 180.807C419.296 180.808 419.281 180.833 419.251 180.869C419.236 180.887 419.217 180.908 419.195 180.931C419.173 180.953 419.149 180.975 419.123 180.997L417.217 178.68ZM416.533 179.614L416.41 179.847L419.068 181.239L419.19 181.006L416.533 179.614ZM416.411 179.847C416.29 180.077 416.196 180.255 416.113 180.404C416.029 180.556 415.977 180.639 415.945 180.683C415.91 180.731 415.938 180.679 416.034 180.609C416.088 180.569 416.163 180.524 416.261 180.487C416.36 180.449 416.465 180.426 416.569 180.42L416.756 183.414C417.631 183.36 418.138 182.771 418.379 182.436C418.621 182.1 418.854 181.647 419.068 181.24L416.411 179.847ZM416.569 180.42C416.674 180.413 416.785 180.422 416.895 180.45C417.004 180.478 417.093 180.519 417.159 180.557C417.28 180.628 417.324 180.692 417.293 180.655C417.265 180.622 417.213 180.552 417.123 180.413C417.034 180.277 416.933 180.112 416.801 179.897L414.243 181.465C414.473 181.84 414.735 182.275 415.001 182.59C415.277 182.917 415.851 183.47 416.755 183.414L416.569 180.42ZM416.801 179.897L416.668 179.68L414.11 181.248L414.243 181.465L416.801 179.897ZM416.669 179.681C416.594 179.559 416.342 179.087 415.895 178.787L414.222 181.277C414.157 181.233 414.104 181.187 414.063 181.145C414.025 181.106 414.004 181.077 414.001 181.073C413.998 181.069 414.004 181.078 414.025 181.111C414.047 181.144 414.072 181.185 414.11 181.247L416.669 179.681ZM415.897 178.788C415.447 178.484 414.909 178.432 414.773 178.41L414.301 181.373C414.373 181.384 414.42 181.392 414.458 181.399C414.497 181.405 414.506 181.408 414.501 181.407C414.494 181.405 414.458 181.396 414.406 181.375C414.351 181.352 414.287 181.32 414.221 181.276L415.897 178.788ZM414.773 178.41L414.524 178.371L414.052 181.333L414.301 181.373L414.773 178.41ZM414.524 178.371C414.277 178.331 414.089 178.301 413.931 178.271C413.771 178.241 413.689 178.22 413.65 178.207C413.606 178.193 413.683 178.211 413.794 178.296C413.855 178.342 413.924 178.408 413.99 178.496C414.056 178.586 414.105 178.681 414.138 178.776L411.304 179.761C411.598 180.606 412.313 180.929 412.73 181.063C413.123 181.189 413.623 181.265 414.052 181.333L414.524 178.371ZM414.138 178.777C414.21 178.985 414.204 179.182 414.173 179.321C414.147 179.434 414.112 179.479 414.143 179.427C414.17 179.38 414.225 179.299 414.33 179.162C414.433 179.026 414.558 178.87 414.721 178.667L412.38 176.79C412.093 177.148 411.772 177.543 411.561 177.899C411.348 178.259 411.022 178.947 411.304 179.76L414.138 178.777ZM414.72 178.668L414.885 178.463L412.545 176.585L412.381 176.79L414.72 178.668ZM414.885 178.463C414.988 178.334 415.325 177.957 415.466 177.465L412.582 176.639C412.591 176.608 412.601 176.577 412.613 176.549C412.624 176.52 412.636 176.495 412.646 176.474C412.667 176.433 412.683 176.409 412.684 176.408C412.684 176.407 412.682 176.41 412.676 176.419C412.67 176.427 412.662 176.438 412.65 176.454C412.637 176.469 412.623 176.488 412.605 176.51C412.587 176.533 412.568 176.557 412.545 176.585L414.885 178.463ZM415.466 177.465C415.608 176.969 415.518 176.47 415.498 176.309L412.521 176.678C412.526 176.714 412.53 176.745 412.533 176.773C412.536 176.801 412.539 176.823 412.541 176.843C412.543 176.862 412.544 176.875 412.545 176.885C412.546 176.894 412.546 176.897 412.546 176.896C412.546 176.893 412.545 176.863 412.549 176.816C412.551 176.791 412.554 176.764 412.56 176.733C412.566 176.702 412.573 176.67 412.582 176.639L415.466 177.465ZM415.499 176.31L415.467 176.052L412.489 176.42L412.521 176.677L415.499 176.31ZM415.467 176.052C415.435 175.797 415.411 175.601 415.395 175.434C415.378 175.265 415.375 175.17 415.376 175.118C415.377 175.061 415.383 175.119 415.345 175.228C415.298 175.363 415.202 175.527 415.04 175.66L413.133 173.344C412.477 173.884 412.386 174.626 412.377 175.055C412.368 175.468 412.434 175.971 412.489 176.42L415.467 176.052ZM415.04 175.66C414.966 175.72 414.879 175.774 414.782 175.815C414.686 175.855 414.597 175.875 414.524 175.884C414.39 175.9 414.319 175.878 414.363 175.888C414.403 175.896 414.485 175.919 414.639 175.974C414.789 176.027 414.966 176.095 415.199 176.185L416.279 173.386C415.875 173.23 415.406 173.044 415.002 172.956C414.568 172.862 413.807 172.789 413.133 173.344L415.04 175.66ZM415.198 176.185L415.433 176.275L416.515 173.477L416.28 173.387L415.198 176.185ZM415.433 176.276C415.566 176.327 416.05 176.548 416.588 176.514L416.402 173.52C416.479 173.515 416.548 173.52 416.606 173.528C416.66 173.536 416.695 173.546 416.702 173.548C416.707 173.549 416.698 173.547 416.662 173.533C416.626 173.52 416.582 173.503 416.514 173.477L415.433 176.276ZM416.588 176.514C417.116 176.481 417.569 176.211 417.701 176.142L416.316 173.481C416.249 173.516 416.206 173.539 416.169 173.557C416.132 173.575 416.12 173.58 416.122 173.579C416.126 173.578 416.156 173.565 416.206 173.552C416.259 173.537 416.326 173.525 416.402 173.52L416.588 176.514ZM417.701 176.142L417.93 176.023L416.545 173.362L416.315 173.481L417.701 176.142ZM417.93 176.023C418.157 175.905 418.332 175.814 418.482 175.741C418.634 175.667 418.719 175.632 418.764 175.616C418.815 175.598 418.75 175.629 418.615 175.629C418.541 175.629 418.445 175.62 418.337 175.589C418.227 175.558 418.125 175.509 418.035 175.449L419.708 172.959C418.955 172.453 418.176 172.645 417.782 172.781C417.393 172.916 416.943 173.155 416.545 173.362L417.93 176.023ZM418.035 175.449C417.945 175.388 417.863 175.313 417.793 175.225C417.725 175.139 417.682 175.057 417.655 174.991C417.606 174.873 417.609 174.807 417.613 174.865C417.616 174.916 417.617 175.012 417.609 175.183C417.601 175.352 417.587 175.551 417.567 175.809L420.559 176.03C420.593 175.576 420.634 175.067 420.606 174.656C420.577 174.246 420.453 173.46 419.708 172.959L418.035 175.449Z"/><path fill="#000" fill-rule="evenodd" d="M332.842 223.264C326.21 224.827 324.988 223.35 324.808 223.044C324.06 221.723 325.847 218.108 327.415 215.999L327.266 215.859C335.359 211.115 338.412 193.952 336.285 184.926C333.951 175.026 323.982 168.904 314.029 171.25C304.077 173.596 297.892 183.527 300.226 193.427C302.458 202.896 313.766 217.821 323.458 217.08C322.302 219.318 321.314 222.29 322.595 224.523C324.035 227.05 327.511 227.566 333.53 226.147C334.029 226.029 334.4 226.567 334.096 227.311C333.182 229.47 330.097 232.468 324.403 233.811L325.083 236.696C333.895 234.618 337.667 228.757 336.9 225.501C336.679 224.567 336.112 223.833 335.321 223.441C334.617 223.105 333.783 223.042 332.842 223.264ZM306.974 192.682C307.628 195.454 304.931 194.848 303.981 190.819C302.378 184.018 306.483 177.223 313.164 175.648C317.133 174.712 318.897 176.904 316.161 177.549C309.493 179.125 305.37 185.877 306.974 192.682Z" clip-rule="evenodd"/><path stroke="#000" stroke-linecap="round" stroke-linejoin="round" stroke-width="6" d="M426.473 301.039L426.811 303.203M432.214 337.822L432.552 339.986M412.203 323.214L410.039 323.552M415.29 310.13L413.253 308.643M439.895 306.29L441.382 304.253M419.131 334.744L417.643 336.772M443.737 330.904L445.772 332.382M448.986 317.473L446.822 317.811M438.167 319.162C438.913 323.942 435.643 328.421 430.863 329.167C426.083 329.913 421.604 326.643 420.858 321.863C420.112 317.083 423.382 312.604 428.162 311.858C432.942 311.112 437.421 314.382 438.167 319.162Z"/></svg>