<svg width="700" height="500" viewBox="0 0 700 500" fill="none" xmlns="http://www.w3.org/2000/svg">
<path d="M255 256.5L254.232 261.493C254.078 262.496 254 263.51 254 264.525C254 265.839 254.13 267.149 254.387 268.436L254.425 268.625C254.807 270.533 255.441 272.382 256.311 274.122L257.5 276.5L258.128 277.547C259.699 280.165 261.682 282.513 264 284.5L265.128 285.377C267.363 287.116 269.849 288.506 272.5 289.5L273.164 289.666C276.708 290.552 280.347 291 284 291L290.5 290.5H292C292.944 290.5 293.833 290.945 294.4 291.7C294.789 292.219 295 292.851 295 293.5V294.518C295 295.168 294.895 295.815 294.689 296.432L294.516 296.953C294.177 297.97 293.605 298.895 292.847 299.653C292.616 299.884 292.369 300.098 292.107 300.295L290.728 301.329C290.576 301.443 290.415 301.543 290.245 301.627L289.996 301.752C289.079 302.21 288.5 303.147 288.5 304.172C288.5 304.39 288.526 304.607 288.578 304.818L296 335C296.299 335.896 297.137 336.5 298.081 336.5H298.205C298.401 336.5 298.596 336.476 298.786 336.428L336.753 326.816C337.56 326.611 338.272 326.137 338.772 325.471C339.245 324.841 339.5 324.074 339.5 323.286V323.009C339.5 322.671 339.462 322.334 339.385 322.004L338 316L333.154 295.646C333.052 295.217 333 294.777 333 294.336V294.118C333 293.383 333.171 292.658 333.5 292C333.829 291.342 334.306 290.77 334.894 290.329L335.447 289.915C335.815 289.639 336.207 289.397 336.618 289.191L336.805 289.098C337.598 288.701 338.441 288.412 339.31 288.238L340.875 287.925C342.288 287.642 343.726 287.5 345.168 287.5H347H353C354.979 287.5 356.938 287.098 358.757 286.318L359.5 286L363 284C365.319 282.675 367.83 281.715 370.442 281.155L371.231 280.986C372.741 280.663 374.274 280.452 375.816 280.355L381.5 280H383.482C385.414 280 387.268 280.768 388.634 282.134C388.878 282.378 389.104 282.638 389.311 282.914L390.549 284.565C391.511 285.847 392.664 286.974 393.968 287.906C394.986 288.633 396.087 289.235 397.248 289.699L400.5 291L402.627 291.638C404.532 292.21 406.511 292.5 408.5 292.5H409.865C410.912 292.5 411.916 292.916 412.656 293.656C412.885 293.885 413.084 294.14 413.25 294.417L413.793 295.322C414.263 296.105 414.646 296.937 414.935 297.804L415.5 299.5L416.043 300.858C416.347 301.618 416.712 302.353 417.133 303.055L417.798 304.164C417.932 304.387 418.042 304.625 418.124 304.872L418.277 305.331C418.422 305.765 418.422 306.235 418.277 306.669C418.1 307.201 417.718 307.641 417.216 307.892L416 308.5L414 309.5L412.265 310.368C411.427 310.786 410.662 311.338 410 312L409.943 312.057C409.318 312.682 408.799 313.403 408.404 314.193L408.318 314.363C408.107 314.786 407.942 315.232 407.827 315.691C407.611 316.554 407.576 317.453 407.722 318.331L407.841 319.045C407.947 319.68 408.114 320.304 408.34 320.906L408.969 322.584C409.322 323.527 409.751 324.439 410.25 325.313C411.08 326.764 412.099 328.099 413.281 329.281L415 331C416.644 332.315 418.572 333.23 420.63 333.671L422.332 334.035C423.773 334.344 425.243 334.5 426.718 334.5H431.601C432.532 334.5 433.462 334.423 434.38 334.27C435.458 334.09 436.515 333.807 437.537 333.423L437.83 333.314C439.272 332.773 440.647 332.069 441.928 331.215L443 330.5L446.311 328.017C446.77 327.673 447.204 327.296 447.609 326.891L448.356 326.144C448.783 325.717 449.138 325.225 449.407 324.685L449.675 324.149C449.889 323.722 450 323.251 450 322.774C450 321.958 450.324 321.176 450.901 320.599L451.177 320.323C451.391 320.109 451.63 319.919 451.888 319.758L455.5 317.5L459.227 315.104C461.406 313.703 463.472 312.136 465.408 310.415L467 309L467.691 308.309C468.187 307.813 468.36 307.08 468.138 306.415C468.047 306.142 467.894 305.894 467.691 305.691L467.163 305.163C466.727 304.727 466.196 304.399 465.611 304.204C465.206 304.069 464.783 304 464.356 304H463.863C463.29 304 462.719 304.07 462.163 304.209L461 304.5L458.5 305.5L456.863 305.909C456.622 305.97 456.374 306 456.126 306H455.942C455.041 306 454.2 305.55 453.7 304.8C453.567 304.601 453.462 304.385 453.386 304.158L452.936 302.808C452.646 301.938 452.267 301.101 451.805 300.309L450.705 298.424C449.573 296.483 448.196 294.696 446.607 293.107L446.131 292.631C445.047 291.547 443.844 290.59 442.544 289.777L442.477 289.736C441.164 288.915 439.758 288.253 438.288 287.763C436.769 287.256 435.192 286.938 433.595 286.815L429.5 286.5H427.021C426.009 286.5 424.998 286.584 424 286.75C423.002 286.916 421.991 287 420.979 287H420H419.151C418.401 287 417.667 286.778 417.042 286.361C416.683 286.122 416.368 285.824 416.109 285.479L415.642 284.856C415.225 284.3 415 283.625 415 282.93C415 282.645 415.038 282.361 415.113 282.085L416.357 277.524C416.452 277.176 416.5 276.817 416.5 276.457C416.5 275.828 416.353 275.207 416.072 274.644L415.758 274.015C415.587 273.674 415.362 273.362 415.093 273.093C414.703 272.703 414.228 272.409 413.705 272.235L413 272C412.036 271.679 411.229 271.004 410.743 270.112L408.5 266C407.836 264.341 407.4 262.6 407.203 260.824L407 259V258.809C407 258.313 407.28 257.86 407.724 257.638C407.905 257.547 408.106 257.5 408.309 257.5H409.851C410.283 257.5 410.714 257.464 411.14 257.393L413.157 257.057C413.384 257.019 413.605 256.948 413.811 256.845L413.931 256.785C414.3 256.6 414.6 256.3 414.785 255.931C414.926 255.648 414.995 255.335 414.985 255.019L414.5 239C414.5 238.342 414.347 237.694 414.053 237.106L414 237C413.694 236.387 413.067 236 412.382 236H407.5H406.864C406.631 236 406.407 235.907 406.243 235.743C406.087 235.587 405.995 235.378 405.986 235.157L405.53 223.758C405.51 223.262 405.354 222.782 405.079 222.369C404.706 221.81 404.139 221.41 403.487 221.247L403.033 221.133C402.68 221.045 402.315 221.006 401.95 221.019L388 221.5L384 222H383H382.707C382.254 222 381.82 221.82 381.5 221.5L381.354 221.354C381.127 221.127 381 220.82 381 220.5C381 219.522 381.29 218.566 381.832 217.752L382 217.5L382.498 216.836C383.163 215.95 383.95 215.163 384.836 214.498L385.328 214.129C385.442 214.043 385.551 213.949 385.652 213.848L385.678 213.822C385.891 213.609 386.069 213.362 386.204 213.093L386.276 212.947C386.423 212.653 386.5 212.329 386.5 212C386.5 211.671 386.577 211.347 386.724 211.053L387 210.5L392 203L392.371 202.258C392.456 202.087 392.569 201.931 392.704 201.796C392.899 201.601 393.045 201.364 393.133 201.102L393.5 200L393.918 198.745C393.973 198.582 394.039 198.423 394.116 198.269L394.338 197.825C394.444 197.611 394.5 197.376 394.5 197.137C394.5 196.729 394.338 196.338 394.05 196.05L393.781 195.781C393.595 195.595 393.38 195.44 393.144 195.322L382.5 190L380.678 189.089C380.56 189.03 380.452 188.952 380.359 188.859C380.129 188.629 380 188.317 380 187.992V187.5C380 186.875 379.688 186.292 379.168 185.945L378.955 185.804C378.656 185.604 378.314 185.476 377.957 185.429L367 184L364.2 183.6C363.746 183.535 363.325 183.325 363 183L362.5 182.5C362.18 182.18 361.746 182 361.293 182H361.167C361.056 182 360.945 182.009 360.836 182.027L349 184L346.21 184.399C345.743 184.465 345.296 184.636 344.903 184.898L344.712 185.026C344.25 185.333 343.905 185.786 343.73 186.311C343.58 186.761 343.561 187.244 343.676 187.704L344 189C344.333 189.999 344.736 190.973 345.207 191.914L345.5 192.5L346.5 195L347.485 197.299C347.827 198.097 348.086 198.929 348.256 199.781L348.351 200.257C348.45 200.751 348.5 201.254 348.5 201.758V202.134C348.5 202.707 348.592 203.277 348.774 203.822C348.924 204.272 349.133 204.7 349.397 205.095L350 206L351.5 209L354 215L355 218.5L355.046 218.729C355.346 220.232 355.389 221.775 355.172 223.293L355.124 223.635C355.041 224.21 354.907 224.778 354.724 225.329L354.426 226.221C354.146 227.062 353.674 227.826 353.047 228.453C352.36 229.14 351.51 229.64 350.577 229.907L349.709 230.155C348.907 230.384 348.077 230.5 347.243 230.5C346.748 230.5 346.255 230.541 345.767 230.622L345.228 230.712C344.08 230.903 342.913 230.965 341.751 230.897L335 230.5C334.018 230.5 333.055 230.767 332.214 231.272L331.455 231.727C331.153 231.908 330.874 232.126 330.625 232.375C330.213 232.787 329.721 233.112 329.179 233.328L328.464 233.614C327.824 233.87 327.154 234.043 326.47 234.129L323.5 234.5H321.343C320.782 234.5 320.221 234.46 319.665 234.381L318.242 234.177C317.424 234.061 316.643 233.762 315.956 233.304L315.848 233.232C315.616 233.078 315.401 232.901 315.204 232.704L315.163 232.663C314.727 232.227 314.196 231.899 313.611 231.704C313.206 231.569 312.783 231.5 312.356 231.5H311L306.5 232L300 232.5L295.818 232.918C295.273 232.973 294.734 233.067 294.203 233.199L293.344 233.414C293.115 233.471 292.894 233.553 292.683 233.659C292.234 233.883 291.739 234 291.237 234H290.5C289.834 234 289.17 233.945 288.514 233.836L286.5 233.5L285.731 233.308C284.919 233.105 284.155 232.741 283.485 232.239C282.834 231.751 282.285 231.142 281.867 230.444L281 229L280.842 228.789C279.959 227.612 278.815 226.658 277.5 226L276 225L274.951 224.213C274.32 223.74 273.76 223.18 273.287 222.549C272.765 221.854 272.356 221.082 272.074 220.26L267 205.5L266.267 204.034C266.09 203.68 265.857 203.357 265.578 203.078L265.207 202.707C264.754 202.254 264.14 202 263.5 202C262.506 202 261.519 202.16 260.577 202.474L260.5 202.5L257.5 203.5L256.485 203.838C256.188 203.937 255.86 203.86 255.638 203.638C255.547 203.547 255.479 203.437 255.438 203.315L251.05 190.149C250.686 189.057 250.148 188.03 249.457 187.109L249.062 186.583C249.021 186.528 248.976 186.476 248.927 186.427C248.654 186.154 248.283 186 247.896 186H246C245.014 186 244.041 186.23 243.158 186.671L242.5 187L242.404 187.064C241.527 187.649 241 188.633 241 189.688C241 189.895 241.021 190.103 241.061 190.306L241.5 192.5L245 203L245.646 204.937C245.863 205.589 245.693 206.307 245.208 206.792C245.07 206.93 244.911 207.044 244.737 207.132L244.364 207.318C244.122 207.439 243.869 207.537 243.609 207.612L241.374 208.25C240.794 208.416 240.238 208.657 239.721 208.967L239.541 209.075C238.535 209.679 237.721 210.558 237.196 211.608L237.124 211.751C237.042 211.917 236.971 212.088 236.912 212.264C236.645 213.066 236.645 213.934 236.912 214.736L237 215L245.35 238.195C245.78 239.39 246.405 240.506 247.198 241.498L247.288 241.61C247.761 242.201 248.299 242.739 248.89 243.212L249.496 243.697C250.159 244.227 250.92 244.62 251.737 244.853L252.099 244.957C253.326 245.307 254.389 246.083 255.097 247.145C255.686 248.029 256 249.067 256 250.129V250.761C256 251.252 255.951 251.743 255.855 252.225L255 256.5Z" fill="#FF0062" stroke="#FF0062" stroke-width="20"/>
<path d="M324.066 271.841L320.016 284.249C319.42 285.997 318.608 287.001 317.375 287.198C316.427 287.349 309.549 286.889 304.099 283.189C299.577 286.534 294.639 288.488 289.804 289.258C273.972 291.781 258.386 281.822 255.954 266.558C254.141 255.182 259.586 237.497 278.357 234.505C283.097 233.75 287.909 234.053 291.863 235.075C292.326 234.321 293.134 233.9 294.272 233.719L294.746 233.644L311.373 232.452C313.868 232.249 314.728 233.376 314.91 234.513L314.985 234.987C315.033 243.826 315.02 252.285 316.017 258.542C316.923 264.231 318.616 268.141 321.906 269.269C322.93 269.592 324.064 269.995 324.215 270.943C324.245 271.132 324.195 271.432 324.066 271.841ZM295.186 269.347C294.509 266.928 293.896 264.303 293.428 261.364C293.035 258.899 292.722 256.325 292.458 253.45C291.018 251.736 288.247 250.816 285.498 251.254C279.525 252.206 277.129 258.518 277.899 263.353C278.745 268.662 283.168 272.623 289.33 271.641C291.131 271.354 293.156 270.643 295.186 269.347Z" fill="#00FF00"/>
<path d="M350.174 286.455L331.058 285.652C329.911 285.541 329.03 284.683 329.142 283.537L331.31 233.591C331.421 232.445 332.374 231.573 333.425 231.676L344.565 232.183C349.883 231.061 354.926 230.781 359.703 231.247C362.952 231.563 366.067 232.253 368.964 233.211C370.36 233.732 370.859 234.553 370.747 235.699C370.71 236.081 370.577 236.454 370.435 236.923L366.351 250.125C365.934 251.434 364.913 252.01 363.767 251.898C363.48 251.87 363.107 251.738 362.734 251.605C361.252 250.978 359.656 250.533 358.031 250.375C356.694 250.244 355.338 250.305 353.772 250.538L352.29 284.539L352.271 284.73C352.169 285.781 351.225 286.557 350.174 286.455Z" fill="#00FF00"/>
<path d="M415.15 275.812L411.292 288.316C410.695 290.203 409.923 291.239 408.489 291.371C408.202 291.398 407.916 291.424 407.62 291.355C391.947 289.717 385.817 281.8 383.105 257.659L375.9 257.939C374.84 257.94 373.891 257.064 373.794 256.012L373.476 240.038C373.474 238.977 374.255 238.038 375.402 237.932L381.555 237.749C381.411 234.099 381.24 230.162 381.147 226.025C381.137 224.869 381.16 223.035 383.646 222.805L384.028 222.77L402.175 221.962C403.809 221.907 404.662 222.792 404.812 224.417C404.992 228.45 405.093 232.683 405.177 236.724L411.809 236.497C412.86 236.4 413.809 237.277 413.915 238.424L414.233 254.398C414.226 255.363 413.541 256.294 412.489 256.391L412.298 256.409L405.962 256.705C406.766 265.403 408.522 271.893 412.896 273.321C413.991 273.702 415.174 273.979 415.271 275.03C415.289 275.221 415.22 275.517 415.15 275.812Z" fill="#00FF00"/>
<path d="M261.008 202.985L255.148 204.978L249.89 189.514C249.163 187.379 246.825 186.243 244.669 186.977C242.514 187.709 241.352 190.036 242.078 192.171L247.338 207.636L241.48 209.629C239.323 210.362 238.163 212.685 238.889 214.82L240.204 218.686L267.541 209.389L266.226 205.523C265.5 203.388 263.164 202.251 261.008 202.985Z" fill="#00FF00"/>
<path d="M246.777 238.016L278.02 227.391C274.539 225.698 272.089 222.762 270.939 219.382L268.527 212.289L241.189 221.586L246.777 238.016Z" fill="#00FF00"/>
<path d="M427.312 321.509C426.154 323.537 425.522 324.494 423.806 324.077C423.383 323.974 422.945 324.175 422.745 324.564C422.546 324.952 422.637 325.427 422.966 325.711C423.059 325.791 425.269 327.684 428.255 328.67L428.256 328.67C430.338 329.357 432.29 329.44 434.059 328.917C436.156 328.296 437.944 326.833 439.384 324.572L435.557 316.859C430.439 316.044 428.639 319.185 427.312 321.509Z" fill="#00FF00"/>
<path d="M466.271 306.045C466.168 305.837 465.954 305.56 465.519 305.416C465.009 305.248 463.654 304.801 453.105 309.113C448.233 311.106 442.524 313.676 437.91 315.943L441.542 323.262C446.362 320.705 452.092 317.397 456.746 314.47C459.686 312.623 461.993 311.06 463.604 309.824C465.737 308.187 466.794 307.1 466.271 306.045Z" fill="#00FF00"/>
<path d="M434.765 331.333C432.496 332.004 430.041 331.913 427.465 331.063C424.075 329.944 421.597 327.857 421.324 327.621C420.112 326.573 419.779 324.843 420.513 323.414C421.232 322.014 422.781 321.28 424.306 321.606C424.561 321.264 424.934 320.61 425.134 320.26C425.87 318.972 426.877 317.207 428.611 315.913C430.505 314.5 432.834 313.962 435.544 314.309C437.486 313.335 439.683 312.284 441.96 311.234C441.143 310.752 440.546 309.917 440.412 308.907C440.18 307.169 441.409 305.575 443.153 305.351C444.901 305.126 446.504 306.355 446.734 308.096C446.779 308.439 446.766 308.776 446.705 309.098C448.577 308.277 450.427 307.49 452.162 306.781C452.172 306.776 452.182 306.772 452.192 306.768C451.636 303.344 450.31 300.034 448.306 297.175C445.43 293.068 441.382 290.062 436.602 288.483C436.601 288.482 436.6 288.482 436.599 288.481C433.372 287.416 429.077 287.253 425.388 288.056C420.866 289.041 417.796 291.34 416.744 294.53C415.473 298.382 417.105 300.708 418.417 302.576C419.486 304.1 420.33 305.303 419.728 307.13C419.125 308.957 417.731 309.421 415.966 310.007C413.801 310.727 411.106 311.623 409.835 315.475C408.783 318.665 409.882 322.342 412.929 325.827C415.416 328.672 418.966 331.101 422.192 332.167C422.195 332.168 422.197 332.169 422.199 332.169C428.055 334.103 434.309 333.651 439.81 330.897C443.935 328.832 447.266 325.659 449.487 321.743C446.644 323.371 443.81 324.927 441.304 326.228C439.558 328.849 437.361 330.565 434.765 331.333ZM434.05 297.691C434.959 296.188 436.919 295.709 438.428 296.621C439.935 297.529 440.423 299.483 439.517 300.984C438.609 302.484 436.649 302.962 435.139 302.053C433.629 301.146 433.142 299.19 434.05 297.691ZM422.387 299.987C421.774 298.338 422.615 296.512 424.265 295.906C425.916 295.302 427.751 296.144 428.367 297.79C428.979 299.436 428.137 301.262 426.487 301.871C424.839 302.478 423.001 301.633 422.387 299.987ZM417.411 320.41C416.445 318.939 416.856 316.97 418.33 316.012C419.802 315.055 421.779 315.471 422.745 316.942C423.71 318.412 423.299 320.381 421.827 321.338C420.354 322.297 418.377 321.88 417.411 320.41Z" fill="#00FF00"/>
<path d="M361.63 183.422C361.541 182.973 361.11 182.68 360.667 182.767L345.84 185.701C345.398 185.788 345.111 186.223 345.2 186.672L345.423 187.801C345.512 188.25 345.943 188.543 346.385 188.456L361.212 185.522C361.267 185.512 361.311 185.481 361.361 185.46L361.432 184.861C361.468 184.566 361.592 184.306 361.76 184.079L361.63 183.422Z" fill="#00FF00"/>
<path d="M359.129 218.876L361.011 218.503C361.449 218.349 361.963 218.112 362.384 217.766C362.374 217.558 362.381 217.346 362.416 217.128C362.6 215.989 362.6 215.989 362.495 215.56C362.363 215.012 362.118 213.992 361.814 211.139C361.54 208.573 361.541 207.366 361.541 206.566C361.541 205.575 361.542 205.341 360.927 203.592C360.369 202.006 360.061 201.132 361.013 200.569C361.063 200.539 361.215 200.449 361.315 199.617C361.593 197.287 361.024 191.615 360.879 190.244C360.715 190.045 360.61 189.807 360.568 189.54C360.429 188.652 361.093 187.757 361.227 187.586L361.512 187.226L361.647 187.243C361.52 187.083 361.425 186.9 361.362 186.703L345.814 189.779C345.814 189.779 345.274 191.259 346.156 191.507C346.156 191.507 349.107 198.002 349.65 200.747C350.193 203.492 348.247 201.553 350.354 204.306C352.46 207.059 351.197 205.935 353.625 211.371C356.054 216.806 355.724 214.612 356.11 217.091C356.368 218.741 358.037 218.931 359.129 218.876Z" fill="#00FF00"/>
<path d="M358.526 224.565L361.704 223.936L362.04 221.134C362.125 220.422 362.647 219.853 363.341 219.715C363.343 219.715 363.345 219.715 363.348 219.715C363.194 219.58 363.05 219.43 362.924 219.263C362.86 219.18 362.816 219.088 362.763 219L357.626 220.016C357.184 220.104 356.897 220.54 356.985 220.988L357.563 223.909C357.652 224.359 358.084 224.652 358.526 224.565Z" fill="#00FF00"/>
<path d="M378.093 188.954C378.43 188.887 378.701 188.609 378.744 188.245L378.88 187.103C378.935 186.649 378.615 186.234 378.167 186.176L363.154 184.248C363.065 184.237 362.977 184.239 362.895 184.256C362.806 184.273 362.723 184.307 362.647 184.352C362.446 184.469 362.303 184.672 362.258 184.917C362.254 184.933 362.246 184.948 362.244 184.966L362.156 185.701L362.108 186.108C362.107 186.116 362.11 186.124 362.109 186.133C362.096 186.279 362.13 186.414 362.186 186.54C362.261 186.711 362.385 186.855 362.551 186.942C362.634 186.986 362.722 187.021 362.82 187.034L377.834 188.962C377.923 188.973 378.011 188.97 378.093 188.954Z" fill="#00FF00"/>
<path d="M377.583 190.124L361.868 188.105C361.868 188.105 360.897 189.337 361.659 189.852C361.659 189.852 362.459 196.946 362.127 199.72C361.796 202.495 360.545 200.039 361.697 203.317C362.85 206.596 361.996 205.13 362.626 211.054C362.744 212.15 362.851 212.967 362.946 213.589C363.366 216.326 363.549 215.251 363.223 217.266C363.211 217.338 363.214 217.402 363.21 217.471C363.194 217.693 363.202 217.902 363.248 218.089C363.255 218.118 363.268 218.144 363.277 218.172C363.333 218.361 363.418 218.531 363.525 218.685C363.679 218.906 363.872 219.098 364.093 219.256C364.258 219.376 364.436 219.476 364.617 219.565C364.932 219.72 365.255 219.833 365.545 219.913L367.451 220.158C367.742 220.154 368.07 220.131 368.402 220.066C368.429 220.06 368.456 220.051 368.483 220.045C368.913 219.241 368.921 219.201 368.959 218.793C369.011 218.233 369.108 217.19 369.744 214.398C370.316 211.888 370.708 210.75 370.967 209.997C371.287 209.062 371.364 208.841 371.348 206.99C371.333 205.308 371.325 204.382 372.417 204.166C372.6 204.13 372.836 203.714 373.001 203.37C374.019 201.267 375.316 195.73 375.622 194.389C375.532 194.146 375.509 193.887 375.555 193.621C375.712 192.738 376.63 192.115 376.812 191.998L377.198 191.753L377.32 191.813C377.317 191.806 377.312 191.801 377.31 191.794C377.168 191.374 377.196 190.925 377.389 190.529L377.583 190.124Z" fill="#00FF00"/>
<path d="M363.212 225.117L365.962 225.47L366.722 223.899C366.948 223.433 367.366 223.108 367.869 223.009C368.053 222.972 368.238 222.971 368.42 222.998C368.318 222.819 368.23 222.629 368.164 222.429C368.017 221.984 368.002 221.526 368.09 221.076L364.404 220.602L363.977 220.547L363.761 220.52C363.672 220.509 363.585 220.512 363.502 220.528C363.166 220.595 362.895 220.873 362.852 221.238L362.499 224.19C362.499 224.193 362.5 224.196 362.5 224.201C362.484 224.346 362.517 224.482 362.571 224.609C362.681 224.873 362.912 225.078 363.212 225.117Z" fill="#00FF00"/>
<path d="M393.299 196.303L379.713 189.492C379.546 189.408 379.364 189.387 379.193 189.421C379.145 189.431 379.104 189.463 379.058 189.482C378.886 189.55 378.734 189.665 378.639 189.842C378.635 189.852 378.624 189.856 378.619 189.866L378.122 190.897C377.943 191.266 378.073 191.695 378.395 191.927C378.43 191.953 378.456 191.987 378.497 192.007L378.791 192.154L392.083 198.818C392.25 198.903 392.433 198.923 392.603 198.889C392.844 198.842 393.06 198.685 393.177 198.444L393.675 197.413C393.873 197.003 393.705 196.506 393.299 196.303Z" fill="#00FF00"/>
<path d="M391.54 201.826C391.589 201.826 391.634 201.821 391.676 201.813C392.439 201.662 392.303 200.249 392.303 200.249L377.248 192.701C377.248 192.701 375.931 193.54 376.485 194.279C376.485 194.279 374.946 201.234 373.735 203.739C373.201 204.843 372.826 204.93 372.577 204.98C372.571 204.981 372.564 204.982 372.558 204.984C372.256 205.043 372.147 205.084 372.164 206.986C372.194 210.461 371.86 208.795 370.54 214.589C369.584 218.785 369.869 218.928 369.653 219.522C369.595 219.682 369.498 219.881 369.332 220.198C369.299 220.259 369.263 220.326 369.226 220.398C369.184 220.477 369.144 220.553 369.093 220.645C369.074 220.682 369.066 220.716 369.049 220.751C369.044 220.761 369.041 220.771 369.037 220.78C368.975 220.916 368.929 221.049 368.899 221.181C368.714 221.986 369.1 222.684 369.617 223.225C369.736 223.349 369.86 223.467 369.987 223.575C370.114 223.682 370.241 223.777 370.364 223.867C370.388 223.883 370.411 223.899 370.434 223.915L372.158 224.78C372.723 224.968 373.467 225.132 374.139 224.998C374.706 224.886 375.218 224.564 375.52 223.867C376.515 221.576 375.646 223.606 379.353 219.007C383.06 214.408 381.559 215.155 384.282 213.061C387.005 210.967 384.642 212.319 385.854 209.813C387.065 207.308 391.54 201.826 391.54 201.826Z" fill="#00FF00"/>
<path d="M371.316 230.436C371.484 230.521 371.666 230.541 371.836 230.507C372.077 230.46 372.294 230.303 372.41 230.062L373.699 227.397C373.898 226.986 373.729 226.489 373.324 226.286L370.005 224.622L369.87 224.554L369.482 224.36L368.549 223.892C368.382 223.808 368.2 223.788 368.03 223.821C367.789 223.869 367.572 224.026 367.456 224.267L366.82 225.58L366.166 226.933C365.967 227.343 366.135 227.84 366.541 228.044L371.316 230.436Z" fill="#00FF00"/>
<path d="M320.551 295.208L309.132 288.28C308.354 287.802 307.336 288.045 306.857 288.823L306.85 288.835L299.917 300.223L290.95 302.403C290.062 302.619 289.517 303.513 289.733 304.401L296.766 333.332C296.981 334.22 297.876 334.765 298.763 334.549L337.333 325.174C338.22 324.958 338.765 324.064 338.549 323.176L331.517 294.245C331.301 293.357 330.406 292.812 329.519 293.028L320.551 295.208ZM308.836 291.961L315.987 296.317L304.481 299.114L308.836 291.961ZM334.944 322.35L299.589 330.944L293.338 305.227L328.693 296.633L334.944 322.35ZM305.324 312.527C303.549 312.958 301.76 311.869 301.329 310.094C300.897 308.318 301.987 306.529 303.762 306.098C305.537 305.666 307.326 306.756 307.757 308.531C308.189 310.307 307.1 312.095 305.324 312.527ZM330.949 319.917L306.843 325.776L309.32 314.96L315.291 322.02L319.007 305.797L330.949 319.917Z" fill="#00FF00"/>
</svg>
