<svg xmlns="http://www.w3.org/2000/svg" width="700" height="500" fill="none" viewBox="0 0 700 500"><path fill="#FFFB00" stroke="#FFFB00" stroke-width="20" d="M163.369 248.151L163 257V257.387C163 259.115 163.311 260.829 163.918 262.447C164.305 263.479 164.809 264.463 165.42 265.38L166.5 267L168.503 270.004C169.827 271.991 171.432 273.776 173.266 275.305C175.407 277.089 177.833 278.5 180.442 279.478L181.372 279.827C183.451 280.607 185.609 281.158 187.807 281.472L188 281.5C189.997 281.833 192.017 282 194.041 282H197.764C198.587 282 199.409 281.942 200.223 281.825L201.527 281.639C202.173 281.547 202.804 281.37 203.403 281.113L204.925 280.461C205.618 280.164 206.395 280.132 207.109 280.37C207.369 280.456 207.615 280.577 207.843 280.728L210.5 282.5L210.579 282.553C211.521 283.18 212.36 283.95 213.067 284.834C213.686 285.608 214.201 286.47 214.592 287.381C215.187 288.771 215.5 290.28 215.5 291.792V292.712C215.5 293.565 215.362 294.413 215.093 295.222L214.744 296.269C214.583 296.75 214.314 297.186 213.955 297.545C213.344 298.156 212.514 298.5 211.649 298.5H211.267C210.441 298.5 209.633 298.745 208.946 299.203L208.841 299.273C208.614 299.424 208.403 299.597 208.211 299.789C207.435 300.565 207 301.616 207 302.712V302.897C207 303.297 207.052 303.696 207.156 304.082L214.5 331.5L216.888 340.098C216.963 340.365 217.062 340.625 217.187 340.873L217.283 341.066C217.427 341.354 217.616 341.616 217.843 341.843C218.271 342.271 218.819 342.559 219.414 342.668L237.5 346L239.055 346.389C239.351 346.463 239.654 346.5 239.958 346.5C240.945 346.5 241.892 346.108 242.59 345.41L243 345L252 336.5L253.306 335.194C253.435 335.065 253.583 334.959 253.745 334.877C254.22 334.64 254.78 334.64 255.255 334.877L255.289 334.894C255.429 334.964 255.578 335.016 255.732 335.046L263 336.5L268 337.5L269.92 337.884C270.306 337.961 270.698 338 271.091 338H271.643C272.207 338 272.762 337.869 273.266 337.617C274.061 337.22 274.682 336.544 275.012 335.719L275.164 335.341C275.386 334.785 275.5 334.193 275.5 333.595V333.252C275.5 332.752 275.442 332.254 275.328 331.768L273.874 325.588C273.63 324.555 273.712 323.471 274.106 322.485C274.366 321.835 274.755 321.245 275.25 320.75L276 320L277.343 318.925C278.112 318.31 278.944 317.778 279.825 317.337C280.937 316.782 282.118 316.376 283.336 316.133L286.5 315.5L289.5 315L308.542 312.559C308.847 312.52 309.147 312.451 309.438 312.354L310.013 312.162C310.333 312.056 310.624 311.876 310.863 311.637C311.271 311.229 311.5 310.676 311.5 310.099V309L310.5 301L309.042 287.877C309.015 287.639 309.099 287.401 309.269 287.231C309.417 287.083 309.618 287 309.827 287H311H314L319 286.5L325.5 285L329.334 283.526C331.106 282.844 332.797 281.969 334.377 280.915L335.26 280.326C336.085 279.777 336.853 279.147 337.553 278.447L339.734 276.266C340.235 275.765 340.863 275.409 341.551 275.237C342.174 275.081 342.826 275.081 343.449 275.237L343.681 275.295C344.223 275.431 344.737 275.658 345.202 275.968L345.294 276.029C345.761 276.341 346.172 276.73 346.509 277.179C347.152 278.036 347.5 279.079 347.5 280.151V281L347 287.5V289.492C347 289.829 347.054 290.163 347.161 290.482L347.179 290.536C347.387 291.161 347.798 291.698 348.346 292.064C348.774 292.35 349.27 292.519 349.785 292.554L363.169 293.477C363.389 293.492 363.608 293.527 363.822 293.581C364.887 293.847 365.783 294.565 366.273 295.547L366.307 295.615C366.435 295.871 366.535 296.14 366.604 296.418L366.736 296.943C366.911 297.645 367 298.366 367 299.09V299.17C367 300.379 366.769 301.577 366.32 302.699L366 303.5L364.5 306.5C363.836 308.161 363.372 309.895 363.119 311.666L362.5 316L362 326L361.5 333V341.5L361.895 345.844C361.965 346.613 362.107 347.374 362.319 348.117L362.66 349.311C362.885 350.096 363.263 350.828 363.773 351.466C364.571 352.464 365.66 353.189 366.889 353.54L367.432 353.695C368.141 353.897 368.874 354 369.61 354H371.411C372.469 354 373.525 353.919 374.571 353.758L375.604 353.599C378.193 353.201 380.728 352.509 383.16 351.536L384.5 351L385.601 350.528C387.195 349.845 388.701 348.974 390.088 347.934C391.359 346.981 392.522 345.891 393.555 344.685L395 343L395.143 342.785C396.375 340.938 397.332 338.922 397.984 336.8C398.658 334.612 399 332.336 399 330.047V327.5V327.11C399 324.046 398.665 320.991 398 318L397.5 313.5L397 309V306C397 304.044 397.579 302.131 398.664 300.504L399 300L401.042 297.55C401.346 297.185 401.692 296.856 402.073 296.571C403.005 295.871 404.117 295.453 405.279 295.363L410 295L412.881 294.52C414.957 294.174 417.003 293.666 419 293L420.932 292.275C422.307 291.76 423.627 291.108 424.873 290.33L425.717 289.802C426.57 289.269 427.359 288.641 428.07 287.93L428.575 287.425C428.858 287.142 429.168 286.888 429.5 286.666C430.16 286.226 430.9 285.92 431.678 285.764L433 285.5L433.412 285.418C434.792 285.142 436.212 285.119 437.601 285.35C438.199 285.45 438.789 285.596 439.365 285.788L439.851 285.95C440.943 286.314 441.97 286.852 442.891 287.543L443.107 287.705C443.369 287.902 443.616 288.116 443.847 288.347L444.594 289.094C444.861 289.361 445.062 289.686 445.182 290.045C445.385 290.656 445.824 291.162 446.401 291.45L446.858 291.679C447.282 291.891 447.743 292.019 448.216 292.055L454 292.5L463.699 292.962C464.23 292.987 464.756 293.085 465.261 293.254L465.52 293.34C465.839 293.446 466.142 293.594 466.421 293.781L466.458 293.805C467.133 294.256 467.639 294.918 467.896 295.688C467.965 295.896 468.016 296.109 468.047 296.326L468.5 299.5L468.775 301.424C468.919 302.433 468.656 303.458 468.045 304.274C467.686 304.751 467.222 305.139 466.688 305.406L465.722 305.889C464.913 306.294 464.174 306.826 463.534 307.466L463 308L461.93 309.338C461.319 310.101 460.9 311.001 460.708 311.96C460.57 312.648 460.552 313.355 460.654 314.05L463 330L465.021 342.124C465.337 344.024 466.009 345.848 467 347.5L467.23 347.845C467.735 348.602 468.428 349.214 469.241 349.621C469.744 349.872 470.284 350.04 470.84 350.12L471.786 350.255C472.922 350.417 474.076 350.403 475.208 350.212L512 344L516.176 342.747C516.717 342.585 517.209 342.291 517.608 341.892C517.868 341.632 518.084 341.333 518.248 341.005L518.695 340.109C518.898 339.704 519.072 339.284 519.215 338.854L519.361 338.418C519.784 337.148 520 335.817 520 334.478C520 333.827 519.949 333.177 519.848 332.534L515.5 305L515.139 303.556C515.047 303.187 515 302.808 515 302.427C515 301.193 515.49 300.01 516.363 299.137L516.5 299C517.149 298.351 517.991 297.93 518.9 297.8L521 297.5L525 297L526.397 296.721C527.129 296.574 527.838 296.331 528.506 295.997L529.601 295.449C530.19 295.155 530.692 294.712 531.057 294.164C531.349 293.726 531.547 293.232 531.637 292.714L533.221 283.606C533.407 282.537 533.5 281.455 533.5 280.37V279.137C533.5 278.713 533.458 278.291 533.375 277.875L533.312 277.562C533.109 276.543 533.206 275.486 533.592 274.521C533.861 273.847 534.265 273.235 534.778 272.722L534.838 272.662C535.276 272.224 535.783 271.859 536.338 271.581L536.786 271.357C537.261 271.12 537.714 270.84 538.139 270.521L538.801 270.024C539.267 269.675 539.706 269.294 540.118 268.882L540.356 268.644C541.439 267.561 542.278 266.258 542.816 264.823L542.873 264.673C543.287 263.567 543.5 262.395 543.5 261.213C543.5 260.407 543.401 259.605 543.206 258.823L542.5 256L542.166 254.832C541.723 253.281 541.137 251.774 540.416 250.331L540.147 249.794C539.716 248.933 539.219 248.106 538.659 247.322C537.56 245.783 536.23 244.422 534.717 243.288L533 242L531.322 240.993C530.781 240.669 530.318 240.227 529.968 239.702C529.659 239.238 529.444 238.719 529.335 238.173L529.112 237.061C529.038 236.688 529 236.308 529 235.927C529 234.676 529.406 233.459 530.156 232.458L530.236 232.351C530.412 232.117 530.604 231.896 530.811 231.689L531.482 231.018C531.827 230.673 532.196 230.353 532.586 230.06L533.103 229.673C533.697 229.227 534.21 228.685 534.622 228.067C534.873 227.69 535.085 227.288 535.253 226.867L535.632 225.92C535.875 225.312 536 224.664 536 224.009C536 223.671 535.967 223.333 535.9 223.001L535.712 222.06C535.571 221.354 535.378 220.66 535.136 219.982L530.5 207L527.286 198.276C527.103 197.781 527.134 197.232 527.37 196.761C527.456 196.588 527.568 196.429 527.702 196.29L540.215 183.296C540.405 183.099 540.576 182.885 540.728 182.658C541.231 181.903 541.5 181.016 541.5 180.109V179.144C541.5 178.715 541.465 178.288 541.394 177.865L541.153 176.421C541.052 175.814 540.824 175.235 540.482 174.724C540.164 174.246 539.754 173.836 539.276 173.518L539.196 173.464C538.735 173.157 538.225 172.931 537.688 172.797L537.331 172.708C536.779 172.57 536.21 172.5 535.641 172.5C534.888 172.5 534.136 172.621 533.421 172.86L533.041 172.986C532.021 173.326 531.067 173.837 530.218 174.497L528.506 175.828C527.504 176.608 526.571 177.472 525.716 178.412L522 182.5L518.216 186.284C518.073 186.427 517.908 186.546 517.727 186.637C517.263 186.869 516.724 186.899 516.237 186.721L496.5 179.5L494.608 178.689C493.547 178.235 492.405 178 491.25 178C490.095 178 488.953 178.235 487.892 178.689L486.876 179.125C486.297 179.373 485.771 179.729 485.326 180.174C484.783 180.717 484.374 181.379 484.131 182.108L483.822 183.034C483.609 183.674 483.5 184.344 483.5 185.018C483.5 185.993 483.727 186.954 484.163 187.825L484.5 188.5C485.163 189.495 485.966 190.389 486.885 191.154L491.5 195L499.155 200.742C499.385 200.914 499.602 201.102 499.805 201.305L500.349 201.849C500.449 201.949 500.532 202.065 500.596 202.191C500.839 202.679 500.758 203.266 500.392 203.669L496 208.5L492.741 211.759C492.581 211.919 492.397 212.051 492.195 212.152C491.747 212.377 491.233 212.433 490.746 212.312L483.5 210.5L482.949 210.316C482.32 210.107 481.662 210 481 210H480.574C480.194 210 479.816 210.061 479.455 210.182C478.831 210.39 478.277 210.768 477.855 211.273L476.523 212.872C476.185 213.278 476 213.789 476 214.317C476 214.762 476.132 215.198 476.379 215.568L476.661 215.992C476.886 216.328 477.161 216.629 477.477 216.882L480.929 219.643C481.641 220.213 482.287 220.859 482.857 221.571C483.615 222.519 484.229 223.572 484.68 224.699L485 225.5C485.978 227.456 486.355 229.658 486.084 231.828L486 232.5L485.694 234.335C485.57 235.083 485.161 235.754 484.555 236.209C483.884 236.712 483.03 236.906 482.207 236.741L481 236.5L477 236L474.031 235.753C472.018 235.585 469.992 235.668 468 236C466.337 236.333 464.646 236.5 462.951 236.5H462.5L451.5 236H450.817C450.294 236 449.792 236.208 449.422 236.578C449.147 236.853 448.959 237.204 448.883 237.586L448.5 239.5L448.128 244.342C448.045 245.412 447.583 246.417 446.824 247.176C446.284 247.716 445.614 248.11 444.88 248.32L444.042 248.559C443.025 248.85 441.959 248.932 440.909 248.801L440.691 248.774C439.259 248.595 437.903 248.022 436.775 247.12C436.261 246.708 435.8 246.233 435.404 245.706L434.683 244.744C433.568 243.258 432.221 241.961 430.693 240.903L428.897 239.66C427.303 238.556 425.602 237.615 423.82 236.851C420.959 235.625 417.918 234.868 414.816 234.61L413.5 234.5H409.5L407.814 234.64C404.948 234.879 402.121 235.46 399.393 236.369C397.136 237.121 394.96 238.094 392.895 239.274L389 241.5L387.613 242.293C386.268 243.061 384.66 243.22 383.191 242.73C382.733 242.578 382.296 242.364 381.894 242.096L380.607 241.238C379.873 240.749 379.22 240.149 378.669 239.461L378.323 239.029C377.781 238.351 377.391 237.564 377.18 236.721C377.061 236.242 377 235.75 377 235.257V232L378.5 214V212.124C378.5 211.404 378.214 210.714 377.705 210.205C377.25 209.75 376.648 209.471 376.006 209.419L358.5 208H355H353.618C352.626 208 351.72 207.44 351.276 206.553C351.095 206.189 351 205.788 351 205.382V203V196.742C351 194.921 350.777 193.107 350.335 191.34C349.782 189.126 348.891 187.011 347.696 185.068L347.557 184.843C346.195 182.629 344.482 180.651 342.485 178.987L342.075 178.646C340.366 177.222 338.474 176.033 336.448 175.113C334.821 174.373 333.118 173.811 331.37 173.437L330.919 173.34C328.319 172.783 325.654 172.584 323 172.75L322.355 172.79C320.124 172.93 317.912 173.29 315.752 173.866L313.619 174.435C312.212 174.81 310.856 175.358 309.583 176.065C307.873 177.015 306.332 178.242 305.023 179.697L303.347 181.558C302.783 182.185 302.265 182.852 301.797 183.554C300.936 184.846 300.251 186.246 299.76 187.719L298.577 191.27C298.193 192.422 297.9 193.601 297.7 194.799C297.237 197.576 297.283 200.415 297.835 203.177L298 204L298.606 207.03C298.868 208.341 299.236 209.629 299.705 210.881C300.234 212.291 300.89 213.649 301.664 214.94L302 215.5L303.5 217.5L306 220.5L307.736 222.67C307.911 222.888 308.045 223.136 308.134 223.401C308.365 224.094 308.259 224.861 307.854 225.469C307.623 225.815 307.304 226.098 306.933 226.284L306.085 226.708C305.696 226.902 305.287 227.053 304.866 227.159L303.5 227.5L301 228.5L298 230C296.674 230.663 295.255 231.119 293.792 231.353L283.5 233L280.392 233.345C279.509 233.443 278.716 233.927 278.223 234.665C278.075 234.887 277.957 235.128 277.873 235.382L277.678 235.966C277.56 236.32 277.5 236.69 277.5 237.063V237.149C277.5 238.014 277.156 238.844 276.545 239.455C276.186 239.814 275.75 240.083 275.269 240.244L275.111 240.296C274.706 240.431 274.283 240.5 273.856 240.5H273.238C272.431 240.5 271.641 240.261 270.97 239.813C270.658 239.605 270.376 239.356 270.133 239.072L269 237.75C268.005 236.589 266.855 235.57 265.582 234.721L264.5 234L264.394 233.947C263.806 233.653 263.158 233.5 262.5 233.5C261.848 233.5 261.21 233.693 260.668 234.055L260 234.5L255.5 238L253.5 239.5L251.666 240.876C251.555 240.958 251.451 241.049 251.354 241.146L250.854 241.646C250.627 241.873 250.32 242 250 242C249.69 242 249.402 241.837 249.243 241.571L248 239.5L246 236L244 232.5L242.724 230.373C242.575 230.125 242.397 229.897 242.192 229.692C241.739 229.239 241.172 228.918 240.55 228.763L240.115 228.654C239.707 228.552 239.287 228.5 238.866 228.5H238.5C237.836 228.5 237.174 228.581 236.53 228.743L235.5 229L223.5 233L221 234L219.28 234.43C219.094 234.476 218.903 234.5 218.711 234.5C218.247 234.5 217.794 234.363 217.408 234.106L216.87 233.746C216.624 233.583 216.395 233.395 216.186 233.186L214.5 231.5C213.17 229.838 211.676 228.313 210.04 226.95L209.5 226.5L208 225.5C206.694 224.847 205.601 223.835 204.85 222.583L204.824 222.539C204.608 222.18 204.422 221.805 204.266 221.416L204.099 220.998C203.701 220.003 203.423 218.964 203.272 217.902L203.186 217.303C203.062 216.435 203 215.56 203 214.684V211.5V211.219C203 210.088 203.263 208.974 203.769 207.963C203.923 207.655 204.055 207.336 204.164 207.009L204.201 206.898C204.4 206.301 204.535 205.685 204.605 205.059L205 201.5V199C205 198.34 204.866 197.687 204.606 197.081L203.964 195.582C203.655 194.862 203.281 194.172 202.847 193.521L202.5 193C201.835 192.002 201.085 191.063 200.258 190.193L192 181.5L189.5 178.5C188.836 177.836 188.093 177.256 187.287 176.772L186.678 176.407C186.227 176.136 185.754 175.902 185.265 175.706L184.428 175.371C183.815 175.126 183.161 175 182.5 175H181.707C181.254 175 180.82 174.82 180.5 174.5L179.5 173.5L178.822 172.822C178.609 172.609 178.362 172.431 178.093 172.296C177.703 172.101 177.273 172 176.837 172H176.185C175.73 172 175.277 172.056 174.835 172.166L174.743 172.189C173.922 172.394 173.152 172.761 172.475 173.268L171.893 173.705C171.631 173.902 171.384 174.116 171.153 174.347L170.663 174.837C170.227 175.273 169.899 175.804 169.704 176.389C169.569 176.794 169.5 177.217 169.5 177.644V177.853C169.5 178.283 169.553 178.711 169.657 179.128L169.891 180.062C169.963 180.353 170.068 180.635 170.202 180.904L170.442 181.384C170.48 181.461 170.531 181.531 170.592 181.592C170.836 181.836 170.896 182.208 170.742 182.516L170.566 182.868C170.522 182.956 170.488 183.048 170.464 183.143L170.264 183.943C170.089 184.645 170 185.366 170 186.09V186.5C170 187.164 170.081 187.826 170.243 188.47L170.464 189.357C170.488 189.452 170.522 189.544 170.566 189.632L170.684 189.868C170.873 190.245 170.799 190.701 170.5 191L170.322 191.178C170.109 191.391 169.862 191.569 169.593 191.704L169.162 191.919C169.056 191.972 168.938 192 168.818 192C168.615 192 168.419 191.919 168.275 191.775L168.141 191.641C168.048 191.548 167.97 191.44 167.911 191.322L167.5 190.5L167.44 190.38C167.149 189.797 166.765 189.265 166.305 188.805C166.102 188.602 165.885 188.414 165.655 188.242L164.894 187.671C164.299 187.225 163.665 186.833 163 186.5C162.36 186.18 161.873 185.618 161.646 184.939L161.573 184.72C161.524 184.573 161.465 184.431 161.396 184.293L161.384 184.269C161.132 183.763 160.765 183.323 160.313 182.984L159.5 182.375C159.167 182.126 158.813 181.906 158.441 181.72L158.431 181.715C158.144 181.572 157.847 181.449 157.543 181.348L157.309 181.27C156.773 181.091 156.212 181 155.647 181C155.217 181 154.789 181.053 154.372 181.157L153.634 181.341C153.213 181.447 152.804 181.598 152.415 181.792L151.976 182.012C151.336 182.332 150.791 182.813 150.395 183.408C150.134 183.8 149.942 184.234 149.827 184.69L149.708 185.169C149.57 185.721 149.5 186.288 149.5 186.856V187.5V188.429C149.5 188.795 149.355 189.145 149.096 189.404C149.032 189.468 148.975 189.538 148.924 189.614L148.575 190.138C148.193 190.71 147.89 191.331 147.672 191.983L147.351 192.946C147.117 193.648 146.939 194.366 146.817 195.096C146.607 196.359 146.569 197.646 146.704 198.92L149 220.5C149.325 221.801 150.047 222.969 151.065 223.842L153 225.5C154.985 226.823 157.183 227.796 159.498 228.374L160 228.5L162.5 229L163.963 229.366C164.32 229.455 164.666 229.583 164.995 229.748L165.329 229.915C166.089 230.295 166.705 230.911 167.085 231.671C167.358 232.216 167.5 232.817 167.5 233.427V233.877C167.5 234.619 167.358 235.354 167.083 236.043L166.5 237.5L165.711 239.078C165.238 240.025 164.832 241.004 164.497 242.008C163.836 243.993 163.456 246.061 163.369 248.151Z"/><path fill="red" d="M203.885 279.862L202.76 280.107C181.466 284.74 167.609 272.527 164.506 258.268C161.587 244.854 168 228.722 189.388 224.068C212.651 219.007 218.194 239.513 218.868 242.609C219.806 246.924 218.8 250.876 213.673 253.956C209.591 256.417 202.874 258.959 198.037 260.208C196.536 260.534 195.924 259.98 195.304 258.936C193.505 256.085 190.396 250.376 190.314 250C190.09 248.968 190.738 248.336 191.896 247.789C196.529 245.602 197.145 245.272 196.859 243.959C196.676 243.114 194.24 240.5 190.3 241.358C185.798 242.337 182.903 247.094 184.168 252.91C185.617 259.57 192.128 266.013 203.854 263.461C204.51 263.319 205.261 263.155 205.897 262.919L206.085 262.878C207.398 262.592 209.176 263.089 209.523 264.684C209.727 265.622 208.676 272.531 207.963 276.027C207.539 277.691 206.606 279.27 203.885 279.862Z"/><path fill="red" d="M270.575 283.902L255.591 289.057C254.35 289.544 253.452 289.696 252.693 289.579C251.745 289.431 250.964 288.825 250.098 287.524L242.319 275.048C237.221 277.851 231.663 280.486 227.566 282.473C226.419 282.975 225.492 283.317 224.543 283.17C223.974 283.081 223.339 282.788 222.764 282.116L212.968 271.367C212.057 270.351 211.715 269.424 211.833 268.665C211.936 268.001 212.324 267.381 213.186 266.835C216.853 264.489 223.844 260.134 230.25 255.785L219.915 239.123C219.289 238.151 219.122 237.348 219.225 236.684C219.373 235.735 220.264 234.999 221.491 234.607L236.964 229.431C237.781 229.169 238.475 229.082 239.139 229.185C240.372 229.377 241.407 230.218 242.099 231.394L249.557 243.432L260.969 235.002C261.736 234.441 262.474 234.07 263.328 234.202C264.087 234.32 264.881 234.832 265.792 235.848L276.689 247.643C277.439 248.439 277.73 249.067 277.627 249.731C277.127 252.957 264.254 262.034 262.077 263.542L272.121 279.576C272.667 280.438 272.849 281.146 272.746 281.81C272.599 282.759 271.802 283.509 270.575 283.902Z"/><path fill="red" d="M308.929 311.407L289.819 313.539C288.872 313.698 287.877 312.989 287.702 311.947L287.671 311.758L278.921 236.327C278.841 235.269 279.55 234.274 280.497 234.116L280.686 234.084L296.641 232.286C300.458 230.088 304.497 228.633 308.473 227.966C325.137 225.173 342.128 234.785 345.016 252.016C347.904 269.248 337.516 282.183 319.621 285.183C315.645 285.849 311.668 285.932 307.974 285.383L310.695 309.164C310.79 310.316 310.065 311.216 308.929 311.407ZM303.742 248.519L305.874 267.63C308.132 268.322 311.005 268.619 313.656 268.175C314.413 268.048 323.502 266.524 321.757 256.11C320.662 249.577 314.976 245.857 308.349 246.968C306.834 247.222 305.272 247.776 303.742 248.519Z"/><path fill="red" d="M369.255 292.839L350.016 291.358C348.963 291.277 348.168 290.349 348.249 289.296L354.268 211.095C354.357 209.947 355.284 209.152 356.337 209.233L375.576 210.714C376.629 210.795 377.424 211.722 377.336 212.871L371.317 291.072C371.236 292.125 370.308 292.92 369.255 292.839Z"/><path fill="red" d="M440.169 259.693C443.212 278.164 426.157 291.578 412.706 293.794C397.266 296.337 381.88 287.39 379.134 270.719C375.92 251.206 388.838 238.668 405.509 235.922C426.443 232.474 438.141 247.379 440.169 259.693ZM412 275.327C418.725 274.219 420.851 268.226 419.962 262.827C419.666 261.027 417.773 251.901 408.111 253.493C400.155 254.803 398.989 261.903 399.691 266.166C400.768 272.701 406.6 276.216 412 275.327Z"/><path fill="red" d="M467.274 292.378L448.178 291.188C447.034 291.053 446.171 290.178 446.306 289.034L449.485 239.143C449.62 237.999 450.591 237.146 451.64 237.27L462.766 238.003C468.106 236.99 473.154 236.812 477.92 237.374C481.162 237.757 484.263 238.509 487.14 239.525C488.525 240.075 489.007 240.906 488.872 242.05C488.827 242.431 488.687 242.801 488.535 243.267L484.184 256.383C483.741 257.684 482.709 258.239 481.565 258.104C481.279 258.07 480.909 257.93 480.538 257.79C479.069 257.133 477.482 256.656 475.861 256.464C474.527 256.307 473.169 256.34 471.599 256.542L469.429 290.505L469.406 290.696C469.282 291.745 468.323 292.501 467.274 292.378Z"/><path fill="red" d="M526.878 295.503L525.75 295.733C504.396 300.082 490.702 287.686 487.79 273.387C485.05 259.935 491.677 243.89 513.124 239.521C536.453 234.77 541.723 255.348 542.355 258.452C543.236 262.779 542.177 266.718 537.01 269.73C532.896 272.135 526.145 274.588 521.292 275.773C519.787 276.079 519.182 275.516 518.576 274.464C516.815 271.59 513.782 265.84 513.706 265.463C513.495 264.429 514.152 263.805 515.317 263.274C519.979 261.148 520.599 260.826 520.331 259.509C520.158 258.663 517.758 256.016 513.807 256.821C509.292 257.741 506.334 262.458 507.522 268.29C508.882 274.969 515.306 281.498 527.065 279.103C527.723 278.969 528.476 278.816 529.115 278.588L529.303 278.549C530.62 278.281 532.392 278.802 532.718 280.401C532.909 281.342 531.767 288.237 531.007 291.722C530.561 293.381 529.606 294.947 526.878 295.503Z"/><path fill="red" stroke="red" stroke-width="33.333" d="M312.658 179.018L313.105 179.802L312.658 179.018ZM312.658 179.018L311.458 176.916L312.658 179.018ZM299.588 198.623L300.758 198.665L299.588 198.623ZM299.588 198.623L298.332 198.578L299.588 198.623ZM303.532 207.956L306.551 206.716L303.532 207.956ZM303.532 207.956L302.501 208.38L303.532 207.956Z"/><mask id="path-10-inside-1_5_149" fill="#fff"><path fill-rule="evenodd" d="M539.42 174.607C536.928 172.106 532.546 172.692 530.039 175.205L517.282 187.935L493.618 179.091C491.352 178.505 489.069 177.746 486.258 180.566C484.824 182.002 481.843 184.991 486.258 189.415L502.483 202.701L491.926 213.237L482.075 210.774C480.614 210.398 479.63 210.692 478.88 211.52C478.502 211.992 475.759 214.025 477.671 215.942L489.125 224.854L498.036 236.308C499.42 237.697 500.706 236.831 502.465 235.16C503.579 234.044 503.339 233.469 503.003 231.843L500.778 222.059L511.264 211.536L524.528 227.767C528.941 232.191 531.924 229.2 533.358 227.767C536.171 224.946 535.415 222.661 534.829 220.39L526.06 196.684L538.766 183.933C541.273 181.422 541.915 177.106 539.42 174.607Z" clip-rule="evenodd"/></mask><path fill="red" d="M539.42 174.607L521.713 192.256L521.721 192.263L521.728 192.27L539.42 174.607ZM530.039 175.205L547.697 192.903L547.718 192.882L547.739 192.861L530.039 175.205ZM517.282 187.935L508.53 211.353L523.572 216.974L534.939 205.632L517.282 187.935ZM493.618 179.091L502.37 155.673L501.145 155.215L499.878 154.887L493.618 179.091ZM486.258 180.566L503.949 198.23L503.955 198.224L503.962 198.217L486.258 180.566ZM486.258 189.415L468.563 207.076L469.449 207.964L470.42 208.758L486.258 189.415ZM502.483 202.701L520.143 220.396L539.708 200.87L518.321 183.358L502.483 202.701ZM491.926 213.237L485.862 237.49L499.578 240.92L509.586 230.932L491.926 213.237ZM482.075 210.774L475.839 234.984L475.925 235.006L476.011 235.027L482.075 210.774ZM478.88 211.52L460.35 194.738L459.84 195.301L459.365 195.894L478.88 211.52ZM477.671 215.942L459.974 233.6L461.082 234.71L462.319 235.673L477.671 215.942ZM489.125 224.854L508.857 209.504L506.941 207.04L504.477 205.123L489.125 224.854ZM498.036 236.308L478.303 251.659L479.247 252.871L480.332 253.96L498.036 236.308ZM502.465 235.16L519.684 253.285L519.925 253.056L520.159 252.821L502.465 235.16ZM503.003 231.843L527.486 226.784L527.436 226.541L527.381 226.3L503.003 231.843ZM500.778 222.059L483.07 204.412L473.347 214.17L476.401 227.602L500.778 222.059ZM511.264 211.536L530.622 195.716L513.1 174.276L493.555 193.89L511.264 211.536ZM524.528 227.767L505.17 243.587L505.954 244.546L506.829 245.424L524.528 227.767ZM533.358 227.767L551.025 245.456L551.043 245.437L551.062 245.419L533.358 227.767ZM534.829 220.39L559.036 214.142L558.718 212.91L558.276 211.717L534.829 220.39ZM526.06 196.684L508.351 179.038L497.066 190.363L502.613 205.357L526.06 196.684ZM538.766 183.933L521.073 166.27L521.065 166.279L521.057 166.287L538.766 183.933ZM557.127 156.959C542.126 141.908 521.629 148.237 512.34 157.55L547.739 192.861C544.705 195.903 540.865 197.591 536.879 197.934C532.738 198.29 526.665 197.223 521.713 192.256L557.127 156.959ZM512.382 157.508L499.624 170.237L534.939 205.632L547.697 192.903L512.382 157.508ZM526.033 164.517L502.37 155.673L484.866 202.509L508.53 211.353L526.033 164.517ZM499.878 154.887C499.773 154.86 499.717 154.845 499.511 154.791C499.346 154.748 499.107 154.686 498.84 154.619C498.313 154.487 497.515 154.296 496.57 154.116C494.676 153.757 491.777 153.361 488.29 153.62C480.226 154.219 473.537 157.917 468.554 162.914L503.962 198.217C503.073 199.108 501.54 200.402 499.284 201.509C496.931 202.663 494.424 203.302 491.994 203.483C489.713 203.652 487.985 203.38 487.244 203.239C486.778 203.15 486.203 202.996 487.358 203.295L499.878 154.887ZM468.567 162.901C468.445 163.023 462.114 168.658 459.821 177.766C456.744 189.987 461.956 200.456 468.563 207.076L503.953 171.754C504.772 172.576 506.607 174.678 507.827 178.215C509.149 182.047 509.264 186.175 508.308 189.974C507.436 193.438 505.894 195.779 505.055 196.901C504.261 197.963 503.516 198.664 503.949 198.23L468.567 162.901ZM470.42 208.758L486.645 222.043L518.321 183.358L502.096 170.072L470.42 208.758ZM484.823 185.006L474.266 195.542L509.586 230.932L520.143 220.396L484.823 185.006ZM497.99 188.984L488.139 186.521L476.011 235.027L485.862 237.49L497.99 188.984ZM488.31 186.564C484.838 185.67 479.84 185.025 474.171 186.436C468.176 187.929 463.567 191.186 460.35 194.738L497.409 228.303C494.943 231.026 491.201 233.722 486.251 234.955C481.627 236.106 477.851 235.502 475.839 234.984L488.31 186.564ZM459.365 195.894C460.508 194.467 461.73 193.34 461.209 193.847C461.178 193.877 461.202 193.854 461.134 193.92C461.092 193.961 461.03 194.021 460.959 194.091C460.816 194.231 460.615 194.429 460.384 194.667C459.583 195.486 457.772 197.396 456.094 200.137C454.47 202.791 451.915 207.928 452.002 214.825C452.1 222.575 455.472 229.088 459.974 233.6L495.368 198.284C498.914 201.837 501.912 207.378 501.998 214.193C502.073 220.155 499.87 224.394 498.739 226.242C497.555 228.176 496.381 229.37 496.141 229.615C496.003 229.757 495.843 229.911 496.072 229.688C496.129 229.632 496.376 229.393 496.655 229.108C496.853 228.905 497.581 228.163 498.394 227.147L459.365 195.894ZM462.319 235.673L473.773 244.585L504.477 205.123L493.024 196.211L462.319 235.673ZM469.392 240.204L478.303 251.659L517.768 220.958L508.857 209.504L469.392 240.204ZM480.332 253.96C482.93 256.566 487.051 259.677 492.851 261.165C498.859 262.707 504.316 261.907 508.421 260.46C514.878 258.183 519.224 253.722 519.684 253.285L485.246 217.035C485.026 217.244 485.415 216.852 486.15 216.297C486.81 215.797 488.772 214.37 491.799 213.303C495.19 212.108 499.955 211.368 505.278 212.734C510.393 214.047 513.833 216.745 515.74 218.657L480.332 253.96ZM520.159 252.821C521.413 251.565 523.347 249.424 525.011 246.376C526.855 242.997 527.919 239.333 528.205 235.602C528.457 232.308 528.034 229.675 527.845 228.592C527.741 227.996 527.634 227.486 527.586 227.254C527.503 226.863 527.521 226.956 527.486 226.784L478.52 236.901C478.764 238.079 478.623 237.381 478.59 237.188C478.505 236.705 478.136 234.59 478.351 231.783C478.6 228.539 479.536 225.329 481.122 222.422C482.528 219.847 484.074 218.197 484.771 217.499L520.159 252.821ZM527.381 226.3L525.156 216.516L476.401 227.602L478.625 237.386L527.381 226.3ZM518.487 239.705L528.973 229.183L493.555 193.89L483.07 204.412L518.487 239.705ZM491.906 227.356L505.17 243.587L543.886 211.947L530.622 195.716L491.906 227.356ZM506.829 245.424C513.439 252.049 523.932 257.304 536.197 254.198C545.302 251.893 550.943 245.537 551.025 245.456L515.692 210.078C515.24 210.529 515.941 209.783 516.994 208.994C518.108 208.158 520.451 206.607 523.924 205.728C527.738 204.762 531.889 204.876 535.743 206.209C539.298 207.439 541.406 209.288 542.226 210.11L506.829 245.424ZM551.062 245.419C556.037 240.429 559.706 233.75 560.3 225.715C560.557 222.237 560.164 219.345 559.806 217.453C559.627 216.509 559.436 215.711 559.304 215.184C559.237 214.916 559.175 214.677 559.132 214.511C559.078 214.304 559.063 214.248 559.036 214.142L510.622 226.638C510.92 227.79 510.766 227.22 510.679 226.755C510.539 226.018 510.269 224.299 510.436 222.029C510.615 219.613 511.248 217.12 512.39 214.778C513.487 212.531 514.77 211.003 515.655 210.115L551.062 245.419ZM558.276 211.717L549.508 188.011L502.613 205.357L511.382 229.063L558.276 211.717ZM543.769 214.33L556.475 201.579L521.057 166.287L508.351 179.038L543.769 214.33ZM556.459 201.596C565.411 192.628 572.35 172.207 557.113 156.945L521.728 192.27C516.749 187.282 515.679 181.134 516.081 176.9C516.465 172.863 518.199 169.15 521.073 166.27L556.459 201.596Z" mask="url(#path-10-inside-1_5_149)"/><path fill="red" stroke="red" stroke-width="1.563" d="M180.257 205.519L180.354 205.457L180.736 206.253C180.932 206.662 181.149 207.061 181.391 207.45C184.913 213.08 192.348 214.788 197.998 211.26L198.355 211.832L197.998 211.26C203.649 207.732 205.37 200.306 201.849 194.676L180.257 205.519ZM180.257 205.519L180.217 205.443L179.877 204.795L179.208 205.092L173.304 207.713L172.636 208.01L172.888 208.697L172.918 208.778L172.807 208.809L173.141 209.625C173.313 210.045 173.464 210.474 173.589 210.914C175.404 217.302 171.686 223.963 165.279 225.789C158.873 227.614 152.21 223.911 150.395 217.523L150.395 217.523C150.27 217.083 150.172 216.638 150.098 216.191L149.978 215.472C149.957 215.114 149.928 214.651 149.893 214.107C149.807 212.765 149.683 210.928 149.531 208.95C149.228 205.02 148.809 200.465 148.346 198.157C147.783 194.979 148.85 191.814 151.019 189.616L151.292 189.339L151.236 188.955C151.193 188.659 151.148 188.389 151.102 188.155C150.679 185.763 152.133 183.386 154.528 182.704L154.528 182.704C156.923 182.021 159.407 183.276 160.306 185.531C160.4 185.785 160.514 186.094 160.643 186.44C160.687 186.559 160.732 186.682 160.779 186.809L160.906 187.151L161.25 187.274C163.823 188.19 165.973 190.166 167.032 192.829C167.062 192.911 167.093 192.993 167.124 193.077L167.416 193.852L168.172 193.516L172.118 191.764L172.875 191.428L172.495 190.692C172.461 190.626 172.427 190.561 172.395 190.499L172.375 190.46C171.108 187.888 171.084 184.967 172.13 182.443L172.27 182.105L172.101 181.782C171.855 181.311 171.639 180.897 171.47 180.574C170.4 178.395 171.135 175.711 173.247 174.392L180.257 205.519ZM200.605 192.99L201.06 193.563C201.341 193.917 201.606 194.288 201.849 194.676L200.605 192.99ZM200.605 192.99C200.354 192.734 200.03 192.403 199.651 192.013C198.713 191.049 197.434 189.726 196.068 188.286C193.356 185.426 190.258 182.06 188.856 180.168C186.877 177.621 183.814 176.289 180.728 176.424L180.34 176.441L180.092 176.142C179.902 175.912 179.731 175.697 179.589 175.506C178.098 173.589 175.361 173.072 173.247 174.392L200.605 192.99ZM199.543 196.115C196.813 191.749 191.053 190.429 186.678 193.16L186.678 193.16C182.303 195.893 180.966 201.645 183.697 206.012L183.697 206.012C186.427 210.376 192.188 211.698 196.562 208.966L196.149 208.303L196.562 208.966C200.937 206.234 202.273 200.48 199.543 196.115ZM199.543 196.115L198.888 196.524L199.543 196.115C199.543 196.115 199.543 196.115 199.543 196.115ZM170.977 211.66L170.977 211.66C169.569 206.706 164.404 203.84 159.444 205.253L159.444 205.253C154.485 206.666 151.601 211.825 153.008 216.778C154.415 221.73 159.58 224.598 164.54 223.185C169.5 221.772 172.383 216.612 170.977 211.66Z"/><path stroke="red" stroke-linecap="round" stroke-linejoin="round" stroke-width="7" d="M237.29 302.418L237.317 302.411M239.144 341.968L220.91 338.217L211.708 303.474L217.786 304.724M239.144 341.968L253.132 329.683M239.144 341.968L234.897 325.932M253.132 329.683L271.367 333.434L262.165 298.69L256.087 297.44M253.132 329.683L251.008 321.665M245.487 300.819C246.738 305.542 243.725 310.438 240.829 315.781C235.669 312.572 230.627 309.809 229.376 305.086C228.125 300.363 230.718 295.579 235.167 294.401C239.616 293.222 244.236 296.096 245.487 300.819Z"/><path stroke="red" stroke-width="12.5" d="M387.948 317.289C387.597 317.262 387.278 317.292 387.012 317.352C386.968 317.362 386.927 317.372 386.888 317.383C386.888 317.383 386.888 317.383 386.888 317.383C386.864 317.389 386.841 317.396 386.819 317.403C386.817 317.403 386.816 317.403 386.815 317.404C386.69 317.442 386.593 317.482 386.521 317.516C386.429 317.671 386.328 317.88 386.249 318.139C386.478 318.162 386.707 318.191 386.936 318.228C387.065 318.094 387.196 317.965 387.328 317.839C387.329 317.839 387.33 317.838 387.331 317.837C387.345 317.823 387.36 317.809 387.375 317.796C387.375 317.796 387.375 317.796 387.375 317.796C387.497 317.681 387.62 317.57 387.744 317.462L387.948 317.289ZM387.948 317.289C387.879 317.346 387.811 317.404 387.744 317.462L387.948 317.289ZM380.05 340.778C384.688 337.866 385.695 333.319 384.699 330.815C383.928 331.35 382.419 332.923 381.628 336.642L380.05 340.778ZM380.05 340.778C380.737 339.604 381.288 338.237 381.628 336.643L380.05 340.778ZM370.467 314.665C371.345 313.659 372.441 312.718 373.808 311.9L370.467 314.665ZM370.467 314.665C371.727 309.261 375.713 306.891 378.328 307.04C378.096 307.935 377.12 309.917 373.81 311.899L370.467 314.665ZM389.762 300.359C389.84 300.187 389.914 300.016 389.983 299.846L389.983 299.845C390.013 299.772 390.042 299.698 390.07 299.624C390.214 299.953 390.289 300.269 390.318 300.54C390.324 300.596 390.327 300.648 390.33 300.696C390.33 300.699 390.33 300.701 390.33 300.704C390.33 300.704 390.33 300.704 390.33 300.704C390.33 300.705 390.33 300.705 390.33 300.705C390.336 300.838 390.331 300.945 390.322 301.025C390.202 301.165 390.031 301.333 389.804 301.496C389.711 301.291 389.611 301.088 389.506 300.888C389.595 300.714 389.679 300.539 389.759 300.365C389.759 300.365 389.759 300.365 389.759 300.365C389.759 300.364 389.759 300.364 389.759 300.364C389.76 300.362 389.761 300.361 389.762 300.359ZM390.289 301.199C390.289 301.199 390.29 301.193 390.295 301.181C390.291 301.193 390.289 301.199 390.289 301.199ZM390.488 300.798C390.488 300.799 390.488 300.799 390.488 300.799C390.488 300.799 390.488 300.799 390.488 300.798ZM384.457 330.339C384.457 330.339 384.458 330.34 384.459 330.341C384.458 330.34 384.457 330.339 384.457 330.339ZM369.796 344.348C369.796 344.348 369.8 344.357 369.806 344.374C369.798 344.357 369.795 344.348 369.796 344.348ZM369.869 344.814C369.87 344.814 369.875 344.815 369.884 344.817C369.874 344.816 369.869 344.814 369.869 344.814ZM368.252 348.565C368.239 348.572 368.232 348.576 368.232 348.576C368.231 348.576 368.238 348.572 368.252 348.565ZM386.37 317.603C386.37 317.603 386.375 317.599 386.386 317.592C386.376 317.6 386.37 317.604 386.37 317.603ZM369.938 325.695C369.938 325.696 369.936 325.692 369.931 325.683C369.936 325.691 369.939 325.695 369.938 325.695ZM366.848 328.467C366.848 328.467 366.849 328.459 366.852 328.445C366.85 328.46 366.848 328.467 366.848 328.467ZM370.357 325.619C370.375 325.619 370.384 325.62 370.385 325.62C370.385 325.621 370.376 325.62 370.357 325.619Z"/><path stroke="red" stroke-linecap="round" stroke-linejoin="round" stroke-width="6" d="M491.683 332.463C496.069 331.793 499.079 327.688 498.408 323.294C497.737 318.9 493.638 315.881 489.252 316.551C484.867 317.221 481.856 321.326 482.527 325.72C483.198 330.114 487.297 333.133 491.683 332.463Z"/><path stroke="red" stroke-linecap="round" stroke-linejoin="round" stroke-width="6" d="M468.185 338.224L465.107 318.068C464.653 315.098 464.426 313.612 464.83 312.39C465.185 311.314 465.871 310.379 466.789 309.718C467.833 308.967 469.315 308.741 472.28 308.288L475.072 307.861C475.397 307.812 475.56 307.787 475.707 307.747C476.477 307.537 477.113 306.995 477.442 306.267C477.505 306.128 477.556 305.971 477.657 305.657C477.859 305.03 477.96 304.716 478.086 304.437C478.745 302.982 480.017 301.897 481.556 301.478C481.851 301.398 482.176 301.348 482.827 301.249L490.817 300.029C491.468 299.929 491.793 299.879 492.098 299.868C493.692 299.809 495.23 300.464 496.293 301.656C496.497 301.884 496.687 302.154 497.067 302.692C497.257 302.962 497.352 303.096 497.454 303.211C497.986 303.807 498.754 304.134 499.551 304.105C499.704 304.099 499.867 304.074 500.192 304.024L502.984 303.598C505.948 303.145 507.431 302.919 508.652 303.324C509.725 303.68 510.659 304.368 511.319 305.288C512.069 306.335 512.296 307.82 512.75 310.791L515.829 330.946C516.283 333.917 516.509 335.402 516.106 336.625C515.751 337.7 515.065 338.635 514.146 339.296C513.102 340.047 511.62 340.273 508.655 340.726L477.952 345.416C474.987 345.869 473.504 346.096 472.284 345.69C471.21 345.334 470.276 344.646 469.616 343.726C468.866 342.679 468.639 341.194 468.185 338.224Z"/></svg>