<svg width="700" height="500" viewBox="0 0 700 500" fill="none" xmlns="http://www.w3.org/2000/svg">
<path d="M217 223.5L215.527 228.408C215.509 228.469 215.5 228.532 215.5 228.596C215.5 229.041 215.064 229.355 214.642 229.214L214.08 229.027C214.027 229.009 213.972 228.995 213.917 228.986L212.48 228.747C211.495 228.582 210.498 228.5 209.5 228.5H208.879C208.63 228.5 208.384 228.558 208.161 228.67C207.741 228.879 207.435 229.262 207.321 229.717L207 231L204.5 243L203.583 246.667C203.528 246.888 203.5 247.115 203.5 247.344C203.5 248.084 203.794 248.794 204.318 249.318L204.367 249.367C204.78 249.78 205.306 250.061 205.878 250.176L206.884 250.377C207.294 250.459 207.71 250.5 208.128 250.5H209.709C209.902 250.5 210.093 250.531 210.276 250.592C211.007 250.836 211.5 251.52 211.5 252.291V252.5L208.5 280L208.087 284.547C208.03 285.17 208.148 285.796 208.428 286.356C208.796 287.093 209.423 287.669 210.188 287.975L210.659 288.164C211.215 288.386 211.807 288.5 212.405 288.5H219.5H221.849C222.568 288.5 223.24 288.859 223.639 289.458C223.874 289.811 224 290.227 224 290.651V291.302C224 291.764 223.925 292.224 223.779 292.662L223.524 293.429C223.177 294.468 222.65 295.438 221.966 296.293L221 297.5C219.668 299.164 218.461 300.924 217.387 302.765L215.5 306L213.931 309.139C213.644 309.712 213.398 310.305 213.195 310.914L212.822 312.034C212.609 312.674 212.5 313.344 212.5 314.018C212.5 314.993 212.727 315.954 213.163 316.825L214.024 318.549C214.341 319.182 214.704 319.791 215.11 320.371L217.182 323.331C217.726 324.109 218.338 324.838 219.009 325.509C219.999 326.499 221.112 327.357 222.321 328.062L223.833 328.944C225.606 329.979 227.482 330.827 229.429 331.476L230.162 331.721C231.719 332.24 233.31 332.647 234.924 332.941C236.971 333.313 239.046 333.5 241.126 333.5H243L243.882 333.402C246.29 333.134 248.671 332.665 251 332L256.139 329.798C257.376 329.267 258.552 328.605 259.647 327.823C260.878 326.944 261.997 325.92 262.982 324.771L263.393 324.291C264.13 323.432 264.805 322.521 265.413 321.565L266.082 320.514C267.358 318.508 268.46 316.397 269.374 314.202L270.5 311.5L271.5 308.5C271.828 307.19 271.805 305.816 271.434 304.518L271.311 304.089C271.104 303.366 270.811 302.67 270.438 302.016L269.416 300.227C269.14 299.745 268.801 299.301 268.408 298.908L267.902 298.402C267.637 298.137 267.428 297.82 267.289 297.472L267.248 297.37C266.807 296.267 267.161 295.004 268.112 294.291C268.368 294.099 268.658 293.955 268.967 293.867L270.49 293.431C271.492 293.145 272.528 293 273.57 293H276.5H280L281.425 292.881C284.469 292.628 287.482 292.096 290.429 291.292L291.5 291L296.5 289L300.138 287.016C301.373 286.342 302.505 285.495 303.5 284.5L307.5 279.5L308.756 277.615C309.235 276.898 309.964 276.384 310.8 276.175C311.262 276.06 311.742 276.04 312.211 276.119L313.814 276.386C314.269 276.461 314.71 276.605 315.122 276.811L315.713 277.106C316.224 277.362 316.638 277.776 316.894 278.287C316.964 278.429 317.048 278.564 317.143 278.69L318.5 280.5C319.499 281.832 320.591 283.091 321.768 284.268L323 285.5L323.249 285.694C326.069 287.887 329.183 289.673 332.5 291C334.818 291.993 337.281 292.607 339.795 292.816L342 293H346.479C347.491 293 348.502 292.916 349.5 292.75L350.848 292.525C350.949 292.508 351.052 292.5 351.154 292.5H351.209C351.98 292.5 352.664 292.993 352.908 293.724C352.969 293.907 353 294.098 353 294.291V294.611C353 295.196 352.864 295.772 352.602 296.295L352.276 296.947C352.092 297.315 351.876 297.665 351.629 297.994L351.25 298.5C350.751 299.165 350.313 299.874 349.941 300.618L349.638 301.224C348.882 302.736 348.308 304.332 347.928 305.979L347.63 307.271C347.211 309.085 347 310.94 347 312.801V313.009C347 314.665 347.181 316.315 347.54 317.932C347.846 319.308 348.279 320.652 348.835 321.948L349.582 323.691C350.519 325.877 351.864 327.864 353.546 329.546L354.038 330.038C355.335 331.335 356.86 332.382 358.536 333.127C359.839 333.706 361.217 334.096 362.631 334.284L365.454 334.66C367.145 334.886 368.858 334.914 370.556 334.744C372.18 334.582 373.781 334.24 375.33 333.723L375.726 333.591C377.899 332.867 379.966 331.856 381.872 330.586L383.851 329.266C384.615 328.757 385.327 328.173 385.976 327.524C387.312 326.188 388.362 324.596 389.063 322.843L389.548 321.631C390.507 319.232 391 316.673 391 314.09V313.5C391 311.175 390.715 308.86 390.151 306.604L390 306L389.292 303.523C389.098 302.844 389 302.142 389 301.436C389 300.814 389.076 300.195 389.227 299.592L389.5 298.5L389.641 297.795C389.873 296.636 390.506 295.595 391.429 294.857C392.13 294.296 392.969 293.933 393.857 293.806L395.277 293.603C395.758 293.535 396.244 293.5 396.73 293.5H398.31C400.1 293.5 401.888 293.352 403.653 293.058L410 292L415.5 290.5C417.155 289.838 418.909 289.459 420.69 289.378L429 289L433.686 288.61C434.554 288.537 435.4 288.3 436.18 287.91C436.724 287.638 437.302 287.44 437.899 287.32L438.437 287.213C439.144 287.071 439.863 287 440.584 287H441.06C442.349 287 443.632 287.158 444.882 287.47L445 287.5L448.5 288L452.334 288.349C453.442 288.449 454.558 288.449 455.666 288.349L458.443 288.096C459.14 288.033 459.843 288.114 460.507 288.336L461.379 288.626C462.097 288.866 462.69 289.38 463.028 290.056C463.333 290.665 463.409 291.363 463.244 292.023L463 293L462.507 294.233C462.169 295.076 461.765 295.891 461.298 296.67C460.767 297.555 460.318 298.486 459.955 299.452L459.687 300.169C459.23 301.386 458.919 302.651 458.757 303.94C458.586 305.308 458.586 306.692 458.757 308.06L458.794 308.355C458.931 309.45 459.163 310.53 459.487 311.584L460.304 314.239C460.767 315.742 461.394 317.189 462.174 318.554L462.308 318.789C462.769 319.595 463.291 320.364 463.871 321.089L464.149 321.437C464.715 322.144 465.35 322.792 466.046 323.372C467.337 324.448 468.818 325.273 470.413 325.804L471.045 326.015C472.013 326.338 473.008 326.573 474.018 326.717L476 327L476.982 327.123C478.983 327.373 481.01 327.332 483 327L483.781 326.805C484.537 326.616 485.337 326.837 485.888 327.388C485.963 327.463 486.032 327.542 486.095 327.626L487.5 329.5L491 335L492.792 337.15C493.261 337.713 493.821 338.192 494.449 338.569L494.714 338.728C495.555 339.233 496.518 339.5 497.5 339.5H497.579C498.509 339.5 499.421 339.247 500.219 338.769C501.056 338.267 501.732 337.536 502.168 336.664L502.748 335.505C502.915 335.169 503.046 334.816 503.137 334.452L503.237 334.051C503.409 333.364 503.381 332.644 503.158 331.973C503.053 331.659 502.907 331.361 502.724 331.086L502 330L500.5 328L498 324.5L496.517 322.646C496.175 322.219 495.911 321.734 495.738 321.215L495.589 320.767C495.53 320.59 495.5 320.405 495.5 320.219C495.5 319.758 495.683 319.317 496.008 318.992L496.536 318.464C496.843 318.157 497.09 317.797 497.267 317.4L499 313.5L499.655 311.209C499.884 310.407 500 309.577 500 308.743C500 308.248 499.959 307.755 499.878 307.267L499 302L498.328 299.313C498.11 298.44 497.797 297.594 497.395 296.789C496.802 295.604 496.022 294.522 495.085 293.585L494 292.5L493.354 291.947C491.463 290.326 489.329 289.012 487.03 288.054L485.128 287.261C484.711 287.088 484.275 286.963 483.829 286.888L482.627 286.688C481.904 286.567 481.254 286.173 480.814 285.586C480.299 284.899 480.121 284.016 480.329 283.183L480.406 282.875C480.469 282.626 480.558 282.384 480.673 282.154L481.5 280.5L482.5 278L483.115 275.848C483.37 274.954 483.5 274.028 483.5 273.098C483.5 272.368 483.42 271.64 483.262 270.928L482.5 267.5L481.5 264.5C481.169 263.508 480.666 262.582 480.012 261.765L479 260.5L478 259L477.885 258.809C476.963 257.272 476.166 255.664 475.5 254L475.196 253.392C475.067 253.134 475 252.85 475 252.562C475 252.196 475.108 251.837 475.312 251.532L475.469 251.297C475.813 250.78 476.32 250.393 476.909 250.197L477.018 250.161C477.337 250.054 477.671 250 478.008 250H480H482H483.349C483.773 250 484.189 249.874 484.542 249.639L484.802 249.465C485.238 249.175 485.5 248.685 485.5 248.161C485.5 248.054 485.489 247.947 485.467 247.842L483.121 236.581C483.04 236.194 482.926 235.816 482.78 235.449L482.387 234.467C482.135 233.837 481.698 233.298 481.133 232.922C480.716 232.644 480.243 232.463 479.747 232.392L477 232L472.5 231.5H469L465 232L459.955 232.841C459.32 232.947 458.699 233.121 458.101 233.36L456.831 233.868C456.612 233.955 456.379 234 456.144 234C455.443 234 454.802 233.604 454.489 232.977L454.151 232.302C454.051 232.101 453.973 231.89 453.918 231.673L453.712 230.847C453.573 230.294 453.596 229.713 453.776 229.172C453.923 228.73 454.171 228.329 454.501 227.999L454.657 227.843C454.885 227.615 455.14 227.416 455.416 227.251L456.69 226.486C457.229 226.163 457.793 225.883 458.377 225.649L458.798 225.481C459.595 225.162 460.341 224.727 461.011 224.191C461.992 223.406 463.131 222.842 464.35 222.538L466.5 222L469.644 221.607C470.212 221.536 470.787 221.548 471.351 221.642L472.147 221.774C473.02 221.92 473.917 221.75 474.676 221.294C475.524 220.786 476.135 219.961 476.374 219.003L476.5 218.5C476.832 216.175 476.893 213.818 476.68 211.479L476.5 209.5L476 204L475.23 198.228C475.078 197.081 474.769 195.961 474.313 194.898C473.775 193.641 473.037 192.479 472.128 191.457L470.971 190.155C469.995 189.056 468.881 188.087 467.657 187.271C466.887 186.758 466.077 186.308 465.234 185.925L462.462 184.665C461.489 184.222 460.484 183.853 459.456 183.559C458.155 183.187 456.822 182.938 455.474 182.816L452 182.5H451.119C449.043 182.5 446.969 182.659 444.917 182.974L444.383 183.056C442.464 183.352 440.574 183.809 438.733 184.422L437.126 184.958C436.045 185.318 435.002 185.785 434.012 186.35L433.765 186.492C432.593 187.161 431.517 187.983 430.563 188.937C429.856 189.644 429.221 190.419 428.666 191.251L426.5 194.5L424 199L422.907 200.822C422.636 201.273 422.402 201.746 422.206 202.235L421.736 203.411C421.58 203.8 421.5 204.22 421.5 204.639C421.5 205.504 421.844 206.344 422.455 206.955C422.814 207.314 423.25 207.583 423.731 207.744L424.822 208.107C425.602 208.367 426.419 208.5 427.242 208.5H427.372C427.79 208.5 428.206 208.541 428.616 208.623L429.776 208.855C430.248 208.95 430.682 209.182 431.022 209.522C431.335 209.835 431.557 210.227 431.664 210.655L432 212L432.5 215.5L433.004 217.264C433.332 218.412 433.867 219.489 434.583 220.444L434.876 220.834C434.958 220.945 435.049 221.049 435.146 221.146C435.693 221.693 436 222.437 436 223.21C436 223.402 435.981 223.595 435.943 223.784L435.5 226L435 228.5L434.5 230.5L434.39 230.83C434.145 231.566 433.566 232.145 432.83 232.39C432.611 232.463 432.383 232.505 432.153 232.514L420.5 233L412.688 233.919C412.242 233.972 411.828 234.172 411.51 234.49C411.181 234.819 410.746 235.023 410.281 235.065L394.5 236.5C392.837 236.5 391.177 236.65 389.54 236.947L376.372 239.342C375.792 239.447 375.224 239.61 374.677 239.829L373.435 240.326C373.148 240.441 372.887 240.613 372.669 240.831C372.241 241.259 371.66 241.5 371.054 241.5H370.5C369.86 241.5 369.246 241.246 368.793 240.793L368.289 240.289C368.097 240.097 367.886 239.924 367.659 239.773L365 238L362.58 236.79C360.862 235.931 359.086 235.195 357.263 234.588L356.744 234.415C354.918 233.806 353.044 233.353 351.141 233.06C348.721 232.688 346.267 232.577 343.823 232.73L339.5 233L336.604 233.526C334.873 233.841 333.177 234.329 331.542 234.983C329.852 235.659 328.237 236.509 326.722 237.519L324.5 239C322.838 240.329 321.329 241.838 320 243.5L319.275 244.406C318.443 245.447 317.32 246.227 316.056 246.648C315.359 246.88 314.626 247 313.892 247C312.654 247 311.439 246.664 310.378 246.027L310.269 245.962C309.758 245.655 309.287 245.287 308.866 244.866L308 244L305.5 241L303 238.5L300.5 236.5L298.22 234.6C297.743 234.202 297.325 233.737 296.98 233.22L296.751 232.877C296.585 232.627 296.452 232.355 296.357 232.07C296.125 231.375 296.125 230.625 296.357 229.93L296.412 229.764C296.471 229.588 296.542 229.417 296.624 229.251L296.868 228.765C297.286 227.927 297.838 227.162 298.5 226.5L299.623 225.377C299.874 225.126 300.148 224.901 300.443 224.704C301.138 224.241 301.716 223.622 302.13 222.897L302.992 221.389C303.33 220.797 303.62 220.179 303.859 219.541L304.209 218.61C304.735 217.206 305.135 215.758 305.403 214.283L305.627 213.052C305.875 211.687 306 210.302 306 208.914C306 207.64 305.895 206.368 305.685 205.112L305.5 204L304.5 200.5L304 198.5L303.809 197.926C303.62 197.359 303.767 196.733 304.191 196.309C304.393 196.107 304.647 195.963 304.925 195.894L305.635 195.716C306.201 195.575 306.718 195.282 307.131 194.869C307.375 194.625 307.579 194.342 307.734 194.033L308.019 193.462C308.338 192.824 308.56 192.142 308.677 191.439L308.861 190.333C308.954 189.779 309 189.218 309 188.656V187.644C309 187.217 308.931 186.794 308.796 186.389C308.601 185.804 308.273 185.273 307.837 184.837L307.796 184.796C307.599 184.599 307.384 184.422 307.152 184.268L307.13 184.254C306.393 183.762 305.527 183.5 304.642 183.5H304H302.346C301.783 183.5 301.221 183.547 300.665 183.639L299.295 183.868C298.771 183.955 298.271 184.152 297.83 184.447L297.734 184.511C297.253 184.831 296.864 185.272 296.606 185.789C296.535 185.929 296.475 186.075 296.425 186.224L296.062 187.314C296.021 187.438 295.971 187.559 295.912 187.676L295.7 188.1C295.57 188.36 295.36 188.57 295.1 188.7C294.722 188.889 294.278 188.889 293.9 188.7L293.5 188.5L293.279 188.39C292.096 187.798 290.86 187.317 289.587 186.954C288.531 186.652 287.452 186.432 286.362 186.295L284 186H283.735C281.918 186 280.106 186.206 278.335 186.615C275.795 187.201 273.368 188.197 271.148 189.563L270.619 189.888C268.883 190.957 267.317 192.28 265.975 193.814C264.995 194.935 264.14 196.159 263.428 197.466L263.185 197.91C262.067 199.96 261.243 202.157 260.736 204.436L260.5 205.5L260.117 207.414C260.041 207.796 259.853 208.147 259.578 208.422C259.208 208.792 258.706 209 258.183 209H257.922C257.643 209 257.365 208.955 257.099 208.866L256.457 208.652C256.153 208.551 255.856 208.428 255.569 208.285L255.214 208.107C254.407 207.704 253.558 207.39 252.683 207.171L250.398 206.599C248.802 206.2 247.177 205.925 245.539 205.776L245.339 205.758C243.451 205.586 241.55 205.595 239.663 205.784C238.223 205.928 236.795 206.176 235.391 206.527L233.5 207L231.898 207.641C229.645 208.542 227.537 209.77 225.643 211.286C224.219 212.425 222.925 213.719 221.786 215.143L221.615 215.356C220.211 217.112 219.029 219.035 218.099 221.083L217 223.5Z" fill="#0090FF" stroke="#0090FF" stroke-width="20"/>
<mask id="path-2-outside-1_5_237" maskUnits="userSpaceOnUse" x="197.582" y="199.634" width="62.7252" height="93.3062" fill="black">
<rect fill="white" x="197.582" y="199.634" width="62.7252" height="93.3062"/>
<path d="M233.214 285.157L233.147 285.633C232.85 287.724 231.479 287.82 230.243 287.644C230.243 287.644 214.507 286.476 212.321 286.166L212.131 286.139C210.705 285.937 209.917 284.661 210.011 283.317C210.967 273.853 211.92 261.674 213.241 250.323L206.452 248.971C205.42 248.728 204.7 247.656 204.848 246.61L208.229 230.995C208.473 229.963 209.45 229.229 210.59 229.391L216.062 230.459L216.847 226.982C221.15 209.655 235.157 205.245 247.228 206.959C250.84 207.472 254.275 208.542 257.182 209.924C258.377 210.385 258.46 211.851 258.325 212.801L258.271 213.181L255.021 223.774C254.615 225.267 252.959 226.002 251.724 225.826L251.439 225.786C246.591 225.098 239.614 225.755 238.331 234.785L246.343 236.407C247.388 236.556 248.109 237.627 247.947 238.768L244.566 254.384C244.336 255.321 243.454 256.068 242.408 255.92L242.218 255.893L235.605 254.663C234.541 264.887 233.696 276.305 233.214 285.157Z"/>
</mask>
<path d="M233.214 285.157L233.147 285.633C232.85 287.724 231.479 287.82 230.243 287.644C230.243 287.644 214.507 286.476 212.321 286.166L212.131 286.139C210.705 285.937 209.917 284.661 210.011 283.317C210.967 273.853 211.92 261.674 213.241 250.323L206.452 248.971C205.42 248.728 204.7 247.656 204.848 246.61L208.229 230.995C208.473 229.963 209.45 229.229 210.59 229.391L216.062 230.459L216.847 226.982C221.15 209.655 235.157 205.245 247.228 206.959C250.84 207.472 254.275 208.542 257.182 209.924C258.377 210.385 258.46 211.851 258.325 212.801L258.271 213.181L255.021 223.774C254.615 225.267 252.959 226.002 251.724 225.826L251.439 225.786C246.591 225.098 239.614 225.755 238.331 234.785L246.343 236.407C247.388 236.556 248.109 237.627 247.947 238.768L244.566 254.384C244.336 255.321 243.454 256.068 242.408 255.92L242.218 255.893L235.605 254.663C234.541 264.887 233.696 276.305 233.214 285.157Z" fill="#FF0000"/>
<path d="M233.214 285.157L234.204 285.298L234.21 285.255L234.213 285.212L233.214 285.157ZM230.243 287.644L230.384 286.654L230.351 286.65L230.317 286.647L230.243 287.644ZM210.011 283.317L209.016 283.216L209.014 283.232L209.013 283.247L210.011 283.317ZM213.241 250.323L214.235 250.439L214.341 249.523L213.437 249.343L213.241 250.323ZM206.452 248.971L206.222 249.945L206.239 249.949L206.257 249.952L206.452 248.971ZM204.848 246.61L203.871 246.399L203.863 246.434L203.858 246.47L204.848 246.61ZM208.229 230.995L207.256 230.765L207.254 230.774L207.252 230.783L208.229 230.995ZM210.59 229.391L210.782 228.409L210.756 228.404L210.731 228.401L210.59 229.391ZM216.062 230.459L215.871 231.44L216.824 231.626L217.038 230.679L216.062 230.459ZM216.847 226.982L215.876 226.741L215.874 226.752L215.871 226.762L216.847 226.982ZM257.182 209.924L256.752 210.827L256.787 210.843L256.822 210.857L257.182 209.924ZM258.271 213.181L259.227 213.475L259.25 213.4L259.261 213.322L258.271 213.181ZM255.021 223.774L254.065 223.48L254.06 223.496L254.056 223.511L255.021 223.774ZM238.331 234.785L237.341 234.644L237.209 235.578L238.133 235.765L238.331 234.785ZM246.343 236.407L246.144 237.387L246.173 237.393L246.202 237.397L246.343 236.407ZM247.947 238.768L248.924 238.98L248.932 238.944L248.937 238.909L247.947 238.768ZM244.566 254.384L245.537 254.622L245.54 254.609L245.543 254.595L244.566 254.384ZM242.218 255.893L242.035 256.876L242.056 256.88L242.078 256.883L242.218 255.893ZM235.605 254.663L235.788 253.68L234.723 253.481L234.611 254.559L235.605 254.663ZM232.224 285.017L232.157 285.492L234.137 285.773L234.204 285.298L232.224 285.017ZM232.157 285.492C232.04 286.311 231.762 286.514 231.605 286.592C231.358 286.713 230.968 286.737 230.384 286.654L230.102 288.635C230.753 288.727 231.667 288.791 232.489 288.385C233.401 287.936 233.956 287.045 234.137 285.773L232.157 285.492ZM230.243 287.644C230.317 286.647 230.317 286.647 230.317 286.647C230.317 286.647 230.317 286.647 230.316 286.647C230.316 286.647 230.315 286.647 230.314 286.647C230.312 286.647 230.31 286.647 230.306 286.646C230.298 286.646 230.287 286.645 230.272 286.644C230.242 286.642 230.198 286.638 230.14 286.634C230.024 286.625 229.854 286.613 229.637 286.596C229.203 286.564 228.58 286.517 227.826 286.46C226.317 286.346 224.283 286.19 222.18 286.025C217.949 285.692 213.514 285.325 212.462 285.176L212.18 287.156C213.314 287.317 217.84 287.69 222.023 288.019C224.128 288.184 226.165 288.34 227.675 288.454C228.43 288.511 229.053 288.558 229.488 288.591C229.705 288.607 229.876 288.62 229.991 288.628C230.049 288.633 230.094 288.636 230.124 288.638C230.139 288.639 230.15 288.64 230.158 288.641C230.161 288.641 230.164 288.641 230.166 288.641C230.167 288.642 230.168 288.642 230.168 288.642C230.169 288.642 230.169 288.642 230.169 288.642C230.169 288.642 230.169 288.642 230.243 287.644ZM212.462 285.176L212.271 285.149L211.99 287.129L212.18 287.156L212.462 285.176ZM212.271 285.149C211.474 285.036 210.943 284.325 211.008 283.387L209.013 283.247C208.891 284.997 209.936 286.837 211.99 287.129L212.271 285.149ZM211.005 283.417C211.965 273.916 212.914 261.786 214.235 250.439L212.248 250.208C210.927 261.563 209.968 273.791 209.016 283.216L211.005 283.417ZM213.437 249.343L206.647 247.991L206.257 249.952L213.046 251.304L213.437 249.343ZM206.682 247.998C206.16 247.875 205.761 247.291 205.838 246.751L203.858 246.47C203.638 248.021 204.68 249.581 206.222 249.945L206.682 247.998ZM205.825 246.822L209.206 231.206L207.252 230.783L203.871 246.399L205.825 246.822ZM209.202 231.224C209.332 230.674 209.842 230.295 210.449 230.381L210.731 228.401C209.057 228.163 207.613 229.251 207.256 230.765L209.202 231.224ZM210.399 230.372L215.871 231.44L216.254 229.477L210.782 228.409L210.399 230.372ZM217.038 230.679L217.822 227.203L215.871 226.762L215.087 230.239L217.038 230.679ZM217.817 227.223C219.907 218.81 224.32 213.616 229.607 210.706C234.921 207.781 241.21 207.114 247.087 207.949L247.368 205.969C241.174 205.089 234.425 205.771 228.642 208.954C222.831 212.153 218.09 217.828 215.876 226.741L217.817 227.223ZM247.087 207.949C250.599 208.448 253.937 209.488 256.752 210.827L257.611 209.021C254.614 207.595 251.081 206.496 247.368 205.969L247.087 207.949ZM256.822 210.857C257.042 210.942 257.194 211.113 257.29 211.45C257.392 211.812 257.391 212.264 257.335 212.661L259.315 212.942C259.393 212.388 259.419 211.632 259.214 210.907C259.003 210.159 258.516 209.367 257.541 208.991L256.822 210.857ZM257.335 212.661L257.281 213.041L259.261 213.322L259.315 212.942L257.335 212.661ZM257.315 212.888L254.065 223.48L255.977 224.067L259.227 213.475L257.315 212.888ZM254.056 223.511C253.936 223.952 253.626 224.311 253.193 224.555C252.749 224.804 252.247 224.891 251.864 224.836L251.583 226.817C252.436 226.938 253.379 226.745 254.174 226.298C254.979 225.844 255.7 225.089 255.986 224.036L254.056 223.511ZM251.864 224.836L251.579 224.796L251.298 226.776L251.583 226.817L251.864 224.836ZM251.579 224.796C249.077 224.441 245.887 224.407 243.115 225.74C240.265 227.11 238.023 229.842 237.341 234.644L239.321 234.925C239.922 230.697 241.809 228.587 243.981 227.542C246.231 226.461 248.953 226.443 251.298 226.776L251.579 224.796ZM238.133 235.765L246.144 237.387L246.541 235.427L238.53 233.804L238.133 235.765ZM246.202 237.397C246.611 237.455 247.054 237.94 246.957 238.627L248.937 238.909C249.163 237.315 248.165 235.656 246.483 235.417L246.202 237.397ZM246.969 238.556L243.588 254.172L245.543 254.595L248.924 238.98L246.969 238.556ZM243.594 254.145C243.465 254.673 242.999 254.994 242.549 254.93L242.268 256.91C243.908 257.143 245.206 255.969 245.537 254.622L243.594 254.145ZM242.549 254.93L242.359 254.903L242.078 256.883L242.268 256.91L242.549 254.93ZM242.401 254.91L235.788 253.68L235.423 255.646L242.035 256.876L242.401 254.91ZM234.611 254.559C233.545 264.802 232.698 276.237 232.216 285.103L234.213 285.212C234.693 276.373 235.538 264.971 236.6 254.766L234.611 254.559Z" fill="#FF0000" mask="url(#path-2-outside-1_5_237)"/>
<mask id="path-4-outside-2_5_237" maskUnits="userSpaceOnUse" x="244.07" y="225.528" width="75.0771" height="72.6646" fill="black">
<rect fill="white" x="244.07" y="225.528" width="75.0771" height="72.6646"/>
<path d="M312.4 256.24C315.761 274.656 298.941 288.363 285.531 290.811C270.137 293.621 254.598 284.942 251.564 268.321C248.013 248.866 260.712 236.106 277.333 233.072C298.204 229.262 310.158 243.963 312.4 256.24ZM284.505 272.359C291.21 271.135 293.232 265.106 292.25 259.723C291.922 257.929 289.872 248.837 280.239 250.595C272.306 252.043 271.264 259.162 272.039 263.412C273.229 269.928 279.122 273.342 284.505 272.359Z"/>
</mask>
<path d="M312.4 256.24C315.761 274.656 298.941 288.363 285.531 290.811C270.137 293.621 254.598 284.942 251.564 268.321C248.013 248.866 260.712 236.106 277.333 233.072C298.204 229.262 310.158 243.963 312.4 256.24ZM284.505 272.359C291.21 271.135 293.232 265.106 292.25 259.723C291.922 257.929 289.872 248.837 280.239 250.595C272.306 252.043 271.264 259.162 272.039 263.412C273.229 269.928 279.122 273.342 284.505 272.359Z" fill="#FF0000"/>
<path d="M311.416 256.419C313.029 265.257 309.814 272.984 304.513 278.842C299.196 284.718 291.834 288.644 285.351 289.827L285.71 291.795C292.638 290.53 300.391 286.378 305.996 280.184C311.617 273.972 315.132 265.638 313.383 256.06L311.416 256.419ZM285.351 289.827C270.42 292.553 255.469 284.141 252.548 268.141L250.58 268.5C253.728 285.743 269.855 294.689 285.71 291.795L285.351 289.827ZM252.548 268.141C250.821 258.68 253.049 250.924 257.664 245.164C262.296 239.384 269.393 235.538 277.513 234.056L277.154 232.089C268.652 233.64 261.089 237.691 256.104 243.914C251.102 250.155 248.756 258.507 250.58 268.5L252.548 268.141ZM277.513 234.056C287.664 232.203 295.575 234.852 301.225 239.402C306.903 243.975 310.335 250.5 311.416 256.419L313.383 256.06C312.223 249.703 308.558 242.739 302.48 237.845C296.375 232.928 287.874 230.132 277.154 232.089L277.513 234.056ZM284.684 273.343C288.339 272.676 290.782 270.671 292.146 268.064C293.492 265.492 293.755 262.403 293.233 259.543L291.266 259.902C291.726 262.426 291.47 265.043 290.374 267.137C289.296 269.196 287.376 270.819 284.325 271.375L284.684 273.343ZM293.233 259.543C293.061 258.602 292.432 255.687 290.525 253.216C289.562 251.967 288.258 250.814 286.511 250.101C284.761 249.387 282.63 249.142 280.06 249.612L280.419 251.579C282.665 251.169 284.403 251.401 285.756 251.953C287.113 252.507 288.148 253.409 288.942 254.438C290.55 256.522 291.11 259.05 291.266 259.902L293.233 259.543ZM280.06 249.612C275.768 250.395 273.256 252.751 271.966 255.532C270.702 258.259 270.641 261.321 271.056 263.592L273.023 263.233C272.662 261.253 272.734 258.631 273.781 256.374C274.802 254.171 276.778 252.244 280.419 251.579L280.06 249.612ZM271.056 263.592C272.349 270.674 278.781 274.42 284.684 273.343L284.325 271.375C279.463 272.263 274.109 269.183 273.023 263.233L271.056 263.592Z" fill="#FF0000" mask="url(#path-4-outside-2_5_237)"/>
<mask id="path-6-outside-3_5_237" maskUnits="userSpaceOnUse" x="307.479" y="226.588" width="69.9004" height="71.5206" fill="black">
<rect fill="white" x="307.479" y="226.588" width="69.9004" height="71.5206"/>
<path d="M368.809 244.795L362.339 255.445C361.76 256.513 360.553 257.274 359.418 257.073C359.04 257.006 358.601 256.733 358.273 256.382C356.823 254.663 353.699 253.036 350.391 252.45C347.933 252.014 339.609 251.124 337.782 261.427C336.66 267.76 340.46 272.724 346.604 273.813C350.669 274.533 355.713 273.575 360.988 270.22C361.655 269.754 362.59 269.432 363.441 269.583C364.102 269.7 364.792 270.212 365.252 271.464C366.384 274.979 367.217 276.882 368.176 280.269C368.359 280.887 368.431 281.582 368.314 282.244C368.113 283.378 367.456 284.334 366.12 285.267C357.173 291.188 347.529 292.794 339.022 291.286C323.33 288.504 311.379 275.076 314.328 258.44C318.081 237.266 336.526 231.663 352.123 234.428C362.615 236.288 369.44 241.787 369.021 244.15C368.988 244.339 368.937 244.623 368.809 244.795Z"/>
</mask>
<path d="M368.809 244.795L362.339 255.445C361.76 256.513 360.553 257.274 359.418 257.073C359.04 257.006 358.601 256.733 358.273 256.382C356.823 254.663 353.699 253.036 350.391 252.45C347.933 252.014 339.609 251.124 337.782 261.427C336.66 267.76 340.46 272.724 346.604 273.813C350.669 274.533 355.713 273.575 360.988 270.22C361.655 269.754 362.59 269.432 363.441 269.583C364.102 269.7 364.792 270.212 365.252 271.464C366.384 274.979 367.217 276.882 368.176 280.269C368.359 280.887 368.431 281.582 368.314 282.244C368.113 283.378 367.456 284.334 366.12 285.267C357.173 291.188 347.529 292.794 339.022 291.286C323.33 288.504 311.379 275.076 314.328 258.44C318.081 237.266 336.526 231.663 352.123 234.428C362.615 236.288 369.44 241.787 369.021 244.15C368.988 244.339 368.937 244.623 368.809 244.795Z" fill="#FF0000"/>
<path d="M368.809 244.795L368.007 244.199L367.979 244.236L367.955 244.276L368.809 244.795ZM362.339 255.445L361.485 254.926L361.472 254.947L361.46 254.968L362.339 255.445ZM358.273 256.382L357.509 257.027L357.525 257.046L357.543 257.065L358.273 256.382ZM360.988 270.22L361.524 271.064L361.543 271.052L361.561 271.04L360.988 270.22ZM365.252 271.464L366.204 271.157L366.198 271.138L366.191 271.118L365.252 271.464ZM368.176 280.269L367.214 280.542L367.217 280.553L368.176 280.269ZM366.12 285.267L366.672 286.101L366.683 286.094L366.693 286.087L366.12 285.267ZM367.955 244.276L361.485 254.926L363.194 255.965L369.664 245.314L367.955 244.276ZM361.46 254.968C361.024 255.772 360.188 256.193 359.593 256.088L359.244 258.057C360.918 258.354 362.496 257.254 363.218 255.922L361.46 254.968ZM359.593 256.088C359.491 256.07 359.234 255.946 359.004 255.699L357.543 257.065C357.968 257.52 358.59 257.941 359.244 258.057L359.593 256.088ZM359.038 255.737C357.39 253.784 354.021 252.078 350.565 251.465L350.216 253.435C353.377 253.995 356.256 255.541 357.509 257.027L359.038 255.737ZM350.565 251.465C349.286 251.238 346.367 250.867 343.489 251.979C340.52 253.126 337.767 255.786 336.798 261.253L338.767 261.602C339.624 256.765 341.947 254.719 344.21 253.844C346.566 252.934 349.038 253.226 350.216 253.435L350.565 251.465ZM336.798 261.253C336.193 264.664 336.909 267.769 338.659 270.175C340.406 272.576 343.133 274.213 346.429 274.798L346.778 272.828C343.931 272.324 341.685 270.934 340.277 268.998C338.872 267.067 338.249 264.523 338.767 261.602L336.798 261.253ZM346.429 274.798C350.787 275.57 356.082 274.526 361.524 271.064L360.451 269.377C355.344 272.625 350.55 273.497 346.778 272.828L346.429 274.798ZM361.561 271.04C362.085 270.673 362.754 270.477 363.266 270.567L363.615 268.598C362.426 268.387 361.226 268.834 360.415 269.401L361.561 271.04ZM363.266 270.567C363.483 270.606 363.939 270.79 364.314 271.809L366.191 271.118C365.645 269.635 364.722 268.794 363.615 268.598L363.266 270.567ZM364.3 271.77C365.468 275.398 366.254 277.153 367.214 280.542L369.138 279.997C368.179 276.611 367.3 274.56 366.204 271.157L364.3 271.77ZM367.217 280.553C367.365 281.052 367.414 281.588 367.329 282.069L369.298 282.418C369.448 281.575 369.353 280.721 369.135 279.985L367.217 280.553ZM367.329 282.069C367.187 282.871 366.733 283.619 365.547 284.447L366.693 286.087C368.179 285.049 369.038 283.884 369.298 282.418L367.329 282.069ZM365.568 284.433C356.835 290.213 347.451 291.764 339.196 290.301L338.847 292.27C347.607 293.823 357.511 292.164 366.672 286.101L365.568 284.433ZM339.196 290.301C323.934 287.596 312.479 274.599 315.312 258.614L313.343 258.265C310.279 275.553 322.726 289.413 338.847 292.27L339.196 290.301ZM315.312 258.614C317.136 248.324 322.5 241.896 329.25 238.341C336.039 234.767 344.313 234.059 351.948 235.412L352.297 233.443C344.336 232.032 335.589 232.743 328.318 236.572C321.008 240.421 315.272 247.381 313.343 258.265L315.312 258.614ZM351.948 235.412C357.071 236.32 361.275 238.114 364.124 239.942C365.552 240.858 366.609 241.764 367.271 242.543C367.602 242.933 367.814 243.267 367.93 243.533C368.049 243.804 368.043 243.941 368.037 243.976L370.006 244.325C370.104 243.769 369.976 243.217 369.761 242.728C369.544 242.233 369.209 241.735 368.795 241.248C367.968 240.274 366.741 239.245 365.204 238.259C362.122 236.281 357.668 234.395 352.297 233.443L351.948 235.412ZM368.037 243.976C368.019 244.076 368.006 244.146 367.988 244.207C367.981 244.235 367.975 244.249 367.974 244.252C367.972 244.255 367.981 244.233 368.007 244.199L369.612 245.392C369.783 245.162 369.868 244.911 369.913 244.751C369.962 244.58 369.99 244.414 370.006 244.325L368.037 243.976Z" fill="#FF0000" mask="url(#path-6-outside-3_5_237)"/>
<mask id="path-8-outside-4_5_237" maskUnits="userSpaceOnUse" x="370.932" y="230.601" width="71.1006" height="65.7977" fill="black">
<rect fill="white" x="370.932" y="230.601" width="71.1006" height="65.7977"/>
<path d="M435.659 287.292L416.841 288.314C412.42 290.253 408.02 291.513 403.822 291.978C390.559 293.447 379.429 287.146 376.605 269.494C375.631 263.323 374.13 251.513 373.358 245.417C372.925 241.505 374.176 240.594 375.311 240.371C375.385 240.17 390.058 237.482 391.68 237.302C393.589 237.091 394.458 237.961 394.68 239.095C395.96 245.425 396.722 250.556 398.552 261.847C399.843 270.011 403.022 272.556 407.03 272.112C408.938 271.901 411.154 270.979 413.413 269.57L411.495 236.556C411.463 235.401 412.333 234.532 413.382 234.415L432.486 233.362C433.631 233.235 434.5 234.105 434.627 235.25L437.547 285.151C437.578 286.307 436.709 287.176 435.659 287.292Z"/>
</mask>
<path d="M435.659 287.292L416.841 288.314C412.42 290.253 408.02 291.513 403.822 291.978C390.559 293.447 379.429 287.146 376.605 269.494C375.631 263.323 374.13 251.513 373.358 245.417C372.925 241.505 374.176 240.594 375.311 240.371C375.385 240.17 390.058 237.482 391.68 237.302C393.589 237.091 394.458 237.961 394.68 239.095C395.96 245.425 396.722 250.556 398.552 261.847C399.843 270.011 403.022 272.556 407.03 272.112C408.938 271.901 411.154 270.979 413.413 269.57L411.495 236.556C411.463 235.401 412.333 234.532 413.382 234.415L432.486 233.362C433.631 233.235 434.5 234.105 434.627 235.25L437.547 285.151C437.578 286.307 436.709 287.176 435.659 287.292Z" fill="#FF0000"/>
<path d="M435.659 287.292L435.714 288.291L435.742 288.289L435.769 288.286L435.659 287.292ZM416.841 288.314L416.787 287.316L416.606 287.326L416.44 287.398L416.841 288.314ZM376.605 269.494L375.617 269.65L375.617 269.652L376.605 269.494ZM373.358 245.417L372.364 245.527L372.365 245.535L372.366 245.543L373.358 245.417ZM375.311 240.371L375.503 241.353L376.054 241.245L376.249 240.717L375.311 240.371ZM394.68 239.095L393.698 239.287L393.7 239.293L394.68 239.095ZM398.552 261.847L399.54 261.691L399.539 261.687L398.552 261.847ZM413.413 269.57L413.942 270.418L414.446 270.104L414.411 269.512L413.413 269.57ZM411.495 236.556L410.495 236.584L410.495 236.599L410.496 236.614L411.495 236.556ZM413.382 234.415L413.327 233.417L413.3 233.419L413.272 233.422L413.382 234.415ZM432.486 233.362L432.541 234.36L432.569 234.359L432.597 234.356L432.486 233.362ZM434.627 235.25L435.626 235.191L435.624 235.165L435.621 235.139L434.627 235.25ZM437.547 285.151L438.547 285.124L438.546 285.109L438.545 285.093L437.547 285.151ZM435.605 286.294L416.787 287.316L416.896 289.313L435.714 288.291L435.605 286.294ZM416.44 287.398C412.093 289.304 407.792 290.532 403.712 290.984L403.932 292.972C408.248 292.494 412.747 291.202 417.243 289.23L416.44 287.398ZM403.712 290.984C397.262 291.699 391.438 290.514 386.899 287.107C382.365 283.703 378.975 277.977 377.592 269.336L375.617 269.652C377.059 278.663 380.647 284.914 385.699 288.706C390.746 292.495 397.118 293.727 403.932 292.972L403.712 290.984ZM377.593 269.338C376.622 263.186 375.123 251.394 374.35 245.291L372.366 245.543C373.137 251.632 374.641 263.461 375.617 269.65L377.593 269.338ZM374.352 245.307C374.145 243.434 374.367 242.468 374.627 241.984C374.851 241.568 375.148 241.422 375.503 241.353L375.118 239.39C374.338 239.543 373.443 239.963 372.866 241.037C372.325 242.042 372.138 243.488 372.364 245.527L374.352 245.307ZM376.249 240.717C376.153 240.976 375.98 241.115 375.939 241.148C375.874 241.2 375.818 241.231 375.793 241.243C375.742 241.27 375.705 241.284 375.704 241.284C375.694 241.288 375.706 241.283 375.754 241.27C375.843 241.245 375.988 241.21 376.189 241.164C376.589 241.074 377.165 240.954 377.868 240.813C379.273 240.531 381.159 240.171 383.097 239.812C387 239.088 391.026 238.381 391.79 238.296L391.57 236.308C390.713 236.403 386.59 237.13 382.733 237.845C380.79 238.206 378.893 238.567 377.475 238.852C376.767 238.994 376.172 239.118 375.748 239.214C375.538 239.261 375.358 239.304 375.224 239.341C375.16 239.359 375.085 239.381 375.015 239.406C374.984 239.418 374.923 239.441 374.856 239.477C374.824 239.494 374.761 239.529 374.691 239.584C374.645 239.621 374.469 239.764 374.372 240.025L376.249 240.717ZM391.79 238.296C392.584 238.208 393.016 238.36 393.245 238.518C393.468 238.671 393.626 238.916 393.698 239.287L395.661 238.903C395.512 238.139 395.124 237.383 394.379 236.87C393.641 236.362 392.685 236.185 391.57 236.308L391.79 238.296ZM393.7 239.293C394.975 245.598 395.732 250.7 397.565 262.007L399.539 261.687C397.712 250.412 396.946 245.251 395.66 238.897L393.7 239.293ZM397.565 262.003C398.223 266.165 399.384 269.069 401.033 270.88C402.734 272.75 404.863 273.358 407.14 273.106L406.92 271.118C405.189 271.31 403.725 270.867 402.512 269.534C401.246 268.143 400.173 265.692 399.54 261.691L397.565 262.003ZM407.14 273.106C409.257 272.872 411.619 271.868 413.942 270.418L412.884 268.721C410.689 270.091 408.62 270.93 406.92 271.118L407.14 273.106ZM414.411 269.512L412.493 236.498L410.496 236.614L412.415 269.628L414.411 269.512ZM412.494 236.529C412.478 235.938 412.914 235.473 413.492 235.409L413.272 233.422C411.751 233.59 410.448 234.863 410.495 236.584L412.494 236.529ZM413.437 235.414L432.541 234.36L432.431 232.363L413.327 233.417L413.437 235.414ZM432.597 234.356C433.072 234.303 433.553 234.635 433.633 235.36L435.621 235.139C435.448 233.574 434.191 232.167 432.376 232.368L432.597 234.356ZM433.629 235.308L436.549 285.21L438.545 285.093L435.626 235.191L433.629 235.308ZM436.547 285.179C436.564 285.77 436.127 286.234 435.549 286.298L435.769 288.286C437.29 288.118 438.593 286.844 438.547 285.124L436.547 285.179Z" fill="#FF0000" mask="url(#path-8-outside-4_5_237)"/>
<mask id="path-10-outside-5_5_237" maskUnits="userSpaceOnUse" x="439.584" y="227.1" width="48.9946" height="65.5857" fill="black">
<rect fill="white" x="439.584" y="227.1" width="48.9946" height="65.5857"/>
<path d="M450.587 287.159L449.539 287.032C447.442 286.78 446.535 286.284 446.158 284.594L443.296 273.033C443.235 272.736 443.174 272.438 443.197 272.248C443.37 270.818 445.299 270.857 446.443 270.995C452.077 271.577 455.068 269.23 455.343 266.942C455.492 265.703 454.437 264.029 453.309 262.153L451.08 258.983C447.461 253.713 446.239 249.408 446.675 245.786C447.973 235.016 464.198 231.169 476.683 232.673C480.4 233.121 481.308 233.617 481.768 235.413L484.725 246.985C484.87 247.39 484.835 247.676 484.801 247.961C484.675 249.01 483.58 249.265 482.341 249.116L481.96 249.07C476.241 248.381 473.82 250.023 473.59 251.929C473.395 253.549 474.606 255.532 477.746 259.972C481.556 265.266 482.945 269.784 482.509 273.406C481.154 284.653 463.359 288.697 450.587 287.159Z"/>
</mask>
<path d="M450.587 287.159L449.539 287.032C447.442 286.78 446.535 286.284 446.158 284.594L443.296 273.033C443.235 272.736 443.174 272.438 443.197 272.248C443.37 270.818 445.299 270.857 446.443 270.995C452.077 271.577 455.068 269.23 455.343 266.942C455.492 265.703 454.437 264.029 453.309 262.153L451.08 258.983C447.461 253.713 446.239 249.408 446.675 245.786C447.973 235.016 464.198 231.169 476.683 232.673C480.4 233.121 481.308 233.617 481.768 235.413L484.725 246.985C484.87 247.39 484.835 247.676 484.801 247.961C484.675 249.01 483.58 249.265 482.341 249.116L481.96 249.07C476.241 248.381 473.82 250.023 473.59 251.929C473.395 253.549 474.606 255.532 477.746 259.972C481.556 265.266 482.945 269.784 482.509 273.406C481.154 284.653 463.359 288.697 450.587 287.159Z" fill="#FF0000"/>
<path d="M446.158 284.594L447.134 284.377L447.131 284.365L447.129 284.354L446.158 284.594ZM443.296 273.033L442.316 273.234L442.321 273.254L442.325 273.273L443.296 273.033ZM446.443 270.995L446.323 271.988L446.331 271.989L446.34 271.99L446.443 270.995ZM453.309 262.153L454.167 261.638L454.148 261.607L454.127 261.577L453.309 262.153ZM451.08 258.983L450.256 259.549L450.263 259.559L451.08 258.983ZM481.768 235.413L482.737 235.165L482.737 235.164L481.768 235.413ZM484.725 246.985L483.756 247.233L483.768 247.278L483.784 247.322L484.725 246.985ZM477.746 259.972L476.929 260.549L476.934 260.556L477.746 259.972ZM450.707 286.166L449.658 286.039L449.419 288.025L450.467 288.151L450.707 286.166ZM449.658 286.039C448.632 285.916 448.091 285.748 447.768 285.527C447.506 285.348 447.287 285.064 447.134 284.377L445.182 284.812C445.405 285.814 445.828 286.623 446.638 287.177C447.387 287.69 448.348 287.896 449.419 288.025L449.658 286.039ZM447.129 284.354L444.267 272.793L442.325 273.273L445.187 284.835L447.129 284.354ZM444.276 272.833C444.244 272.677 444.22 272.557 444.205 272.455C444.197 272.405 444.194 272.372 444.193 272.351C444.192 272.328 444.194 272.337 444.19 272.367L442.205 272.128C442.176 272.361 442.203 272.592 442.226 272.746C442.251 272.914 442.287 273.092 442.316 273.234L444.276 272.833ZM444.19 272.367C444.204 272.254 444.238 272.214 444.275 272.182C444.334 272.131 444.456 272.06 444.684 272.007C445.154 271.897 445.778 271.922 446.323 271.988L446.562 270.002C445.963 269.93 445.051 269.867 444.227 270.06C443.808 270.158 443.345 270.338 442.957 270.677C442.549 271.035 442.277 271.526 442.205 272.128L444.19 272.367ZM446.34 271.99C449.305 272.296 451.673 271.842 453.376 270.925C455.074 270.012 456.15 268.605 456.336 267.062L454.35 266.823C454.261 267.567 453.704 268.478 452.429 269.164C451.16 269.847 449.215 270.276 446.545 270L446.34 271.99ZM456.336 267.062C456.447 266.144 456.108 265.194 455.707 264.355C455.295 263.493 454.717 262.554 454.167 261.638L452.452 262.668C453.029 263.627 453.543 264.464 453.903 265.218C454.274 265.995 454.389 266.502 454.35 266.823L456.336 267.062ZM454.127 261.577L451.898 258.408L450.263 259.559L452.491 262.728L454.127 261.577ZM451.905 258.417C448.361 253.257 447.272 249.196 447.668 245.905L445.683 245.666C445.206 249.619 446.561 254.168 450.256 259.549L451.905 258.417ZM447.668 245.905C448.251 241.071 452.194 237.632 457.828 235.565C463.434 233.509 470.449 232.929 476.564 233.666L476.803 231.68C470.431 230.912 463.091 231.504 457.139 233.688C451.215 235.861 446.398 239.73 445.683 245.666L447.668 245.905ZM476.564 233.666C478.443 233.892 479.413 234.116 479.972 234.417C480.218 234.55 480.365 234.69 480.475 234.852C480.593 235.026 480.7 235.272 480.799 235.661L482.737 235.164C482.606 234.655 482.427 234.166 482.129 233.728C481.823 233.277 481.425 232.929 480.922 232.657C479.982 232.15 478.641 231.901 476.803 231.68L476.564 233.666ZM480.799 235.66L483.756 247.233L485.694 246.738L482.737 235.165L480.799 235.66ZM483.784 247.322C483.82 247.424 483.829 247.494 483.831 247.551C483.833 247.621 483.826 247.691 483.808 247.842L485.794 248.081C485.832 247.767 485.894 247.284 485.667 246.648L483.784 247.322ZM483.808 247.842C483.797 247.93 483.774 247.959 483.767 247.968C483.755 247.982 483.719 248.019 483.62 248.058C483.398 248.146 483.006 248.188 482.461 248.123L482.222 250.108C482.915 250.192 483.69 250.182 484.357 249.917C485.091 249.626 485.681 249.021 485.794 248.081L483.808 247.842ZM482.461 248.123L482.08 248.077L481.84 250.062L482.222 250.108L482.461 248.123ZM482.08 248.077C479.13 247.722 476.901 247.948 475.332 248.603C473.733 249.27 472.765 250.418 472.597 251.809L474.583 252.049C474.645 251.534 475.002 250.908 476.101 250.449C477.23 249.979 479.071 249.729 481.84 250.062L482.08 248.077ZM472.597 251.809C472.462 252.927 472.833 254.053 473.536 255.365C474.241 256.682 475.365 258.337 476.929 260.549L478.562 259.394C476.987 257.167 475.936 255.611 475.299 254.421C474.66 253.227 474.522 252.551 474.583 252.049L472.597 251.809ZM476.934 260.556C480.67 265.746 481.911 270.013 481.516 273.286L483.502 273.526C483.98 269.555 482.442 264.785 478.557 259.388L476.934 260.556ZM481.516 273.286C480.908 278.338 476.584 281.955 470.492 284.135C464.443 286.301 456.959 286.919 450.707 286.166L450.467 288.151C456.986 288.937 464.787 288.302 471.166 286.018C477.504 283.75 482.756 279.72 483.502 273.526L481.516 273.286Z" fill="#FF0000" mask="url(#path-10-outside-5_5_237)"/>
<mask id="path-12-inside-6_5_237" fill="white">
<path d="M297 187C297 185.895 297.895 185 299 185C300.105 185 301 185.895 301 187V188.172L303.542 185.63C304.323 184.849 305.589 184.849 306.37 185.63C307.151 186.411 307.151 187.677 306.37 188.458L303.828 191H305C306.105 191 307 191.895 307 193C307 194.105 306.105 195 305 195H299.828L284.403 210.425C283.622 211.206 282.356 211.206 281.575 210.425C280.794 209.644 280.794 208.378 281.575 207.597L297 192.172V187Z"/>
<path d="M293.785 192.578C294.668 191.695 294.535 190.221 293.436 189.628C290.331 187.952 286.777 187 283 187C270.85 187 261 196.85 261 209C261 221.15 270.85 231 283 231C295.15 231 305 221.15 305 209C305 205.231 304.052 201.683 302.382 198.582C301.789 197.482 300.315 197.348 299.431 198.232L299.371 198.292C298.711 198.952 298.606 199.977 299.032 200.808C300.29 203.265 301 206.05 301 209C301 218.941 292.941 227 283 227C273.059 227 265 218.941 265 209C265 199.059 273.059 191 283 191C285.956 191 288.746 191.713 291.207 192.976C292.039 193.403 293.064 193.299 293.725 192.638L293.785 192.578Z"/>
<path d="M287.78 198.583C288.725 197.638 288.487 196.047 287.212 195.645C285.883 195.226 284.468 195 283 195C275.268 195 269 201.268 269 209C269 216.732 275.268 223 283 223C290.732 223 297 216.732 297 209C297 207.54 296.777 206.133 296.362 204.81C295.962 203.533 294.369 203.294 293.423 204.24L293.239 204.424C292.676 204.987 292.519 205.825 292.709 206.597C292.899 207.367 293 208.172 293 209C293 214.523 288.523 219 283 219C277.477 219 273 214.523 273 209C273 203.477 277.477 199 283 199C283.834 199 284.645 199.102 285.42 199.295C286.193 199.487 287.033 199.33 287.596 198.767L287.78 198.583Z"/>
<path d="M281.156 203.303C281.975 203.03 282.387 203.976 281.776 204.587L280.165 206.198C278.605 207.758 278.605 210.288 280.165 211.848C281.726 213.408 284.255 213.408 285.815 211.848L287.406 210.257C288.018 209.645 288.964 210.06 288.686 210.879C287.882 213.242 285.627 215 283 215C279.686 215 277 212.314 277 209C277 206.359 278.777 204.096 281.156 203.303Z"/>
</mask>
<path d="M297 187C297 185.895 297.895 185 299 185C300.105 185 301 185.895 301 187V188.172L303.542 185.63C304.323 184.849 305.589 184.849 306.37 185.63C307.151 186.411 307.151 187.677 306.37 188.458L303.828 191H305C306.105 191 307 191.895 307 193C307 194.105 306.105 195 305 195H299.828L284.403 210.425C283.622 211.206 282.356 211.206 281.575 210.425C280.794 209.644 280.794 208.378 281.575 207.597L297 192.172V187Z" fill="#FF0000"/>
<path d="M293.785 192.578C294.668 191.695 294.535 190.221 293.436 189.628C290.331 187.952 286.777 187 283 187C270.85 187 261 196.85 261 209C261 221.15 270.85 231 283 231C295.15 231 305 221.15 305 209C305 205.231 304.052 201.683 302.382 198.582C301.789 197.482 300.315 197.348 299.431 198.232L299.371 198.292C298.711 198.952 298.606 199.977 299.032 200.808C300.29 203.265 301 206.05 301 209C301 218.941 292.941 227 283 227C273.059 227 265 218.941 265 209C265 199.059 273.059 191 283 191C285.956 191 288.746 191.713 291.207 192.976C292.039 193.403 293.064 193.299 293.725 192.638L293.785 192.578Z" fill="#FF0000"/>
<path d="M287.78 198.583C288.725 197.638 288.487 196.047 287.212 195.645C285.883 195.226 284.468 195 283 195C275.268 195 269 201.268 269 209C269 216.732 275.268 223 283 223C290.732 223 297 216.732 297 209C297 207.54 296.777 206.133 296.362 204.81C295.962 203.533 294.369 203.294 293.423 204.24L293.239 204.424C292.676 204.987 292.519 205.825 292.709 206.597C292.899 207.367 293 208.172 293 209C293 214.523 288.523 219 283 219C277.477 219 273 214.523 273 209C273 203.477 277.477 199 283 199C283.834 199 284.645 199.102 285.42 199.295C286.193 199.487 287.033 199.33 287.596 198.767L287.78 198.583Z" fill="#FF0000"/>
<path d="M281.156 203.303C281.975 203.03 282.387 203.976 281.776 204.587L280.165 206.198C278.605 207.758 278.605 210.288 280.165 211.848C281.726 213.408 284.255 213.408 285.815 211.848L287.406 210.257C288.018 209.645 288.964 210.06 288.686 210.879C287.882 213.242 285.627 215 283 215C279.686 215 277 212.314 277 209C277 206.359 278.777 204.096 281.156 203.303Z" fill="#FF0000"/>
<path d="M301 188.172H267.667V268.647L324.57 211.742L301 188.172ZM303.542 185.63L327.112 209.2L327.113 209.199L303.542 185.63ZM306.37 185.63L282.799 209.199L282.802 209.202L306.37 185.63ZM306.37 188.458L282.802 164.886L282.8 164.888L306.37 188.458ZM303.828 191L280.258 167.43L223.354 224.333H303.828V191ZM299.828 195V161.667H286.021L276.258 171.43L299.828 195ZM284.403 210.425L260.833 186.855L260.833 186.855L284.403 210.425ZM281.575 207.597L258.005 184.026L258.005 184.026L281.575 207.597ZM297 192.172L320.57 215.742L330.333 205.979V192.172H297ZM293.785 192.578L270.215 169.007L270.203 169.019L270.191 169.031L293.785 192.578ZM293.436 189.628L309.272 160.297L309.272 160.296L293.436 189.628ZM302.382 198.582L273.035 214.389L273.035 214.39L302.382 198.582ZM299.431 198.232L275.863 174.66L275.858 174.665L275.853 174.67L299.431 198.232ZM299.371 198.292L322.94 221.863L322.949 221.854L299.371 198.292ZM299.032 200.808L269.361 215.999L269.362 216L299.032 200.808ZM291.207 192.976L275.987 222.631L275.988 222.632L291.207 192.976ZM293.725 192.638L317.294 216.21L317.306 216.197L317.319 216.185L293.725 192.638ZM287.78 198.583L264.21 175.012L264.207 175.016L287.78 198.583ZM287.212 195.645L297.231 163.853L297.231 163.853L287.212 195.645ZM296.362 204.81L328.172 194.846L328.171 194.843L296.362 204.81ZM293.423 204.24L316.992 227.811L316.996 227.808L293.423 204.24ZM293.239 204.424L316.806 227.998L316.808 227.996L293.239 204.424ZM292.709 206.597L325.074 198.617L325.073 198.615L292.709 206.597ZM285.42 199.295L293.461 166.946L293.459 166.945L285.42 199.295ZM287.596 198.767L311.169 222.335L311.169 222.334L287.596 198.767ZM281.156 203.303L291.699 234.925L291.701 234.924L281.156 203.303ZM281.776 204.587L258.206 181.016L258.205 181.018L281.776 204.587ZM280.165 206.198L303.735 229.769L303.737 229.766L280.165 206.198ZM280.165 211.848L303.736 188.278L303.735 188.277L280.165 211.848ZM285.815 211.848L262.245 188.278L262.245 188.278L285.815 211.848ZM287.406 210.257L310.976 233.827L310.976 233.827L287.406 210.257ZM288.686 210.879L320.243 221.616L320.244 221.612L288.686 210.879ZM330.333 187C330.333 204.305 316.305 218.333 299 218.333V151.667C279.486 151.667 263.667 167.486 263.667 187H330.333ZM299 218.333C281.695 218.333 267.667 204.305 267.667 187H334.333C334.333 167.486 318.514 151.667 299 151.667V218.333ZM267.667 187V188.172H334.333V187H267.667ZM324.57 211.742L327.112 209.2L279.971 162.06L277.43 164.602L324.57 211.742ZM327.113 209.199C314.876 221.437 295.036 221.437 282.799 209.199L329.941 162.06C316.143 148.261 293.77 148.261 279.971 162.06L327.113 209.199ZM282.802 209.202C270.563 196.965 270.563 177.123 282.802 164.886L329.938 212.031C343.74 198.232 343.74 175.856 329.938 162.057L282.802 209.202ZM282.8 164.888L280.258 167.43L327.399 214.57L329.94 212.029L282.8 164.888ZM303.828 224.333H305V157.667H303.828V224.333ZM305 224.333C287.695 224.333 273.667 210.304 273.667 193H340.333C340.333 173.486 324.515 157.667 305 157.667V224.333ZM273.667 193C273.667 175.696 287.695 161.667 305 161.667V228.333C324.515 228.333 340.333 212.514 340.333 193H273.667ZM305 161.667H299.828V228.333H305V161.667ZM276.258 171.43L260.833 186.855L307.974 233.995L323.399 218.57L276.258 171.43ZM260.833 186.855C273.07 174.618 292.909 174.618 305.145 186.855L258.005 233.995C271.803 247.794 294.175 247.794 307.974 233.995L260.833 186.855ZM305.145 186.855C317.382 199.091 317.382 218.93 305.145 231.167L258.005 184.026C244.206 197.825 244.206 220.197 258.005 233.995L305.145 186.855ZM305.145 231.167L320.57 215.742L273.43 168.601L258.005 184.026L305.145 231.167ZM330.333 192.172V187H263.667V192.172H330.333ZM317.354 216.149C332.051 201.453 332.385 172.775 309.272 160.297L277.601 218.96C256.686 207.668 257.285 181.937 270.215 169.007L317.354 216.149ZM309.272 160.296C301.422 156.059 292.441 153.667 283 153.667V220.333C281.112 220.333 279.24 219.845 277.601 218.96L309.272 160.296ZM283 153.667C252.44 153.667 227.667 178.44 227.667 209H294.333C294.333 215.259 289.259 220.333 283 220.333V153.667ZM227.667 209C227.667 239.56 252.44 264.333 283 264.333V197.667C289.259 197.667 294.333 202.741 294.333 209H227.667ZM283 264.333C313.56 264.333 338.333 239.56 338.333 209H271.667C271.667 202.741 276.741 197.667 283 197.667V264.333ZM338.333 209C338.333 199.578 335.951 190.614 331.728 182.774L273.035 214.39C272.153 212.753 271.667 210.883 271.667 209H338.333ZM331.729 182.775C319.263 159.632 290.564 159.961 275.863 174.66L322.999 221.804C310.066 234.736 284.315 235.332 273.035 214.389L331.729 182.775ZM275.853 174.67L275.793 174.73L322.949 221.854L323.009 221.794L275.853 174.67ZM275.802 174.721C263.716 186.806 263.149 203.865 269.361 215.999L328.703 185.617C334.064 196.088 333.706 211.099 322.94 221.863L275.802 174.721ZM269.362 216C268.268 213.864 267.667 211.454 267.667 209H334.333C334.333 200.646 332.312 192.666 328.702 185.616L269.362 216ZM267.667 209C267.667 200.532 274.532 193.667 283 193.667V260.333C311.351 260.333 334.333 237.351 334.333 209H267.667ZM283 193.667C291.468 193.667 298.333 200.532 298.333 209H231.667C231.667 237.351 254.649 260.333 283 260.333V193.667ZM298.333 209C298.333 217.468 291.468 224.333 283 224.333V157.667C254.649 157.667 231.667 180.649 231.667 209H298.333ZM283 224.333C280.541 224.333 278.126 223.729 275.987 222.631L306.428 163.32C299.367 159.696 291.372 157.667 283 157.667V224.333ZM275.988 222.632C288.127 228.861 305.2 228.302 317.294 216.21L270.157 169.066C280.929 158.295 295.951 157.944 306.426 163.32L275.988 222.632ZM317.319 216.185L317.378 216.125L270.191 169.031L270.132 169.091L317.319 216.185ZM311.349 222.154C319.525 213.979 323.154 202.365 321.147 191.077C319.038 179.211 310.579 168.059 297.231 163.853L277.194 227.437C265.12 223.632 257.418 213.477 255.51 202.744C253.704 192.587 256.98 182.242 264.21 175.012L311.349 222.154ZM297.231 163.853C292.697 162.424 287.905 161.667 283 161.667V228.333C281.03 228.333 279.069 228.028 277.194 227.437L297.231 163.853ZM283 161.667C256.859 161.667 235.667 182.859 235.667 209H302.333C302.333 219.678 293.678 228.333 283 228.333V161.667ZM235.667 209C235.667 235.142 256.859 256.333 283 256.333V189.667C293.677 189.667 302.333 198.322 302.333 209H235.667ZM283 256.333C309.142 256.333 330.333 235.141 330.333 209H263.667C263.667 198.323 272.323 189.667 283 189.667V256.333ZM330.333 209C330.333 204.122 329.584 199.356 328.172 194.846L264.553 214.773C263.969 212.909 263.667 210.959 263.667 209H330.333ZM328.171 194.843C323.983 181.477 312.831 172.997 300.956 170.877C289.66 168.86 278.034 172.487 269.851 180.672L316.996 227.808C309.759 235.046 299.402 238.32 289.239 236.506C278.497 234.588 268.342 226.865 264.554 214.776L328.171 194.843ZM269.855 180.668L269.67 180.853L316.808 227.996L316.992 227.811L269.855 180.668ZM269.672 180.851C259.211 191.309 257.966 204.928 260.346 214.579L325.073 198.615C327.072 206.721 326.142 218.664 316.806 227.998L269.672 180.851ZM260.345 214.576C259.897 212.758 259.667 210.885 259.667 209H326.333C326.333 205.459 325.901 201.975 325.074 198.617L260.345 214.576ZM259.667 209C259.667 196.113 270.113 185.667 283 185.667V252.333C306.932 252.333 326.333 232.932 326.333 209H259.667ZM283 185.667C295.887 185.667 306.333 196.113 306.333 209H239.667C239.667 232.932 259.068 252.333 283 252.333V185.667ZM306.333 209C306.333 221.887 295.887 232.333 283 232.333V165.667C259.068 165.667 239.667 185.068 239.667 209H306.333ZM283 232.333C281.103 232.333 279.214 232.1 277.381 231.644L293.459 166.945C290.076 166.105 286.566 165.667 283 165.667V232.333ZM277.379 231.644C287.045 234.046 300.693 232.812 311.169 222.335L264.024 175.198C273.373 165.847 285.341 164.928 293.461 166.946L277.379 231.644ZM311.169 222.334L311.353 222.151L264.207 175.016L264.024 175.199L311.169 222.334ZM291.701 234.924C285.454 237.007 277.245 237.551 268.904 234.088C260.679 230.674 254.894 224.403 251.752 217.616C245.484 204.073 249.542 189.681 258.206 181.016L305.347 228.157C314.622 218.882 318.778 203.711 312.252 189.611C308.981 182.545 302.978 176.051 294.465 172.516C285.835 168.934 277.267 169.462 270.611 171.681L291.701 234.924ZM258.205 181.018L256.594 182.629L303.737 229.766L305.348 228.155L258.205 181.018ZM256.596 182.627C242.017 197.205 242.017 220.841 256.596 235.419L303.735 188.277C315.193 199.734 315.193 218.311 303.735 229.769L256.596 182.627ZM256.595 235.418C271.173 249.996 294.808 249.996 309.386 235.418L262.245 188.278C273.702 176.82 292.278 176.82 303.736 188.278L256.595 235.418ZM309.386 235.418L310.976 233.827L263.836 186.687L262.245 188.278L309.386 235.418ZM310.976 233.827C302.314 242.489 287.885 246.575 274.303 240.247C267.495 237.075 261.221 231.243 257.838 222.971C254.408 214.588 255.011 206.37 257.128 200.147L320.244 221.612C322.5 214.979 323.089 206.403 319.541 197.73C316.039 189.169 309.543 183.118 302.457 179.817C288.318 173.229 273.11 177.413 263.836 186.687L310.976 233.827ZM257.129 200.142C260.64 189.824 270.498 181.667 283 181.667V248.333C300.756 248.333 315.124 236.66 320.243 221.616L257.129 200.142ZM283 181.667C298.096 181.667 310.333 193.904 310.333 209H243.667C243.667 230.723 261.277 248.333 283 248.333V181.667ZM310.333 209C310.333 221.571 302.091 231.46 291.699 234.925L270.613 171.681C255.462 176.732 243.667 191.147 243.667 209H310.333Z" fill="#FF0000" mask="url(#path-12-inside-6_5_237)"/>
<path d="M440.151 221.806L438.333 228.304C437.502 231.275 439.237 234.357 442.208 235.189C445.179 236.02 448.261 234.285 449.092 231.314L450.91 224.817M455.754 186.773L455.002 189.463M470.889 198.653L468.455 200.022M436.652 189.073L438.022 191.507M427.463 204.961L424.773 204.208M473.189 217.755L470.499 217.002M462.43 214.744C460.351 222.172 452.645 226.509 445.218 224.43C437.79 222.352 433.454 214.646 435.532 207.219C437.61 199.791 445.316 195.454 452.744 197.532C460.171 199.611 464.508 207.317 462.43 214.744Z" stroke="#FF0000" stroke-width="4" stroke-linecap="round" stroke-linejoin="round"/>
<path d="M250.398 309.01C251.163 313.269 248.34 317.34 244.091 318.104C239.842 318.868 235.777 316.035 235.011 311.776C234.245 307.517 237.069 303.446 241.318 302.682C245.567 301.918 249.632 304.751 250.398 309.01Z" stroke="#FF0000" stroke-width="6" stroke-linecap="round" stroke-linejoin="round"/>
<path d="M239.47 292.4C227.988 294.464 219.628 303.776 218.235 314.793C223.378 324.633 234.458 330.45 245.941 328.386C257.423 326.321 265.783 317.009 267.176 305.993C262.033 296.152 250.953 290.335 239.47 292.4Z" stroke="#FF0000" stroke-width="6" stroke-linecap="round" stroke-linejoin="round"/>
<path d="M369.026 312.344L371.668 304.159M372.274 288.54L380.31 291.135M387.107 318.181C383.824 328.351 373.067 333.982 363.081 330.758C353.095 327.534 347.662 316.676 350.945 306.506C354.228 296.336 364.985 290.705 374.971 293.929C384.957 297.153 390.39 308.011 387.107 318.181Z" stroke="#FF0000" stroke-width="4" stroke-linecap="round"/>
<path d="M460.282 303.13C459.324 308.015 460.239 313.299 463.239 317.755C466.235 322.213 470.785 325.054 475.668 326.004C479.078 326.676 482.676 326.406 486.058 325.18L493.509 336.257C494.959 338.413 497.881 338.984 500.037 337.534C502.193 336.085 502.765 333.161 501.315 331.007L493.863 319.928L483.155 287.743C478.275 286.782 472.989 287.701 468.533 290.699C464.075 293.696 461.235 298.247 460.282 303.13ZM460.282 303.13L460.283 303.131L460.282 303.13ZM468.969 291.347L468.969 291.347C473.246 288.469 478.32 287.588 483.004 288.51L483.006 288.51C487.696 289.424 492.062 292.151 494.939 296.429L494.939 296.429C497.818 300.706 498.697 305.78 497.776 310.467L497.775 310.468C497.14 313.736 495.601 316.84 493.283 319.404L492.874 319.858L493.215 320.364L500.667 331.443L500.667 331.443C501.876 333.239 501.399 335.677 499.602 336.886L499.601 336.886C497.803 338.095 495.367 337.619 494.157 335.82L486.707 324.744L486.366 324.237L485.792 324.445C482.542 325.624 479.088 325.881 475.819 325.238L475.817 325.237C471.131 324.326 466.763 321.598 463.887 317.319L463.887 317.319C461.008 313.042 460.129 307.97 461.049 303.281L461.049 303.28C461.964 298.592 464.69 294.224 468.969 291.347ZM489.991 299.759L489.991 299.759C488.016 296.827 485.073 294.996 481.862 294.362L481.859 294.361C478.648 293.739 475.23 294.325 472.298 296.295L472.297 296.296C469.367 298.269 467.536 301.214 466.902 304.424L466.901 304.427C466.279 307.64 466.865 311.056 468.834 313.99L468.835 313.991C470.808 316.92 473.753 318.752 476.962 319.386L476.965 319.386C480.179 320.009 483.595 319.422 486.528 317.453L486.529 317.452C489.459 315.477 491.29 312.534 491.925 309.324L491.925 309.321C492.547 306.108 491.961 302.69 489.991 299.759Z" fill="#FF0000" stroke="#FF0000" stroke-width="1.5625"/>
</svg>
