<svg width="700" height="500" viewBox="0 0 700 500" fill="none" xmlns="http://www.w3.org/2000/svg">
<path d="M98.8558 250.238L98.5 251L97.5 253L96.5 255.5L95.5 259L95.1485 260.582C94.7167 262.525 94.4234 264.496 94.2707 266.481L94.1777 267.689C94.0595 269.227 94.0702 270.772 94.2098 272.308C94.4026 274.429 94.8401 276.52 95.5136 278.541L96.5 281.5L96.9518 282.494C98.3062 285.474 100.186 288.186 102.5 290.5L108 295L109.328 295.83C111.103 296.94 113.003 297.834 114.989 298.496C116.989 299.163 119.062 299.588 121.163 299.764L124 300L130 300.5C132.33 300.5 134.658 300.335 136.965 300.005L137 300C138.331 299.667 139.634 299.228 140.895 298.688L142.5 298L144.557 297.118C145.516 296.708 146.422 296.184 147.256 295.558C147.751 295.187 148.22 294.78 148.658 294.342L150 293C150.654 292.346 151.483 291.879 152.381 291.655C152.789 291.553 153.213 291.5 153.634 291.5H155.5C156.097 291.5 156.627 291.882 156.816 292.449L157 293L158 296L158.5 297.5L158.838 298.513C158.944 298.833 159.124 299.124 159.363 299.363C159.771 299.771 160.324 300 160.901 300H162.917C163.305 300 163.692 299.968 164.075 299.904L181.5 297L183.121 296.73C184.035 296.577 184.921 296.289 185.75 295.875C186.249 295.625 186.724 295.332 187.171 294.997L187.935 294.424C188.309 294.143 188.633 293.801 188.892 293.412C189.29 292.814 189.838 292.331 190.48 292.01L191.5 291.5L193.116 290.854C193.7 290.62 194.323 290.5 194.952 290.5C196.263 290.5 197.521 291.021 198.448 291.948L199.5 293C201.159 294.659 203.04 296.078 205.091 297.217L206.5 298L215.5 301.5L218.231 302.145C219.23 302.381 220.253 302.5 221.279 302.5H222.035C223.332 302.5 224.614 302.237 225.806 301.726L226.076 301.61C227.017 301.207 227.872 300.628 228.596 299.904C228.865 299.635 229.115 299.347 229.343 299.043L230.5 297.5L231.055 296.667C231.343 296.235 231.768 295.911 232.261 295.746C232.741 295.586 233.259 295.586 233.739 295.746L233.883 295.794C234.289 295.93 234.658 296.158 234.96 296.46C235.313 296.813 235.564 297.256 235.685 297.741L235.889 298.554C235.963 298.851 236.06 299.141 236.18 299.422L253.5 340L254.656 342.697C254.883 343.227 255.21 343.71 255.618 344.118C255.872 344.372 256.155 344.595 256.461 344.782L265 350L265.086 350.058C266.02 350.68 267.066 351.113 268.166 351.333L268.71 351.442C268.903 351.481 269.099 351.5 269.296 351.5H269.337C269.773 351.5 270.203 351.399 270.593 351.204L270.766 351.117C270.921 351.039 271.062 350.938 271.185 350.815C271.391 350.609 271.537 350.35 271.608 350.067L272 348.5L273.371 338.906C273.457 338.303 273.5 337.694 273.5 337.085V336.744C273.5 335.918 273.399 335.095 273.198 334.294C273.066 333.765 272.892 333.249 272.677 332.749L257.5 297.5L257 296L256.789 294.943C256.608 294.042 256.891 293.109 257.541 292.459C257.843 292.157 258.211 291.93 258.616 291.795L259.5 291.5L260.626 291.275C261.535 291.093 262.468 291.078 263.382 291.23C264.448 291.408 265.465 291.81 266.365 292.41L267.605 293.237C268.861 294.074 270.239 294.711 271.69 295.126L275.613 296.247C278.523 297.078 281.536 297.5 284.563 297.5H284.859C286.616 297.5 288.37 297.342 290.099 297.027L290.351 296.982C292.113 296.661 293.838 296.165 295.5 295.5L299.138 293.516C300.373 292.842 301.505 291.995 302.5 291L302.887 290.613C303.28 290.22 303.812 290 304.367 290C304.78 290 305.183 290.122 305.527 290.351L306.116 290.744C306.371 290.914 306.644 291.057 306.928 291.171L309 292L313.495 293.226C314.162 293.408 314.85 293.5 315.542 293.5H315.866C316.287 293.5 316.707 293.448 317.115 293.346L317.286 293.303C318.08 293.105 318.806 292.694 319.385 292.115C319.791 291.709 320.116 291.229 320.343 290.7L321.5 288L321.809 287.073C321.936 286.693 322.115 286.327 322.338 285.993C322.768 285.348 323.365 284.818 324.059 284.471L324.351 284.325C324.778 284.111 325.249 284 325.726 284C326.542 284 327.324 284.324 327.901 284.901L329 286L329.618 286.773C330.537 287.921 331.569 288.974 332.699 289.916C333.565 290.638 334.485 291.291 335.452 291.871L337.097 292.858C338.356 293.614 339.736 294.147 341.176 294.435L342.858 294.772C343.61 294.922 344.386 294.904 345.13 294.718C345.706 294.574 346.252 294.332 346.746 294.002L347.5 293.5L347.803 293.273C348.933 292.425 350.001 291.499 351 290.5L352.413 289.087C352.804 288.696 353.167 288.278 353.498 287.836L353.684 287.587C354.225 286.866 354.866 286.225 355.587 285.684C356.194 285.23 356.852 284.849 357.548 284.551L358.438 284.17C359.475 283.725 360.566 283.419 361.683 283.26C362.888 283.087 364.112 283.087 365.317 283.26L367 283.5L371 284.5L373.689 285.396C373.896 285.465 374.098 285.549 374.293 285.646L374.586 285.793C375.491 286.246 376.18 287.04 376.5 288L377.5 292.5L378.5 297L379 299L379.123 299.368C379.36 300.08 379.92 300.64 380.632 300.877C380.876 300.959 381.131 301 381.387 301H382.403C383.131 301 383.857 300.908 384.563 300.726L399 297L403.5 295.5C404.486 295.171 405.383 294.617 406.118 293.882L406.5 293.5C406.82 293.18 407.254 293 407.707 293H409.5C410.158 293 410.806 293.153 411.394 293.447L412.5 294L412.998 294.332C413.664 294.776 414.375 295.15 415.118 295.447C416.035 295.814 416.996 296.062 417.977 296.185L424.5 297L426.221 297.344C426.729 297.446 427.196 297.696 427.562 298.062C427.85 298.35 428.067 298.701 428.196 299.088L428.235 299.206C428.409 299.726 428.443 300.283 428.336 300.821L428.213 301.433C428.073 302.137 427.795 302.808 427.396 303.406L427 304L424 308L421.602 312.111C420.869 313.368 420.243 314.685 419.732 316.048C419.245 317.347 418.863 318.684 418.591 320.044L418.55 320.248C418.184 322.078 418 323.94 418 325.807V326.268C418 328.086 418.15 329.901 418.449 331.695L419 335L419.323 336.185C420.106 339.055 421.17 341.84 422.5 344.5L423.645 346.218C424.214 347.071 424.865 347.865 425.589 348.589C426.195 349.195 426.85 349.75 427.548 350.248L429.415 351.582C432.127 353.519 435.08 355.093 438.2 356.263C440.395 357.086 442.662 357.705 444.97 358.112L447.605 358.577C449.195 358.858 450.814 358.926 452.422 358.78L452.592 358.764C454.517 358.589 456.399 358.092 458.158 357.292L458.456 357.157C460.138 356.392 461.669 355.331 462.976 354.024C464.314 352.686 465.394 351.113 466.162 349.385L466.409 348.829C466.802 347.947 467.08 347.018 467.239 346.065C467.412 345.027 467.441 343.969 467.325 342.923L467.123 341.111C467.042 340.376 466.831 339.661 466.5 339L466.156 338.311C466.053 338.107 466 337.881 466 337.652C466 336.975 466.461 336.385 467.117 336.221L467.637 336.091C467.877 336.031 468.105 335.93 468.311 335.792L468.7 335.533C469.228 335.181 469.82 334.936 470.443 334.811L470.991 334.702C471.661 334.568 472.31 334.345 472.921 334.04L474.295 333.352C474.764 333.118 475.211 332.842 475.63 332.527C476.535 331.849 477.299 331.001 477.881 330.032L477.961 329.898C478.319 329.301 478.611 328.667 478.831 328.007L478.904 327.79C479.299 326.604 479.5 325.363 479.5 324.114V323C479.5 321.341 479.269 319.691 478.813 318.096L478.5 317L477.116 313.194C476.707 312.069 476.164 310.996 475.5 310L475.332 309.748C474.79 308.934 474.5 307.978 474.5 307V305V303.879C474.5 303.63 474.558 303.384 474.67 303.161C474.879 302.741 475.262 302.435 475.717 302.321L477 302L492.241 298.293C494.407 297.766 496.506 296.997 498.5 296L499.5 295.5L499.586 295.442C500.52 294.82 501.566 294.387 502.666 294.167L502.876 294.125C503.291 294.042 503.713 294 504.136 294C505.035 294 505.925 294.189 506.746 294.554L510 296L511.701 296.851C512.565 297.283 513.467 297.634 514.396 297.899L515.892 298.326C516.295 298.442 516.716 298.5 517.135 298.5C518.021 298.5 518.893 298.238 519.63 297.746C519.876 297.583 520.105 297.395 520.314 297.186L521 296.5L523 294L524.505 292.119C524.833 291.709 525.222 291.352 525.66 291.06C526.214 290.69 526.836 290.433 527.49 290.302L529 290C530.997 289.667 533.017 289.5 535.041 289.5H536H537.601C538.532 289.5 539.473 289.579 540.391 289.732C541.453 289.909 542.507 290.19 543.515 290.568L544.2 290.825C545.392 291.272 546.507 291.905 547.502 292.701C548.165 293.232 548.883 293.692 549.644 294.072L550.977 294.738C551.324 294.912 551.69 295.048 552.068 295.142L552.635 295.284C553.201 295.425 553.718 295.718 554.131 296.131L554.178 296.178C554.391 296.391 554.569 296.638 554.704 296.907C554.899 297.297 555 297.727 555 298.163V298.877C555 299.619 554.858 300.354 554.583 301.043L553 305L552.804 305.392C552.609 305.781 552.577 306.232 552.715 306.645C552.893 307.178 553.33 307.582 553.874 307.719L555 308L557 308.5L567 310L572.148 310.936C572.382 310.979 572.62 311 572.858 311H572.897C573.923 311 574.908 310.592 575.634 309.866C575.877 309.623 576.086 309.349 576.257 309.05L578 306L588 287L597 268L605 248.5L609.289 232.296C609.427 231.774 609.431 231.225 609.3 230.701C609.107 229.928 608.623 229.249 607.96 228.807C607.658 228.606 607.321 228.454 606.97 228.363L594 225L593.303 224.801C591.442 224.269 589.659 223.496 588 222.5L587.623 222.217C586.561 221.421 585.739 220.348 585.247 219.117L585.23 219.076C585.077 218.693 584.959 218.296 584.878 217.892C584.631 216.655 584.735 215.374 585.177 214.194L586 212L586.769 210.462C586.923 210.155 587.104 209.862 587.31 209.587C588.081 208.559 589.175 207.82 590.417 207.489L594.909 206.291C595.624 206.1 596.275 205.725 596.798 205.202L596.837 205.163C597.273 204.727 597.601 204.196 597.796 203.611C597.931 203.206 598 202.783 598 202.356V202.134C598 201.713 597.948 201.293 597.846 200.885L597.672 200.186C597.559 199.737 597.327 199.327 597 199C596.673 198.673 596.263 198.441 595.814 198.329L595.004 198.126C594.669 198.042 594.326 198 593.981 198C593.661 198 593.343 198.036 593.032 198.108L587 199.5L579 201L570.415 202.908C570.139 202.969 569.857 203 569.574 203H569.303C568.177 203 567.125 202.437 566.5 201.5C565.852 200.204 565.654 198.728 565.939 197.307L566 197C566.332 196.004 566.795 195.058 567.377 194.184L567.976 193.286C568.324 192.763 568.618 192.206 568.851 191.623C569.28 190.551 569.5 189.407 569.5 188.252V187.395C569.5 186.138 569.325 184.887 568.979 183.678L568.894 183.379C568.632 182.463 568.261 181.582 567.788 180.755L567.766 180.715C566.932 179.256 565.792 177.994 564.424 177.017L563.726 176.519C563.245 176.175 562.715 175.905 562.153 175.718C561.719 175.573 561.27 175.479 560.814 175.438L559.195 175.29C557.1 175.1 554.991 175.449 553.068 176.303L552.926 176.366C551.98 176.787 551.097 177.336 550.302 177.999C549.113 178.989 548.143 180.214 547.451 181.598L547.216 182.067C546.742 183.016 546.423 184.035 546.273 185.086C546.093 186.35 546.159 187.637 546.469 188.876L546.729 189.915C546.909 190.637 547.147 191.344 547.441 192.028L547.764 192.783C548.25 193.917 548.948 194.948 549.821 195.821L549.863 195.863C550.286 196.287 550.751 196.667 551.25 197L551.773 197.349C551.924 197.449 552.065 197.565 552.193 197.693C552.71 198.21 553 198.919 553 199.649C553 200.2 552.837 200.745 552.531 201.203C552.187 201.719 551.68 202.107 551.091 202.303L550.745 202.418C550.582 202.473 550.423 202.539 550.269 202.616C549.763 202.868 549.206 203 548.641 203H548.245C547.751 203 547.259 202.931 546.784 202.795L545.617 202.462C544.544 202.156 543.434 202 542.318 202C541.442 202 540.569 202.096 539.713 202.286L538.481 202.56C537.172 202.851 535.927 203.382 534.811 204.126C533.942 204.706 533.16 205.408 532.491 206.211L532.088 206.694C531.369 207.557 530.818 208.547 530.462 209.613C530.156 210.532 530 211.494 530 212.462V213.681C530 214.559 530.073 215.435 530.217 216.301L530.301 216.806C530.433 217.6 530.651 218.377 530.95 219.124C531.315 220.037 531.799 220.899 532.389 221.685L532.742 222.155C532.914 222.385 533.102 222.602 533.305 222.805C533.765 223.265 534.149 223.797 534.44 224.38L534.5 224.5L534.55 224.599C534.838 225.176 534.885 225.844 534.682 226.455C534.562 226.814 534.361 227.139 534.094 227.406L533.938 227.562C533.65 227.85 533.299 228.067 532.912 228.196C532.323 228.392 531.684 228.373 531.107 228.143L529.5 227.5L526.5 226.5L521 225L516.5 224L516.034 223.883C515.032 223.633 513.98 223.673 513 224C512.04 224.32 511.246 225.009 510.793 225.914L510.663 226.174C510.554 226.391 510.464 226.616 510.391 226.847L508 234.5L507.905 234.785C507.663 235.51 506.984 236 506.219 236C506.073 236 505.929 235.982 505.788 235.947L504 235.5L501.862 235.072C501.621 235.024 501.376 235 501.13 235C500.393 235 499.673 235.218 499.06 235.627L498.87 235.754C498.624 235.917 498.395 236.105 498.186 236.314L497.796 236.704C497.267 237.233 496.806 237.824 496.421 238.465L496.096 239.007C495.702 239.663 495.185 240.236 494.573 240.695L494.312 240.891C493.777 241.292 493.16 241.568 492.505 241.699C491.53 241.894 490.517 241.758 489.627 241.314L488 240.5C487.048 239.865 486.418 238.847 486.276 237.711L486 235.5V232.577C486 231.86 485.949 231.144 485.848 230.434C485.617 228.822 485.129 227.257 484.4 225.801L484.334 225.668C483.78 224.56 483.099 223.519 482.306 222.567L481.959 222.151C481.322 221.386 480.598 220.698 479.801 220.101C477.967 218.725 475.798 217.866 473.52 217.613L472.5 217.5C470.513 217.5 468.539 217.82 466.654 218.449L466.076 218.641C465.36 218.88 464.661 219.169 463.986 219.507L463.098 219.951C461.714 220.643 460.489 221.613 459.499 222.802C458.836 223.597 458.287 224.48 457.866 225.426L457.337 226.617C456.78 227.869 456.35 229.174 456.053 230.511L455.842 231.46C455.615 232.484 455.5 233.529 455.5 234.577V235.15C455.5 235.715 455.556 236.279 455.667 236.834C455.887 237.934 456.32 238.98 456.942 239.914L458 241.5L458.678 242.517C458.891 242.837 459.048 243.193 459.141 243.565C459.369 244.475 459.203 245.445 458.683 246.226L458.651 246.273C458.551 246.424 458.435 246.565 458.307 246.693L458.176 246.824C457.743 247.257 457.156 247.5 456.545 247.5C456.186 247.5 455.833 247.417 455.513 247.256L454 246.5L451.5 245.5L448.5 244L447.799 243.649C446.935 243.217 446.033 242.866 445.104 242.601L443.721 242.206C443.243 242.069 442.748 242 442.25 242C441.752 242 441.257 242.069 440.779 242.206L438 243L436.027 243.789C435.676 243.929 435.342 244.105 435.028 244.315C434.351 244.766 433.582 245.06 432.777 245.175L431.853 245.307C430.955 245.435 430.045 245.435 429.147 245.307L427 245L425.209 244.488C424.082 244.166 423.035 243.612 422.135 242.862L421.642 242.452C420.892 241.827 420.31 241.026 419.948 240.12L419.724 239.559C419.576 239.19 419.355 238.855 419.074 238.574C418.699 238.199 418.228 237.932 417.712 237.803L417.115 237.654C416.707 237.552 416.287 237.5 415.866 237.5H415.392C414.799 237.5 414.207 237.559 413.626 237.675L407 239L398.5 241L396.5 241.5L395.386 241.871C395.13 241.956 394.862 242 394.593 242C394.203 242 393.819 241.909 393.47 241.735L392.976 241.488C392.336 241.168 391.791 240.687 391.395 240.092C391.134 239.7 390.942 239.266 390.827 238.81L390.708 238.331C390.57 237.779 390.5 237.212 390.5 236.644V234.5V232V231.688C390.5 230.236 390.298 228.792 389.899 227.396L389.812 227.091C389.604 226.365 389.33 225.66 388.992 224.985C388.665 224.33 388.279 223.705 387.839 223.119L387.661 222.882C387.221 222.295 386.74 221.74 386.221 221.221L385.637 220.637C385.214 220.213 384.749 219.833 384.25 219.5C383.751 219.167 383.286 218.787 382.863 218.363L382.5 218C381.875 217.375 381.604 216.48 381.777 215.613L382 214.5L382.5 212.5L384.5 207.5L385.5 204L387 199.5L388.112 194.309C388.37 193.106 388.5 191.88 388.5 190.65C388.5 189.222 388.325 187.8 387.979 186.414L387.894 186.077C387.632 185.027 387.286 184 386.86 183.006L386 181L384 177.5L382 174.5L381.387 173.58C380.469 172.203 379.324 170.993 378 170C376.004 168.669 373.891 167.525 371.686 166.58L371.5 166.5L368.5 165.5L365 164.5L363.727 164.318C362.244 164.106 360.748 164 359.25 164H358.396C357.467 164 356.538 164.066 355.618 164.197C354.21 164.399 352.828 164.752 351.497 165.251L349.5 166C347.509 166.664 345.615 167.59 343.869 168.754L343.5 169L341 170.5L337.5 173L335.454 174.705C334.82 175.234 334.24 175.825 333.724 176.47C332.913 177.484 332.268 178.619 331.812 179.835L331 182C330.003 184.657 329.245 187.415 329.015 190.244C329.005 190.362 329 190.45 329 190.5V194.5L329.5 198.5C329.832 199.827 330.344 201.102 331.023 202.29L332 204L333.5 206.5L333.91 207.184C334.63 208.384 335.118 209.709 335.348 211.089C335.449 211.695 335.5 212.309 335.5 212.923V213.206C335.5 214.398 335.354 215.584 335.065 216.74L335 217L334.736 218.322C334.58 219.1 334.274 219.84 333.834 220.5L333.732 220.652C333.578 220.884 333.401 221.099 333.204 221.296C332.741 221.759 332.392 222.324 332.185 222.945L332 223.5L330 232.5L329.581 233.756C329.528 233.917 329.438 234.062 329.318 234.182L329.285 234.215C329.103 234.397 328.855 234.5 328.596 234.5C328.532 234.5 328.468 234.494 328.405 234.481L323.79 233.558C323.597 233.519 323.401 233.5 323.204 233.5H322.964C322.659 233.5 322.358 233.571 322.085 233.707C321.705 233.897 321.397 234.205 321.207 234.585L321.088 234.824C321.029 234.941 320.979 235.062 320.938 235.186L320.5 236.5L320.278 237.387C320.094 238.124 319.785 238.823 319.364 239.454L319.151 239.773C319.051 239.924 318.935 240.065 318.807 240.193C318.29 240.71 317.589 241 316.859 241H316H315.292C314.775 241 314.271 240.847 313.841 240.561C313.3 240.2 312.913 239.65 312.755 239.019L312.567 238.269C312.523 238.09 312.458 237.917 312.376 237.752C312.132 237.264 311.736 236.868 311.248 236.624L311.176 236.588C311.059 236.529 310.938 236.479 310.814 236.438L310.653 236.384C309.895 236.132 309.088 236.059 308.297 236.172L306 236.5L299.5 237.5L296.5 238L291.5 239L290.395 239.368C290.135 239.455 289.899 239.601 289.706 239.794C289.268 240.232 288.632 240.408 288.032 240.258L287 240C285.672 239.668 284.308 239.5 282.938 239.5H282.691C281.566 239.5 280.443 239.601 279.336 239.803L277.924 240.059C276.31 240.353 274.719 240.76 273.162 241.279L271 242C268.676 242.996 266.49 244.286 264.494 245.838L263 247C261.003 248.997 259.175 251.155 257.534 253.452L257.5 253.5C256.836 254.496 256.308 255.575 255.93 256.71L255.5 258L254.692 260.828C254.568 261.262 254.294 261.637 253.918 261.888C253.35 262.266 252.623 262.312 252.013 262.006L252 262C251.012 261.342 250.183 260.472 249.572 259.454L249 258.5L247.328 255.157C246.778 254.056 246.102 253.022 245.314 252.077C244.442 251.03 243.439 250.099 242.33 249.307L240.5 248C238.17 246.669 235.738 245.527 233.226 244.585L233 244.5L229.5 243.5L227 243C225.337 242.667 223.646 242.5 221.95 242.5H221.5C218.841 242.5 216.191 242.791 213.595 243.368L213 243.5L209 245L205 247L203.115 248.256C202.376 248.749 201.565 249.124 200.711 249.368L199.704 249.656C198.915 249.881 198.081 249.895 197.286 249.696C196.766 249.566 196.272 249.348 195.826 249.051L195.465 248.81C195.156 248.604 194.868 248.368 194.605 248.105L194.509 248.009C193.849 247.349 193.38 246.521 193.154 245.615C193.052 245.207 193 244.787 193 244.366V243V242.427C193 241.817 192.858 241.216 192.585 240.671C192.205 239.911 191.589 239.295 190.829 238.915L190.711 238.856C190.241 238.621 189.732 238.473 189.209 238.421L185 238H181L177 238.5L172.5 239.5L169.884 239.936C169.628 239.979 169.37 240 169.111 240H168.406C168.139 240 167.876 239.938 167.637 239.818C167.229 239.615 166.919 239.257 166.775 238.824L166.629 238.386C166.544 238.131 166.5 237.862 166.5 237.593C166.5 237.203 166.591 236.819 166.765 236.47L167 236L168 234L168.285 233.431C168.428 233.144 168.551 232.847 168.652 232.543C168.883 231.852 169 231.129 169 230.4V228.791C169 228.267 168.916 227.747 168.75 227.25L168.634 226.901C168.545 226.635 168.5 226.357 168.5 226.078C168.5 225.388 168.774 224.726 169.262 224.238L169.5 224C170.827 222.341 171.924 220.51 172.761 218.557L179 204L183.5 193.5L185.422 188.118C185.8 187.059 185.883 185.918 185.663 184.815L185.631 184.655C185.544 184.22 185.4 183.799 185.201 183.402C185.067 183.135 184.91 182.88 184.73 182.64L184.418 182.225C183.824 181.432 182.976 180.869 182.015 180.629C181.673 180.543 181.322 180.5 180.969 180.5H180.915C180.311 180.5 179.712 180.615 179.15 180.84L178.073 181.271C177.692 181.423 177.328 181.615 176.986 181.842C176.335 182.276 175.776 182.835 175.342 183.486L175 184L157.5 211.5L156.922 212.656C156.309 213.882 155.832 215.171 155.5 216.5C155.189 217.434 154.421 218.145 153.466 218.383L153.333 218.417C153.112 218.472 152.897 218.552 152.693 218.654L151.982 219.009C151.329 219.335 150.713 219.73 150.142 220.186L149.254 220.897C148.753 221.297 148.305 221.759 147.921 222.272C147.313 223.082 146.873 224.006 146.628 224.989L146.5 225.5C146.167 227.497 146 229.517 146 231.541V232.5V234.959C146 235.317 145.942 235.673 145.829 236.013C145.615 236.656 145.21 237.218 144.668 237.624L144.285 237.911C143.767 238.3 143.176 238.581 142.548 238.738L142.257 238.811C141.754 238.936 141.238 239 140.719 239H140.232C139.745 239 139.258 238.965 138.775 238.896L136 238.5L131.605 237.676C129.207 237.226 126.772 237 124.332 237C121.453 237 118.582 237.315 115.771 237.94L113.565 238.43C111.861 238.809 110.211 239.395 108.65 240.175C104.344 242.328 100.892 245.875 98.8558 250.238Z" fill="#00FBFF" stroke="#00FBFF" stroke-width="20"/>
<mask id="path-2-outside-1_1_36" maskUnits="userSpaceOnUse" x="86.7105" y="231.114" width="74.0559" height="75.4671" fill="black">
<rect fill="white" x="86.7105" y="231.114" width="74.0559" height="75.4671"/>
<path d="M151.553 253.669L144.176 263.712C143.506 264.725 142.237 265.377 141.124 265.078C140.753 264.978 140.34 264.668 140.044 264.29C138.75 262.45 135.78 260.557 132.535 259.683C130.125 259.034 121.911 257.419 119.19 267.523C117.518 273.734 120.869 279.011 126.895 280.633C130.881 281.706 135.99 281.193 141.538 278.312C142.244 277.906 143.203 277.667 144.037 277.892C144.686 278.066 145.328 278.637 145.677 279.924C146.497 283.525 147.16 285.493 147.82 288.951C147.948 289.583 147.959 290.281 147.784 290.93C147.485 292.043 146.746 292.938 145.335 293.75C135.904 298.867 126.157 299.622 117.814 297.376C102.426 293.233 91.6941 278.811 96.0868 262.496C101.678 241.731 120.542 237.763 135.837 241.882C146.127 244.652 152.444 250.727 151.82 253.045C151.771 253.23 151.696 253.508 151.553 253.669Z"/>
</mask>
<path d="M151.553 253.669L144.176 263.712C143.506 264.725 142.237 265.377 141.124 265.078C140.753 264.978 140.34 264.668 140.044 264.29C138.75 262.45 135.78 260.557 132.535 259.683C130.125 259.034 121.911 257.419 119.19 267.523C117.518 273.734 120.869 279.011 126.895 280.633C130.881 281.706 135.99 281.193 141.538 278.312C142.244 277.906 143.203 277.667 144.037 277.892C144.686 278.066 145.328 278.637 145.677 279.924C146.497 283.525 147.16 285.493 147.82 288.951C147.948 289.583 147.959 290.281 147.784 290.93C147.485 292.043 146.746 292.938 145.335 293.75C135.904 298.867 126.157 299.622 117.814 297.376C102.426 293.233 91.6941 278.811 96.0868 262.496C101.678 241.731 120.542 237.763 135.837 241.882C146.127 244.652 152.444 250.727 151.82 253.045C151.771 253.23 151.696 253.508 151.553 253.669Z" fill="#FF00FF"/>
<path d="M151.553 253.669L150.806 253.004L150.775 253.039L150.747 253.077L151.553 253.669ZM144.176 263.712L143.37 263.12L143.356 263.14L143.342 263.16L144.176 263.712ZM140.044 264.29L139.226 264.865L139.241 264.886L139.257 264.906L140.044 264.29ZM141.538 278.312L141.999 279.2L142.018 279.19L142.037 279.179L141.538 278.312ZM145.677 279.924L146.652 279.702L146.648 279.682L146.642 279.662L145.677 279.924ZM147.82 288.951L146.837 289.139L146.84 289.151L147.82 288.951ZM145.335 293.75L145.811 294.629L145.823 294.623L145.834 294.617L145.335 293.75ZM150.747 253.077L143.37 263.12L144.982 264.304L152.359 254.261L150.747 253.077ZM143.342 263.16C142.838 263.923 141.968 264.269 141.384 264.112L140.864 266.043C142.506 266.485 144.174 265.527 145.01 264.264L143.342 263.16ZM141.384 264.112C141.284 264.085 141.04 263.939 140.831 263.673L139.257 264.906C139.64 265.396 140.223 265.871 140.864 266.043L141.384 264.112ZM140.862 263.714C139.392 261.624 136.185 259.63 132.795 258.718L132.275 260.649C135.375 261.484 138.108 263.276 139.226 264.865L140.862 263.714ZM132.795 258.718C131.541 258.38 128.666 257.754 125.702 258.61C122.643 259.493 119.668 261.902 118.225 267.263L120.156 267.783C121.433 263.04 123.925 261.205 126.257 260.532C128.683 259.831 131.12 260.338 132.275 260.649L132.795 258.718ZM118.225 267.263C117.324 270.609 117.765 273.764 119.299 276.314C120.829 278.859 123.402 280.728 126.635 281.599L127.155 279.668C124.362 278.916 122.247 277.335 121.013 275.284C119.782 273.237 119.384 270.648 120.156 267.783L118.225 267.263ZM126.635 281.599C130.908 282.749 136.275 282.172 141.999 279.2L141.077 277.425C135.705 280.214 130.854 280.664 127.155 279.668L126.635 281.599ZM142.037 279.179C142.591 278.86 143.275 278.722 143.777 278.857L144.297 276.926C143.131 276.612 141.896 276.952 141.039 277.446L142.037 279.179ZM143.777 278.857C143.989 278.914 144.427 279.138 144.712 280.186L146.642 279.662C146.228 278.136 145.382 277.218 144.297 276.926L143.777 278.857ZM144.702 280.146C145.548 283.862 146.178 285.679 146.837 289.139L148.802 288.764C148.143 285.307 147.446 283.188 146.652 279.702L144.702 280.146ZM146.84 289.151C146.943 289.66 146.945 290.199 146.818 290.67L148.75 291.19C148.972 290.364 148.953 289.505 148.8 288.752L146.84 289.151ZM146.818 290.67C146.607 291.457 146.089 292.162 144.836 292.884L145.834 294.617C147.404 293.713 148.362 292.628 148.75 291.19L146.818 290.67ZM144.858 292.871C135.653 297.865 126.169 298.59 118.074 296.41L117.554 298.342C126.144 300.655 136.156 299.868 145.811 294.629L144.858 292.871ZM118.074 296.41C103.107 292.381 92.8317 278.432 97.0524 262.756L95.1212 262.236C90.5565 279.19 101.744 294.085 117.554 298.342L118.074 296.41ZM97.0524 262.756C99.7694 252.665 105.674 246.73 112.71 243.78C119.785 240.812 128.09 240.831 135.577 242.847L136.097 240.916C128.289 238.814 119.514 238.757 111.936 241.936C104.318 245.131 97.995 251.562 95.1212 262.236L97.0524 262.756ZM135.577 242.847C140.6 244.2 144.632 246.354 147.31 248.424C148.652 249.462 149.626 250.456 150.217 251.291C150.513 251.708 150.695 252.059 150.788 252.334C150.883 252.615 150.864 252.75 150.855 252.785L152.786 253.305C152.933 252.76 152.853 252.199 152.682 251.693C152.509 251.181 152.219 250.656 151.849 250.134C151.11 249.091 149.978 247.959 148.533 246.842C145.636 244.602 141.363 242.334 136.097 240.916L135.577 242.847ZM150.855 252.785C150.828 252.883 150.809 252.952 150.787 253.011C150.776 253.039 150.77 253.052 150.768 253.054C150.766 253.058 150.777 253.037 150.806 253.004L152.3 254.333C152.491 254.119 152.597 253.877 152.656 253.721C152.72 253.555 152.763 253.392 152.786 253.305L150.855 252.785Z" fill="#FF00FF" mask="url(#path-2-outside-1_1_36)"/>
<mask id="path-4-outside-2_1_36" maskUnits="userSpaceOnUse" x="150.633" y="236.712" width="47.7646" height="63.8832" fill="black">
<rect fill="white" x="150.633" y="236.712" width="47.7646" height="63.8832"/>
<path d="M181.343 295.274L162.439 298.227C161.293 298.341 160.261 297.673 160.147 296.527L152.502 247.122C152.388 245.976 153.152 244.935 154.202 244.829L165.226 243.148C170.222 241.008 175.112 239.747 179.889 239.269C183.136 238.944 186.327 239.011 189.355 239.383C190.826 239.622 191.476 240.328 191.59 241.475C191.628 241.857 191.571 242.248 191.523 242.736L190.101 256.482C189.948 257.848 189.06 258.612 187.913 258.726C187.627 258.755 187.235 258.698 186.844 258.641C185.267 258.316 183.615 258.192 181.991 258.354C180.654 258.488 179.335 258.813 177.845 259.348L183.043 292.981L183.063 293.173C183.168 294.223 182.394 295.169 181.343 295.274Z"/>
</mask>
<path d="M181.343 295.274L162.439 298.227C161.293 298.341 160.261 297.673 160.147 296.527L152.502 247.122C152.388 245.976 153.152 244.935 154.202 244.829L165.226 243.148C170.222 241.008 175.112 239.747 179.889 239.269C183.136 238.944 186.327 239.011 189.355 239.383C190.826 239.622 191.476 240.328 191.59 241.475C191.628 241.857 191.571 242.248 191.523 242.736L190.101 256.482C189.948 257.848 189.06 258.612 187.913 258.726C187.627 258.755 187.235 258.698 186.844 258.641C185.267 258.316 183.615 258.192 181.991 258.354C180.654 258.488 179.335 258.813 177.845 259.348L183.043 292.981L183.063 293.173C183.168 294.223 182.394 295.169 181.343 295.274Z" fill="#FF00FF"/>
<path d="M181.343 295.274L181.244 294.279L181.216 294.282L181.189 294.286L181.343 295.274ZM162.439 298.227L162.539 299.222L162.566 299.219L162.594 299.215L162.439 298.227ZM160.147 296.527L161.142 296.427L161.139 296.4L161.135 296.374L160.147 296.527ZM152.502 247.122L151.507 247.222L151.51 247.248L151.514 247.275L152.502 247.122ZM154.202 244.829L154.302 245.825L154.328 245.822L154.353 245.818L154.202 244.829ZM165.226 243.148L165.377 244.136L165.503 244.117L165.62 244.067L165.226 243.148ZM189.355 239.383L189.515 238.396L189.496 238.393L189.477 238.39L189.355 239.383ZM191.523 242.736L192.518 242.839L192.519 242.833L191.523 242.736ZM190.101 256.482L191.095 256.593L191.096 256.585L190.101 256.482ZM186.844 258.641L186.642 259.62L186.67 259.626L186.699 259.63L186.844 258.641ZM177.845 259.348L177.507 258.407L176.731 258.685L176.857 259.501L177.845 259.348ZM183.043 292.981L184.039 292.882L184.036 292.855L184.032 292.829L183.043 292.981ZM181.189 294.286L162.285 297.239L162.594 299.215L181.498 296.262L181.189 294.286ZM162.34 297.232C161.614 297.304 161.189 296.903 161.142 296.427L159.152 296.626C159.333 298.443 160.972 299.379 162.539 299.222L162.34 297.232ZM161.135 296.374L153.491 246.969L151.514 247.275L159.158 296.679L161.135 296.374ZM153.497 247.023C153.428 246.331 153.891 245.866 154.302 245.825L154.103 243.834C152.413 244.004 151.347 245.62 151.507 247.222L153.497 247.023ZM154.353 245.818L165.377 244.136L165.075 242.159L154.052 243.841L154.353 245.818ZM165.62 244.067C170.528 241.964 175.32 240.731 179.988 240.264L179.789 238.274C174.905 238.762 169.915 240.051 164.832 242.229L165.62 244.067ZM179.988 240.264C183.158 239.947 186.274 240.012 189.233 240.375L189.477 238.39C186.379 238.009 183.114 237.941 179.789 238.274L179.988 240.264ZM189.195 240.37C189.809 240.47 190.12 240.647 190.285 240.806C190.436 240.953 190.555 241.174 190.595 241.574L192.585 241.375C192.511 240.63 192.248 239.924 191.678 239.371C191.121 238.831 190.372 238.535 189.515 238.396L189.195 240.37ZM190.595 241.574C190.621 241.829 190.583 242.076 190.528 242.638L192.519 242.833C192.559 242.421 192.636 241.885 192.585 241.375L190.595 241.574ZM190.529 242.633L189.106 256.379L191.096 256.585L192.518 242.839L190.529 242.633ZM189.107 256.37C189.053 256.855 188.879 257.164 188.68 257.358C188.479 257.556 188.191 257.694 187.814 257.731L188.013 259.722C188.782 259.645 189.512 259.343 190.079 258.788C190.649 258.23 190.996 257.474 191.095 256.593L189.107 256.37ZM187.814 257.731C187.678 257.745 187.429 257.716 186.988 257.651L186.699 259.63C187.042 259.68 187.576 259.765 188.013 259.722L187.814 257.731ZM187.045 257.661C185.386 257.319 183.631 257.185 181.891 257.359L182.091 259.349C183.599 259.198 185.149 259.313 186.642 259.62L187.045 257.661ZM181.891 257.359C180.454 257.503 179.055 257.851 177.507 258.407L178.183 260.289C179.616 259.775 180.853 259.473 182.091 259.349L181.891 257.359ZM176.857 259.501L182.055 293.134L184.032 292.829L178.834 259.195L176.857 259.501ZM182.048 293.081L182.068 293.272L184.058 293.073L184.039 292.882L182.048 293.081ZM182.068 293.272C182.118 293.773 181.745 294.229 181.244 294.279L181.443 296.269C183.043 296.109 184.218 294.673 184.058 293.073L182.068 293.272Z" fill="#FF00FF" mask="url(#path-4-outside-2_1_36)"/>
<mask id="path-6-outside-3_1_36" maskUnits="userSpaceOnUse" x="184.66" y="235.482" width="72.0911" height="72.8429" fill="black">
<rect fill="white" x="184.66" y="235.482" width="72.0911" height="72.8429"/>
<path d="M219.664 301.287L218.541 301.03C197.297 296.171 189.947 279.225 193.2 265.001C196.261 251.618 208.924 239.743 230.261 244.623C253.47 249.932 249.768 270.849 249.062 273.938C248.077 278.243 245.486 281.392 239.536 282.001C234.795 282.492 227.635 281.937 222.726 281.011C221.228 280.669 220.91 279.907 220.793 278.698C220.376 275.353 219.989 268.863 220.075 268.489C220.311 267.46 221.166 267.163 222.447 267.161C227.57 267.151 228.268 267.113 228.568 265.803C228.76 264.961 227.667 261.56 223.737 260.66C219.245 259.633 214.603 262.707 213.275 268.509C211.756 275.154 214.909 283.754 226.607 286.429C227.262 286.579 228.011 286.75 228.688 286.807L228.875 286.849C230.185 287.149 231.583 288.355 231.219 289.946C231.005 290.882 227.116 296.689 224.985 299.55C223.894 300.876 222.377 301.908 219.664 301.287Z"/>
</mask>
<path d="M219.664 301.287L218.541 301.03C197.297 296.171 189.947 279.225 193.2 265.001C196.261 251.618 208.924 239.743 230.261 244.623C253.47 249.932 249.768 270.849 249.062 273.938C248.077 278.243 245.486 281.392 239.536 282.001C234.795 282.492 227.635 281.937 222.726 281.011C221.228 280.669 220.91 279.907 220.793 278.698C220.376 275.353 219.989 268.863 220.075 268.489C220.311 267.46 221.166 267.163 222.447 267.161C227.57 267.151 228.268 267.113 228.568 265.803C228.76 264.961 227.667 261.56 223.737 260.66C219.245 259.633 214.603 262.707 213.275 268.509C211.756 275.154 214.909 283.754 226.607 286.429C227.262 286.579 228.011 286.75 228.688 286.807L228.875 286.849C230.185 287.149 231.583 288.355 231.219 289.946C231.005 290.882 227.116 296.689 224.985 299.55C223.894 300.876 222.377 301.908 219.664 301.287Z" fill="#FF00FF"/>
<path d="M239.536 282.001L239.434 281.006L239.433 281.006L239.536 282.001ZM222.726 281.011L222.503 281.986L222.521 281.99L222.54 281.994L222.726 281.011ZM220.793 278.698L221.788 278.601L221.787 278.588L221.785 278.575L220.793 278.698ZM222.447 267.161L222.445 266.161L222.445 266.161L222.447 267.161ZM228.688 286.807L228.91 285.832L228.841 285.816L228.77 285.81L228.688 286.807ZM224.985 299.55L225.757 300.185L225.772 300.167L225.787 300.147L224.985 299.55ZM219.886 300.312L218.763 300.055L218.318 302.005L219.441 302.262L219.886 300.312ZM218.763 300.055C208.376 297.679 201.467 292.374 197.535 286.002C193.595 279.618 192.603 272.096 194.175 265.224L192.225 264.778C190.544 272.13 191.6 280.194 195.833 287.053C200.074 293.925 207.462 299.522 218.318 302.005L218.763 300.055ZM194.175 265.224C195.655 258.756 199.449 252.677 205.421 248.802C211.379 244.938 219.595 243.21 230.038 245.598L230.484 243.649C219.59 241.157 210.806 242.926 204.333 247.125C197.875 251.314 193.807 257.863 192.225 264.778L194.175 265.224ZM230.038 245.598C241.281 248.17 245.885 254.456 247.672 260.401C249.486 266.437 248.425 272.238 248.087 273.715L250.037 274.161C250.405 272.55 251.548 266.348 249.587 259.825C247.599 253.213 242.45 246.386 230.484 243.649L230.038 245.598ZM248.087 273.715C247.625 275.735 246.807 277.395 245.482 278.621C244.161 279.843 242.246 280.718 239.434 281.006L239.638 282.995C242.776 282.674 245.131 281.67 246.84 280.089C248.544 278.512 249.514 276.445 250.037 274.161L248.087 273.715ZM239.433 281.006C234.817 281.484 227.757 280.943 222.911 280.029L222.54 281.994C227.512 282.932 234.774 283.499 239.639 282.995L239.433 281.006ZM222.949 280.037C222.341 279.897 222.14 279.713 222.049 279.589C221.934 279.432 221.843 279.169 221.788 278.601L219.797 278.795C219.86 279.436 219.987 280.158 220.435 280.77C220.906 281.414 221.613 281.783 222.503 281.986L222.949 280.037ZM221.785 278.575C221.58 276.931 221.381 274.495 221.243 272.414C221.175 271.375 221.122 270.432 221.092 269.729C221.076 269.376 221.067 269.09 221.064 268.884C221.063 268.78 221.063 268.704 221.064 268.654C221.066 268.569 221.071 268.622 221.05 268.712L219.1 268.266C219.069 268.403 219.066 268.551 219.065 268.603C219.063 268.691 219.063 268.797 219.064 268.913C219.068 269.146 219.078 269.454 219.093 269.815C219.125 270.538 219.178 271.497 219.248 272.546C219.386 274.638 219.588 277.12 219.8 278.822L221.785 278.575ZM221.05 268.712C221.103 268.478 221.19 268.398 221.319 268.333C221.512 268.236 221.857 268.162 222.449 268.161L222.445 266.161C221.756 266.162 221.033 266.238 220.419 266.547C219.741 266.888 219.282 267.471 219.1 268.266L221.05 268.712ZM222.449 268.161C224.951 268.156 226.539 268.149 227.517 267.949C228.035 267.843 228.529 267.658 228.913 267.273C229.298 266.888 229.452 266.42 229.543 266.026L227.593 265.58C227.564 265.708 227.538 265.78 227.519 265.822C227.511 265.841 227.504 265.851 227.501 265.855C227.5 265.858 227.499 265.859 227.499 265.859C227.498 265.86 227.498 265.86 227.498 265.86C227.498 265.86 227.497 265.861 227.496 265.862C227.494 265.863 227.492 265.865 227.488 265.868C227.479 265.873 227.463 265.883 227.436 265.896C227.378 265.922 227.28 265.956 227.116 265.99C226.388 266.139 225.066 266.155 222.445 266.161L222.449 268.161ZM229.543 266.026C229.649 265.56 229.558 264.987 229.404 264.481C229.237 263.93 228.95 263.303 228.52 262.683C227.653 261.432 226.193 260.196 223.96 259.686L223.514 261.635C225.212 262.024 226.263 262.938 226.877 263.823C227.187 264.271 227.383 264.709 227.49 265.061C227.61 265.457 227.583 265.625 227.593 265.58L229.543 266.026ZM223.96 259.686C218.813 258.508 213.722 262.07 212.301 268.286L214.25 268.732C215.483 263.344 219.677 260.758 223.514 261.635L223.96 259.686ZM212.301 268.286C211.488 271.84 211.922 275.925 214.135 279.486C216.358 283.061 220.317 286.016 226.384 287.404L226.83 285.454C221.199 284.167 217.733 281.484 215.834 278.43C213.926 275.36 213.543 271.824 214.25 268.732L212.301 268.286ZM226.384 287.404C227.024 287.55 227.844 287.74 228.605 287.803L228.77 285.81C228.178 285.761 227.501 285.608 226.83 285.454L226.384 287.404ZM228.465 287.781L228.652 287.824L229.098 285.875L228.91 285.832L228.465 287.781ZM228.652 287.824C229.119 287.931 229.603 288.205 229.92 288.57C230.22 288.914 230.342 289.296 230.244 289.723L232.194 290.169C232.46 289.006 232.066 287.989 231.429 287.257C230.811 286.546 229.941 286.067 229.098 285.875L228.652 287.824ZM230.244 289.723C230.249 289.701 230.223 289.79 230.089 290.052C229.97 290.281 229.804 290.577 229.595 290.929C229.178 291.631 228.614 292.52 227.985 293.477C226.728 295.391 225.234 297.542 224.183 298.952L225.787 300.147C226.867 298.697 228.384 296.514 229.657 294.575C230.294 293.606 230.876 292.689 231.314 291.95C231.533 291.581 231.722 291.247 231.866 290.969C231.993 290.722 232.135 290.425 232.194 290.169L230.244 289.723ZM224.213 298.914C223.728 299.503 223.203 299.96 222.557 300.222C221.923 300.479 221.078 300.585 219.886 300.312L219.441 302.262C220.963 302.61 222.233 302.511 223.308 302.075C224.371 301.645 225.15 300.923 225.757 300.185L224.213 298.914Z" fill="#FF00FF" mask="url(#path-6-outside-3_1_36)"/>
<mask id="path-8-outside-4_1_36" maskUnits="userSpaceOnUse" x="247.717" y="231.37" width="80.5613" height="74.4811" fill="black">
<rect fill="white" x="247.717" y="231.37" width="80.5613" height="74.4811"/>
<path d="M323.456 276.073L320.157 288.702C319.667 290.482 318.916 291.533 317.698 291.803C316.761 292.011 309.867 291.965 304.205 288.598C299.892 292.208 295.08 294.454 290.3 295.513C274.647 298.981 258.493 289.974 255.149 274.884C252.658 263.637 257.032 245.657 275.59 241.545C280.276 240.507 285.097 240.521 289.106 241.304C289.523 240.523 290.304 240.055 291.429 239.806L291.897 239.702L308.424 237.516C310.902 237.163 311.828 238.236 312.077 239.361L312.181 239.83C312.759 248.65 313.253 257.095 314.624 263.281C315.869 268.904 317.793 272.706 321.146 273.635C322.187 273.896 323.342 274.23 323.55 275.167C323.592 275.355 323.56 275.657 323.456 276.073ZM294.478 275.315C293.657 272.941 292.888 270.358 292.244 267.452C291.704 265.015 291.237 262.464 290.802 259.611C289.262 257.985 286.44 257.234 283.722 257.836C277.817 259.144 275.804 265.588 276.863 270.369C278.026 275.617 282.678 279.306 288.77 277.957C290.551 277.562 292.53 276.73 294.478 275.315Z"/>
</mask>
<path d="M323.456 276.073L320.157 288.702C319.667 290.482 318.916 291.533 317.698 291.803C316.761 292.011 309.867 291.965 304.205 288.598C299.892 292.208 295.08 294.454 290.3 295.513C274.647 298.981 258.493 289.974 255.149 274.884C252.658 263.637 257.032 245.657 275.59 241.545C280.276 240.507 285.097 240.521 289.106 241.304C289.523 240.523 290.304 240.055 291.429 239.806L291.897 239.702L308.424 237.516C310.902 237.163 311.828 238.236 312.077 239.361L312.181 239.83C312.759 248.65 313.253 257.095 314.624 263.281C315.869 268.904 317.793 272.706 321.146 273.635C322.187 273.896 323.342 274.23 323.55 275.167C323.592 275.355 323.56 275.657 323.456 276.073ZM294.478 275.315C293.657 272.941 292.888 270.358 292.244 267.452C291.704 265.015 291.237 262.464 290.802 259.611C289.262 257.985 286.44 257.234 283.722 257.836C277.817 259.144 275.804 265.588 276.863 270.369C278.026 275.617 282.678 279.306 288.77 277.957C290.551 277.562 292.53 276.73 294.478 275.315Z" fill="#FF00FF"/>
<path d="M323.456 276.073L324.423 276.326L324.426 276.316L323.456 276.073ZM320.157 288.702L321.121 288.967L321.125 288.954L320.157 288.702ZM304.205 288.598L304.716 287.738L304.107 287.376L303.563 287.831L304.205 288.598ZM289.106 241.304L288.914 242.286L289.639 242.427L289.988 241.775L289.106 241.304ZM291.897 239.702L291.766 238.711L291.723 238.717L291.681 238.726L291.897 239.702ZM308.424 237.516L308.555 238.507L308.564 238.506L308.424 237.516ZM312.181 239.83L313.179 239.765L313.174 239.688L313.157 239.614L312.181 239.83ZM321.146 273.635L320.879 274.599L320.891 274.602L320.902 274.605L321.146 273.635ZM294.478 275.315L295.065 276.124L295.665 275.689L295.423 274.989L294.478 275.315ZM290.802 259.611L291.79 259.46L291.743 259.15L291.528 258.923L290.802 259.611ZM322.488 275.82L319.19 288.449L321.125 288.954L324.423 276.326L322.488 275.82ZM319.193 288.436C318.73 290.116 318.137 290.682 317.482 290.827L317.914 292.779C319.696 292.384 320.603 290.847 321.121 288.967L319.193 288.436ZM317.482 290.827C317.483 290.826 317.473 290.828 317.449 290.832C317.426 290.835 317.395 290.839 317.355 290.843C317.275 290.851 317.17 290.858 317.04 290.864C316.779 290.875 316.436 290.877 316.022 290.864C315.197 290.837 314.112 290.75 312.881 290.553C310.41 290.159 307.404 289.336 304.716 287.738L303.694 289.457C306.669 291.226 309.94 292.109 312.566 292.528C313.883 292.738 315.052 292.834 315.959 292.863C316.825 292.89 317.545 292.861 317.914 292.779L317.482 290.827ZM303.563 287.831C299.376 291.336 294.71 293.512 290.084 294.537L290.516 296.49C295.45 295.397 300.408 293.08 304.847 289.364L303.563 287.831ZM290.084 294.537C274.888 297.903 259.332 289.14 256.126 274.668L254.173 275.101C257.653 290.808 274.406 300.059 290.516 296.49L290.084 294.537ZM256.126 274.668C254.925 269.248 255.379 262.172 258.376 255.974C261.356 249.812 266.85 244.506 275.806 242.522L275.374 240.569C265.772 242.696 259.8 248.436 256.576 255.104C253.369 261.735 252.882 269.274 254.173 275.101L256.126 274.668ZM275.806 242.522C280.358 241.513 285.04 241.528 288.914 242.286L289.297 240.323C285.154 239.513 280.194 239.501 275.374 240.569L275.806 242.522ZM289.988 241.775C290.214 241.351 290.673 240.998 291.645 240.783L291.212 238.83C289.935 239.113 288.831 239.696 288.224 240.833L289.988 241.775ZM291.645 240.783L292.114 240.679L291.681 238.726L291.212 238.83L291.645 240.783ZM292.028 240.694L308.555 238.507L308.292 236.524L291.766 238.711L292.028 240.694ZM308.564 238.506C309.655 238.351 310.242 238.532 310.549 238.728C310.845 238.917 311.019 239.206 311.101 239.578L313.054 239.145C312.887 238.391 312.472 237.582 311.624 237.041C310.786 236.507 309.67 236.328 308.283 236.526L308.564 238.506ZM311.101 239.578L311.205 240.046L313.157 239.614L313.054 239.145L311.101 239.578ZM311.183 239.895C311.758 248.678 312.256 257.217 313.647 263.497L315.6 263.064C314.25 256.972 313.759 248.622 313.179 239.765L311.183 239.895ZM313.647 263.497C314.28 266.353 315.101 268.829 316.236 270.731C317.379 272.646 318.882 274.045 320.879 274.599L321.413 272.671C320.057 272.296 318.922 271.329 317.953 269.706C316.977 268.069 316.213 265.832 315.6 263.064L313.647 263.497ZM320.902 274.605C321.433 274.738 321.871 274.863 322.196 275.033C322.51 275.198 322.56 275.32 322.574 275.384L324.526 274.951C324.333 274.077 323.701 273.564 323.125 273.262C322.56 272.966 321.9 272.793 321.389 272.665L320.902 274.605ZM322.574 275.384C322.562 275.33 322.573 275.332 322.563 275.431C322.554 275.52 322.531 275.65 322.486 275.83L324.426 276.316C324.532 275.891 324.623 275.387 324.526 274.951L322.574 275.384ZM295.423 274.989C294.612 272.644 293.855 270.099 293.22 267.236L291.268 267.669C291.921 270.617 292.701 273.237 293.533 275.642L295.423 274.989ZM293.22 267.236C292.686 264.825 292.223 262.295 291.79 259.46L289.813 259.762C290.251 262.633 290.722 265.206 291.268 267.669L293.22 267.236ZM291.528 258.923C289.698 256.992 286.493 256.198 283.506 256.86L283.938 258.812C286.387 258.27 288.825 258.979 290.076 260.298L291.528 258.923ZM283.506 256.86C280.201 257.592 277.993 259.772 276.775 262.377C275.568 264.959 275.312 267.991 275.886 270.585L277.839 270.152C277.355 267.966 277.576 265.386 278.587 263.224C279.587 261.085 281.338 259.388 283.938 258.812L283.506 256.86ZM275.886 270.585C277.156 276.316 282.299 280.414 288.986 278.933L288.554 276.98C283.056 278.198 278.895 274.919 277.839 270.152L275.886 270.585ZM288.986 278.933C290.903 278.508 293.008 277.619 295.065 276.124L293.89 274.506C292.052 275.842 290.199 276.616 288.554 276.98L288.986 278.933Z" fill="#FF00FF" mask="url(#path-8-outside-4_1_36)"/>
<mask id="path-10-outside-5_1_36" maskUnits="userSpaceOnUse" x="311.045" y="218.404" width="54.5306" height="78.813" fill="black">
<rect fill="white" x="311.045" y="218.404" width="54.5306" height="78.813"/>
<path d="M353.512 280.599L346.749 291.801C345.714 293.488 344.714 294.306 343.291 294.089C343.006 294.045 342.722 294.001 342.451 293.863C327.637 288.49 323.6 279.326 326.798 255.245L319.739 253.776C318.709 253.522 318 252.442 318.16 251.398L321.708 235.82C321.963 234.79 322.947 234.067 324.086 234.241L330.101 235.55C330.843 231.973 331.628 228.111 332.536 224.074C332.805 222.95 333.271 221.176 335.738 221.553L336.118 221.611L353.923 225.208C355.521 225.55 356.135 226.615 355.889 228.228C355.089 232.185 354.166 236.317 353.272 240.259L359.762 241.64C360.805 241.799 361.514 242.879 361.34 244.018L357.792 259.596C357.552 260.531 356.662 261.269 355.619 261.109L355.429 261.08L349.209 259.838C347.888 268.473 348.026 275.195 351.925 277.637C352.897 278.271 353.977 278.825 353.818 279.869C353.789 280.058 353.65 280.329 353.512 280.599Z"/>
</mask>
<path d="M353.512 280.599L346.749 291.801C345.714 293.488 344.714 294.306 343.291 294.089C343.006 294.045 342.722 294.001 342.451 293.863C327.637 288.49 323.6 279.326 326.798 255.245L319.739 253.776C318.709 253.522 318 252.442 318.16 251.398L321.708 235.82C321.963 234.79 322.947 234.067 324.086 234.241L330.101 235.55C330.843 231.973 331.628 228.111 332.536 224.074C332.805 222.95 333.271 221.176 335.738 221.553L336.118 221.611L353.923 225.208C355.521 225.55 356.135 226.615 355.889 228.228C355.089 232.185 354.166 236.317 353.272 240.259L359.762 241.64C360.805 241.799 361.514 242.879 361.34 244.018L357.792 259.596C357.552 260.531 356.662 261.269 355.619 261.109L355.429 261.08L349.209 259.838C347.888 268.473 348.026 275.195 351.925 277.637C352.897 278.271 353.977 278.825 353.818 279.869C353.789 280.058 353.65 280.329 353.512 280.599Z" fill="#FF00FF"/>
<path d="M353.512 280.599L354.368 281.116L354.386 281.086L354.402 281.055L353.512 280.599ZM346.749 291.801L347.601 292.324L347.605 292.318L346.749 291.801ZM342.451 293.863L342.907 292.973L342.851 292.944L342.792 292.923L342.451 293.863ZM326.798 255.245L327.789 255.376L327.912 254.455L327.001 254.266L326.798 255.245ZM319.739 253.776L319.499 254.747L319.517 254.752L319.535 254.756L319.739 253.776ZM318.16 251.398L317.185 251.176L317.177 251.212L317.172 251.247L318.16 251.398ZM321.708 235.82L320.737 235.58L320.735 235.589L320.733 235.598L321.708 235.82ZM324.086 234.241L324.299 233.264L324.268 233.257L324.237 233.253L324.086 234.241ZM330.101 235.55L329.889 236.527L330.876 236.741L331.081 235.753L330.101 235.55ZM332.536 224.074L331.564 223.841L331.561 223.854L332.536 224.074ZM336.118 221.611L336.316 220.631L336.293 220.626L336.269 220.622L336.118 221.611ZM353.923 225.208L354.132 224.23L354.121 224.228L353.923 225.208ZM355.889 228.228L356.869 228.426L356.874 228.403L356.877 228.379L355.889 228.228ZM353.272 240.259L352.297 240.037L352.072 241.026L353.064 241.237L353.272 240.259ZM359.762 241.64L359.553 242.618L359.582 242.624L359.61 242.628L359.762 241.64ZM361.34 244.018L362.315 244.24L362.323 244.205L362.329 244.169L361.34 244.018ZM357.792 259.596L358.761 259.845L358.764 259.832L358.767 259.818L357.792 259.596ZM355.429 261.08L355.233 262.061L355.255 262.065L355.278 262.069L355.429 261.08ZM349.209 259.838L349.405 258.857L348.379 258.652L348.221 259.686L349.209 259.838ZM351.925 277.637L352.472 276.799L352.464 276.794L352.456 276.789L351.925 277.637ZM352.656 280.082L345.892 291.284L347.605 292.318L354.368 281.116L352.656 280.082ZM345.896 291.278C345.405 292.078 344.983 292.567 344.594 292.839C344.246 293.081 343.899 293.17 343.442 293.1L343.14 295.077C344.107 295.225 344.971 295.013 345.737 294.479C346.462 293.974 347.057 293.21 347.601 292.324L345.896 291.278ZM343.442 293.1C343.135 293.053 343.011 293.026 342.907 292.973L341.995 294.753C342.432 294.977 342.877 295.037 343.14 295.077L343.442 293.1ZM342.792 292.923C335.54 290.292 331.112 286.81 328.795 281.188C326.441 275.475 326.194 267.391 327.789 255.376L325.807 255.113C324.204 267.179 324.378 275.718 326.946 281.95C329.552 288.274 334.548 292.06 342.11 294.803L342.792 292.923ZM327.001 254.266L319.942 252.797L319.535 254.756L326.594 256.224L327.001 254.266ZM319.979 252.806C319.458 252.677 319.066 252.089 319.149 251.55L317.172 251.247C316.935 252.796 317.961 254.367 319.499 254.747L319.979 252.806ZM319.135 251.621L322.683 236.042L320.733 235.598L317.185 251.176L319.135 251.621ZM322.679 236.06C322.814 235.511 323.329 235.137 323.935 235.23L324.237 233.253C322.566 232.997 321.111 234.07 320.737 235.58L322.679 236.06ZM323.874 235.218L329.889 236.527L330.314 234.572L324.299 233.264L323.874 235.218ZM331.081 235.753C331.823 232.171 332.606 228.32 333.512 224.293L331.561 223.854C330.65 227.902 329.862 231.775 329.122 235.347L331.081 235.753ZM333.509 224.307C333.65 223.717 333.793 223.228 334.073 222.9C334.272 222.667 334.639 222.396 335.587 222.541L335.889 220.564C334.37 220.332 333.27 220.76 332.552 221.601C331.916 222.346 331.692 223.306 331.564 223.841L333.509 224.307ZM335.587 222.541L335.967 222.6L336.269 220.622L335.889 220.564L335.587 222.541ZM335.92 222.591L353.725 226.188L354.121 224.228L336.316 220.631L335.92 222.591ZM353.714 226.186C354.329 226.318 354.612 226.553 354.752 226.775C354.902 227.013 355.002 227.413 354.9 228.077L356.877 228.379C357.022 227.43 356.938 226.491 356.443 225.707C355.939 224.908 355.115 224.44 354.132 224.23L353.714 226.186ZM354.908 228.03C354.112 231.974 353.191 236.096 352.297 240.037L354.247 240.48C355.141 236.537 356.067 232.395 356.869 228.426L354.908 228.03ZM353.064 241.237L359.553 242.618L359.97 240.662L353.48 239.281L353.064 241.237ZM359.61 242.628C360.019 242.691 360.457 243.18 360.352 243.867L362.329 244.169C362.572 242.578 361.592 240.908 359.913 240.651L359.61 242.628ZM360.365 243.796L356.817 259.374L358.767 259.818L362.315 244.24L360.365 243.796ZM356.824 259.348C356.689 259.874 356.22 260.189 355.77 260.121L355.467 262.098C357.105 262.348 358.416 261.188 358.761 259.845L356.824 259.348ZM355.77 260.121L355.58 260.092L355.278 262.069L355.467 262.098L355.77 260.121ZM355.625 260.1L349.405 258.857L349.013 260.818L355.233 262.061L355.625 260.1ZM348.221 259.686C347.556 264.029 347.244 267.975 347.616 271.176C347.987 274.363 349.066 277.026 351.395 278.484L352.456 276.789C350.885 275.806 349.945 273.887 349.603 270.944C349.262 268.015 349.541 264.282 350.198 259.989L348.221 259.686ZM351.379 278.474C351.938 278.839 352.325 279.06 352.612 279.329C352.851 279.553 352.84 279.644 352.829 279.717L354.806 280.02C354.955 279.049 354.484 278.342 353.979 277.869C353.523 277.442 352.884 277.068 352.472 276.799L351.379 278.474ZM352.829 279.717C352.834 279.687 352.838 279.679 352.831 279.701C352.824 279.721 352.812 279.752 352.792 279.798C352.75 279.892 352.694 280.002 352.622 280.143L354.402 281.055C354.468 280.926 354.551 280.765 354.62 280.609C354.683 280.467 354.771 280.252 354.806 280.02L352.829 279.717Z" fill="#FF00FF" mask="url(#path-10-outside-5_1_36)"/>
<mask id="path-12-outside-6_1_36" maskUnits="userSpaceOnUse" x="357.666" y="213.825" width="47.1768" height="89.4536" fill="black">
<rect fill="white" x="357.666" y="213.825" width="47.1768" height="89.4536"/>
<path d="M400.983 295.104L382.292 299.6L382.104 299.636C381.066 299.831 380.151 299.124 379.862 298.104L368.851 252.604C368.638 251.472 369.233 250.481 370.347 250.173L389.038 245.677L389.227 245.641C390.17 245.464 391.179 246.153 391.357 247.096L402.385 292.691L402.42 292.88C402.598 293.823 401.909 294.832 400.983 295.104ZM389.615 229.547C391.054 237.189 386 244.588 378.359 246.027C370.622 247.484 363.223 242.43 361.784 234.788C360.328 227.052 365.382 219.653 373.118 218.196C380.76 216.757 388.159 221.811 389.615 229.547Z"/>
</mask>
<path d="M400.983 295.104L382.292 299.6L382.104 299.636C381.066 299.831 380.151 299.124 379.862 298.104L368.851 252.604C368.638 251.472 369.233 250.481 370.347 250.173L389.038 245.677L389.227 245.641C390.17 245.464 391.179 246.153 391.357 247.096L402.385 292.691L402.42 292.88C402.598 293.823 401.909 294.832 400.983 295.104ZM389.615 229.547C391.054 237.189 386 244.588 378.359 246.027C370.622 247.484 363.223 242.43 361.784 234.788C360.328 227.052 365.382 219.653 373.118 218.196C380.76 216.757 388.159 221.811 389.615 229.547Z" fill="#FF00FF"/>
<path d="M400.983 295.104L401.217 296.076L401.241 296.07L401.265 296.063L400.983 295.104ZM382.292 299.6L382.477 300.583L382.502 300.579L382.526 300.573L382.292 299.6ZM379.862 298.104L378.89 298.34L378.894 298.359L378.9 298.378L379.862 298.104ZM368.851 252.604L367.869 252.789L367.873 252.814L367.879 252.839L368.851 252.604ZM370.347 250.173L370.114 249.201L370.097 249.205L370.081 249.209L370.347 250.173ZM389.038 245.677L388.853 244.694L388.829 244.699L388.804 244.705L389.038 245.677ZM391.357 247.096L390.374 247.281L390.379 247.306L390.385 247.331L391.357 247.096ZM402.385 292.691L403.367 292.506L403.363 292.481L403.357 292.456L402.385 292.691ZM400.749 294.132L382.058 298.628L382.526 300.573L401.217 296.076L400.749 294.132ZM382.107 298.618L381.919 298.653L382.289 300.619L382.477 300.583L382.107 298.618ZM381.919 298.653C381.497 298.733 381.004 298.467 380.823 297.831L378.9 298.378C379.299 299.782 380.635 300.93 382.289 300.619L381.919 298.653ZM380.833 297.869L369.823 252.369L367.879 252.839L378.89 298.34L380.833 297.869ZM369.834 252.419C369.714 251.781 370.016 251.302 370.613 251.137L370.081 249.209C368.45 249.66 367.562 251.162 367.869 252.789L369.834 252.419ZM370.581 251.146L389.272 246.649L388.804 244.705L370.114 249.201L370.581 251.146ZM389.223 246.66L389.412 246.624L389.042 244.659L388.853 244.694L389.223 246.66ZM389.412 246.624C389.813 246.549 390.299 246.881 390.374 247.281L392.34 246.911C392.06 245.425 390.528 244.379 389.042 244.659L389.412 246.624ZM390.385 247.331L401.413 292.926L403.357 292.456L392.329 246.861L390.385 247.331ZM401.402 292.876L401.438 293.065L403.403 292.695L403.367 292.506L401.402 292.876ZM401.438 293.065C401.51 293.447 401.191 294.001 400.701 294.145L401.265 296.063C402.627 295.663 403.686 294.199 403.403 292.695L401.438 293.065ZM388.633 229.732C389.969 236.831 385.272 243.708 378.173 245.044L378.544 247.01C386.728 245.469 392.139 237.547 390.598 229.362L388.633 229.732ZM378.173 245.044C370.976 246.4 364.103 241.698 362.767 234.603L360.802 234.973C362.344 243.162 370.269 248.568 378.544 247.01L378.173 245.044ZM362.767 234.603C361.413 227.41 366.11 220.534 373.303 219.179L372.933 217.214C364.654 218.772 359.243 226.694 360.802 234.973L362.767 234.603ZM373.303 219.179C380.398 217.843 387.277 222.535 388.633 229.732L390.598 229.362C389.04 221.088 381.122 215.672 372.933 217.214L373.303 219.179Z" fill="#FF00FF" mask="url(#path-12-outside-6_1_36)"/>
<mask id="path-14-outside-7_1_36" maskUnits="userSpaceOnUse" x="387.438" y="233.801" width="76.0495" height="68.7481" fill="black">
<rect fill="white" x="387.438" y="233.801" width="76.0495" height="68.7481"/>
<path d="M425.523 296.065L415.975 294.382C414.084 294.049 412.449 293.371 411.725 291.391L397.306 246.544C397 245.515 396.944 244.726 397.061 244.064C397.244 243.024 397.928 242.462 399.051 242.173C401.503 241.532 414.788 238.61 416.774 238.96C418.192 239.21 419.021 240.038 419.327 241.067L425.8 266.285C425.906 266.791 426.156 267.03 426.345 267.063C426.629 267.113 426.851 266.958 427.235 266.44C431.894 259.366 439.543 246.384 440.488 244.893C441.272 243.764 442.317 243.364 443.546 243.58C444.208 243.697 444.853 243.908 445.559 244.325L457.545 250.434C459.603 251.479 460.287 252.574 460.054 253.898C459.787 255.411 443.423 287.424 430.028 295.397C428.949 295.986 427.225 296.365 425.523 296.065Z"/>
</mask>
<path d="M425.523 296.065L415.975 294.382C414.084 294.049 412.449 293.371 411.725 291.391L397.306 246.544C397 245.515 396.944 244.726 397.061 244.064C397.244 243.024 397.928 242.462 399.051 242.173C401.503 241.532 414.788 238.61 416.774 238.96C418.192 239.21 419.021 240.038 419.327 241.067L425.8 266.285C425.906 266.791 426.156 267.03 426.345 267.063C426.629 267.113 426.851 266.958 427.235 266.44C431.894 259.366 439.543 246.384 440.488 244.893C441.272 243.764 442.317 243.364 443.546 243.58C444.208 243.697 444.853 243.908 445.559 244.325L457.545 250.434C459.603 251.479 460.287 252.574 460.054 253.898C459.787 255.411 443.423 287.424 430.028 295.397C428.949 295.986 427.225 296.365 425.523 296.065Z" fill="#FF00FF"/>
<path d="M411.725 291.391L410.773 291.697L410.779 291.716L410.786 291.734L411.725 291.391ZM397.306 246.544L396.347 246.829L396.351 246.84L396.354 246.85L397.306 246.544ZM399.051 242.173L399.301 243.141L399.304 243.14L399.051 242.173ZM419.327 241.067L420.295 240.818L420.291 240.8L420.285 240.782L419.327 241.067ZM425.8 266.285L426.779 266.08L426.774 266.058L426.769 266.036L425.8 266.285ZM427.235 266.44L428.038 267.036L428.055 267.014L428.07 266.99L427.235 266.44ZM440.488 244.893L439.666 244.323L439.654 244.34L439.643 244.358L440.488 244.893ZM445.559 244.325L445.051 245.186L445.078 245.202L445.105 245.216L445.559 244.325ZM457.545 250.434L457.091 251.325L457.092 251.326L457.545 250.434ZM430.028 295.397L430.508 296.274L430.524 296.265L430.539 296.256L430.028 295.397ZM425.697 295.08L416.148 293.397L415.801 295.367L425.35 297.05L425.697 295.08ZM416.148 293.397C414.372 293.084 413.201 292.515 412.664 291.048L410.786 291.734C411.697 294.226 413.796 295.014 415.801 295.367L416.148 293.397ZM412.677 291.085L398.258 246.238L396.354 246.85L410.773 291.697L412.677 291.085ZM398.264 246.259C397.988 245.33 397.963 244.703 398.045 244.237L396.076 243.89C395.925 244.748 396.012 245.7 396.347 246.829L398.264 246.259ZM398.045 244.237C398.103 243.912 398.223 243.717 398.379 243.574C398.552 243.415 398.835 243.261 399.301 243.141L398.802 241.204C398.144 241.374 397.523 241.645 397.027 242.1C396.515 242.57 396.202 243.176 396.076 243.89L398.045 244.237ZM399.304 243.14C400.502 242.827 404.414 241.941 408.282 241.176C410.213 240.794 412.119 240.444 413.66 240.213C414.432 240.097 415.1 240.012 415.628 239.967C416.19 239.919 416.495 239.926 416.6 239.944L416.947 237.975C416.556 237.906 416.011 237.927 415.458 237.975C414.87 238.025 414.155 238.116 413.363 238.235C411.778 238.473 409.838 238.829 407.893 239.214C404.009 239.982 400.053 240.878 398.799 241.205L399.304 243.14ZM416.6 239.944C417.666 240.132 418.176 240.706 418.368 241.352L420.285 240.782C419.865 239.37 418.718 238.287 416.947 237.975L416.6 239.944ZM418.358 241.315L424.832 266.534L426.769 266.036L420.295 240.818L418.358 241.315ZM424.821 266.49C424.961 267.158 425.385 267.909 426.172 268.048L426.519 266.079C426.633 266.099 426.712 266.141 426.756 266.171C426.801 266.201 426.823 266.228 426.829 266.236C426.841 266.251 426.807 266.213 426.779 266.08L424.821 266.49ZM426.172 268.048C426.592 268.122 426.985 268.023 427.326 267.784C427.606 267.588 427.837 267.307 428.038 267.036L426.432 265.845C426.347 265.958 426.284 266.036 426.236 266.088C426.188 266.141 426.17 266.152 426.179 266.145C426.193 266.136 426.242 266.105 426.322 266.086C426.404 266.067 426.475 266.071 426.519 266.079L426.172 268.048ZM428.07 266.99C432.717 259.933 440.441 246.835 441.332 245.429L439.643 244.358C438.645 245.933 431.07 258.798 426.4 265.89L428.07 266.99ZM441.309 245.464C441.612 245.028 441.928 244.784 442.235 244.655C442.543 244.527 442.913 244.484 443.372 244.565L443.72 242.595C442.95 242.46 442.183 242.51 441.465 242.809C440.746 243.109 440.147 243.63 439.666 244.323L441.309 245.464ZM443.372 244.565C443.928 244.663 444.458 244.836 445.051 245.186L446.068 243.464C445.248 242.98 444.488 242.731 443.72 242.595L443.372 244.565ZM445.105 245.216L457.091 251.325L457.999 249.543L446.013 243.434L445.105 245.216ZM457.092 251.326C458.053 251.813 458.574 252.257 458.84 252.635C459.076 252.973 459.143 253.305 459.069 253.724L461.039 254.072C461.198 253.167 461.04 252.29 460.478 251.488C459.945 250.727 459.095 250.1 457.998 249.542L457.092 251.326ZM459.069 253.724C459.078 253.673 459.084 253.675 459.045 253.778C459.014 253.862 458.967 253.978 458.902 254.13C458.771 254.432 458.582 254.843 458.336 255.354C457.844 256.375 457.137 257.768 456.251 259.429C454.48 262.749 452.003 267.12 449.118 271.691C446.232 276.265 442.948 281.023 439.562 285.125C436.163 289.243 432.716 292.633 429.516 294.537L430.539 296.256C434.037 294.174 437.659 290.573 441.104 286.398C444.562 282.209 447.897 277.374 450.81 272.759C453.724 268.141 456.225 263.727 458.016 260.37C458.911 258.692 459.631 257.273 460.137 256.223C460.39 255.698 460.593 255.259 460.738 254.922C460.811 254.754 460.872 254.603 460.919 254.477C460.959 254.37 461.013 254.217 461.039 254.072L459.069 253.724ZM429.548 294.519C428.664 295.002 427.17 295.34 425.697 295.08L425.35 297.05C427.28 297.39 429.234 296.97 430.508 296.274L429.548 294.519Z" fill="#FF00FF" mask="url(#path-14-outside-7_1_36)"/>
<mask id="path-16-outside-8_1_36" maskUnits="userSpaceOnUse" x="453.428" y="214.95" width="45.3102" height="89.0528" fill="black">
<rect fill="white" x="453.428" y="214.95" width="45.3102" height="89.0528"/>
<path d="M494.933 296.49L476.14 300.538L475.951 300.569C474.909 300.74 474.011 300.011 473.746 298.985L463.825 253.234C463.639 252.098 464.258 251.121 465.379 250.84L484.172 246.791L484.361 246.76C485.309 246.605 486.301 247.318 486.456 248.266L496.392 294.111L496.423 294.3C496.578 295.248 495.865 296.24 494.933 296.49ZM485.134 230.68C486.39 238.354 481.161 245.63 473.487 246.886C465.718 248.158 458.442 242.929 457.186 235.255C455.914 227.486 461.144 220.21 468.912 218.938C476.586 217.682 483.862 222.912 485.134 230.68Z"/>
</mask>
<path d="M494.933 296.49L476.14 300.538L475.951 300.569C474.909 300.74 474.011 300.011 473.746 298.985L463.825 253.234C463.639 252.098 464.258 251.121 465.379 250.84L484.172 246.791L484.361 246.76C485.309 246.605 486.301 247.318 486.456 248.266L496.392 294.111L496.423 294.3C496.578 295.248 495.865 296.24 494.933 296.49ZM485.134 230.68C486.39 238.354 481.161 245.63 473.487 246.886C465.718 248.158 458.442 242.929 457.186 235.255C455.914 227.486 461.144 220.21 468.912 218.938C476.586 217.682 483.862 222.912 485.134 230.68Z" fill="#FF00FF"/>
<path d="M494.933 296.49L495.144 297.467L495.168 297.462L495.192 297.455L494.933 296.49ZM476.14 300.538L476.302 301.525L476.327 301.521L476.351 301.516L476.14 300.538ZM473.746 298.985L472.769 299.197L472.773 299.216L472.778 299.235L473.746 298.985ZM463.825 253.234L462.839 253.396L462.843 253.421L462.848 253.446L463.825 253.234ZM465.379 250.84L465.168 249.863L465.152 249.866L465.136 249.87L465.379 250.84ZM484.172 246.791L484.01 245.804L483.986 245.808L483.961 245.814L484.172 246.791ZM486.456 248.266L485.469 248.427L485.473 248.452L485.479 248.477L486.456 248.266ZM496.392 294.111L497.379 293.949L497.375 293.924L497.369 293.899L496.392 294.111ZM494.723 295.512L475.93 299.561L476.351 301.516L495.144 297.467L494.723 295.512ZM475.979 299.552L475.789 299.583L476.112 301.556L476.302 301.525L475.979 299.552ZM475.789 299.583C475.366 299.652 474.879 299.374 474.714 298.735L472.778 299.235C473.143 300.649 474.452 301.828 476.112 301.556L475.789 299.583ZM474.723 298.773L464.803 253.023L462.848 253.446L472.769 299.197L474.723 298.773ZM464.812 253.073C464.708 252.433 465.021 251.961 465.622 251.81L465.136 249.87C463.494 250.281 462.571 251.762 462.839 253.396L464.812 253.073ZM465.59 251.818L484.382 247.769L483.961 245.814L465.168 249.863L465.59 251.818ZM484.333 247.778L484.523 247.747L484.2 245.773L484.01 245.804L484.333 247.778ZM484.523 247.747C484.925 247.681 485.403 248.025 485.469 248.427L487.443 248.104C487.199 246.612 485.692 245.529 484.2 245.773L484.523 247.747ZM485.479 248.477L495.415 294.322L497.369 293.899L487.433 248.054L485.479 248.477ZM495.405 294.272L495.436 294.462L497.41 294.139L497.379 293.949L495.405 294.272ZM495.436 294.462C495.499 294.846 495.167 295.392 494.674 295.524L495.192 297.455C496.563 297.088 497.657 295.649 497.41 294.139L495.436 294.462ZM484.147 230.842C485.314 237.971 480.454 244.733 473.325 245.9L473.648 247.873C481.867 246.528 487.466 238.738 486.121 230.519L484.147 230.842ZM473.325 245.9C466.097 247.083 459.339 242.218 458.173 235.093L456.199 235.416C457.545 243.64 465.339 249.233 473.648 247.873L473.325 245.9ZM458.173 235.093C456.99 227.87 461.85 221.108 469.074 219.925L468.751 217.952C460.437 219.312 454.838 227.103 456.199 235.416L458.173 235.093ZM469.074 219.925C476.198 218.759 482.964 223.614 484.147 230.842L486.121 230.519C484.761 222.209 476.974 216.606 468.751 217.952L469.074 219.925Z" fill="#FF00FF" mask="url(#path-16-outside-8_1_36)"/>
<mask id="path-18-outside-9_1_36" maskUnits="userSpaceOnUse" x="484.565" y="220.412" width="59.9348" height="81.3007" fill="black">
<rect fill="white" x="484.565" y="220.412" width="59.9348" height="81.3007"/>
<path d="M527.729 285.067L520.032 295.65C518.856 297.242 517.791 297.972 516.391 297.633C516.111 297.566 515.831 297.498 515.574 297.337C501.274 290.716 498.036 281.24 503.282 257.521L496.374 255.454C495.37 255.113 494.756 253.976 495.004 252.95L499.872 237.732C500.214 236.728 501.257 236.091 502.376 236.362L508.258 238.181C509.302 234.68 510.415 230.9 511.666 226.955C512.03 225.858 512.645 224.13 515.071 224.718L515.445 224.808L532.876 229.915C534.44 230.392 534.961 231.506 534.577 233.092C533.442 236.966 532.169 241.003 530.94 244.855L537.288 246.786C538.315 247.034 538.929 248.17 538.658 249.29L533.79 264.508C533.471 265.419 532.521 266.078 531.495 265.829L531.308 265.784L525.218 264.014C523.163 272.505 522.725 279.214 526.401 281.981C527.315 282.695 528.344 283.34 528.096 284.366C528.051 284.553 527.89 284.81 527.729 285.067Z"/>
</mask>
<path d="M527.729 285.067L520.032 295.65C518.856 297.242 517.791 297.972 516.391 297.633C516.111 297.566 515.831 297.498 515.574 297.337C501.274 290.716 498.036 281.24 503.282 257.521L496.374 255.454C495.37 255.113 494.756 253.976 495.004 252.95L499.872 237.732C500.214 236.728 501.257 236.091 502.376 236.362L508.258 238.181C509.302 234.68 510.415 230.9 511.666 226.955C512.03 225.858 512.645 224.13 515.071 224.718L515.445 224.808L532.876 229.915C534.44 230.392 534.961 231.506 534.577 233.092C533.442 236.966 532.169 241.003 530.94 244.855L537.288 246.786C538.315 247.034 538.929 248.17 538.658 249.29L533.79 264.508C533.471 265.419 532.521 266.078 531.495 265.829L531.308 265.784L525.218 264.014C523.163 272.505 522.725 279.214 526.401 281.981C527.315 282.695 528.344 283.34 528.096 284.366C528.051 284.553 527.89 284.81 527.729 285.067Z" fill="#FF00FF"/>
<path d="M527.729 285.067L528.537 285.655L528.558 285.627L528.576 285.598L527.729 285.067ZM520.032 295.65L520.836 296.244L520.841 296.238L520.032 295.65ZM515.574 297.337L516.105 296.489L516.051 296.456L515.994 296.429L515.574 297.337ZM503.282 257.521L504.258 257.737L504.459 256.829L503.568 256.563L503.282 257.521ZM496.374 255.454L496.052 256.401L496.069 256.407L496.087 256.412L496.374 255.454ZM495.004 252.95L494.052 252.645L494.041 252.68L494.033 252.715L495.004 252.95ZM499.872 237.732L498.926 237.41L498.923 237.418L498.92 237.427L499.872 237.732ZM502.376 236.362L502.672 235.407L502.642 235.398L502.612 235.39L502.376 236.362ZM508.258 238.181L507.962 239.136L508.927 239.434L509.216 238.467L508.258 238.181ZM511.666 226.955L510.716 226.64L510.712 226.653L511.666 226.955ZM515.445 224.808L515.726 223.848L515.703 223.841L515.68 223.836L515.445 224.808ZM532.876 229.915L533.168 228.958L533.158 228.955L532.876 229.915ZM534.577 233.092L535.537 233.373L535.543 233.35L535.549 233.327L534.577 233.092ZM530.94 244.855L529.988 244.551L529.68 245.516L530.649 245.811L530.94 244.855ZM537.288 246.786L536.997 247.743L537.025 247.751L537.053 247.758L537.288 246.786ZM538.658 249.29L539.61 249.595L539.621 249.56L539.63 249.525L538.658 249.29ZM533.79 264.508L534.734 264.839L534.738 264.826L534.742 264.813L533.79 264.508ZM531.308 265.784L531.029 266.745L531.051 266.751L531.073 266.756L531.308 265.784ZM525.218 264.014L525.497 263.054L524.492 262.762L524.246 263.779L525.218 264.014ZM526.401 281.981L527.018 281.193L527.01 281.187L527.003 281.181L526.401 281.981ZM526.92 284.479L519.223 295.062L520.841 296.238L528.537 285.655L526.92 284.479ZM519.227 295.056C518.67 295.811 518.207 296.262 517.796 296.499C517.429 296.711 517.075 296.77 516.626 296.661L516.156 298.605C517.107 298.835 517.986 298.698 518.795 298.232C519.56 297.791 520.219 297.081 520.836 296.244L519.227 295.056ZM516.626 296.661C516.325 296.588 516.203 296.551 516.105 296.489L515.044 298.184C515.46 298.445 515.898 298.543 516.156 298.605L516.626 296.661ZM515.994 296.429C508.994 293.188 504.879 289.339 503.052 283.54C501.195 277.647 501.641 269.571 504.258 257.737L502.305 257.305C499.677 269.19 499.119 277.712 501.144 284.141C503.2 290.665 507.854 294.864 515.154 298.244L515.994 296.429ZM503.568 256.563L496.661 254.496L496.087 256.412L502.995 258.479L503.568 256.563ZM496.696 254.508C496.188 254.335 495.848 253.715 495.976 253.185L494.033 252.715C493.664 254.237 494.552 255.89 496.052 256.401L496.696 254.508ZM495.957 253.255L500.825 238.037L498.92 237.427L494.052 252.645L495.957 253.255ZM500.819 238.054C501.001 237.519 501.545 237.19 502.141 237.334L502.612 235.39C500.968 234.993 499.427 235.937 498.926 237.41L500.819 238.054ZM502.081 237.318L507.962 239.136L508.553 237.225L502.672 235.407L502.081 237.318ZM509.216 238.467C510.262 234.961 511.371 231.192 512.619 227.258L510.712 226.653C509.458 230.608 508.343 234.399 507.3 237.895L509.216 238.467ZM512.615 227.27C512.806 226.695 512.99 226.22 513.297 225.917C513.516 225.702 513.904 225.464 514.836 225.689L515.307 223.746C513.813 223.384 512.68 223.717 511.893 224.493C511.195 225.181 510.89 226.118 510.716 226.64L512.615 227.27ZM514.836 225.689L515.209 225.78L515.68 223.836L515.307 223.746L514.836 225.689ZM515.163 225.767L532.595 230.875L533.158 228.955L515.726 223.848L515.163 225.767ZM532.585 230.871C533.187 231.055 533.448 231.314 533.569 231.547C533.698 231.797 533.763 232.204 533.605 232.857L535.549 233.327C535.775 232.394 535.771 231.451 535.345 230.628C534.911 229.789 534.13 229.252 533.168 228.958L532.585 230.871ZM533.617 232.811C532.486 236.672 531.216 240.701 529.988 244.551L531.893 245.159C533.122 241.306 534.398 237.259 535.537 233.373L533.617 232.811ZM530.649 245.811L536.997 247.743L537.579 245.829L531.231 243.898L530.649 245.811ZM537.053 247.758C537.455 247.855 537.849 248.38 537.686 249.055L539.63 249.525C540.008 247.961 539.174 246.213 537.524 245.814L537.053 247.758ZM537.705 248.985L532.838 264.204L534.742 264.813L539.61 249.595L537.705 248.985ZM532.846 264.177C532.667 264.69 532.172 264.965 531.73 264.857L531.26 266.801C532.87 267.191 534.275 266.147 534.734 264.839L532.846 264.177ZM531.73 264.857L531.543 264.812L531.073 266.756L531.26 266.801L531.73 264.857ZM531.587 264.824L525.497 263.054L524.939 264.974L531.029 266.745L531.587 264.824ZM524.246 263.779C523.213 268.049 522.564 271.953 522.661 275.174C522.758 278.382 523.605 281.128 525.8 282.78L527.003 281.181C525.522 280.067 524.749 278.076 524.66 275.114C524.571 272.166 525.168 268.47 526.19 264.249L524.246 263.779ZM525.785 282.768C526.311 283.18 526.678 283.432 526.941 283.725C527.16 283.968 527.141 284.059 527.124 284.131L529.068 284.601C529.299 283.647 528.89 282.902 528.428 282.388C528.01 281.923 527.405 281.496 527.018 281.193L525.785 282.768ZM527.124 284.131C527.131 284.101 527.136 284.094 527.127 284.115C527.119 284.134 527.104 284.164 527.08 284.207C527.03 284.298 526.965 284.402 526.881 284.537L528.576 285.598C528.653 285.475 528.75 285.322 528.832 285.173C528.907 285.036 529.013 284.829 529.068 284.601L527.124 284.131Z" fill="#FF00FF" mask="url(#path-18-outside-9_1_36)"/>
<mask id="path-20-outside-10_1_36" maskUnits="userSpaceOnUse" x="535.065" y="216.705" width="88.5285" height="99.5379" fill="black">
<rect fill="white" x="535.065" y="216.705" width="88.5285" height="99.5379"/>
<path d="M571.884 309.973L557.184 307.407C555.66 307.122 554.851 306.499 554.664 305.558C554.534 304.899 554.686 304.183 555.026 303.431L565.459 278.558C565.12 278.332 564.839 277.898 564.444 277.389L538.936 241.049C538.523 240.446 538.222 239.918 538.129 239.447C537.868 238.129 538.83 237.058 540.167 236.401L554.262 229.006C554.62 228.837 554.978 228.668 555.355 228.593C557.05 228.257 558.517 229.239 559.493 230.709L575.722 253.817C579.616 244.335 583.322 234.89 586.498 226.724C586.876 225.67 587.423 224.974 588.459 224.769C589.024 224.657 589.909 224.677 590.963 225.056L606.431 229.524C607.674 229.865 608.369 230.412 608.537 231.26C608.817 232.672 605.489 253.395 576.256 307.833C575.519 309.056 574.784 309.789 573.654 310.013C573.183 310.107 572.599 310.124 571.884 309.973Z"/>
</mask>
<path d="M571.884 309.973L557.184 307.407C555.66 307.122 554.851 306.499 554.664 305.558C554.534 304.899 554.686 304.183 555.026 303.431L565.459 278.558C565.12 278.332 564.839 277.898 564.444 277.389L538.936 241.049C538.523 240.446 538.222 239.918 538.129 239.447C537.868 238.129 538.83 237.058 540.167 236.401L554.262 229.006C554.62 228.837 554.978 228.668 555.355 228.593C557.05 228.257 558.517 229.239 559.493 230.709L575.722 253.817C579.616 244.335 583.322 234.89 586.498 226.724C586.876 225.67 587.423 224.974 588.459 224.769C589.024 224.657 589.909 224.677 590.963 225.056L606.431 229.524C607.674 229.865 608.369 230.412 608.537 231.26C608.817 232.672 605.489 253.395 576.256 307.833C575.519 309.056 574.784 309.789 573.654 310.013C573.183 310.107 572.599 310.124 571.884 309.973Z" fill="#FF00FF"/>
<path d="M571.884 309.973L572.092 308.994L572.074 308.991L572.056 308.988L571.884 309.973ZM557.184 307.407L557.001 308.39L557.012 308.392L557.184 307.407ZM555.026 303.431L555.937 303.843L555.943 303.83L555.948 303.818L555.026 303.431ZM565.459 278.558L566.381 278.945L566.7 278.185L566.015 277.727L565.459 278.558ZM564.444 277.389L563.626 277.964L563.639 277.983L563.654 278.002L564.444 277.389ZM538.936 241.049L538.111 241.614L538.118 241.624L538.936 241.049ZM540.167 236.401L540.608 237.298L540.62 237.293L540.632 237.286L540.167 236.401ZM554.262 229.006L553.836 228.101L553.816 228.11L553.798 228.12L554.262 229.006ZM559.493 230.709L558.66 231.262L558.668 231.273L558.675 231.284L559.493 230.709ZM575.722 253.817L574.904 254.392L575.954 255.887L576.647 254.197L575.722 253.817ZM586.498 226.724L587.43 227.086L587.435 227.074L587.439 227.062L586.498 226.724ZM590.963 225.056L590.625 225.997L590.655 226.007L590.685 226.016L590.963 225.056ZM606.431 229.524L606.154 230.485L606.167 230.488L606.431 229.524ZM576.256 307.833L577.112 308.349L577.125 308.328L577.137 308.307L576.256 307.833ZM572.056 308.988L557.356 306.422L557.012 308.392L571.712 310.958L572.056 308.988ZM557.368 306.424C556 306.168 555.713 305.705 555.645 305.363L553.684 305.752C553.989 307.294 555.32 308.076 557.001 308.39L557.368 306.424ZM555.645 305.363C555.571 304.988 555.642 304.495 555.937 303.843L554.114 303.019C553.729 303.871 553.497 304.809 553.684 305.752L555.645 305.363ZM555.948 303.818L566.381 278.945L564.537 278.172L554.103 303.044L555.948 303.818ZM566.015 277.727C565.974 277.7 565.895 277.63 565.75 277.451C565.589 277.252 565.47 277.081 565.234 276.777L563.654 278.002C563.812 278.207 564.032 278.507 564.195 278.709C564.374 278.93 564.606 279.191 564.903 279.39L566.015 277.727ZM565.263 276.815L539.755 240.475L538.118 241.624L563.626 277.964L565.263 276.815ZM539.761 240.484C539.349 239.883 539.16 239.504 539.11 239.253L537.148 239.642C537.285 240.333 537.696 241.009 538.111 241.614L539.761 240.484ZM539.11 239.253C538.986 238.627 539.393 237.895 540.608 237.298L539.727 235.503C538.266 236.22 536.749 237.631 537.148 239.642L539.11 239.253ZM540.632 237.286L554.727 229.891L553.798 228.12L539.703 235.515L540.632 237.286ZM554.689 229.91C555.069 229.731 555.315 229.621 555.549 229.574L555.16 227.613C554.642 227.715 554.172 227.943 553.836 228.101L554.689 229.91ZM555.549 229.574C556.688 229.349 557.802 229.97 558.66 231.262L560.326 230.155C559.231 228.507 557.412 227.166 555.16 227.613L555.549 229.574ZM558.675 231.284L574.904 254.392L576.541 253.243L560.312 230.134L558.675 231.284ZM576.647 254.197C580.545 244.706 584.253 235.254 587.43 227.086L585.566 226.361C582.39 234.526 578.688 243.964 574.797 253.438L576.647 254.197ZM587.439 227.062C587.603 226.604 587.776 226.308 587.958 226.116C588.124 225.94 588.332 225.814 588.654 225.75L588.265 223.788C587.551 223.93 586.967 224.254 586.506 224.741C586.061 225.211 585.771 225.79 585.557 226.386L587.439 227.062ZM588.654 225.75C589.02 225.677 589.721 225.672 590.625 225.997L591.301 224.114C590.098 223.682 589.028 223.637 588.265 223.788L588.654 225.75ZM590.685 226.016L606.154 230.485L606.709 228.563L591.24 224.095L590.685 226.016ZM606.167 230.488C607.274 230.792 607.499 231.166 607.556 231.454L609.518 231.065C609.239 229.658 608.073 228.938 606.696 228.56L606.167 230.488ZM607.556 231.454C607.546 231.401 607.56 231.449 607.544 231.688C607.531 231.895 607.499 232.188 607.441 232.574C607.325 233.345 607.11 234.453 606.751 235.928C606.032 238.876 604.741 243.264 602.525 249.318C598.094 261.426 589.975 280.172 575.374 307.36L577.137 308.307C591.77 281.057 599.932 262.222 604.403 250.006C606.639 243.897 607.954 239.437 608.694 236.402C609.064 234.885 609.292 233.716 609.419 232.871C609.482 232.449 609.521 232.099 609.54 231.821C609.556 231.575 609.564 231.294 609.518 231.065L607.556 231.454ZM575.399 307.318C574.719 308.446 574.18 308.889 573.459 309.032L573.848 310.994C575.387 310.689 576.319 309.666 577.112 308.349L575.399 307.318ZM573.459 309.032C573.125 309.099 572.678 309.119 572.092 308.994L571.677 310.951C572.52 311.13 573.241 311.115 573.848 310.994L573.459 309.032Z" fill="#FF00FF" mask="url(#path-20-outside-10_1_36)"/>
<path d="M163.656 209.113L179.004 185.357C179.544 184.521 180.637 184.235 181.517 184.699C182.398 185.163 182.771 186.222 182.377 187.135L171.172 213.074M163.656 209.113L159.75 215.159C158.206 217.548 159.039 220.734 161.554 222.059C164.07 223.384 167.193 222.284 168.32 219.675L171.172 213.074M163.656 209.113L171.172 213.074M165.249 226.687C166.555 230.947 164.141 235.466 159.856 236.779L148.9 240.139L149.325 239.736C151.421 237.748 151.791 234.557 150.204 232.157C149.892 231.685 149.634 231.173 149.526 230.617C148.746 226.615 151.118 222.582 155.125 221.353C159.41 220.039 163.942 222.427 165.249 226.687Z" stroke="#FF00FF" stroke-width="5" stroke-linecap="round" stroke-linejoin="round"/>
<path d="M353.488 204.091L354.336 210.883C354.724 213.988 357.556 216.191 360.662 215.803C363.767 215.415 365.97 212.583 365.582 209.478L364.733 202.686M354.338 165.197L354.69 168.008M373.157 170.372L371.418 172.608M337.371 174.843L339.608 176.583M335.008 193.311L332.197 193.662M382.803 187.339L379.992 187.69M371.557 188.744C372.528 196.508 367.02 203.588 359.257 204.558C351.493 205.528 344.413 200.021 343.443 192.257C342.473 184.493 347.98 177.413 355.744 176.443C363.507 175.473 370.587 180.98 371.557 188.744Z" stroke="#FF00FF" stroke-width="6" stroke-linecap="round" stroke-linejoin="round"/>
<path d="M549.45 211.697L594.129 202.389M563.963 208.671L559.776 194.446M572.663 238.23L566.646 217.786M564.565 190.77C562.342 194.481 557.531 195.688 553.82 193.465C550.108 191.243 548.901 186.432 551.124 182.72C553.347 179.009 558.158 177.802 561.869 180.025C565.581 182.248 566.787 187.058 564.565 190.77ZM548.465 217.651C546.242 221.363 541.432 222.569 537.72 220.346C534.009 218.124 532.802 213.313 535.025 209.601C537.248 205.89 542.058 204.683 545.77 206.906C549.481 209.129 550.688 213.939 548.465 217.651Z" stroke="#FF00FF" stroke-width="6" stroke-linecap="round" stroke-linejoin="round"/>
<path d="M456.537 314.292L456.566 314.284M441.279 315.387L441.308 315.38M435.793 329.348L435.822 329.34M456.383 353.234C442.007 357.198 427.141 348.758 423.177 334.383C419.213 320.007 427.653 305.141 442.029 301.177C456.404 297.213 471.271 305.653 475.234 320.029C476.556 324.821 473.742 329.776 468.95 331.097L467.215 331.576C466.14 331.872 465.603 332.02 465.173 332.215C462.806 333.29 461.4 335.766 461.691 338.349C461.744 338.818 461.892 339.356 462.188 340.431L462.667 342.166C463.988 346.958 461.175 351.913 456.383 353.234ZM457.983 313.894C458.203 314.692 457.734 315.518 456.936 315.738C456.137 315.959 455.311 315.49 455.091 314.691C454.871 313.892 455.34 313.066 456.138 312.846C456.937 312.626 457.763 313.095 457.983 313.894ZM442.725 314.989C442.945 315.787 442.476 316.613 441.678 316.834C440.879 317.054 440.053 316.585 439.833 315.786C439.613 314.988 440.082 314.162 440.88 313.941C441.679 313.721 442.505 314.19 442.725 314.989ZM437.239 328.949C437.459 329.748 436.99 330.574 436.191 330.794C435.393 331.014 434.567 330.545 434.347 329.747C434.126 328.948 434.595 328.122 435.394 327.902C436.193 327.682 437.018 328.151 437.239 328.949Z" stroke="#FF00FF" stroke-width="6" stroke-linecap="round" stroke-linejoin="round"/>
<mask id="path-26-inside-11_1_36" fill="white">
<path fill-rule="evenodd" clip-rule="evenodd" d="M238.352 300.425C236.549 296.238 238.482 291.382 242.669 289.579L243.282 289.315C247.47 287.512 252.326 289.445 254.129 293.632L256.802 299.842L271.957 335.041C272.154 335.499 272.223 336.002 272.157 336.496L270.643 347.74C270.514 348.697 269.892 349.517 269.004 349.9C268.116 350.282 267.093 350.17 266.309 349.606L257.101 342.979C256.696 342.688 256.378 342.292 256.18 341.834L240.937 306.429L238.352 300.425ZM244.845 294.634C243.45 295.235 242.805 296.853 243.406 298.249L244.924 301.773L250.638 299.442L249.074 295.809C248.473 294.413 246.854 293.769 245.459 294.37L244.845 294.634ZM252.815 304.497L247.1 306.829L260.934 338.957L265.801 342.46L266.601 336.517L252.815 304.497Z"/>
</mask>
<path d="M238.352 300.425L207.736 313.607L207.736 313.607L238.352 300.425ZM242.669 289.579L255.85 320.196L255.854 320.194L242.669 289.579ZM243.282 289.315L230.1 258.699L230.098 258.7L243.282 289.315ZM254.129 293.632L223.512 306.814L223.512 306.815L254.129 293.632ZM256.802 299.842L226.186 313.024L226.186 313.024L256.802 299.842ZM271.957 335.041L302.577 321.866L302.573 321.859L271.957 335.041ZM272.157 336.496L305.192 340.945L305.193 340.937L272.157 336.496ZM270.643 347.74L237.608 343.291L237.608 343.292L270.643 347.74ZM269.004 349.9L282.185 380.516L282.191 380.514L269.004 349.9ZM266.309 349.606L285.78 322.55L285.78 322.55L266.309 349.606ZM257.101 342.979L237.628 370.033L237.63 370.034L257.101 342.979ZM256.18 341.834L225.564 355.016L225.567 355.022L256.18 341.834ZM240.937 306.429L271.553 293.247L271.553 293.247L240.937 306.429ZM244.845 294.634L258.027 325.25L258.03 325.249L244.845 294.634ZM243.406 298.249L274.022 285.067L274.022 285.066L243.406 298.249ZM244.924 301.773L214.308 314.956L227.24 344.99L257.517 332.637L244.924 301.773ZM250.638 299.442L263.231 330.305L294.692 317.468L281.254 286.259L250.638 299.442ZM249.074 295.809L279.69 282.626L279.69 282.626L249.074 295.809ZM245.459 294.37L232.278 263.753L232.274 263.755L245.459 294.37ZM252.815 304.497L283.431 291.315L270.499 261.28L240.222 273.634L252.815 304.497ZM247.1 306.829L234.508 275.966L203.047 288.802L216.484 320.011L247.1 306.829ZM260.934 338.957L230.318 352.139L233.969 360.62L241.463 366.013L260.934 338.957ZM265.801 342.46L246.33 369.516L291.423 401.967L298.836 346.909L265.801 342.46ZM266.601 336.517L299.637 340.965L300.869 331.815L297.217 323.335L266.601 336.517ZM268.968 287.243C274.445 299.964 268.573 314.718 255.85 320.196L229.488 258.963C208.391 268.046 198.653 292.512 207.736 313.607L268.968 287.243ZM255.854 320.194L256.467 319.93L230.098 258.7L229.484 258.964L255.854 320.194ZM256.465 319.931C243.743 325.409 228.99 319.536 223.512 306.814L284.745 280.451C275.662 259.354 251.196 249.616 230.1 258.699L256.465 319.931ZM223.512 306.815L226.186 313.024L287.418 286.66L284.745 280.45L223.512 306.815ZM226.186 313.024L241.341 348.223L302.573 321.859L287.418 286.66L226.186 313.024ZM241.338 348.216C239.148 343.126 238.383 337.541 239.121 332.055L305.193 340.937C306.063 334.463 305.161 327.871 302.577 321.866L241.338 348.216ZM239.122 332.048L237.608 343.291L303.678 352.188L305.192 340.945L239.122 332.048ZM237.608 343.292C239.042 332.642 245.957 323.533 255.817 319.286L282.191 380.514C293.826 375.502 301.986 364.753 303.678 352.188L237.608 343.292ZM255.823 319.283C265.69 315.036 277.061 316.276 285.78 322.55L246.838 376.661C257.126 384.065 270.543 385.528 282.185 380.516L255.823 319.283ZM285.78 322.55L276.572 315.923L237.63 370.034L246.838 376.661L285.78 322.55ZM276.573 315.925C281.071 319.162 284.603 323.559 286.794 328.646L225.567 355.022C228.153 361.024 232.321 366.213 237.628 370.033L276.573 315.925ZM286.797 328.652L271.553 293.247L210.321 319.611L225.564 355.016L286.797 328.652ZM271.553 293.247L268.968 287.243L207.736 313.607L210.321 319.611L271.553 293.247ZM231.664 264.017C213.359 271.898 204.909 293.127 212.791 311.432L274.022 285.066C280.702 300.58 273.541 318.571 258.027 325.25L231.664 264.017ZM212.79 311.431L214.308 314.956L275.54 288.591L274.022 285.067L212.79 311.431ZM257.517 332.637L263.231 330.305L238.045 268.579L232.331 270.91L257.517 332.637ZM281.254 286.259L279.69 282.626L218.458 308.991L220.022 312.624L281.254 286.259ZM279.69 282.626C271.808 264.322 250.581 255.873 232.278 263.753L258.639 324.986C243.127 331.664 225.138 324.504 218.458 308.991L279.69 282.626ZM232.274 263.755L231.661 264.019L258.03 325.249L258.643 324.984L232.274 263.755ZM240.222 273.634L234.508 275.966L259.693 337.692L265.408 335.36L240.222 273.634ZM216.484 320.011L230.318 352.139L291.55 325.775L277.716 293.647L216.484 320.011ZM241.463 366.013L246.33 369.516L285.272 315.405L280.405 311.902L241.463 366.013ZM298.836 346.909L299.637 340.965L233.566 332.069L232.766 338.012L298.836 346.909ZM297.217 323.335L283.431 291.315L222.199 317.679L235.985 349.699L297.217 323.335Z" fill="#FF00FF" mask="url(#path-26-inside-11_1_36)"/>
</svg>
