<svg xmlns="http://www.w3.org/2000/svg" width="700" height="500" fill="none" viewBox="0 0 700 500"><path fill="#082077" stroke="#082077" stroke-width="20" d="M177 242L176.124 243.927C175.046 246.299 174.283 248.801 173.855 251.371C173.289 254.765 173.315 258.231 173.93 261.616L174 262L175.377 266.477C175.791 267.821 176.352 269.116 177.05 270.338C177.682 271.443 178.422 272.483 179.261 273.441L181.5 276L182.95 277.45C184.646 279.146 186.505 280.67 188.5 282L190.765 283.132C191.92 283.71 193.115 284.205 194.341 284.614C196.109 285.203 197.933 285.61 199.784 285.828L203.254 286.236C204.748 286.412 206.255 286.446 207.756 286.339L210.857 286.117C211.942 286.04 213.001 285.75 213.973 285.263L214.246 285.127C214.415 285.042 214.59 284.97 214.769 284.91L215.341 284.72C216.63 284.29 218.05 284.733 218.865 285.82C218.955 285.94 219.053 286.053 219.159 286.159L219.609 286.609C220.53 287.53 221.594 288.297 222.759 288.88L225 290L228.5 291.5L229.579 291.931C230.506 292.302 231.522 292.396 232.501 292.2L232.673 292.165C233.219 292.056 233.738 291.841 234.202 291.532C234.727 291.182 235.169 290.719 235.493 290.178L236.5 288.5L237.191 287.118C237.397 286.707 237.639 286.315 237.915 285.947L238.329 285.394C238.77 284.806 239.342 284.329 240 284C240.658 283.671 241.383 283.5 242.118 283.5H243.5H245.61C246.19 283.5 246.758 283.672 247.24 283.994C247.735 284.323 248.118 284.796 248.339 285.348L249 287L249.086 287.259C249.351 288.054 249.921 288.71 250.67 289.085C251.212 289.356 251.82 289.465 252.422 289.4L270 287.5L272.836 287.027C272.945 287.009 273.056 287 273.167 287H273.646C273.873 287 274.09 287.09 274.25 287.25C274.41 287.41 274.5 287.627 274.5 287.854V288.5L273.5 297.5V298.594C273.5 298.861 273.438 299.124 273.318 299.363C273.115 299.771 272.757 300.081 272.324 300.225L271.5 300.5L267 302.5L264.446 303.595C263.818 303.864 263.224 304.207 262.677 304.618L262.309 304.893C261.774 305.295 261.31 305.785 260.939 306.342L260.897 306.405C260.633 306.8 260.424 307.228 260.274 307.678L260.237 307.788C260.08 308.26 260 308.753 260 309.25C260 309.747 260.08 310.24 260.237 310.712L260.5 311.5C260.82 312.46 261.509 313.254 262.414 313.707L262.707 313.854C262.902 313.951 263.104 314.035 263.311 314.104L270.5 316.5L271.677 316.892C271.892 316.964 272.102 317.051 272.305 317.152L272.799 317.399C272.932 317.466 273.054 317.554 273.159 317.659C273.38 317.88 273.52 318.169 273.556 318.479L274.5 326.5L274.723 328.063C274.905 329.334 275.404 330.538 276.174 331.566L276.304 331.738C276.434 331.913 276.577 332.077 276.731 332.231L276.837 332.337C277.273 332.773 277.804 333.101 278.389 333.296C278.794 333.431 279.217 333.5 279.644 333.5H279.853C280.283 333.5 280.711 333.447 281.128 333.343L281.387 333.278C282.124 333.094 282.823 332.785 283.454 332.364C283.817 332.122 284.155 331.845 284.464 331.536L288.5 327.5L290.5 325L290.929 324.571C291.295 324.205 291.79 324 292.307 324C292.435 324 292.563 324.013 292.689 324.038L297.5 325L300.775 325.655C301.908 325.882 303.08 325.834 304.192 325.517L304.933 325.305C305.633 325.105 306.27 324.73 306.785 324.215L306.837 324.163C307.273 323.727 307.601 323.196 307.796 322.611C307.931 322.206 308 321.783 308 321.356V321.185C308 320.406 307.819 319.637 307.47 318.94L307 318L303 311L302.171 309.894C301.76 309.346 301.694 308.613 302 308L305.5 301.5L306.12 300.57C307.02 299.22 307.5 297.634 307.5 296.012C307.5 295.34 307.418 294.67 307.255 294.018L307.056 293.224C307.019 293.075 307 292.922 307 292.769C307 292.003 307.467 291.313 308.178 291.029L308.946 290.721C309.312 290.575 309.702 290.5 310.096 290.5H315.032C316.008 290.5 316.982 290.404 317.94 290.212C318.646 290.071 319.34 289.878 320.018 289.636L326 287.5L330 285.5L333.241 284.204C334.411 283.736 335.622 283.376 336.858 283.128C338.94 282.712 341.074 282.619 343.185 282.854L344.5 283L344.854 283.071C347.913 283.683 350.795 284.971 353.29 286.843C354.757 287.943 356.362 288.845 358.065 289.526L358.545 289.718C359.846 290.238 361.189 290.648 362.559 290.941L367.5 292L372.751 292.375C373.913 292.458 375.08 292.403 376.229 292.212C377.075 292.071 377.906 291.857 378.715 291.571L381.552 290.57C384.508 289.526 387.341 288.162 390 286.5L390.426 286.216C391.103 285.764 391.952 285.651 392.725 285.908C392.908 285.969 393.083 286.05 393.249 286.149L394.061 286.637C395.015 287.209 396.049 287.637 397.128 287.907L397.5 288L399.347 288.739C399.778 288.911 400.169 289.169 400.497 289.497C401.139 290.139 401.5 291.01 401.5 291.918V291.944C401.5 292.633 401.296 293.306 400.914 293.878L400.746 294.13C400.583 294.376 400.395 294.605 400.186 294.814L399.627 295.373C399.209 295.791 398.763 296.178 398.291 296.532L397.283 297.288C395.77 298.422 394.441 299.783 393.341 301.322L393.277 301.412C392.76 302.136 392.3 302.9 391.902 303.696C390.975 305.55 390.394 307.557 390.188 309.62L390.166 309.838C390.056 310.944 390.046 312.057 390.139 313.165L390.345 315.634C390.448 316.875 390.68 318.101 391.038 319.293L391.26 320.033C391.749 321.664 392.536 323.189 393.581 324.533L394.008 325.082C394.99 326.345 396.243 327.371 397.673 328.087C398.223 328.362 398.796 328.589 399.385 328.766L403.5 330L422.715 334.575C423.903 334.858 425.112 335.044 426.331 335.131L427.244 335.196C430.045 335.396 432.855 334.958 435.462 333.915L436.046 333.682C437.995 332.902 439.765 331.735 441.25 330.25L442.184 329.316C443.052 328.448 443.735 327.412 444.191 326.273C444.397 325.759 444.555 325.227 444.663 324.684L445.01 322.951C445.336 321.321 445.5 319.663 445.5 318L445.286 316.29C445.096 314.771 444.694 313.286 444.091 311.879L443.723 311.021C443.575 310.675 443.395 310.342 443.185 310.028L442.841 309.511C442.616 309.174 442.326 308.884 441.989 308.659C441.352 308.235 440.897 307.589 440.712 306.847L440.587 306.347C440.529 306.116 440.49 305.881 440.47 305.644L440.224 302.683C440.075 300.904 439.663 299.157 439 297.5L438.661 296.652C438.237 295.592 438.237 294.408 438.661 293.348C438.885 292.788 439.22 292.28 439.646 291.854L439.781 291.719C440.574 290.926 441.595 290.401 442.701 290.217L443.384 290.103C443.794 290.034 444.209 290 444.624 290H447L461.5 291.5H465.416C466.137 291.5 466.856 291.429 467.563 291.287L467.967 291.207C468.653 291.069 469.317 290.842 469.942 290.529C470.643 290.178 471.393 289.934 472.167 289.806L474 289.5L475.22 289.256C476.066 289.087 476.936 289.073 477.787 289.215C478.913 289.402 479.976 289.857 480.889 290.542L481.5 291L483.5 292.5L485.5 294L485.897 294.318C487.292 295.433 488.842 296.337 490.5 297C491.14 297.32 491.882 297.373 492.561 297.146L493.82 296.727C494.272 296.576 494.703 296.372 495.106 296.117L503.493 290.82C503.83 290.607 504.142 290.358 504.424 290.076L505.099 289.401C505.676 288.824 506 288.042 506 287.226C506 286.749 505.889 286.278 505.675 285.851L505 284.5L503 281.5C502.338 280.507 501.852 279.408 501.563 278.251L501.5 278C501.168 276.009 501.102 273.982 501.303 271.974L501.5 270L502 264V262.531C502 261.85 502.13 261.175 502.383 260.543C502.785 259.538 503.482 258.679 504.383 258.078L505.189 257.541C505.728 257.181 506.306 256.885 506.913 256.658L510 255.5L512.371 254.406C515.111 253.141 517.668 251.512 519.971 249.563C521.983 247.86 523.788 245.926 525.346 243.801L525.936 242.996C527.641 240.672 529.101 238.177 530.294 235.553L531 234L535.5 225L536.474 222.403C536.822 221.475 537 220.492 537 219.502C537 217.87 536.517 216.276 535.612 214.918L535.578 214.867C535.194 214.291 534.741 213.765 534.229 213.299L529.5 209L522.5 204L513 195.5L511.262 194.148C509.424 192.719 507.717 191.13 506.159 189.399C504.722 187.802 503.157 186.326 501.48 184.984L499 183L494.5 179L488.623 174.669C486.27 172.935 483.423 172 480.5 172L478.541 172.163C475.851 172.387 473.184 172.829 470.566 173.483L468.5 174C465.185 174.994 462.036 176.476 459.157 178.396L459 178.5L457.151 180.04C456.385 180.679 455.679 181.385 455.04 182.151L454.513 182.784C453.841 183.591 453.29 184.49 452.877 185.454C452.298 186.804 452 188.257 452 189.725V191.5V193.89C452 196.954 452.335 200.009 453 203L453.504 204.764C453.831 205.91 454.383 206.979 455.128 207.91L455.465 208.331C455.819 208.774 456.241 209.16 456.713 209.475C457.234 209.823 457.692 210.256 458.067 210.757L459 212C459.995 213.658 460.738 215.453 461.207 217.328L461.5 218.5L462 223V224.208C462 225.72 461.693 227.217 461.097 228.607C460.701 229.531 460.181 230.398 459.553 231.184L458.5 232.5L458.316 232.684C457.494 233.506 456.315 233.863 455.175 233.635C454.729 233.546 454.306 233.37 453.927 233.118L453.662 232.941C453.223 232.649 452.742 232.426 452.235 232.282L449.5 231.5L440.655 230.236C439.553 230.079 438.441 230 437.329 230C435.78 230 434.235 230.153 432.717 230.457L432.5 230.5C431.511 230.83 430.464 230.951 429.425 230.857L425.5 230.5H424.761C424.265 230.5 423.78 230.647 423.367 230.922C422.812 231.292 422.427 231.867 422.296 232.521L422 234L421.825 234.701C421.616 235.537 421.103 236.265 420.386 236.743C420.13 236.913 419.852 237.049 419.56 237.147L419.322 237.226C418.777 237.408 418.207 237.5 417.634 237.5H414L409.5 237L407.437 236.742C406.163 236.583 404.944 236.129 403.876 235.417L402.974 234.816C402.661 234.607 402.393 234.339 402.184 234.026C401.748 233.371 401.06 232.927 400.283 232.797L399.193 232.615C398.733 232.539 398.265 232.522 397.801 232.566L382.5 234L380.071 234.347C379.374 234.447 378.662 234.331 378.032 234.016L377.493 233.746C377.173 233.586 376.914 233.327 376.754 233.007C376.589 232.678 376.539 232.304 376.611 231.944L377 230L379 212.5L379.5 208V204.767C379.5 203.592 379.384 202.42 379.154 201.268C378.722 199.108 377.893 197.047 376.711 195.189L375.85 193.835C375.287 192.95 374.59 192.158 373.784 191.487C372.61 190.508 371.23 189.807 369.747 189.437L367.654 188.913C366.553 188.638 365.431 188.459 364.299 188.379L359 188L346.5 187H340H336L335.508 187.061C333.18 187.353 330.823 187.332 328.5 187L327.217 186.679C326.762 186.565 326.379 186.259 326.17 185.839C326.058 185.616 326 185.37 326 185.121V183.387C326 182.797 325.942 182.209 325.826 181.631L325.5 180L325.303 179.409C325.107 178.82 324.72 178.313 324.203 177.969C323.745 177.663 323.206 177.5 322.655 177.5H322.523C322.177 177.5 321.832 177.556 321.503 177.666L320.76 177.913C320.587 177.971 320.418 178.041 320.255 178.122C319.152 178.674 318.38 179.719 318.177 180.936L318 182L314 226V227.613C314 227.869 313.959 228.124 313.877 228.368C313.64 229.08 313.08 229.64 312.368 229.877L312.239 229.92C312.08 229.973 311.917 230.011 311.751 230.033L308.266 230.5L305.894 231.068C303.302 231.688 300.764 232.515 298.304 233.54L296 234.5C294.719 235.14 293.237 235.246 291.879 234.793L291.439 234.646C291.147 234.549 290.862 234.431 290.586 234.293L288.869 233.434C288.291 233.146 287.746 232.797 287.242 232.393C286.097 231.478 284.75 230.85 283.313 230.563L283 230.5L281 230L278 229.5C275.341 229.168 272.654 229.122 269.985 229.365L268.5 229.5L263.5 230.5L261.618 231.038C260.569 231.337 259.451 231.28 258.438 230.875C257.819 230.628 257.257 230.257 256.786 229.786L255.5 228.5L254.866 227.74C253.624 226.249 252.499 224.664 251.5 223L249.869 219.738C249.291 218.583 248.842 217.368 248.529 216.115L248.261 215.045C248.088 214.351 248 213.638 248 212.923V211.921C248 210.991 247.747 210.079 247.269 209.281C246.767 208.444 246.036 207.768 245.164 207.332L244.55 207.025C243.854 206.677 243.109 206.44 242.34 206.322L237 205.5L232.024 204.734C231.009 204.578 229.985 204.5 228.958 204.5C226.997 204.5 225.045 204.786 223.166 205.35L221 206C219.013 206.662 216.932 207 214.838 207H213.5H212.623C209.885 207 207.157 206.664 204.5 206L202.505 205.43C201.505 205.144 200.544 204.739 199.641 204.224C198.227 203.415 196.977 202.347 195.959 201.074L195.163 200.079C194.059 198.699 193.147 197.177 192.451 195.553L192 194.5C191.005 191.184 190.5 187.741 190.5 184.28V181C190.5 179.362 190.928 177.752 191.74 176.329L192.5 175L193.56 173.233C193.851 172.748 194.057 172.216 194.168 171.661L194.253 171.236C194.413 170.435 194.302 169.603 193.936 168.873L193.877 168.753C193.63 168.26 193.258 167.839 192.799 167.533C192.278 167.185 191.666 167 191.04 167H189.512C188.84 167 188.17 167.082 187.518 167.245L186.5 167.5C185.172 167.832 183.889 168.326 182.681 168.97L179.26 170.795C177.755 171.597 176.315 172.514 174.951 173.537L174.481 173.889C172.173 175.62 170.133 177.682 168.427 180.009L167.626 181.1C166.219 183.02 165.143 185.162 164.443 187.437C163.818 189.467 163.5 191.58 163.5 193.705V195.818C163.5 198.266 163.754 200.708 164.259 203.103L164.814 205.743C165.27 207.908 165.962 210.016 166.877 212.03C167.624 213.673 168.517 215.247 169.545 216.731L170.244 217.741C171.745 219.909 173.438 221.938 175.302 223.802L176 224.5L178.5 227.5L179.366 228.539C180.422 229.806 181 231.403 181 233.053C181 234.008 180.806 234.953 180.43 235.83L179.909 237.045C179.637 237.681 179.316 238.295 178.949 238.881L177 242Z"/><path fill="#FFF200" d="M241.254 277.234L234.633 288.505C233.647 290.221 232.576 291.056 231.147 290.878C231.147 290.878 223.06 289.005 218.386 283.009C212.685 285.3 206.994 285.949 201.754 285.299C185.844 283.327 173.732 269.443 175.633 254.105C177.075 242.482 187.192 227.194 206.056 229.533C210.153 230.041 214.143 231.406 217.419 233.07L222.3 207.75C222.596 206.142 224.238 205.379 226.143 205.615L242.59 207.944C245.257 208.275 245.866 209.608 245.701 210.942L245.665 211.228C245.321 212.442 237.347 251.792 236.532 258.366C235.563 266.178 235.986 272.131 239.68 274.331C240.668 274.937 241.657 275.543 241.551 276.401C241.516 276.686 241.48 276.972 241.254 277.234ZM213.464 267.308C213.329 262.938 213.574 257.841 214.33 251.744C213.518 249.709 211.016 248.044 208.158 247.69C202.442 246.981 198.172 251.772 197.51 257.107C196.849 262.442 199.997 267.476 206.095 268.232C208.191 268.492 210.643 268.215 213.464 267.308Z"/><path fill="#FFF200" d="M271.551 286.518L252.512 288.407C251.361 288.457 250.368 287.732 250.318 286.581L245.454 236.826C245.404 235.675 246.225 234.678 247.28 234.632L258.381 233.571C263.488 231.714 268.442 230.729 273.238 230.519C276.498 230.377 279.68 230.622 282.683 231.164C284.138 231.485 284.747 232.227 284.797 233.378C284.814 233.761 284.735 234.149 284.66 234.633L282.469 248.278C282.24 249.633 281.31 250.346 280.159 250.396C279.872 250.409 279.484 250.33 279.096 250.251C277.541 249.838 275.898 249.622 274.267 249.693C272.924 249.751 271.59 250.002 270.072 250.453L273.377 284.325L273.386 284.516C273.432 285.571 272.606 286.472 271.551 286.518Z"/><path fill="#FFF200" d="M314.491 289.207L313.345 289.089C291.669 286.848 282.312 270.922 283.813 256.407C285.224 242.752 296.349 229.425 318.121 231.675C341.803 234.123 340.672 255.335 340.346 258.486C339.892 262.879 337.703 266.32 331.872 267.648C327.226 268.712 320.051 269.032 315.065 268.71C313.538 268.552 313.129 267.834 312.866 266.648C312.045 263.379 310.873 256.984 310.912 256.602C311.021 255.552 311.834 255.153 313.105 254.995C318.189 254.363 318.877 254.241 319.015 252.904C319.104 252.044 317.606 248.801 313.595 248.387C309.011 247.913 304.777 251.529 304.165 257.449C303.465 264.229 307.641 272.382 319.577 273.615C320.245 273.684 321.009 273.763 321.688 273.737L321.879 273.757C323.216 273.895 324.75 274.922 324.582 276.545C324.484 277.5 321.33 283.737 319.562 286.836C318.64 288.285 317.26 289.493 314.491 289.207Z"/><path fill="#FFF200" d="M411.296 272.369L407.667 284.906C407.13 286.673 406.352 287.704 405.127 287.942C404.184 288.125 397.295 287.898 391.723 284.383C387.316 287.879 382.447 289.998 377.641 290.931C361.903 293.986 345.99 284.558 343.045 269.385C340.849 258.077 345.694 240.218 364.354 236.595C369.066 235.681 373.885 235.821 377.872 236.709C378.309 235.94 379.102 235.493 380.233 235.273L380.704 235.182L397.282 233.43C399.769 233.143 400.667 234.24 400.886 235.371L400.978 235.842C401.323 244.674 401.596 253.129 402.803 259.349C403.901 265.003 405.724 268.854 409.051 269.871C410.085 270.159 411.231 270.524 411.414 271.466C411.451 271.654 411.411 271.955 411.296 272.369ZM382.348 270.85C381.59 268.455 380.889 265.852 380.322 262.931C379.846 260.481 379.446 257.918 379.086 255.054C377.589 253.389 374.789 252.564 372.056 253.094C366.118 254.247 363.936 260.636 364.869 265.442C365.894 270.719 370.447 274.529 376.573 273.34C378.363 272.993 380.363 272.213 382.348 270.85Z"/><path fill="#FFF200" d="M466.192 290.489L448.429 288.432L448.239 288.4C447.293 288.239 446.681 287.258 446.764 286.201L449.225 266.072C450.382 256.433 449.073 252.119 443.192 250.629L439.034 285.271C438.841 286.407 437.938 287.13 436.881 287.047L419.04 284.879L418.85 284.847C417.904 284.685 417.292 283.705 417.375 282.647L423.405 233.035L423.437 232.846C423.615 231.805 424.501 231.177 425.463 231.244L431.19 231.928C436.291 231.143 441.151 231.193 445.694 231.968C449.952 232.695 453.814 234.035 457.262 236.084C463.706 234.846 469.656 234.79 474.956 235.694C491.611 238.536 502.027 251.123 500.129 268.524C499.458 274.739 499.708 279.554 503.559 283.814C504.046 284.384 505.02 285.524 504.842 286.565C504.761 287.038 504.475 287.574 503.827 287.95C503.795 288.139 494.443 294.432 494.443 294.432C493.241 295.201 492.324 295.434 491.378 295.273C490.053 295.047 475.696 289.578 477.741 270.742C479.012 260.441 477.67 256.317 472.405 254.639L468.345 288.714C468.151 289.849 467.249 290.572 466.192 290.489Z"/><path stroke="#fff" stroke-linecap="round" stroke-linejoin="round" stroke-width="6" d="M168.69 191.482C165.547 205.455 174.325 219.329 188.295 222.47C198.94 224.864 209.527 220.336 215.355 211.865C212.178 212.381 208.841 212.324 205.509 211.575C191.539 208.433 182.761 194.56 185.903 180.587C186.649 177.27 188.021 174.209 189.834 171.567C179.694 173.216 171.082 180.844 168.69 191.482Z"/><path stroke="#fff" stroke-linecap="round" stroke-linejoin="round" stroke-width="7" d="M492.799 187.471L481.601 178.168M486.114 204.63L461.479 184.163M470.471 214.346L459.274 205.043M481.669 223.649L497.312 213.933L503.997 196.775L513.713 212.417L530.871 219.102L515.228 228.818L508.544 245.977L498.828 230.334L481.669 223.649Z"/><mask id="path-9-inside-1_5_206" fill="#fff"><path fill-rule="evenodd" d="M324.796 182.225C324.938 180.728 323.837 179.399 322.338 179.257C320.838 179.115 319.508 180.213 319.366 181.71L316.798 208.811L316.027 216.941L315.257 225.071C315.115 226.568 316.215 227.897 317.715 228.039C319.214 228.181 320.545 227.083 320.687 225.586L321.201 220.166L370.072 224.797L369.559 230.217C369.417 231.714 370.518 233.043 372.017 233.185C373.517 233.327 374.847 232.229 374.989 230.732L375.759 222.602L376.53 214.471L377.3 206.341C378.01 198.857 372.506 192.215 365.009 191.504L348.718 189.96C347.219 189.818 345.888 190.917 345.746 192.413L345.104 199.188C345.601 193.95 341.749 189.3 336.5 188.803C331.252 188.305 326.595 192.149 326.099 197.387C325.602 202.626 329.454 207.276 334.703 207.773L322.485 206.615L324.796 182.225ZM334.703 207.773C339.951 208.271 344.608 204.427 345.104 199.188L344.205 208.674L334.703 207.773ZM370.843 216.667L370.586 219.377L321.714 214.746L321.971 212.036L346.407 214.351L370.843 216.667ZM371.87 205.827L371.357 211.247L349.636 209.188L350.92 195.638L364.495 196.924C368.994 197.351 372.296 201.336 371.87 205.827ZM331.529 197.902C331.742 195.657 333.737 194.01 335.987 194.223C338.236 194.436 339.887 196.429 339.674 198.674C339.461 200.919 337.465 202.566 335.216 202.353C332.967 202.14 331.316 200.147 331.529 197.902Z" clip-rule="evenodd"/></mask><path fill="#fff" d="M321.201 220.166L324.345 186.981L291.161 183.836L288.016 217.021L321.201 220.166ZM370.072 224.797L403.257 227.942L406.402 194.757L373.217 191.612L370.072 224.797ZM322.485 206.615L289.3 203.471L286.155 236.655L319.34 239.8L322.485 206.615ZM344.205 208.674L341.061 241.858L374.245 245.003L377.39 211.818L344.205 208.674ZM370.843 216.667L404.028 219.812L407.172 186.627L373.988 183.482L370.843 216.667ZM370.586 219.377L367.441 252.562L400.626 255.706L403.771 222.522L370.586 219.377ZM321.714 214.746L288.529 211.601L285.385 244.786L318.569 247.93L321.714 214.746ZM321.971 212.036L325.116 178.851L291.931 175.706L288.786 208.891L321.971 212.036ZM371.357 211.247L368.212 244.431L401.396 247.576L404.541 214.391L371.357 211.247ZM349.636 209.188L316.451 206.044L313.306 239.228L346.491 242.373L349.636 209.188ZM350.92 195.638L354.064 162.453L320.88 159.309L317.735 192.493L350.92 195.638ZM357.981 185.369C359.865 165.487 345.251 147.946 325.482 146.073L319.193 212.442C302.423 210.853 290.011 195.969 291.611 179.08L357.981 185.369ZM325.482 146.073C305.714 144.199 288.065 158.683 286.181 178.565L352.55 184.855C350.95 201.743 335.963 214.031 319.193 212.442L325.482 146.073ZM286.181 178.565L283.613 205.666L349.982 211.956L352.55 184.855L286.181 178.565ZM283.613 205.666L282.842 213.796L349.212 220.086L349.982 211.956L283.613 205.666ZM282.842 213.796L282.072 221.927L348.441 228.216L349.212 220.086L282.842 213.796ZM282.072 221.927C280.188 241.809 294.802 259.35 314.57 261.223L320.86 194.854C337.629 196.443 350.042 211.327 348.441 228.216L282.072 221.927ZM314.57 261.223C334.339 263.097 351.987 248.613 353.872 228.731L287.502 222.441C289.103 205.552 304.09 193.265 320.86 194.854L314.57 261.223ZM353.872 228.731L354.385 223.311L288.016 217.021L287.502 222.441L353.872 228.731ZM318.056 253.35L366.928 257.982L373.217 191.612L324.345 186.981L318.056 253.35ZM336.888 221.652L336.374 227.073L402.743 233.362L403.257 227.942L336.888 221.652ZM336.374 227.073C334.49 246.955 349.103 264.496 368.872 266.369L375.162 200C391.932 201.589 404.344 216.473 402.743 233.362L336.374 227.073ZM368.872 266.369C388.641 268.243 406.29 253.759 408.174 233.877L341.804 227.587C343.405 210.699 358.392 198.411 375.162 200L368.872 266.369ZM408.174 233.877L408.944 225.746L342.575 219.457L341.804 227.587L408.174 233.877ZM408.944 225.746L409.715 217.616L343.345 211.327L342.575 219.457L408.944 225.746ZM409.715 217.616L410.485 209.486L344.116 203.196L343.345 211.327L409.715 217.616ZM410.485 209.486C412.937 183.617 393.92 160.761 368.154 158.32L361.864 224.689C351.092 223.668 343.083 214.098 344.116 203.196L410.485 209.486ZM368.154 158.32L351.863 156.776L345.574 223.145L361.864 224.689L368.154 158.32ZM351.863 156.776C332.094 154.902 314.446 169.387 312.562 189.269L378.931 195.558C377.331 212.446 362.344 224.734 345.574 223.145L351.863 156.776ZM312.562 189.269L311.92 196.044L378.289 202.333L378.931 195.558L312.562 189.269ZM378.289 202.333C380.528 178.709 363.163 157.847 339.645 155.618L333.356 221.987C320.335 220.753 310.674 209.191 311.92 196.044L378.289 202.333ZM339.645 155.618C316.127 153.389 295.153 170.619 292.914 194.243L359.283 200.532C358.037 213.679 346.377 223.221 333.356 221.987L339.645 155.618ZM292.914 194.243C290.675 217.867 308.04 238.729 331.558 240.958L337.847 174.589C350.868 175.822 360.529 187.385 359.283 200.532L292.914 194.243ZM337.847 174.589L325.629 173.431L319.34 239.8L331.558 240.958L337.847 174.589ZM355.669 209.76L357.981 185.369L291.611 179.08L289.3 203.471L355.669 209.76ZM331.558 240.958C355.076 243.187 376.05 225.957 378.289 202.333L311.92 196.044C313.166 182.897 324.826 173.355 337.847 174.589L331.558 240.958ZM311.92 196.044L311.021 205.529L377.39 211.818L378.289 202.333L311.92 196.044ZM347.35 175.489L337.847 174.589L331.558 240.958L341.061 241.858L347.35 175.489ZM337.658 213.522L337.401 216.232L403.771 222.522L404.028 219.812L337.658 213.522ZM373.731 186.192L324.859 181.561L318.569 247.93L367.441 252.562L373.731 186.192ZM354.899 217.89L355.156 215.18L288.786 208.891L288.529 211.601L354.899 217.89ZM318.826 245.22L343.262 247.536L349.552 181.167L325.116 178.851L318.826 245.22ZM343.262 247.536L367.698 249.852L373.988 183.482L349.552 181.167L343.262 247.536ZM338.686 202.682L338.172 208.102L404.541 214.391L405.055 208.971L338.686 202.682ZM374.501 178.062L352.78 176.004L346.491 242.373L368.212 244.431L374.501 178.062ZM382.82 212.333L384.104 198.783L317.735 192.493L316.451 206.044L382.82 212.333ZM347.775 228.823L361.351 230.109L367.64 163.74L354.064 162.453L347.775 228.823ZM361.351 230.109C347.58 228.804 337.369 216.577 338.686 202.682L405.055 208.971C407.223 186.096 390.408 165.897 367.64 163.74L361.351 230.109ZM364.713 201.047C363.184 217.187 348.862 228.926 332.842 227.407L339.131 161.038C318.613 159.094 300.299 174.127 298.344 194.757L364.713 201.047ZM332.842 227.407C316.822 225.889 304.96 211.669 306.489 195.529L372.859 201.819C374.814 181.188 359.65 162.983 339.131 161.038L332.842 227.407ZM306.489 195.529C308.019 179.389 322.34 167.65 338.361 169.168L332.072 235.538C352.591 237.482 370.904 222.449 372.859 201.819L306.489 195.529ZM338.361 169.168C354.381 170.687 366.243 184.907 364.713 201.047L298.344 194.757C296.389 215.387 311.552 233.593 332.072 235.538L338.361 169.168Z" mask="url(#path-9-inside-1_5_206)"/><path stroke="#fff" stroke-linecap="round" stroke-linejoin="round" stroke-width="7" d="M395.064 309.012C393.372 316.533 398.168 324.017 405.777 325.729L426.442 330.379C432.782 331.805 439.077 327.831 440.501 321.501C441.558 316.802 439.701 311.824 436.044 309.143C437.291 301.596 432.376 294.281 424.736 292.562C418.771 291.22 412.806 293.852 409.493 298.49C402.354 298.054 396.466 302.779 395.064 309.012Z"/><path stroke="#fff" stroke-linecap="round" stroke-linejoin="round" stroke-width="6" d="M277.932 290.381C278.054 289.038 278.116 288.366 278.417 288.063C278.679 287.8 279.048 287.674 279.416 287.723C279.84 287.779 280.299 288.273 281.217 289.262L288.528 297.135C288.799 297.427 288.935 297.574 289.099 297.665C289.244 297.746 289.404 297.795 289.57 297.81C289.757 297.827 289.952 297.783 290.341 297.694L300.83 295.31C302.147 295.011 302.805 294.861 303.186 295.053C303.518 295.22 303.751 295.532 303.818 295.897C303.896 296.317 303.567 296.906 302.909 298.084L297.666 307.469C297.471 307.817 297.374 307.992 297.338 308.176C297.305 308.339 297.308 308.507 297.344 308.668C297.386 308.851 297.488 309.023 297.692 309.365L303.196 318.591C303.887 319.75 304.232 320.329 304.167 320.75C304.11 321.117 303.885 321.436 303.558 321.613C303.182 321.816 302.52 321.686 301.195 321.426L290.644 319.352C290.253 319.275 290.057 319.237 289.87 319.259C289.705 319.279 289.546 319.333 289.403 319.418C289.242 319.515 289.11 319.665 288.847 319.965L281.76 328.051C280.87 329.067 280.425 329.574 280.003 329.643C279.637 329.702 279.264 329.587 278.995 329.332C278.685 329.038 278.605 328.368 278.445 327.029L277.166 316.363C277.119 315.967 277.095 315.769 277.016 315.598C276.947 315.448 276.846 315.313 276.721 315.204C276.579 315.081 276.396 315.002 276.029 314.845L266.146 310.617C264.905 310.086 264.284 309.82 264.089 309.441C263.92 309.111 263.914 308.721 264.074 308.387C264.259 308.002 264.872 307.718 266.097 307.151L275.858 302.632C276.221 302.464 276.402 302.38 276.539 302.252C276.661 302.14 276.758 302.002 276.824 301.85C276.898 301.677 276.916 301.478 276.952 301.081L277.932 290.381Z"/></svg>