<svg xmlns="http://www.w3.org/2000/svg" width="700" height="500" fill="none" viewBox="0 0 700 500"><path fill="#000" stroke="#000" stroke-width="20" d="M113.466 205.408L113 211L112 225L108.5 274L108 284.5V284.594C108 284.861 108.062 285.124 108.182 285.363C108.385 285.771 108.743 286.081 109.176 286.225L109.647 286.382C109.881 286.46 110.125 286.509 110.371 286.525L129.518 287.831C131.164 287.943 132.818 287.818 134.429 287.46L134.634 287.415C135.873 287.139 137.074 286.713 138.209 286.145C139.068 285.716 139.964 285.367 140.887 285.104L143 284.5L143.632 284.289C145.179 283.774 146.84 283.71 148.421 284.105C149.464 284.366 150.449 284.821 151.324 285.446L153.5 287C155.497 288.331 157.598 289.499 159.782 290.492L162 291.5C162.645 291.823 163.385 291.904 164.085 291.729L165 291.5L166.364 291.159C166.785 291.054 167.185 290.877 167.546 290.636L167.565 290.623C168.175 290.217 168.891 290 169.624 290H170.121C170.37 290 170.616 290.058 170.839 290.17C171.259 290.379 171.565 290.762 171.679 291.217L171.824 291.796C171.94 292.258 171.94 292.742 171.824 293.204L171.5 294.5L170.5 298.5L169.556 302.75C169.519 302.916 169.462 303.077 169.385 303.229C169.139 303.723 168.706 304.098 168.182 304.273L167.72 304.427C167.573 304.476 167.431 304.535 167.293 304.604L165.5 305.5L164.083 306.444C163.034 307.144 162.099 308.001 161.311 308.986C160.772 309.66 160.305 310.389 159.919 311.161L159.435 312.131C158.813 313.374 158.308 314.673 157.926 316.009L157.5 317.5L157 321C156.668 323.322 156.668 325.678 157 328L157.5 331L158.5 335L158.964 336.391C158.988 336.463 159.017 336.534 159.052 336.603L159.276 337.053C159.413 337.327 159.694 337.5 160 337.5C160.329 337.5 160.653 337.423 160.947 337.276L161.123 337.189C161.373 337.063 161.64 336.975 161.915 336.925L172.085 335.075C172.36 335.025 172.627 334.937 172.877 334.811L173.053 334.724C173.347 334.577 173.671 334.5 174 334.5H174.036C174.341 334.5 174.642 334.571 174.915 334.707C175.295 334.897 175.603 335.205 175.793 335.585L175.887 335.774C175.962 335.924 176.052 336.067 176.155 336.2L183.622 345.863C184.176 346.58 185.031 347 185.937 347C186.309 347 186.678 346.929 187.023 346.791L188.265 346.294C188.754 346.098 189.227 345.864 189.678 345.593L190.181 345.291C191.059 344.765 191.887 344.161 192.657 343.487L195.5 341C197.158 339.342 198.57 337.455 199.693 335.396L201 333L202.241 330.766C203.075 329.266 203.657 327.638 203.964 325.949L204.292 324.146C204.429 323.389 204.422 322.612 204.272 321.858L204.263 321.815C204.09 320.949 203.725 320.133 203.195 319.427C202.736 318.815 202.163 318.298 201.507 317.904L200 317L199.671 316.835C199.23 316.615 198.743 316.5 198.25 316.5H197.642C197.549 316.5 197.456 316.522 197.373 316.564L197.299 316.6C196.932 316.784 196.5 316.517 196.5 316.106C196.5 316.036 196.487 315.966 196.46 315.901L195.5 313.5C194.877 312.254 194.934 310.777 195.65 309.583L196 309L199 304.5L199.752 303.56C200.579 302.527 201.237 301.369 201.702 300.129L201.944 299.482C202.312 298.502 202.5 297.464 202.5 296.417C202.5 295.478 202.349 294.546 202.052 293.656L202 293.5L201.5 291.5L201.445 291.335C201.182 290.547 201.48 289.68 202.171 289.219C202.388 289.075 202.633 288.978 202.89 288.935L205.5 288.5L209 288L211.691 287.266C213.557 286.757 215.355 286.025 217.045 285.086L218.779 284.123C218.926 284.041 219.08 283.973 219.24 283.92C220.035 283.655 220.908 283.772 221.606 284.237L221.778 284.352C221.926 284.45 222.082 284.536 222.244 284.609L224.76 285.727C225.917 286.241 227.121 286.643 228.355 286.928L232.067 287.785C232.68 287.926 233.318 287.92 233.929 287.768L234.725 287.569C234.905 287.524 235.069 287.431 235.2 287.3C235.392 287.108 235.652 287 235.924 287H237.5H238.141C238.706 287 239.263 287.132 239.769 287.384C239.923 287.461 240.082 287.527 240.245 287.582L240.57 287.69C241.188 287.896 241.828 288.03 242.477 288.089L263.5 290H265.382C266.117 290 266.842 289.829 267.5 289.5C268.158 289.171 268.883 289 269.618 289H274H280H282.512C283.819 289 285.109 289.304 286.278 289.889L286.662 290.081C287.217 290.359 287.724 290.724 288.162 291.162C288.715 291.715 289.374 292.15 290.1 292.44L290.211 292.484C291.06 292.824 291.973 292.976 292.887 292.931L321.5 291.5L337 290.5H338.469C339.15 290.5 339.825 290.63 340.457 290.883L340.977 291.091C341.643 291.357 342.213 291.82 342.611 292.416C342.868 292.802 343.047 293.234 343.138 293.688L343.249 294.243C343.415 295.073 343.415 295.927 343.249 296.757L343.201 296.997C343.067 297.663 342.846 298.308 342.543 298.915L341 302L339.811 304.378C338.941 306.118 338.307 307.967 337.925 309.875C337.642 311.288 337.5 312.726 337.5 314.168V314.653C337.5 317.532 337.975 320.426 338.886 323.158C339.291 324.374 339.788 325.576 340.361 326.723L341.136 328.272C342.041 330.083 343.181 331.767 344.527 333.28L344.739 333.518C345.908 334.834 347.241 335.994 348.706 336.971C350.229 337.986 351.88 338.793 353.616 339.372L355.27 339.923C356.422 340.307 357.601 340.6 358.799 340.8C361.576 341.263 364.415 341.217 367.177 340.665L367.673 340.565C369.552 340.19 371.383 339.607 373.134 338.829L375.906 337.597C378.276 336.544 380.396 335.004 382.131 333.077C383.37 331.7 384.395 330.145 385.171 328.463L385.73 327.252C386.574 325.423 387.213 323.506 387.635 321.537L387.98 319.925C388.326 318.313 388.5 316.669 388.5 315.02C388.5 312.686 388.151 310.366 387.465 308.136L387.077 306.875C386.693 305.627 386.207 304.413 385.623 303.246L385.216 302.432C384.74 301.48 384.165 300.581 383.5 299.75L383.117 299.271C382.707 298.758 382.352 298.204 382.058 297.617C381.688 296.876 381.418 296.088 381.255 295.276L381.186 294.929C381.062 294.311 381 293.683 381 293.053V292.788C381 291.935 381.138 291.087 381.407 290.278L381.527 289.918C381.838 288.985 382.362 288.138 383.057 287.443L383.186 287.314C383.395 287.105 383.624 286.917 383.87 286.754C384.607 286.262 385.473 286 386.358 286H386.686C387.55 286 388.402 286.201 389.176 286.588L390 287L392.5 288.5L394.379 289.439C395.791 290.146 397.252 290.751 398.75 291.25C400.248 291.749 401.78 292.142 403.333 292.424L403.424 292.441C405.471 292.813 407.546 293 409.626 293H410L414 292.5L417.177 291.819C419.722 291.274 422.22 290.531 424.649 289.596L427.5 288.5L430.916 286.602C431.635 286.203 432.295 285.705 432.877 285.123L433.17 284.83C434.042 283.958 435.122 283.322 436.308 282.983L436.421 282.951C437.459 282.655 438.552 282.61 439.61 282.822L439.696 282.839C440.23 282.946 440.746 283.123 441.233 283.366C442.685 284.092 443.788 285.365 444.302 286.905L444.5 287.5L445.066 288.821C445.648 290.179 446.881 291.147 448.338 291.39C448.777 291.463 449.224 291.468 449.664 291.405L451.746 291.108C452.248 291.036 452.754 291 453.261 291H454.356C454.783 291 455.206 291.069 455.611 291.204C456.196 291.399 456.727 291.727 457.163 292.163L457.557 292.557C457.852 292.852 458.116 293.175 458.348 293.522L458.425 293.638C458.807 294.21 459.11 294.831 459.328 295.483L460.238 298.215C460.412 298.737 460.643 299.238 460.926 299.71C461.629 300.881 462 302.222 462 303.588V304V304.264C462 305.734 461.658 307.185 461 308.5L460.325 309.512C460.109 309.837 459.861 310.139 459.585 310.415C458.874 311.126 458.355 312.008 458.078 312.976L457.851 313.772C457.618 314.587 457.5 315.43 457.5 316.277V317.556C457.5 318.847 457.658 320.133 457.972 321.386L458.09 321.859C458.362 322.948 458.782 323.994 459.339 324.969C460.106 326.311 461.12 327.496 462.327 328.461L463 329L465.5 330.5L467.876 331.518C468.622 331.838 469.321 332.257 469.955 332.764L470.658 333.327C471.213 333.77 471.664 334.329 471.982 334.964C472.323 335.645 472.5 336.397 472.5 337.158V338V339.5V340.209C472.5 341.047 472.772 341.862 473.274 342.532L473.472 342.795C473.816 343.254 474.292 343.597 474.836 343.779C475.272 343.924 475.737 343.96 476.191 343.885L477.78 343.62C478.259 343.54 478.732 343.423 479.193 343.269L495.587 337.804C497.182 337.273 498.663 336.448 499.954 335.372C500.65 334.792 501.285 334.144 501.851 333.437L503 332L503.246 331.631C504.41 329.885 505.336 327.991 506 326L507 323.5L507.892 320.823C507.964 320.608 508.051 320.398 508.152 320.195C508.383 319.735 508.686 319.314 509.05 318.95L509.5 318.5C510.162 317.838 510.927 317.286 511.765 316.868L512.631 316.435C513.209 316.146 513.816 315.921 514.443 315.764C515.145 315.589 515.866 315.5 516.59 315.5H517.5H518.02C519.315 315.5 520.587 315.148 521.698 314.481C522.23 314.162 522.719 313.774 523.151 313.329L551.746 283.854C553.911 281.623 555.862 279.195 557.576 276.601L573.5 252.5C573.829 251.842 574 251.117 574 250.382V249.034C574 248.346 573.932 247.66 573.797 246.986L573.5 245.5L572.797 241.986C572.6 240.998 572.5 239.992 572.5 238.984V236.982C572.5 236.663 572.551 236.346 572.652 236.043C572.877 235.37 573.334 234.799 573.942 234.435L575.5 233.5L578 232L581.23 229.651C582.739 228.554 584.12 227.292 585.348 225.888L585.925 225.228C586.64 224.412 587.271 223.525 587.81 222.583C588.599 221.202 589.182 219.713 589.539 218.163L590.008 216.134C590.335 214.713 590.561 213.271 590.682 211.818L591 208L591.5 204.5L591.837 202.816C591.945 202.273 592.103 201.741 592.309 201.227L592.707 200.233C592.9 199.749 593.19 199.31 593.558 198.942L593.741 198.759C593.913 198.587 594.111 198.445 594.327 198.336L594.415 198.293C594.795 198.103 595.103 197.795 595.293 197.415C595.429 197.142 595.5 196.841 595.5 196.536V196V195.886C595.5 195.343 595.193 194.847 594.708 194.604C594.57 194.535 594.444 194.444 594.336 194.336L593.5 193.5L590.5 190.5C589.219 188.899 587.355 187.873 585.318 187.646L584 187.5H582.6C581.871 187.5 581.148 187.617 580.457 187.848L580.245 187.918C580.082 187.973 579.923 188.039 579.769 188.116L579.287 188.357C579.098 188.451 578.89 188.5 578.679 188.5C578.252 188.5 577.849 188.299 577.592 187.957L576.784 186.879C576.595 186.627 576.378 186.398 576.136 186.197L574.838 185.115C573.948 184.373 572.99 183.717 571.977 183.154L569 181.5L565.509 179.755C564.505 179.252 563.541 178.672 562.627 178.019L562.364 177.831C561.126 176.947 560 175.916 559.01 174.761L557.742 173.282C557.581 173.095 557.444 172.888 557.334 172.668L556.724 171.447C556.587 171.173 556.306 171 556 171C555.387 171 554.827 171.346 554.553 171.894L554.5 172L553.5 174.5L551.5 182.5L551.036 185.284C551.012 185.427 550.967 185.566 550.902 185.696C550.656 186.189 550.152 186.5 549.601 186.5H549L547.19 186.274C545.733 186.092 544.293 185.788 542.886 185.366L541.162 184.849C540.39 184.617 539.647 184.298 538.947 183.898L536.67 182.597C536.558 182.533 536.433 182.5 536.305 182.5C536.11 182.5 535.923 182.577 535.785 182.715L535.5 183C535.18 183.32 535 183.754 535 184.207V186.5C535 188.49 535.277 190.471 535.824 192.385L536 193L536.542 194.627C537.505 197.515 539.019 200.189 541 202.5C541.331 202.831 541.607 203.214 541.816 203.632L542 204L543 206.5L545 210.5L547.305 213.957C547.767 214.651 548.297 215.297 548.887 215.887L550.736 217.736C550.91 217.91 551.04 218.121 551.118 218.354C551.344 219.031 551.088 219.774 550.495 220.17L550.329 220.281C550.112 220.425 549.867 220.522 549.61 220.565L547 221L543 221.5H537.5H534.791C534.598 221.5 534.405 221.532 534.223 221.592C533.497 221.834 533 222.516 533 223.281C533 223.427 533.018 223.571 533.053 223.712L533.232 224.427C533.406 225.125 533.356 225.859 533.089 226.527C532.716 227.461 531.949 228.184 530.995 228.502L529.988 228.837C529.663 228.946 529.329 229.024 528.99 229.073L526 229.5L522.5 230L505.721 233.174C504.587 233.389 503.514 233.847 502.575 234.518L502.391 234.65C501.161 235.528 499.688 236 498.177 236C497.397 236 496.623 235.874 495.884 235.628L494.914 235.305C494.305 235.102 493.712 234.856 493.139 234.569L491 233.5C489.34 232.836 487.603 232.38 485.831 232.144L481 231.5L475.5 231H470.5L468.111 231.184C465.375 231.394 462.662 231.835 460 232.5L457.5 233.5C456.503 233.832 455.471 234.046 454.425 234.137L444.927 234.963C444.651 234.987 444.393 235.107 444.197 235.303C444.067 235.433 443.97 235.59 443.912 235.764L443.5 237L443.398 237.307C443.136 238.092 442.696 238.804 442.111 239.389C441.706 239.794 441.239 240.131 440.727 240.386L440.474 240.513C439.189 241.156 437.738 241.391 436.315 241.188L435 241C432.702 240.672 430.518 239.786 428.641 238.421L427.767 237.785C426.593 236.931 425.323 236.218 423.984 235.66L423.118 235.299C421.048 234.436 418.877 233.84 416.657 233.522L415.51 233.359C413.839 233.12 412.153 233 410.464 233H406.5L406.22 233.028C403.083 233.342 399.991 234.003 397 235L393 236.5L391.136 237.432C390.379 237.81 389.598 238.134 388.796 238.401C387.602 238.799 386.369 239.07 385.119 239.209L382.5 239.5H378H377.041C375.017 239.5 372.997 239.333 371 239L368.313 238.328C367.44 238.11 366.594 237.797 365.789 237.395L365.386 237.193C364.468 236.734 363.63 236.13 362.904 235.404C362.304 234.804 361.787 234.127 361.366 233.39L360.85 232.488C360.285 231.498 359.818 230.455 359.458 229.374L359 228L358.962 227.865C358.324 225.633 358 223.322 358 221V220.193C358 218.414 358.339 216.651 359 215L361 210.5C362.655 207.19 363.75 203.628 364.239 199.959L364.5 198V196.991C364.5 195.335 364.319 193.685 363.96 192.068C363.654 190.692 363.221 189.348 362.665 188.052L362 186.5L361.254 185.257C360.752 184.42 360.186 183.623 359.561 182.874C358.525 181.63 357.333 180.524 356.015 179.582L355.826 179.447C354.943 178.817 354.013 178.256 353.042 177.771L352.238 177.369C351.083 176.791 349.868 176.342 348.615 176.029C347.21 175.678 345.768 175.5 344.32 175.5H342.5L338.5 176L337.136 176.341C336.715 176.446 336.315 176.623 335.954 176.864L335.351 177.266C335.122 177.418 334.853 177.5 334.578 177.5C334.208 177.5 333.853 177.353 333.591 177.091L332.5 176L332.133 175.694C330.391 174.243 328.407 173.11 326.273 172.347C323.784 171.459 321.139 171.091 318.503 171.266L318.129 171.291C316.055 171.43 314.013 171.879 312.073 172.626C309.711 173.534 307.536 174.868 305.654 176.561L305.523 176.679C304.18 177.888 302.993 179.261 301.99 180.765L301.767 181.099C300.925 182.363 300.216 183.711 299.652 185.121L299.539 185.402C298.85 187.125 298.406 188.937 298.222 190.784C298.074 192.257 298.093 193.741 298.276 195.21L298.306 195.451C298.435 196.482 298.637 197.503 298.911 198.506L299.038 198.972C299.677 201.315 300.61 203.567 301.814 205.675L302 206L309 216L310.267 217.901C310.754 218.632 311.164 219.411 311.491 220.227C311.829 221.073 312.076 221.954 312.225 222.853L312.283 223.199C312.427 224.065 312.5 224.941 312.5 225.819V226.65C312.5 227.215 312.444 227.779 312.333 228.334L312.247 228.763C312.084 229.58 311.762 230.357 311.3 231.05C310.461 232.309 309.201 233.228 307.746 233.644L306.5 234C304.503 234.666 302.46 235.189 300.389 235.566L298 236L295.94 236.515C294.652 236.837 293.328 237 292 237H290.5H288.5H287.1C286.371 237 285.648 236.883 284.957 236.652C284.653 236.551 284.356 236.428 284.069 236.285L284.048 236.274C283.683 236.092 283.304 235.941 282.913 235.824L278.5 234.5L274 233.5C272.003 233.167 269.983 233 267.959 233H266H261.791C261.267 233 260.747 233.084 260.25 233.25C259.753 233.416 259.233 233.5 258.709 233.5H257.5H256.877C256.296 233.5 255.719 233.406 255.168 233.223C254.725 233.075 254.264 232.985 253.797 232.956L247.36 232.554C246.792 232.518 246.222 232.593 245.682 232.773C245.23 232.923 244.757 233 244.281 233H242.5H239.5H239.062C237.692 233 236.328 232.832 235 232.5L232.5 231.5C231.508 231.169 230.465 231.021 229.42 231.061L218 231.5H217.541C215.517 231.5 213.497 231.667 211.5 232L211.01 232.122C210.019 232.37 208.981 232.37 207.99 232.122C207.664 232.041 207.332 231.986 206.997 231.958L201.5 231.5H199.651C198.901 231.5 198.167 231.278 197.542 230.861C197.183 230.622 196.868 230.324 196.609 229.979L196.154 229.371C195.72 228.793 195.364 228.16 195.095 227.489L194.88 226.95C194.627 226.318 194.426 225.666 194.278 225.001L191.5 212.5L189 202.5L188.664 200.486C188.555 199.83 188.5 199.166 188.5 198.5C188.5 197.834 188.555 197.17 188.664 196.514L189 194.5L189.401 192.496C189.467 192.167 189.576 191.848 189.726 191.548C189.908 191.185 190.146 190.854 190.433 190.567L192.591 188.409C192.863 188.137 193.155 187.884 193.463 187.653L193.625 187.531C194.529 186.853 195.263 185.974 195.769 184.963L195.785 184.931C195.928 184.644 196.051 184.347 196.152 184.043L196.304 183.589C196.434 183.199 196.5 182.79 196.5 182.379C196.5 182.127 196.475 181.876 196.426 181.628L193.736 168.178C193.58 167.4 193.274 166.66 192.834 166C192.612 165.668 192.358 165.358 192.075 165.075L191.925 164.925C191.642 164.642 191.332 164.388 191 164.166L190.906 164.104C190.308 163.705 189.637 163.427 188.933 163.287L188.682 163.236C187.907 163.081 187.106 163.131 186.356 163.381C186.119 163.46 185.889 163.559 185.668 163.676L170.13 171.902C169.381 172.298 168.695 172.805 168.096 173.404L167.814 173.686C167.605 173.895 167.417 174.124 167.254 174.37C166.762 175.107 166.5 175.973 166.5 176.858V177.041C166.5 177.346 166.527 177.651 166.582 177.952L168.5 188.5L171.929 207.114C171.975 207.364 171.938 207.623 171.824 207.851L171.724 208.053C171.587 208.327 171.306 208.5 171 208.5H170H169.55C167.854 208.5 166.163 208.667 164.5 209L162.5 209.5L161.067 210.073C160.357 210.357 159.67 210.698 159.014 211.091L158.154 211.608C157.72 211.868 157.319 212.181 156.961 212.539C156.013 213.487 154.782 214.103 153.455 214.292L153.188 214.33C152.402 214.443 151.602 214.42 150.823 214.265L150.597 214.219C149.869 214.074 149.164 213.832 148.499 213.5L147.893 213.196C146.967 212.734 146.099 212.165 145.304 211.503L144.694 210.995C143.901 210.334 143.187 209.583 142.567 208.757C142.19 208.253 141.777 207.777 141.331 207.331L140.038 206.038C139.68 205.68 139.296 205.347 138.891 205.043L138.19 204.517C137.733 204.175 137.224 203.908 136.682 203.727C136.229 203.576 135.758 203.487 135.282 203.462L117 202.5H116.345C115.794 202.5 115.255 202.663 114.797 202.969C114.28 203.313 113.893 203.82 113.697 204.409L113.629 204.612C113.543 204.87 113.489 205.137 113.466 205.408Z"/><path fill="#fff" d="M175.546 282.841L165.953 289.714C164.843 290.506 163.866 290.731 163.004 290.674C162.621 290.649 145.114 286.225 146.394 266.779C147.157 255.188 142.064 250.716 135.167 250.262L134.688 250.23L132.398 285.003C132.323 286.153 131.404 286.958 130.35 286.889L111.192 285.627C110.042 285.552 109.237 284.633 109.312 283.483L114.471 205.125C114.54 204.071 115.466 203.17 116.615 203.246L135.774 204.507C136.827 204.576 137.626 205.591 137.557 206.645L135.917 231.551C137.073 231.531 138.223 231.606 139.276 231.676C157.285 232.861 170.948 244.536 169.987 263.522C169.673 269.755 170.603 274.626 175.05 278.671C175.594 279.188 176.584 280.216 176.515 281.269C176.483 281.748 176.254 282.31 175.546 282.841Z"/><path fill="#fff" d="M240.872 271.983L236.233 284.182C235.553 285.9 234.694 286.864 233.453 287.001C232.499 287.106 225.651 286.318 220.385 282.361C215.708 285.485 210.681 287.2 205.815 287.738C189.88 289.499 174.79 278.804 173.092 263.442C171.826 251.992 178.112 234.588 197.005 232.499C201.776 231.972 206.567 232.505 210.468 233.716C210.967 232.984 211.794 232.603 212.939 232.477L213.416 232.424L230.082 232.031C232.584 231.947 233.389 233.114 233.515 234.259L233.568 234.736C233.192 243.567 232.774 252.016 233.47 258.313C234.103 264.039 235.606 268.026 238.838 269.31C239.845 269.682 240.958 270.138 241.064 271.092C241.085 271.283 241.021 271.58 240.872 271.983ZM212.145 268.108C211.584 265.658 211.098 263.008 210.771 260.05C210.497 257.569 210.307 254.982 210.182 252.098C208.826 250.317 206.102 249.265 203.335 249.571C197.323 250.236 194.627 256.426 195.165 261.292C195.756 266.635 199.983 270.804 206.186 270.119C207.999 269.918 210.056 269.304 212.145 268.108Z"/><path fill="#fff" d="M262.027 289.056L242.963 287.428C241.822 287.267 240.979 286.372 241.14 285.232L245.465 235.427C245.626 234.286 246.616 233.457 247.662 233.604L258.769 234.592C264.13 233.702 269.181 233.64 273.933 234.312C277.165 234.769 280.248 235.592 283.101 236.674C284.473 237.256 284.936 238.097 284.775 239.238C284.721 239.618 284.572 239.985 284.41 240.447L279.759 253.46C279.286 254.75 278.241 255.281 277.1 255.12C276.815 255.08 276.449 254.931 276.082 254.782C274.628 254.092 273.052 253.578 271.436 253.35C270.106 253.162 268.748 253.164 267.173 253.329L264.223 287.234L264.196 287.424C264.049 288.47 263.072 289.204 262.027 289.056Z"/><path fill="#fff" d="M340.069 289.243L322.221 290.33L322.029 290.331C321.069 290.338 320.294 289.479 320.191 288.424L319.087 268.175C318.539 258.483 316.494 254.465 310.443 254.028L312.418 288.863C312.426 290.015 311.664 290.884 310.609 290.988L292.664 291.979L292.472 291.981C291.512 291.987 290.737 291.129 290.634 290.074L287.88 240.172L287.879 239.98C287.871 238.924 288.634 238.151 289.593 238.048L295.351 237.719C300.235 236.052 305.029 235.25 309.637 235.217C313.957 235.187 317.994 235.83 321.748 237.244C327.876 234.896 333.724 233.799 339.1 233.76C355.995 233.641 368.455 244.208 369.634 261.673C370.063 267.91 371.152 272.606 375.689 276.126C376.269 276.602 377.427 277.554 377.435 278.61C377.438 279.09 377.25 279.667 376.678 280.151C376.679 280.343 368.574 288.177 368.574 288.177C367.525 289.144 366.664 289.534 365.704 289.541C364.36 289.551 349.267 286.682 347.981 267.778C347.428 257.414 345.385 253.588 339.907 252.859L341.878 287.118C341.886 288.27 341.125 289.139 340.069 289.243Z"/><path fill="#fff" d="M440.675 268.005C437.668 286.482 417.227 293.758 403.772 291.568C388.327 289.055 376.596 275.669 379.31 258.993C382.486 239.473 398.728 231.709 415.404 234.423C436.345 237.83 442.679 255.687 440.675 268.005ZM408.991 273.84C415.718 274.935 419.644 269.933 420.523 264.532C420.816 262.731 421.933 253.479 412.268 251.906C404.309 250.611 400.94 256.968 400.246 261.232C399.182 267.77 403.59 272.961 408.991 273.84Z"/><path fill="#fff" d="M504.723 258.65L505.126 261.793C505.81 267.125 507.598 271.251 511.966 274.368C512.599 274.771 513.673 275.601 513.807 276.649C513.881 277.22 513.668 277.828 513.063 278.389C513.087 278.58 504.528 286.55 504.528 286.55C503.674 287.434 502.758 287.842 501.901 287.952C500.187 288.172 484.304 285.08 482.13 268.131L481.714 264.893C480.432 254.895 475.038 251.328 468.038 251.839L470.664 286.636C470.786 287.588 470.039 288.555 469.087 288.677L468.896 288.702L449.73 290.193C448.575 290.244 447.703 289.485 447.557 288.343L443.775 238.499C443.736 237.439 444.483 236.472 445.435 236.35L445.626 236.325L456.363 235.528C459.979 234.29 463.454 233.457 466.881 233.018C486.211 230.538 502.39 240.463 504.723 258.65Z"/><path fill="#fff" d="M514.806 313.981L501.499 307.23C500.124 306.512 499.533 305.68 499.63 304.725C499.698 304.056 500.052 303.417 500.597 302.796L517.846 282.061C517.589 281.746 517.446 281.249 517.218 280.647L503.449 238.436C503.23 237.739 503.097 237.146 503.146 236.669C503.281 235.332 504.514 234.588 505.986 234.351L521.627 231.4C522.019 231.343 522.41 231.287 522.792 231.325C524.511 231.499 525.627 232.867 526.132 234.558L534.895 261.402C541.391 253.472 547.696 245.523 553.121 238.643C553.791 237.746 554.518 237.24 555.568 237.347C556.141 237.405 556.982 237.683 557.879 238.353L571.365 247.149C572.453 247.838 572.958 248.564 572.871 249.424C572.726 250.857 563.484 269.701 519.612 313.214C518.551 314.168 517.633 314.654 516.487 314.537C516.009 314.489 515.446 314.336 514.806 313.981Z"/><path stroke="#fff" stroke-linecap="round" stroke-linejoin="round" stroke-width="8" d="M173.522 189.05L178.657 219.292M173.522 189.05L171.751 178.622C171.64 177.97 171.585 177.643 171.645 177.348C171.698 177.086 171.814 176.843 171.984 176.641C172.176 176.411 172.462 176.256 173.034 175.947L185.83 169.025C186.864 168.466 187.381 168.187 187.837 168.224C188.236 168.257 188.608 168.444 188.878 168.747C189.186 169.093 189.286 169.683 189.486 170.862L191.257 181.289C191.367 181.942 191.423 182.268 191.363 182.564C191.31 182.825 191.193 183.068 191.024 183.271C190.832 183.5 190.546 183.655 189.974 183.964L177.177 190.886C176.143 191.445 175.626 191.725 175.171 191.687C174.772 191.654 174.399 191.467 174.13 191.164C173.822 190.818 173.722 190.229 173.522 189.05ZM178.657 219.292C179.395 223.637 175.157 227.981 169.191 228.994C163.224 230.007 157.79 227.306 157.052 222.961C156.314 218.615 160.553 214.272 166.519 213.259C172.485 212.246 177.919 214.947 178.657 219.292Z"/><path fill-rule="evenodd" stroke="#fff" stroke-linecap="round" stroke-linejoin="round" stroke-width="9" d="M332.994 184.8C328.584 177.383 319.706 173.805 311.778 178.548C303.85 183.291 301.181 193.033 305.41 200.972C308.927 207.572 320.484 222.201 324.281 226.946C324.705 227.477 324.918 227.742 325.195 227.879C325.437 227.999 325.716 228.047 325.984 228.014C326.291 227.977 326.58 227.797 327.157 227.438C332.315 224.226 348.08 214.274 353.592 209.219C360.221 203.139 361.073 193.022 355.044 185.954C349.016 178.886 339.62 179.272 332.994 184.8Z" clip-rule="evenodd"/><path fill="#fff" d="M592.975 194.39C592.47 193.922 591.974 193.366 591.449 192.778C589.359 190.436 586.497 187.229 581.061 188.466C579.881 188.734 578.87 189.242 578.003 189.902C574.924 185.004 571.093 183.229 567.371 181.507C563.966 179.932 560.75 178.444 557.764 174.477L555.523 171.5L554.22 174.994C554.127 175.243 552.133 180.656 551.538 187.757C547.131 187.216 542.673 186.52 538.503 185.006L535.819 184.032L535.762 186.879C535.758 187.085 535.691 191.998 538.287 197.236C539.253 199.184 540.669 201.325 542.736 203.278C543.264 204.783 544.997 209.27 548.193 213.479C550.653 216.719 553.418 219.058 556.415 220.47C553.135 221.501 547.412 222.739 538.589 222.887L533.842 222.967L537.162 226.342C537.34 226.523 541.611 230.814 548.789 233.521C553.019 235.116 557.391 235.834 561.786 235.656C563.799 235.574 565.816 235.303 567.828 234.845C571.283 234.059 574.727 232.722 578.119 230.845C588.81 224.929 589.742 214.256 590.422 206.463C590.774 202.438 591.106 198.636 592.713 197.566L594.856 196.139L592.975 194.39ZM557.032 179.782C559.915 182.542 562.921 183.932 565.648 185.194C569.388 186.924 572.649 188.433 575.215 193.216C574.832 193.893 574.512 194.588 574.244 195.267C573.578 194.522 572.793 193.776 571.869 193.028C567.923 189.83 561.976 188.979 555.594 188.232C555.866 184.889 556.484 181.912 557.032 179.782ZM586.358 206.118C586.034 209.824 585.668 214.024 584.25 217.829C582.678 222.048 580.027 225.144 576.144 227.293C571.373 229.932 566.524 231.378 561.731 231.591C557.906 231.76 554.092 231.15 550.392 229.777C547.952 228.871 545.876 227.746 544.24 226.699C555.712 225.836 561.229 223.115 562.982 222.056C564.501 222.104 566.058 221.95 567.646 221.589L566.745 217.627C560.954 218.945 555.828 216.749 551.507 211.101C550.574 209.881 549.777 208.621 549.109 207.431C551.377 208.41 554.043 209.146 557.175 209.51L557.655 205.473C550.161 204.603 544.899 201.27 542.014 195.568C540.944 193.454 540.401 191.374 540.125 189.787C544.753 191.073 549.557 191.627 553.887 192.127C560.123 192.846 566.013 193.526 569.291 196.182C574.449 200.361 573.894 203.731 572.885 209.847C572.778 210.499 572.667 211.173 572.56 211.871L576.593 212.476C576.696 211.801 576.806 211.139 576.911 210.498C577.512 206.85 578.066 203.487 577.093 200.21C577.391 198.458 578.563 193.201 581.962 192.428C584.903 191.759 586.257 193.083 588.398 195.481C588.512 195.609 588.628 195.738 588.744 195.867C587.04 198.3 586.719 201.987 586.358 206.118Z"/><path fill="#fff" d="M584.03 197.826C584.762 197.659 585.221 196.933 585.056 196.203C584.89 195.474 584.161 195.018 583.429 195.184C582.696 195.351 582.237 196.077 582.403 196.807C582.569 197.536 583.297 197.992 584.03 197.826Z"/><path stroke="#fff" stroke-miterlimit="10" stroke-width="3" d="M161.574 336.279L160.908 334.581C158.233 327.765 158.367 320.146 161.281 313.398C161.905 311.931 162.812 310.601 163.95 309.486C165.087 308.371 166.432 307.492 167.906 306.902C169.367 306.327 170.925 306.048 172.49 306.081C174.056 306.114 175.597 306.459 177.026 307.096L181.04 308.829C182.173 309.318 183.065 310.24 183.521 311.392C183.976 312.544 183.959 313.833 183.472 314.978C182.977 316.124 182.051 317.028 180.897 317.491C179.743 317.954 178.457 317.938 177.32 317.447L170.901 314.676L171.534 315.329C173.947 317.784 175.573 320.91 176.206 324.308C176.838 327.707 176.447 331.223 175.083 334.409M184.679 344.843C191.473 342.116 196.927 336.793 199.84 330.045M171.718 304.805L175.245 289.404C175.54 288.194 176.296 287.148 177.351 286.491C178.405 285.834 179.672 285.621 180.877 285.896C181.136 285.981 181.386 286.089 181.625 286.219C182.626 286.65 183.444 287.419 183.937 288.395C184.43 289.37 184.567 290.49 184.324 291.561L180.206 308.767M181.206 310.067L191.356 294.597C191.96 293.667 192.87 292.98 193.925 292.657C194.981 292.333 196.114 292.394 197.124 292.829C197.383 292.914 197.633 293.022 197.873 293.152C198.899 293.84 199.613 294.909 199.858 296.127C200.103 297.344 199.86 298.613 199.182 299.657L190.365 313.099M191.375 326.092L194.168 319.623C195.198 317.236 194.114 314.473 191.746 313.451C189.379 312.429 186.624 313.535 185.594 315.921L182.801 322.39C181.771 324.777 182.855 327.539 185.223 328.562C187.59 329.584 190.345 328.478 191.375 326.092ZM191.375 326.092C190.345 328.478 191.429 331.241 193.797 332.263C196.164 333.285 198.919 332.18 199.949 329.793L201.814 325.473C202.844 323.087 201.76 320.324 199.392 319.302C197.025 318.28 194.27 319.385 193.24 321.771L191.375 326.092Z"/><path fill="#fff" d="M367.449 302.688C366.065 302.211 364.557 302.946 364.079 304.33C363.602 305.714 364.337 307.222 365.72 307.699C367.104 308.177 368.614 307.442 369.091 306.059C369.569 304.675 368.833 303.165 367.449 302.688Z"/><path fill="#fff" d="M387.599 313.495C387.385 310.338 386.568 307.278 385.176 304.423C383.786 301.567 381.882 299.037 379.527 296.921C377.089 294.728 374.258 293.065 371.139 291.989C368.021 290.914 364.767 290.478 361.496 290.701C358.338 290.916 355.278 291.733 352.423 293.124C349.567 294.514 347.038 296.42 344.922 298.774C342.729 301.211 341.065 304.041 339.989 307.161C338.914 310.28 338.478 313.534 338.702 316.805C338.916 319.963 339.733 323.022 341.125 325.878C342.515 328.734 344.42 331.264 346.774 333.379C349.211 335.572 352.042 337.235 355.16 338.311C358.28 339.387 361.534 339.823 364.805 339.599C367.963 339.385 371.023 338.568 373.878 337.176C376.734 335.786 379.263 333.881 381.379 331.527C383.572 329.089 385.236 326.259 386.311 323.14C387.388 320.02 387.823 316.767 387.599 313.495ZM358.851 327.611C357.468 327.134 356.733 325.626 357.211 324.242C357.688 322.858 359.196 322.124 360.579 322.602C361.963 323.079 362.7 324.587 362.222 325.971C361.745 327.355 360.235 328.089 358.851 327.611ZM371.186 314.642C368.768 315.819 365.901 316.075 363.157 315.129C357.646 313.228 351.639 316.154 349.738 321.665C347.946 326.858 350.443 332.494 355.35 334.716C344.958 330.582 339.553 318.965 343.238 308.282C347.031 297.284 359.022 291.444 370.019 295.238L370.012 295.258C372.755 296.204 374.855 298.174 376.033 300.591C377.21 303.011 377.466 305.878 376.519 308.622C375.573 311.364 373.604 313.464 371.186 314.642Z"/><path fill="#fff" d="M473.715 328.535L480.234 326.5L482.943 335.177L476.424 337.213C475.848 337.393 475.367 337.794 475.086 338.328C474.806 338.862 474.749 339.485 474.929 340.061C475.108 340.636 475.509 341.116 476.044 341.396C476.579 341.676 477.203 341.732 477.779 341.552L495.163 336.123C495.74 335.944 496.221 335.542 496.501 335.008C496.782 334.474 496.839 333.851 496.659 333.276C496.479 332.7 496.078 332.22 495.543 331.94C495.009 331.661 494.385 331.605 493.808 331.785L487.289 333.82L484.58 325.142L491.099 323.107C493.794 322.268 496.082 320.46 497.519 318.032C498.955 315.605 499.438 312.732 498.873 309.971C498.308 307.21 496.736 304.758 494.462 303.091C492.187 301.425 489.373 300.662 486.566 300.951L485.82 298.565C484.922 295.688 482.916 293.286 480.243 291.888C477.57 290.49 474.45 290.21 471.568 291.11C468.687 292.01 466.28 294.016 464.877 296.686C463.475 299.357 463.192 302.473 464.09 305.35L464.835 307.736C462.362 309.096 460.482 311.325 459.56 313.99C458.638 316.654 458.74 319.565 459.847 322.157C460.953 324.749 462.985 326.837 465.548 328.015C468.11 329.194 471.021 329.379 473.715 328.535ZM468.295 311.18C468.872 311 469.353 310.599 469.634 310.065C469.914 309.53 469.971 308.907 469.791 308.332L468.436 303.993C467.897 302.267 468.067 300.397 468.909 298.795C469.75 297.192 471.194 295.989 472.923 295.449C474.652 294.909 476.524 295.077 478.128 295.916C479.732 296.755 480.935 298.196 481.474 299.922L482.829 304.261C483.009 304.836 483.41 305.316 483.945 305.596C484.479 305.875 485.103 305.931 485.68 305.751C487.409 305.212 489.281 305.38 490.885 306.218C492.488 307.057 493.692 308.498 494.231 310.224C494.77 311.95 494.6 313.82 493.759 315.422C492.917 317.025 491.473 318.228 489.744 318.768L483.225 320.804L482.828 319.532L486.877 311.823C487.145 311.29 487.193 310.674 487.01 310.107C486.827 309.539 486.429 309.066 485.901 308.79C485.372 308.514 484.756 308.456 484.184 308.629C483.613 308.802 483.133 309.192 482.846 309.715L480.912 313.397L479.161 307.787C478.981 307.212 478.58 306.731 478.045 306.452C477.51 306.172 476.886 306.116 476.31 306.296C475.734 306.476 475.252 306.877 474.972 307.411C474.691 307.945 474.635 308.569 474.814 309.144L476.566 314.754L472.881 312.827C472.347 312.559 471.73 312.512 471.162 312.695C470.594 312.878 470.12 313.276 469.843 313.804C469.565 314.332 469.507 314.948 469.679 315.518C469.852 316.088 470.242 316.568 470.766 316.854L478.482 320.889L478.879 322.161L472.36 324.196C470.631 324.736 468.759 324.568 467.155 323.729C465.551 322.891 464.347 321.45 463.808 319.724C463.269 317.998 463.439 316.128 464.281 314.525C465.122 312.923 466.566 311.72 468.295 311.18Z"/></svg>