<svg xmlns="http://www.w3.org/2000/svg" width="700" height="500" fill="none" viewBox="0 0 700 500"><path fill="#261D1D" stroke="#261D1D" stroke-width="20" d="M175 238.5L173.5 256L172 267.5L170.61 283.258C170.537 284.08 170.602 284.909 170.802 285.71L170.933 286.231C170.977 286.41 171.042 286.583 171.124 286.748C171.368 287.236 171.764 287.632 172.252 287.876L172.785 288.143C173.258 288.379 173.769 288.526 174.295 288.578L194 290.5H195.5H198C199.997 290.5 201.992 290.642 203.97 290.924L204.5 291L208.5 291.5C210.83 291.833 213.181 292 215.536 292H233.5H233.91C234.634 292 235.355 291.911 236.057 291.736C236.684 291.579 237.291 291.354 237.869 291.065L239 290.5L240.131 289.935C240.709 289.646 241.316 289.421 241.943 289.264C242.645 289.089 243.366 289 244.09 289H249C250.973 289 252.919 289.459 254.683 290.342L256 291L258.298 292.379C260.077 293.446 262.071 294.107 264.136 294.314C265.373 294.437 266.621 294.396 267.848 294.192L268.611 294.065C268.87 294.022 269.125 293.958 269.374 293.875C270.115 293.628 270.787 293.213 271.339 292.661L271.909 292.091C272.302 291.698 272.733 291.345 273.195 291.036L274 290.5L274.044 290.471C274.993 289.838 276.109 289.5 277.25 289.5C278.391 289.5 279.507 289.838 280.456 290.471L281.146 290.931C281.708 291.306 282.18 291.8 282.528 292.38L282.682 292.637C283.206 293.51 283.361 294.555 283.115 295.542C283.038 295.846 283 296.159 283 296.472V297.072C283 297.689 283.066 298.304 283.196 298.907L288.5 323.5L288.623 323.868C288.86 324.58 289.42 325.14 290.132 325.377C290.376 325.459 290.631 325.5 290.887 325.5H291.713C292.236 325.5 292.758 325.445 293.269 325.336L314.989 320.715C315.637 320.577 316.206 320.191 316.573 319.64L316.593 319.611C316.858 319.212 317 318.745 317 318.266C317 318.089 316.981 317.913 316.942 317.74L316 313.5L315.768 312.803C315.604 312.311 315.732 311.768 316.099 311.401C316.356 311.144 316.704 311 317.067 311H318.634C318.878 311 319.121 311.017 319.362 311.052L339.498 313.928C339.828 313.975 340.165 313.945 340.481 313.84C341.122 313.626 341.626 313.122 341.84 312.481L341.93 312.209C341.977 312.07 342.012 311.927 342.035 311.782L344.5 296.5L345.353 291.38C345.447 290.818 345.769 290.321 346.242 290.005C346.725 289.683 347.321 289.58 347.884 289.721L349 290L350.064 290.193C353.015 290.73 356.009 291 359.008 291H362.5L371 290.5C372.997 290.167 375.017 290 377.041 290H377.5L382.5 290.5L387.5 291.5L392 292.5L395 293L395.539 293.108C396.843 293.369 398.17 293.5 399.5 293.5L421.5 290.5L422.07 290.357C424.335 289.791 426.689 289.67 429 290L434.09 290.392C434.98 290.46 435.789 290.934 436.284 291.676C436.427 291.891 436.541 292.124 436.623 292.369L436.658 292.473C436.881 293.144 436.909 293.864 436.737 294.551L436.637 294.952C436.546 295.316 436.415 295.669 436.248 296.005L436.096 296.307C435.701 297.097 435.182 297.818 434.557 298.443L433.5 299.5C433.18 299.82 433 300.254 433 300.707V301.156C433 301.385 433.028 301.612 433.083 301.833L433.127 302.006C433.368 302.971 433.941 303.821 434.745 304.406L439 307.5L440.244 308.495C441.059 309.147 441.637 310.048 441.89 311.061C441.963 311.353 442.008 311.651 442.025 311.952L442.465 319.874C442.488 320.287 442.595 320.691 442.78 321.061C442.926 321.352 443.117 321.617 443.347 321.847L443.407 321.907C443.797 322.297 444.272 322.591 444.795 322.765L444.889 322.796C445.294 322.931 445.717 323 446.144 323H447.5H447.677C448.557 323 449.435 323.087 450.297 323.259L450.684 323.337C451.227 323.445 451.759 323.603 452.273 323.809L453.114 324.146C453.699 324.379 454.229 324.729 454.675 325.175C454.891 325.391 455.086 325.628 455.255 325.883L456 327L457 328.5L457.5 329.5L457.742 329.985C457.913 330.326 458.138 330.638 458.407 330.907C458.797 331.297 459.272 331.591 459.795 331.765L460.5 332L460.688 332.038C462.207 332.341 463.777 332.278 465.267 331.852L465.464 331.796C466.152 331.6 466.811 331.314 467.424 330.946L467.943 330.634C468.639 330.217 469.233 329.65 469.684 328.975C469.894 328.659 470.071 328.322 470.212 327.97L470.562 327.095C470.854 326.366 471.086 325.615 471.256 324.849L471.308 324.614C471.766 322.555 471.847 320.43 471.549 318.342L471.5 318L471 315.5L470.731 313.351C470.578 312.123 470.589 310.879 470.764 309.653L470.86 308.983C470.953 308.33 471.124 307.691 471.369 307.078C471.785 306.037 472.409 305.091 473.202 304.298L473.5 304L475.958 301.893C476.651 301.3 477.276 300.632 477.824 299.902L478.315 299.247C478.438 299.083 478.546 298.907 478.638 298.724L478.756 298.487C478.917 298.167 479 297.814 479 297.455V297.207C479 296.754 478.82 296.32 478.5 296C478.18 295.68 478 295.246 478 294.793V294.75C478 294.27 478.191 293.809 478.53 293.47L479.337 292.663C479.775 292.225 480.296 291.882 480.87 291.652L482.5 291C483.817 290.671 485.19 290.638 486.522 290.904L487 291L493.082 292.351C495.025 292.783 496.996 293.077 498.981 293.229L499.998 293.308C501.663 293.436 503.336 293.424 504.999 293.273L505.906 293.19C507.298 293.064 508.675 292.798 510.014 292.396L512.262 291.721C512.751 291.575 513.216 291.356 513.641 291.072L513.746 291.003C514.244 290.671 514.671 290.244 515.003 289.746C515.331 289.253 515.56 288.701 515.676 288.121L517 281.5L518 273.5V271.368C518 271.124 517.97 270.88 517.911 270.643L517.878 270.51C517.643 269.573 517.918 268.582 518.601 267.899C518.864 267.636 519.178 267.429 519.524 267.29L520.575 266.87C521.19 266.624 521.772 266.306 522.31 265.921L523.547 265.038C524.508 264.352 525.336 263.497 525.991 262.514C526.658 261.513 527.134 260.398 527.395 259.223L527.481 258.838C527.823 257.295 527.854 255.699 527.572 254.144L527.38 253.093C527.128 251.703 526.704 250.35 526.12 249.064L525.376 247.428C524.793 246.145 524.096 244.893 523.314 243.721C522.121 241.932 520.692 240.272 519.093 238.834L518.118 237.956C517.044 236.99 515.845 236.173 514.554 235.527C513.191 234.846 511.739 234.362 510.241 234.089L509.128 233.887C507.712 233.63 506.276 233.5 504.837 233.5H503.365C501.457 233.5 499.552 233.635 497.664 233.905L497 234L494.891 234.422C494.647 234.471 494.394 234.394 494.218 234.218C494.078 234.078 494 233.889 494 233.691V233.363C494 233.124 494.056 232.889 494.162 232.675L496.065 228.869C496.354 228.291 496.579 227.684 496.736 227.057L496.85 226.599C496.95 226.201 497 225.793 497 225.383C497 224.799 496.898 224.219 496.698 223.67L495 219C494.691 218.382 494.737 217.645 495.12 217.07L495.385 216.672C495.462 216.557 495.546 216.449 495.639 216.347L500.5 211L501.38 209.974C502.784 208.336 503.909 206.478 504.71 204.475C505.235 203.162 505.617 201.796 505.85 200.402L506 199.5L506.401 197.095C506.467 196.699 506.5 196.298 506.5 195.897C506.5 195.301 506.427 194.708 506.282 194.13L506 193L504 185.5L502 180C501.675 179.351 501.149 178.825 500.5 178.5C499.87 178.185 499.13 178.185 498.5 178.5L496.5 179.5L493.5 181L490 183L488.887 183.696C486.968 184.895 485.192 186.308 483.593 187.907L482.383 189.117C481.796 189.704 481.268 190.348 480.807 191.039C479.943 192.335 479.327 193.78 478.989 195.3L478.5 197.5L477.5 204.5L477.091 207.771C477.031 208.25 476.86 208.709 476.592 209.111C476.208 209.687 475.643 210.119 474.987 210.338L473 211L471.358 211.657C470.788 211.885 470.242 212.172 469.731 212.513L469.574 212.617C469.192 212.872 468.836 213.164 468.512 213.488C467.844 214.156 467.319 214.952 466.969 215.829L465.956 218.361C465.652 219.119 465.419 219.903 465.259 220.703C465.087 221.565 465 222.443 465 223.323V224.5V226.5L465.5 231.5V233.099C465.5 233.676 465.271 234.229 464.863 234.637C464.624 234.876 464.333 235.056 464.013 235.162L463.769 235.244C463.264 235.412 462.725 235.454 462.2 235.367L460 235L455.025 234.724C452.347 234.575 449.661 234.667 447 235C445.342 235.332 443.645 235.429 441.959 235.288L434.554 234.671C433.194 234.558 431.824 234.669 430.5 235L426.721 235.687C425.58 235.894 424.415 235.927 423.264 235.783L422.276 235.66C421.434 235.554 420.62 235.283 419.883 234.862L418.889 234.294C418.002 233.787 417.36 232.939 417.112 231.948C417.038 231.65 417 231.345 417 231.038V230.304C417 229.769 417.044 229.235 417.132 228.707L417.25 228C417.416 227.002 417.5 225.991 417.5 224.979V223.953C417.5 222.657 417.319 221.368 416.964 220.122C416.656 219.045 416.219 218.008 415.663 217.035L415.551 216.839C414.853 215.618 413.996 214.496 413.003 213.503L412.601 213.101C411.87 212.37 411.045 211.74 410.148 211.228C408.732 210.418 407.161 209.916 405.538 209.754L404.657 209.666C403.556 209.556 402.439 209.562 401.338 209.685C399.468 209.892 397.639 210.431 395.956 211.272L395.857 211.322C394.296 212.102 392.871 213.129 391.637 214.363L390.699 215.301C390.567 215.433 390.448 215.578 390.344 215.734L390.077 216.134C389.717 216.675 389.109 217 388.459 217C388.157 217 387.859 216.93 387.589 216.795L387.407 216.704C387.138 216.569 386.891 216.391 386.678 216.178L386.66 216.16C386.554 216.054 386.455 215.939 386.366 215.817L381.046 208.563C381.015 208.521 380.982 208.482 380.945 208.445C380.672 208.172 380.577 207.769 380.699 207.403L381 206.5L384.223 198.213C384.406 197.742 384.5 197.241 384.5 196.735V196.586C384.5 195.878 384.29 195.186 383.898 194.597C383.635 194.203 383.297 193.865 382.903 193.602L382 193L381.53 192.765C381.181 192.591 380.797 192.5 380.407 192.5C380.138 192.5 379.87 192.543 379.614 192.629L378.5 193L377 193.5L370.61 195.466C370.537 195.489 370.466 195.517 370.397 195.552L370.132 195.684C369.755 195.873 369.299 195.799 369 195.5L363 190L362.663 189.663C362.227 189.227 361.696 188.899 361.111 188.704C360.706 188.569 360.283 188.5 359.856 188.5H359.647C359.217 188.5 358.789 188.553 358.372 188.657L357.69 188.827C357.234 188.942 356.8 189.134 356.408 189.395L355.992 189.672C355.67 189.887 355.409 190.182 355.235 190.529C355.081 190.839 355 191.18 355 191.526V193V197.5V198.91C355 199.634 354.911 200.355 354.736 201.057L354.57 201.721C354.523 201.906 354.457 202.086 354.371 202.257C354.13 202.741 353.745 203.137 353.269 203.394L348.525 205.948C347.844 206.315 347.204 206.754 346.616 207.258L344.969 208.669C344.339 209.21 343.892 209.933 343.69 210.739C343.565 211.241 343.538 211.764 343.611 212.277L344 215L344.5 217.5C344.833 219.163 345 220.854 345 222.55V223L344.558 226.98C344.519 227.325 344.435 227.663 344.306 227.986C343.805 229.236 342.689 230.135 341.36 230.357L341.045 230.409C340.683 230.47 340.315 230.485 339.95 230.454L334.5 230L328 229.5L318.5 229H310.536C308.181 229 305.83 229.167 303.5 229.5L298.5 230.5L292 232.5L288.249 233.864C287.085 234.287 285.956 234.802 284.873 235.404C282.967 236.463 281.218 237.782 279.676 239.324L279 240L277.208 242.15C276.739 242.713 276.179 243.192 275.551 243.569C274.536 244.178 273.375 244.5 272.191 244.5H269.5H268.233C267.085 244.5 265.945 244.315 264.856 243.952C263.956 243.652 263.1 243.233 262.31 242.707L260.5 241.5L257.5 239.5C255.859 238.515 254.485 237.141 253.5 235.5L253.346 235.243C252.457 233.762 251.874 232.12 251.63 230.411C251.543 229.804 251.5 229.192 251.5 228.58V227.706C251.5 225.248 251.859 222.804 252.565 220.451L253 219L254.5 213.5C254.833 211.17 255 208.819 255 206.464V205L254.155 194.021C254.053 192.686 253.692 191.384 253.094 190.187C252.699 189.399 252.206 188.664 251.626 188.001L249 185L246.474 182.474C245.493 181.493 244.443 180.582 243.333 179.749L241.912 178.684C239.987 177.24 237.814 176.161 235.5 175.5L235.338 175.477C233.115 175.159 230.873 175 228.628 175C226.213 175 223.801 175.184 221.414 175.552L218.5 176C215.841 176.665 213.263 177.618 210.812 178.844L210.5 179C207.848 180.658 205.453 182.696 203.394 185.05L203 185.5L200.99 188.515C200.331 189.503 199.765 190.549 199.297 191.64L199.015 192.299C198.673 193.097 198.414 193.929 198.244 194.781L198.1 195.501C198.033 195.833 198 196.171 198 196.509C198 197.164 198.125 197.812 198.368 198.42L199 200L199.14 200.421C199.379 201.136 199.5 201.884 199.5 202.637V203.065C199.5 203.354 199.465 203.642 199.394 203.922L199.358 204.066C199.131 204.976 198.517 205.741 197.678 206.161C197.232 206.384 196.74 206.5 196.242 206.5H193.5H190.984C189.665 206.5 188.35 206.644 187.063 206.93L186.748 207C185.257 207.332 183.822 207.877 182.487 208.618L182.22 208.767C180.752 209.582 179.44 210.653 178.347 211.928C177.454 212.971 176.717 214.137 176.159 215.392L175.751 216.311C175.253 217.432 174.912 218.616 174.739 219.83C174.58 220.939 174.563 222.063 174.686 223.177L175 226L175.076 226.53C175.358 228.508 175.5 230.503 175.5 232.5L175 238.5Z"/><path fill="#FFD000" d="M193.429 289.438L174.326 287.279L174.137 287.248C173.095 287.078 172.477 286.101 172.553 285.043L177.747 238.519C177.933 237.382 178.831 236.653 179.983 236.745L199.085 238.903L199.275 238.934C200.222 239.09 200.935 240.082 200.78 241.029L195.57 287.649L195.539 287.838C195.384 288.785 194.392 289.498 193.429 289.438ZM205.137 223.941C203.88 231.615 196.602 236.842 188.928 235.585C181.16 234.311 175.932 227.034 177.19 219.36C178.464 211.592 185.741 206.364 193.509 207.637C201.183 208.895 206.411 216.173 205.137 223.941Z"/><path fill="#FFD000" d="M271.252 264.748L271.365 267.914C271.557 273.287 272.958 277.559 277.022 281.064C277.615 281.524 278.609 282.449 278.646 283.504C278.667 284.08 278.4 284.666 277.745 285.169C277.752 285.361 268.498 292.512 268.498 292.512C267.566 293.314 266.616 293.636 265.753 293.667C264.026 293.729 248.494 289.193 247.884 272.116L247.767 268.854C247.407 258.78 242.363 254.734 235.346 254.6L234.768 289.491C234.802 290.45 233.97 291.345 233.01 291.379L232.819 291.386L213.597 291.112C212.442 291.058 211.643 290.222 211.602 289.07L212.41 239.09C212.468 238.031 213.3 237.137 214.26 237.102L214.452 237.095L225.217 237.287C228.931 236.386 232.468 235.875 235.921 235.752C255.397 235.056 270.597 246.424 271.252 264.748Z"/><path fill="#FFD000" d="M289.927 289.93L288.877 290.036C286.776 290.249 285.782 289.964 285.044 288.399L279.717 277.746C279.592 277.469 279.468 277.193 279.448 277.002C279.303 275.569 281.194 275.184 282.34 275.068C287.965 274.4 290.368 271.455 290.136 269.162C290.01 267.921 288.613 266.519 287.101 264.935L284.232 262.332C279.545 257.983 277.409 254.05 277.04 250.421C275.945 239.628 290.932 232.318 303.443 231.048C307.168 230.67 308.162 230.955 309.005 232.606L314.427 243.249C314.657 243.612 314.686 243.899 314.715 244.185C314.822 245.236 313.81 245.724 312.568 245.85L312.186 245.889C306.456 246.471 304.453 248.604 304.647 250.514C304.812 252.138 306.428 253.807 310.465 257.45C315.343 261.78 317.689 265.884 318.058 269.513C319.201 280.783 302.726 288.631 289.927 289.93Z"/><path fill="#FFD000" d="M339.295 312.44L320.287 309.533C319.332 309.441 318.555 308.497 318.657 307.446L318.676 307.255L329.828 232.141C330.025 231.099 330.969 230.323 331.924 230.416L332.115 230.434L347.989 232.844C352.246 231.714 356.524 231.358 360.538 231.747C377.354 233.381 391.264 247.077 389.575 264.467C387.886 281.857 374.493 291.649 356.434 289.895C352.421 289.505 348.559 288.552 345.135 287.062L341.583 310.733C341.376 311.871 340.442 312.552 339.295 312.44ZM350.628 250.365L347.721 269.373C349.721 270.628 352.418 271.662 355.093 271.921C355.858 271.996 365.03 272.886 366.051 262.376C366.691 255.783 362.168 250.714 355.48 250.064C353.951 249.916 352.299 250.045 350.628 250.365Z"/><path fill="#FFD000" d="M419.847 290.272L400.737 292.367L400.545 292.378C399.491 292.441 398.673 291.624 398.515 290.575L393.351 244.048C393.283 242.898 393.998 241.99 395.142 241.826L414.252 239.73L414.443 239.719C415.402 239.662 416.315 240.473 416.372 241.432L421.542 288.055L421.554 288.247C421.61 289.205 420.799 290.119 419.847 290.272ZM416.865 223.804C417.326 231.566 411.376 238.266 403.614 238.727C395.756 239.193 389.055 233.243 388.595 225.481C388.129 217.622 394.079 210.922 401.937 210.456C409.699 209.996 416.399 215.945 416.865 223.804Z"/><path fill="#FFD000" d="M449.244 290.865L430.157 289.541C429.014 289.398 428.156 288.517 428.299 287.373L431.829 237.506C431.973 236.363 432.949 235.517 433.997 235.649L445.118 236.459C450.465 235.484 455.513 235.341 460.276 235.937C463.515 236.342 466.611 237.117 469.48 238.153C470.862 238.713 471.338 239.546 471.195 240.689C471.147 241.07 471.004 241.44 470.849 241.904L466.406 254.99C465.954 256.288 464.918 256.835 463.775 256.692C463.489 256.656 463.12 256.513 462.751 256.371C461.286 255.704 459.703 255.215 458.083 255.013C456.75 254.846 455.392 254.869 453.82 255.06L451.411 289.007L451.388 289.198C451.256 290.246 450.292 290.996 449.244 290.865Z"/><path fill="#FFD000" d="M510.348 290.888L509.213 291.091C487.76 294.916 474.374 282.189 471.812 267.823C469.402 254.308 476.419 238.43 497.968 234.587C521.406 230.408 526.17 251.109 526.726 254.228C527.501 258.575 526.346 262.487 521.107 265.371C516.935 267.675 510.126 269.962 505.246 271.028C503.734 271.297 503.143 270.72 502.563 269.653C500.873 266.737 497.981 260.914 497.914 260.536C497.729 259.496 498.4 258.889 499.578 258.386C504.291 256.376 504.919 256.069 504.683 254.746C504.531 253.895 502.196 251.191 498.227 251.899C493.69 252.708 490.618 257.351 491.663 263.211C492.859 269.921 499.122 276.605 510.935 274.499C511.597 274.381 512.353 274.246 512.998 274.033L513.187 274C514.51 273.764 516.268 274.328 516.555 275.934C516.723 276.88 515.412 283.744 514.567 287.21C514.081 288.857 513.088 290.4 510.348 290.888Z"/><mask id="path-9-inside-1_3_54" fill="#fff"><path d="M480.585 231.481C480.44 233.634 480.374 235.057 475.609 237.173C473.877 232.457 474.567 231.6 475.991 229.999C476.588 229.327 477.333 228.491 478.03 227.315L475.484 225.843C474.934 226.772 474.331 227.386 473.765 228.021C471.392 230.689 470.578 232.704 473.361 239.64L473.951 241.042L475.298 240.466C482.628 237.525 483.334 235.32 483.564 231.921C483.614 231.177 483.612 230.687 483.782 229.642L480.984 228.605C480.707 229.689 480.642 230.639 480.584 231.479L480.585 231.481ZM489.955 192.915C486.896 194.143 485.406 197.626 486.631 200.679C487.857 203.733 491.343 205.22 494.401 203.993C497.458 202.766 498.949 199.281 497.724 196.228C496.498 193.174 493.012 191.688 489.955 192.915ZM493.288 201.22C491.761 201.832 490.02 201.09 489.408 199.566C488.797 198.043 489.54 196.303 491.068 195.69C492.596 195.077 494.336 195.82 494.948 197.343C495.559 198.868 494.815 200.607 493.288 201.22ZM500.971 180.509C500.653 179.836 499.884 179.504 499.173 179.73C499.173 179.73 491.209 182.271 484.879 188.036C482.567 190.143 480.973 192.648 479.86 195.921C478.933 198.65 478.674 203.013 478.369 206.673C478.25 208.085 478.137 209.437 478.004 210.488L470.312 213.575C469.916 213.734 469.608 214.055 469.464 214.454L466.596 221.976C466.42 222.472 466.516 223.023 466.851 223.427C467.187 223.831 467.712 224.031 468.231 223.948L477.238 222.521C478.079 222.988 479.431 223.65 481.597 224.709L486.112 226.916L490.648 233.35C490.946 233.774 491.445 234.013 491.964 233.977C492.121 233.965 492.276 233.93 492.418 233.873C492.744 233.742 493.018 233.499 493.185 233.179L496.265 226.032C496.466 225.649 496.489 225.194 496.327 224.79L493.467 217.664C493.984 216.961 494.941 215.812 495.832 214.709C498.261 211.705 502.063 207.653 503.31 205.154C505.067 201.637 505.347 199.462 505.27 196.445C505.084 189.27 501.14 180.863 500.971 180.509ZM502.292 196.522C502.36 199.155 502.138 200.835 500.644 203.825C499.541 206.033 495.73 210.098 493.515 212.839C491.861 214.883 490.864 216.09 490.487 216.772C490.27 217.162 490.241 217.631 490.407 218.045L493.304 225.264L491.672 229.638L488.323 224.888C488.179 224.685 487.986 224.52 487.76 224.41C484.088 222.616 478.539 219.903 478.109 219.682C477.823 219.526 477.489 219.467 477.162 219.519L470.246 220.614L472.037 216.087L479.903 212.93C480.385 212.737 480.731 212.307 480.818 211.799C481.029 210.566 481.169 208.875 481.334 206.918C481.612 203.603 481.87 199.26 482.679 196.876C483.636 194.061 484.932 192.013 486.882 190.236C491.222 186.283 496.407 183.97 498.821 183.022C499.888 185.551 502.162 191.493 502.291 196.524L502.292 196.522Z"/></mask><path fill="#000" d="M480.585 231.481C480.44 233.634 480.374 235.057 475.609 237.173C473.877 232.457 474.567 231.6 475.991 229.999C476.588 229.327 477.333 228.491 478.03 227.315L475.484 225.843C474.934 226.772 474.331 227.386 473.765 228.021C471.392 230.689 470.578 232.704 473.361 239.64L473.951 241.042L475.298 240.466C482.628 237.525 483.334 235.32 483.564 231.921C483.614 231.177 483.612 230.687 483.782 229.642L480.984 228.605C480.707 229.689 480.642 230.639 480.584 231.479L480.585 231.481ZM489.955 192.915C486.896 194.143 485.406 197.626 486.631 200.679C487.857 203.733 491.343 205.22 494.401 203.993C497.458 202.766 498.949 199.281 497.724 196.228C496.498 193.174 493.012 191.688 489.955 192.915ZM493.288 201.22C491.761 201.832 490.02 201.09 489.408 199.566C488.797 198.043 489.54 196.303 491.068 195.69C492.596 195.077 494.336 195.82 494.948 197.343C495.559 198.868 494.815 200.607 493.288 201.22ZM500.971 180.509C500.653 179.836 499.884 179.504 499.173 179.73C499.173 179.73 491.209 182.271 484.879 188.036C482.567 190.143 480.973 192.648 479.86 195.921C478.933 198.65 478.674 203.013 478.369 206.673C478.25 208.085 478.137 209.437 478.004 210.488L470.312 213.575C469.916 213.734 469.608 214.055 469.464 214.454L466.596 221.976C466.42 222.472 466.516 223.023 466.851 223.427C467.187 223.831 467.712 224.031 468.231 223.948L477.238 222.521C478.079 222.988 479.431 223.65 481.597 224.709L486.112 226.916L490.648 233.35C490.946 233.774 491.445 234.013 491.964 233.977C492.121 233.965 492.276 233.93 492.418 233.873C492.744 233.742 493.018 233.499 493.185 233.179L496.265 226.032C496.466 225.649 496.489 225.194 496.327 224.79L493.467 217.664C493.984 216.961 494.941 215.812 495.832 214.709C498.261 211.705 502.063 207.653 503.31 205.154C505.067 201.637 505.347 199.462 505.27 196.445C505.084 189.27 501.14 180.863 500.971 180.509ZM502.292 196.522C502.36 199.155 502.138 200.835 500.644 203.825C499.541 206.033 495.73 210.098 493.515 212.839C491.861 214.883 490.864 216.09 490.487 216.772C490.27 217.162 490.241 217.631 490.407 218.045L493.304 225.264L491.672 229.638L488.323 224.888C488.179 224.685 487.986 224.52 487.76 224.41C484.088 222.616 478.539 219.903 478.109 219.682C477.823 219.526 477.489 219.467 477.162 219.519L470.246 220.614L472.037 216.087L479.903 212.93C480.385 212.737 480.731 212.307 480.818 211.799C481.029 210.566 481.169 208.875 481.334 206.918C481.612 203.603 481.87 199.26 482.679 196.876C483.636 194.061 484.932 192.013 486.882 190.236C491.222 186.283 496.407 183.97 498.821 183.022C499.888 185.551 502.162 191.493 502.291 196.524L502.292 196.522Z"/><path fill="#fff" d="M480.585 231.481L505.529 233.156L505.911 227.465L503.786 222.17L480.585 231.481ZM475.609 237.173L452.142 245.792L461.348 270.859L485.755 260.021L475.609 237.173ZM475.991 229.999L494.672 246.614L494.679 246.605L494.687 246.596L475.991 229.999ZM478.03 227.315L499.538 240.059L512.42 218.317L490.541 205.671L478.03 227.315ZM475.484 225.843L487.995 204.199L466.572 191.815L453.969 213.11L475.484 225.843ZM473.765 228.021L455.108 211.38L455.096 211.393L455.084 211.407L473.765 228.021ZM473.361 239.64L450.16 248.951L450.237 249.144L450.318 249.336L473.361 239.64ZM473.951 241.042L450.908 250.738L460.659 273.913L483.778 264.029L473.951 241.042ZM475.298 240.466L465.987 217.265L465.728 217.369L465.471 217.479L475.298 240.466ZM483.564 231.921L508.507 233.611L508.508 233.596L508.509 233.581L483.564 231.921ZM483.782 229.642L508.457 233.656L511.759 213.354L492.475 206.202L483.782 229.642ZM480.984 228.605L489.678 205.165L463.646 195.51L456.764 222.408L480.984 228.605ZM480.584 231.479L455.643 229.754L455.248 235.471L457.382 240.79L480.584 231.479ZM500.971 180.509L478.371 191.197L478.395 191.248L478.419 191.299L500.971 180.509ZM499.173 179.73L491.601 155.904L491.586 155.908L491.572 155.913L499.173 179.73ZM484.879 188.036L468.046 169.553L468.043 169.555L484.879 188.036ZM479.86 195.921L503.531 203.965L503.531 203.964L479.86 195.921ZM478.369 206.673L503.281 208.768L503.281 208.759L503.282 208.751L478.369 206.673ZM478.004 210.488L487.315 233.69L500.95 228.218L502.804 213.643L478.004 210.488ZM469.464 214.454L492.824 223.359L492.899 223.162L492.971 222.964L469.464 214.454ZM466.596 221.976L443.236 213.071L443.139 213.326L443.047 213.584L466.596 221.976ZM468.231 223.948L464.318 199.256L464.296 199.26L464.274 199.263L468.231 223.948ZM477.238 222.521L489.383 200.669L481.844 196.479L473.324 197.829L477.238 222.521ZM481.597 224.709L470.607 247.164L470.614 247.168L470.621 247.171L481.597 224.709ZM486.112 226.916L506.545 212.511L502.85 207.27L497.088 204.454L486.112 226.916ZM490.648 233.35L511.087 218.954L511.081 218.946L490.648 233.35ZM491.964 233.977L493.718 258.915L493.779 258.911L493.841 258.906L491.964 233.977ZM493.185 233.179L515.357 244.728L515.78 243.915L516.143 243.074L493.185 233.179ZM496.265 226.032L474.116 214.438L473.679 215.273L473.306 216.138L496.265 226.032ZM493.467 217.664L473.33 202.848L465.082 214.058L470.265 226.975L493.467 217.664ZM495.832 214.709L476.395 198.986L476.39 198.992L476.385 198.999L495.832 214.709ZM503.31 205.154L480.945 193.982L480.94 193.992L503.31 205.154ZM505.27 196.445L530.261 195.804L530.261 195.799L505.27 196.445ZM502.292 196.522L527.284 195.879L479.303 186.697L502.292 196.522ZM500.644 203.825L478.279 192.653L478.279 192.654L500.644 203.825ZM493.515 212.839L512.952 228.562L512.959 228.553L493.515 212.839ZM490.487 216.772L512.327 228.938L512.35 228.898L512.372 228.857L490.487 216.772ZM493.304 225.264L516.726 234.005L520.111 224.936L516.506 215.953L493.304 225.264ZM491.672 229.638L471.241 244.046L498.535 282.748L515.094 238.379L491.672 229.638ZM488.323 224.888L508.754 210.48L508.735 210.455L508.717 210.429L488.323 224.888ZM487.76 224.41L476.786 246.873L476.796 246.878L476.806 246.883L487.76 224.41ZM478.109 219.682L466.117 241.619L466.417 241.783L466.721 241.938L478.109 219.682ZM477.162 219.519L473.291 194.82L473.272 194.823L473.253 194.826L477.162 219.519ZM470.246 220.614L446.999 211.418L430.885 252.156L474.155 245.306L470.246 220.614ZM472.037 216.087L462.726 192.885L452.745 196.891L448.79 206.891L472.037 216.087ZM480.818 211.799L456.178 207.572L456.176 207.58L456.175 207.589L480.818 211.799ZM481.334 206.918L506.246 209.02L506.247 209.008L481.334 206.918ZM482.679 196.876L459.01 188.827L459.006 188.838L482.679 196.876ZM486.882 190.236L470.047 171.754L470.046 171.755L486.882 190.236ZM498.821 183.022L521.858 173.309L512.383 150.838L489.684 159.751L498.821 183.022ZM502.291 196.524L477.299 197.167L525.28 206.349L502.291 196.524ZM455.641 229.807C455.508 231.787 455.404 225.57 459.432 219.886C461.253 217.316 463.185 215.797 464.252 215.066C465.255 214.379 465.832 214.16 465.463 214.324L485.755 260.021C489.121 258.527 495.553 255.391 500.227 248.796C505.516 241.333 505.517 233.328 505.529 233.156L455.641 229.807ZM499.076 228.554C498.868 227.987 499.042 228.353 499.234 229.296C499.432 230.267 499.812 232.614 499.397 235.725C498.399 243.202 493.62 247.796 494.672 246.614L457.31 213.385C456.938 213.803 451.102 219.627 449.836 229.111C448.828 236.669 451.157 243.11 452.142 245.792L499.076 228.554ZM494.687 246.596C495.313 245.892 497.503 243.493 499.538 240.059L456.522 214.571C457.163 213.489 457.863 212.762 457.295 213.402L494.687 246.596ZM490.541 205.671L487.995 204.199L462.972 247.487L465.518 248.959L490.541 205.671ZM453.969 213.11C454.531 212.16 455.078 211.455 455.408 211.058C455.55 210.888 455.638 210.791 455.585 210.85C455.554 210.885 455.523 210.919 455.434 211.017C455.361 211.098 455.24 211.232 455.108 211.38L492.422 244.662C492.652 244.404 492.334 244.762 492.805 244.237C493.041 243.973 493.421 243.546 493.852 243.028C494.763 241.932 495.886 240.455 496.998 238.576L453.969 213.11ZM455.084 211.407C452.748 214.033 447.603 220.222 446.729 230.005C446.022 237.915 448.496 244.805 450.16 248.951L496.562 230.329C496.139 229.273 496.161 229.154 496.277 229.658C496.402 230.198 496.753 231.955 496.53 234.455C496.283 237.224 495.432 239.802 494.26 241.951C493.271 243.766 492.292 244.807 492.445 244.635L455.084 211.407ZM450.318 249.336L450.908 250.738L496.994 231.346L496.404 229.944L450.318 249.336ZM483.778 264.029L485.125 263.454L465.471 217.479L464.124 218.054L483.778 264.029ZM484.609 263.667C489.185 261.831 496.045 258.665 501.286 252.385C507.65 244.761 508.302 236.647 508.507 233.611L458.622 230.232C458.595 230.617 458.643 229.209 459.207 227.276C459.884 224.955 461.092 222.512 462.901 220.345C464.543 218.378 466.077 217.364 466.601 217.043C467.09 216.744 467.043 216.841 465.987 217.265L484.609 263.667ZM508.509 233.581C508.522 233.391 508.532 233.225 508.539 233.095C508.543 233.03 508.546 232.97 508.549 232.923C508.55 232.9 508.552 232.875 508.553 232.857C508.554 232.837 508.555 232.82 508.556 232.804C508.558 232.773 508.559 232.753 508.559 232.739C508.56 232.725 508.561 232.722 508.56 232.725C508.56 232.732 508.557 232.77 508.553 232.829C508.548 232.888 508.542 232.963 508.534 233.048C508.525 233.134 508.516 233.219 508.506 233.303C508.496 233.387 508.486 233.46 508.477 233.522C508.469 233.584 508.462 233.629 508.457 233.656L459.106 225.629C458.907 226.85 458.783 227.928 458.703 228.96C458.668 229.412 458.646 229.796 458.635 229.992C458.628 230.12 458.626 230.146 458.623 230.21C458.62 230.253 458.619 230.265 458.62 230.262L508.509 233.581ZM492.475 206.202L489.678 205.165L472.291 252.045L475.088 253.082L492.475 206.202ZM456.764 222.408C455.86 225.943 455.698 228.963 455.643 229.754L505.524 233.203C505.586 232.315 505.554 233.436 505.204 234.801L456.764 222.408ZM457.382 240.79L457.383 240.792L503.786 222.17L503.785 222.168L457.382 240.79ZM480.644 169.714C464.801 176.072 457.05 194.093 463.43 209.99L509.833 191.368C513.762 201.158 508.991 212.214 499.266 216.117L480.644 169.714ZM463.43 209.99C469.808 225.884 487.867 233.553 503.712 227.194L485.089 180.792C494.82 176.887 505.905 181.582 509.833 191.368L463.43 209.99ZM503.712 227.194C519.556 220.836 527.303 202.81 520.925 186.917L474.522 205.539C470.595 195.752 475.359 184.697 485.089 180.792L503.712 227.194ZM520.925 186.917C514.544 171.016 496.481 163.358 480.644 169.714L499.266 216.117C489.543 220.019 478.453 215.333 474.522 205.539L520.925 186.917ZM483.977 178.018C495.23 173.502 508.065 178.931 512.61 190.255L466.207 208.877C471.974 223.248 488.292 230.163 502.599 224.421L483.977 178.018ZM512.61 190.255C517.151 201.572 511.639 214.373 500.379 218.891L481.757 172.489C467.442 178.234 460.443 194.514 466.207 208.877L512.61 190.255ZM500.379 218.891C489.12 223.41 476.288 217.971 471.746 206.654L518.149 188.032C512.385 173.669 496.073 166.743 481.757 172.489L500.379 218.891ZM471.746 206.654C467.202 195.332 472.724 182.534 483.977 178.018L502.599 224.421C516.907 218.679 523.917 202.404 518.149 188.032L471.746 206.654ZM523.571 169.821C517.867 157.76 504.161 151.912 491.601 155.904L506.745 203.555C495.606 207.095 483.439 201.913 478.371 191.197L523.571 169.821ZM499.173 179.73C491.572 155.913 491.567 155.915 491.562 155.916C491.56 155.917 491.555 155.919 491.552 155.92C491.545 155.922 491.538 155.924 491.53 155.926C491.516 155.931 491.501 155.936 491.486 155.941C491.455 155.951 491.422 155.961 491.387 155.973C491.318 155.996 491.239 156.021 491.153 156.05C490.98 156.108 490.775 156.178 490.54 156.261C490.07 156.425 489.476 156.642 488.779 156.913C487.395 157.45 485.555 158.221 483.447 159.248C479.389 161.226 473.563 164.528 468.046 169.553L501.713 206.52C502.525 205.779 503.847 204.928 505.353 204.194C506.027 203.865 506.574 203.64 506.88 203.521C507.029 203.463 507.107 203.436 507.097 203.439C507.092 203.441 507.064 203.451 507.011 203.469C506.985 203.478 506.952 203.488 506.913 203.501C506.893 203.508 506.872 203.515 506.849 203.522C506.837 203.526 506.825 203.53 506.813 203.534C506.807 203.536 506.8 203.538 506.794 203.54C506.791 203.541 506.786 203.542 506.784 203.543C506.779 203.544 506.774 203.546 499.173 179.73ZM468.043 169.555C462.287 174.799 458.515 181.035 456.189 187.878L503.531 203.964C503.535 203.953 503.396 204.359 503.01 204.965C502.608 205.596 502.138 206.132 501.715 206.517L468.043 169.555ZM456.19 187.877C454.834 191.867 454.308 195.823 454.047 198.071C453.767 200.491 453.569 203.224 453.455 204.595L503.282 208.751C503.324 208.245 503.365 207.731 503.402 207.272C503.44 206.797 503.475 206.363 503.511 205.939C503.584 205.082 503.649 204.399 503.715 203.825C503.783 203.239 503.833 202.939 503.85 202.848C503.876 202.709 503.805 203.16 503.531 203.965L456.19 187.877ZM453.457 204.578C453.32 206.205 453.254 206.935 453.204 207.334L502.804 213.643C503.021 211.939 503.18 209.966 503.281 208.768L453.457 204.578ZM468.693 187.287L461.001 190.374L479.623 236.777L487.315 233.69L468.693 187.287ZM461.001 190.374C453.946 193.205 448.506 198.901 445.956 205.944L492.971 222.964C490.71 229.209 485.886 234.263 479.623 236.777L461.001 190.374ZM446.103 205.55L443.236 213.071L489.957 230.88L492.824 223.359L446.103 205.55ZM443.047 213.584C439.931 222.328 441.6 232.151 447.618 239.398L486.085 207.456C491.432 213.895 492.908 222.615 490.146 230.367L443.047 213.584ZM447.618 239.398C453.542 246.533 462.853 250.129 472.187 248.633L464.274 199.263C472.571 197.933 480.832 201.13 486.085 207.456L447.618 239.398ZM472.144 248.64L481.151 247.212L473.324 197.829L464.318 199.256L472.144 248.64ZM465.092 244.372C466.659 245.243 468.792 246.276 470.607 247.164L492.587 202.255C491.47 201.708 490.691 201.327 490.084 201.024C489.436 200.701 489.297 200.621 489.383 200.669L465.092 244.372ZM470.621 247.171L475.136 249.378L497.088 204.454L492.572 202.248L470.621 247.171ZM465.679 241.32L470.215 247.755L511.081 218.946L506.545 212.511L465.679 241.32ZM470.209 247.747C475.514 255.278 484.405 259.57 493.718 258.915L490.21 209.038C498.486 208.456 506.379 212.271 511.087 218.954L470.209 247.747ZM493.841 258.906C496.391 258.714 499.068 258.142 501.729 257.074L483.107 210.672C485.483 209.718 487.851 209.216 490.087 209.047L493.841 258.906ZM501.729 257.074C507.503 254.757 512.386 250.432 515.357 244.728L471.012 221.629C473.65 216.567 477.985 212.727 483.107 210.672L501.729 257.074ZM516.143 243.074L519.223 235.927L473.306 216.138L470.226 223.284L516.143 243.074ZM518.414 237.626C522.012 230.752 522.409 222.657 519.528 215.479L473.125 234.101C470.568 227.73 470.919 220.545 474.116 214.438L518.414 237.626ZM519.528 215.479L516.668 208.353L470.265 226.975L473.125 234.101L519.528 215.479ZM513.603 232.48C513.504 232.616 513.473 232.651 513.566 232.534C513.646 232.432 513.765 232.283 513.941 232.065C514.118 231.847 514.307 231.614 514.541 231.328C514.763 231.056 515.02 230.74 515.279 230.419L476.385 198.999C476.007 199.467 474.293 201.539 473.33 202.848L513.603 232.48ZM515.269 230.431C515.645 229.967 516.139 229.383 516.872 228.523C517.532 227.749 518.416 226.716 519.262 225.696C520.106 224.678 521.133 223.407 522.13 222.046C523.027 220.82 524.446 218.788 525.679 216.317L480.94 193.992C481.29 193.291 481.578 192.832 481.681 192.67C481.798 192.487 481.846 192.427 481.784 192.512C481.641 192.707 481.333 193.105 480.767 193.788C480.202 194.469 479.603 195.169 478.828 196.078C478.126 196.901 477.234 197.949 476.395 198.986L515.269 230.431ZM525.674 216.327C529.497 208.674 530.429 202.353 530.261 195.804L480.278 197.086C480.293 197.661 480.23 196.839 480.491 195.572C480.755 194.286 481.122 193.628 480.945 193.982L525.674 216.327ZM530.261 195.799C530.072 188.498 528.12 181.82 526.794 177.901C525.354 173.651 523.9 170.507 523.523 169.719L478.419 191.299C478.212 190.865 478.813 192.102 479.435 193.937C479.736 194.828 479.976 195.666 480.133 196.373C480.301 197.134 480.285 197.351 480.278 197.091L530.261 195.799ZM477.3 197.165C477.313 197.674 477.243 196.556 477.578 194.946C477.916 193.32 478.408 192.396 478.279 192.653L523.009 214.998C524.374 212.264 525.723 209.005 526.529 205.134C527.332 201.277 527.338 198.003 527.284 195.879L477.3 197.165ZM478.279 192.654C478.704 191.802 479.063 191.244 479.181 191.064C479.321 190.849 479.386 190.766 479.327 190.846C479.191 191.029 478.886 191.416 478.321 192.091C477.758 192.765 477.176 193.44 476.42 194.322C475.746 195.11 474.877 196.128 474.071 197.125L512.959 228.553C513.26 228.18 513.698 227.662 514.396 226.847C515.013 226.127 515.867 225.135 516.672 224.173C517.475 223.213 518.468 222 519.426 220.714C520.237 219.624 521.734 217.55 523.009 214.997L478.279 192.654ZM474.078 197.116C473.372 197.989 472.503 199.055 471.839 199.902C471.484 200.356 471.024 200.955 470.55 201.616C470.126 202.21 469.367 203.302 468.602 204.687L512.372 228.857C512.057 229.427 511.784 229.862 511.611 230.127C511.433 230.401 511.294 230.598 511.223 230.698C511.148 230.802 511.106 230.858 511.11 230.853C511.113 230.849 511.141 230.811 511.205 230.73C511.34 230.557 511.539 230.308 511.851 229.921C512.002 229.734 512.167 229.531 512.352 229.302C512.535 229.077 512.739 228.825 512.952 228.562L474.078 197.116ZM468.647 204.606C464.741 211.617 464.246 219.98 467.206 227.356L513.609 208.734C516.236 215.282 515.798 222.707 512.327 228.938L468.647 204.606ZM467.206 227.356L470.103 234.575L516.506 215.953L513.609 208.734L467.206 227.356ZM469.882 216.523L468.25 220.896L515.094 238.379L516.726 234.005L469.882 216.523ZM512.103 215.23L508.754 210.48L467.892 239.296L471.241 244.046L512.103 215.23ZM508.717 210.429C506.169 206.836 502.742 203.901 498.714 201.938L476.806 246.883C473.229 245.139 470.188 242.534 467.929 239.348L508.717 210.429ZM498.734 201.948C496.901 201.052 494.602 199.928 492.711 199.002C490.62 197.979 489.452 197.404 489.496 197.426L466.721 241.938C467.425 242.298 473.343 245.191 476.786 246.873L498.734 201.948ZM490.1 197.746C484.958 194.935 479.045 193.919 473.291 194.82L481.032 244.217C475.933 245.016 470.688 244.117 466.117 241.619L490.1 197.746ZM473.253 194.826L466.338 195.921L474.155 245.306L481.07 244.211L473.253 194.826ZM493.494 229.809L495.284 225.282L448.79 206.891L446.999 211.418L493.494 229.809ZM481.348 239.288L489.214 236.131L470.592 189.728L462.726 192.885L481.348 239.288ZM489.214 236.131C497.737 232.711 503.906 225.106 505.461 216.01L456.175 207.589C457.555 199.509 463.033 192.762 470.592 189.728L489.214 236.131ZM505.458 216.027C505.895 213.475 506.122 210.48 506.246 209.02L456.423 204.816C456.334 205.865 456.276 206.558 456.217 207.146C456.155 207.765 456.136 207.817 456.178 207.572L505.458 216.027ZM506.247 209.008C506.286 208.536 506.325 208.057 506.359 207.625C506.395 207.177 506.428 206.768 506.462 206.362C506.53 205.542 506.591 204.877 506.654 204.315C506.718 203.735 506.764 203.454 506.775 203.394C506.802 203.243 506.706 203.869 506.352 204.914L459.006 188.838C457.657 192.811 457.176 196.85 456.961 198.78C456.711 201.029 456.52 203.659 456.422 204.828L506.247 209.008ZM506.348 204.925C506.309 205.04 506.079 205.673 505.533 206.536C504.961 207.44 504.303 208.184 503.719 208.716L470.046 171.755C464.589 176.727 461.149 182.536 459.01 188.827L506.348 204.925ZM503.717 208.718C504.087 208.381 504.762 207.886 505.729 207.348C506.653 206.834 507.493 206.475 507.959 206.292L489.684 159.751C486.174 161.13 477.699 164.784 470.047 171.754L503.717 208.718ZM475.785 192.734C476.095 193.468 476.562 194.666 476.932 195.917C477.111 196.525 477.224 196.998 477.285 197.319C477.351 197.67 477.31 197.597 477.299 197.167L527.283 195.881C527.021 185.698 522.955 175.912 521.858 173.309L475.785 192.734ZM525.28 206.349L525.281 206.347L479.303 186.697L479.303 186.699L525.28 206.349Z" mask="url(#path-9-inside-1_3_54)"/><path stroke="#fff" stroke-linecap="round" stroke-linejoin="round" stroke-width="5" d="M358.226 194.03C358.22 192.848 358.217 192.257 358.455 191.966C358.661 191.714 358.974 191.571 359.301 191.581C359.676 191.592 360.12 191.982 361.008 192.761L368.08 198.972C368.343 199.203 368.474 199.318 368.626 199.383C368.759 199.441 368.904 199.469 369.05 199.468C369.216 199.466 369.383 199.41 369.716 199.298L378.7 196.286C379.828 195.908 380.391 195.719 380.742 195.852C381.046 195.969 381.277 196.22 381.367 196.532C381.471 196.89 381.232 197.433 380.756 198.518L376.962 207.164C376.821 207.485 376.75 207.646 376.734 207.809C376.72 207.954 376.736 208.1 376.782 208.238C376.834 208.394 376.938 208.534 377.146 208.814L382.75 216.365C383.453 217.313 383.805 217.787 383.783 218.16C383.765 218.485 383.595 218.783 383.324 218.966C383.012 219.176 382.421 219.122 381.239 219.013L371.821 218.146C371.472 218.113 371.297 218.097 371.136 218.133C370.993 218.166 370.858 218.227 370.74 218.314C370.607 218.412 370.505 218.554 370.3 218.839L364.779 226.518C364.086 227.482 363.74 227.964 363.376 228.061C363.06 228.146 362.724 228.079 362.467 227.88C362.171 227.651 362.043 227.075 361.789 225.922L359.763 216.74C359.688 216.399 359.651 216.229 359.567 216.088C359.493 215.963 359.394 215.855 359.275 215.77C359.14 215.675 358.973 215.623 358.639 215.519L349.623 212.714C348.491 212.362 347.925 212.186 347.722 211.873C347.545 211.6 347.508 211.261 347.62 210.955C347.748 210.603 348.261 210.301 349.286 209.698L357.451 204.89C357.754 204.712 357.906 204.623 358.016 204.499C358.113 204.39 358.186 204.262 358.23 204.123C358.281 203.966 358.28 203.791 358.278 203.442L358.226 194.03Z"/><path stroke="#fff" stroke-linecap="round" stroke-linejoin="round" stroke-width="5" d="M217.074 214.448L215.027 221.12C214.092 224.171 215.806 227.403 218.857 228.338C221.907 229.274 225.139 227.56 226.075 224.509L228.121 217.837M234.106 178.625L233.259 181.387M249.451 191.296L246.899 192.65M214.296 180.513L215.65 183.065M204.386 196.705L201.625 195.857M251.338 211.107L248.576 210.26M240.291 207.718C237.951 215.345 229.872 219.631 222.245 217.292C214.619 214.952 210.332 206.873 212.672 199.246C215.012 191.619 223.091 187.333 230.717 189.673C238.344 192.012 242.63 200.091 240.291 207.718Z"/><path stroke="#fff" stroke-linecap="round" stroke-linejoin="round" stroke-width="3" d="M290.038 320.001L286.008 300.831C285.655 299.154 285.479 298.315 285.67 297.605C285.839 296.981 286.201 296.427 286.704 296.021C287.276 295.56 288.115 295.384 289.793 295.031L304.17 292.008C305.848 291.655 306.687 291.479 307.396 291.67C308.02 291.839 308.575 292.201 308.98 292.704C309.442 293.276 309.618 294.115 309.971 295.793L313.372 311.968L292.404 316.376C290.75 316.724 289.691 318.347 290.038 320.001ZM290.038 320.001C290.386 321.656 292.009 322.715 293.664 322.367L314.631 317.958M293.748 300.455L302.734 298.565M295.008 306.445L303.994 304.556M311.874 312.282L313.134 318.273"/><path stroke="#fff" stroke-linecap="round" stroke-linejoin="round" stroke-width="3" d="M473.255 292.493L470.882 300.672M467.979 295.396L476.157 297.769M464.948 321.118L462.575 329.296M459.672 324.02L467.851 326.394M453.667 291.243L448.45 297.991C447.783 298.854 447.449 299.285 447.036 299.61C446.67 299.899 446.258 300.125 445.819 300.28C445.323 300.455 444.78 300.506 443.694 300.607L435.201 301.402L441.95 306.619C442.812 307.285 443.244 307.619 443.569 308.032C443.857 308.399 444.084 308.81 444.239 309.25C444.414 309.746 444.465 310.289 444.566 311.374L445.36 319.867L450.577 313.119C451.244 312.256 451.578 311.825 451.991 311.499C452.357 311.211 452.769 310.985 453.208 310.829C453.704 310.655 454.247 310.604 455.333 310.502L463.826 309.708L457.077 304.491C456.214 303.824 455.783 303.491 455.458 303.077C455.169 302.711 454.943 302.3 454.788 301.86C454.613 301.364 454.562 300.821 454.461 299.735L453.667 291.243Z"/></svg>