<svg width="700" height="500" viewBox="0 0 700 500" fill="none" xmlns="http://www.w3.org/2000/svg">
<path d="M85.9102 252.68L84.5 255.5L83 259L82.3783 260.658C81.795 262.213 81.4072 263.835 81.2238 265.486C81.075 266.825 81.0615 268.176 81.1834 269.518L81.2832 270.615C81.4275 272.203 81.6942 273.777 82.0808 275.323L82.2872 276.149C82.761 278.044 83.4407 279.882 84.3144 281.629C85.1029 283.206 86.0452 284.701 87.1276 286.093L87.4828 286.549C88.4919 287.847 89.6228 289.045 90.8598 290.127C92.2823 291.372 93.8372 292.457 95.4965 293.362L95.8252 293.541C97.6036 294.511 99.4781 295.293 101.418 295.876L103.5 296.5C107.151 297.164 110.873 297.344 114.571 297.036L115 297L115.202 296.963C118.725 296.323 122.175 295.33 125.5 294L129 292.5C129.63 292.185 130.37 292.185 131 292.5L132 293C132.994 293.663 134.085 294.167 135.233 294.495L137 295L139.954 295.738C140.649 295.912 141.362 296 142.078 296H142.4C143.129 296 143.852 295.883 144.543 295.652C144.847 295.551 145.144 295.428 145.431 295.285L147 294.5L147.569 294.215C147.856 294.072 148.153 293.949 148.457 293.848L149.114 293.629C149.369 293.544 149.638 293.5 149.907 293.5C150.297 293.5 150.681 293.591 151.03 293.765L151.184 293.842C151.393 293.947 151.584 294.084 151.75 294.25C151.916 294.416 152.053 294.607 152.158 294.816L152.204 294.907C152.399 295.297 152.5 295.727 152.5 296.163V296.5C152.5 297.163 152.397 297.821 152.195 298.452L144.5 322.5L144.133 323.967C144.051 324.298 144.148 324.648 144.389 324.889C144.462 324.962 144.548 325.024 144.641 325.07L144.99 325.245C145.328 325.414 145.691 325.525 146.066 325.573L172.5 329L177.5 329.5C178.158 329.5 178.806 329.347 179.394 329.053L179.5 329L198.5 317L200.604 315.737C200.863 315.582 201.072 315.357 201.206 315.087C201.394 314.711 201.425 314.276 201.292 313.877L201.122 313.366C201.041 313.123 200.928 312.892 200.786 312.679L200 311.5L198 309L188.5 296.5L187 294.5C186.348 293.522 186 292.373 186 291.197V291C186 290.018 186.267 289.055 186.772 288.214L187.5 287L188.054 286.169C188.351 285.724 188.69 285.31 189.068 284.932L189.356 284.644C189.783 284.217 190.275 283.862 190.815 283.593L191.675 283.162C191.889 283.056 192.124 283 192.363 283C192.771 283 193.162 283.162 193.45 283.45L194 284L194.721 284.721C195.24 285.24 195.795 285.721 196.382 286.161C197.126 286.719 197.919 287.209 198.75 287.625L199.5 288L202.845 289.254C203.281 289.418 203.731 289.539 204.19 289.615L204.294 289.632C205.728 289.871 207.2 289.65 208.5 289L209.142 288.572C209.694 288.204 210.089 287.643 210.25 287C210.411 286.357 210.806 285.796 211.358 285.428L211.712 285.192C211.904 285.064 212.106 284.954 212.318 284.864L215.5 283.5L220 281.5C221.662 280.835 223.39 280.352 225.156 280.057L225.5 280L227.141 279.672C227.708 279.558 228.292 279.558 228.859 279.672C229.916 279.883 230.857 280.477 231.504 281.339L231.614 281.486C231.87 281.827 232.08 282.201 232.239 282.597L233 284.5L234 287L234.858 289.145C234.952 289.381 235.071 289.607 235.212 289.818C235.719 290.579 236.491 291.123 237.378 291.344L237.637 291.409C237.879 291.47 238.125 291.509 238.373 291.528L251.5 292.5C253.497 292.5 255.492 292.358 257.47 292.076L258 292L263.5 291L269 290L274 289L279.5 288.5L284 288H288L290.292 288.255C291.758 288.418 293.199 288.762 294.58 289.28L294.685 289.319C295.891 289.772 297.041 290.361 298.113 291.075L298.543 291.362C299.179 291.786 299.773 292.273 300.314 292.814L301.018 293.518C301.666 294.166 302.176 294.939 302.516 295.79C302.836 296.589 303 297.442 303 298.303V298.58C303 299.191 302.932 299.801 302.796 300.397L298 321.5L297.616 323.42C297.539 323.806 297.5 324.198 297.5 324.591C297.5 325.518 297.716 326.431 298.13 327.26L298.5 328L299.303 329.204C299.434 329.401 299.584 329.584 299.752 329.752C300.24 330.24 300.859 330.577 301.535 330.723L326 336L326.862 336.172C327.945 336.389 329.058 336.407 330.148 336.225L330.703 336.133C331.231 336.045 331.744 335.878 332.223 335.638C333.06 335.22 333.773 334.591 334.292 333.812L334.5 333.5C335.161 332.509 335.627 331.402 335.875 330.237L340.5 308.5L340.776 306.565C340.923 305.536 340.829 304.486 340.5 303.5L340.083 301.833C340.028 301.612 340 301.385 340 301.157V301.059C340 300.691 340.086 300.329 340.25 300C340.414 299.671 340.653 299.385 340.947 299.165L342.097 298.303C342.365 298.101 342.651 297.925 342.951 297.775C343.316 297.592 343.7 297.45 344.095 297.351L344.572 297.232C345.189 297.078 345.82 296.982 346.455 296.947L363.5 296L366.449 295.705C367.814 295.569 369.168 295.333 370.5 295L373 294L375.5 293L380.5 291.5L383.669 290.708C384.221 290.57 384.788 290.5 385.357 290.5C386.437 290.5 387.503 290.752 388.47 291.235L389 291.5L389.34 291.694C391.439 292.894 393.675 293.836 396 294.5L397.439 294.86C397.812 294.953 398.194 295 398.578 295C399.505 295 400.412 294.726 401.183 294.211L401.215 294.19C401.405 294.064 401.585 293.924 401.755 293.771L410.431 286.009C410.809 285.671 411.142 285.287 411.423 284.865C411.805 284.293 412.085 283.659 412.252 282.991L412.292 282.831C412.43 282.279 412.5 281.712 412.5 281.144V281C412.5 280.68 412.627 280.373 412.854 280.146L412.859 280.141C412.952 280.048 413.06 279.97 413.178 279.911L413.407 279.796C413.797 279.601 414.227 279.5 414.663 279.5H415C415.658 279.5 416.306 279.653 416.894 279.947L417 280L419.5 281L422.5 282L423.799 282.325C424.265 282.441 424.743 282.5 425.223 282.5H425.914C426.622 282.5 427.314 282.29 427.903 281.898L428.092 281.772C428.361 281.592 428.592 281.361 428.772 281.092L429.187 280.469C429.383 280.176 429.712 280 430.064 280C430.343 280 430.611 279.889 430.809 279.691L431.219 279.281C431.405 279.095 431.62 278.94 431.856 278.822L431.907 278.796C432.297 278.601 432.727 278.5 433.163 278.5H434.5H437H438.5H439.65C440.215 278.5 440.779 278.556 441.334 278.667L441.822 278.764C442.6 278.92 443.34 279.226 444 279.666C444.332 279.888 444.642 280.142 444.925 280.425L445.817 281.317C446.266 281.766 446.605 282.314 446.805 282.916C446.934 283.303 447.121 283.669 447.358 284.001L448.612 285.757C449.203 286.584 449.861 287.361 450.58 288.08L450.825 288.325C451.607 289.107 452.452 289.823 453.352 290.466C454.778 291.484 456.331 292.312 457.972 292.927L459.5 293.5L461.886 294.182C462.625 294.393 463.39 294.5 464.158 294.5H465.209C465.402 294.5 465.593 294.531 465.776 294.592L465.928 294.643C466.568 294.856 467 295.455 467 296.13C467 296.373 466.943 296.613 466.835 296.831L466.589 297.322C466.53 297.44 466.452 297.548 466.359 297.641C466.129 297.871 466 298.183 466 298.508V299.273C466 299.424 466.011 299.575 466.033 299.724L468 313L470.5 329L470.937 331.186C470.979 331.394 471.048 331.596 471.143 331.787C471.375 332.25 471.75 332.625 472.213 332.857L472.312 332.906C472.437 332.969 472.567 333.021 472.7 333.064L485 337L486.943 337.389C487.313 337.463 487.69 337.5 488.068 337.5H488.172C488.72 337.5 489.265 337.412 489.786 337.238C490.259 337.08 490.707 336.854 491.115 336.566L497.845 331.816C498.613 331.273 499.335 330.665 500 330C500.32 329.68 500.754 329.5 501.207 329.5H501.226C501.408 329.5 501.588 329.528 501.761 329.583L514 333.5L515.246 333.812C515.733 333.933 516.247 333.877 516.695 333.652C516.897 333.551 517.081 333.419 517.241 333.259L517.293 333.207C517.746 332.754 518 332.14 518 331.5V329L516 313L513.5 297L513 292.5V291.644C513 291.217 513.069 290.794 513.204 290.389L513.419 289.744C513.472 289.583 513.562 289.438 513.682 289.318C513.885 289.115 514.162 289 514.45 289H516.5H520L528 289.5H529.287C529.756 289.5 530.218 289.391 530.638 289.181C530.878 289.061 531.133 288.973 531.397 288.921L532.437 288.713C533.144 288.571 533.863 288.5 534.584 288.5H538H544H547H547.859C548.946 288.5 550.026 288.675 551.057 289.019C552.014 289.338 552.917 289.798 553.738 290.384L556 292C558.987 293.659 562.179 294.92 565.494 295.749L566.5 296C568.822 296.663 571.225 297 573.64 297H576.5H579.942C580.979 297 582.016 296.926 583.043 296.78L583.249 296.75C584.414 296.584 585.561 296.313 586.678 295.941L587.354 295.715C587.784 295.572 588.204 295.398 588.609 295.195L588.822 295.089C589.602 294.699 590.315 294.185 590.932 293.568L591.148 293.352C591.382 293.118 591.592 292.861 591.776 292.586C592.251 291.874 592.536 291.052 592.604 290.199L593.5 279V277.5V273V271.964C593.5 271.659 593.571 271.358 593.707 271.085C593.897 270.705 594.205 270.397 594.585 270.207L594.809 270.095C594.936 270.032 595.058 269.959 595.173 269.876L597.24 268.4C598.076 267.803 598.826 267.093 599.467 266.291L599.769 265.914C600.254 265.308 600.647 264.634 600.935 263.913C601.308 262.98 601.5 261.984 601.5 260.978V259.943C601.5 259.315 601.455 258.688 601.367 258.066L601.27 257.39C601.09 256.132 600.798 254.894 600.396 253.689C599.801 251.904 598.971 250.207 597.928 248.641L597.5 248L596.54 246.561C595.849 245.523 595.056 244.556 594.174 243.674C592.734 242.234 591.072 241.036 589.251 240.125L589 240L585 238.5L583.269 238.067C583.09 238.023 582.917 237.958 582.752 237.876C582.264 237.632 581.868 237.236 581.624 236.748L581.176 235.851C581.059 235.617 580.958 235.375 580.876 235.127L580.848 235.043C580.617 234.352 580.5 233.629 580.5 232.9V232.5V232.144C580.5 231.717 580.569 231.294 580.704 230.889C580.899 230.304 581.227 229.773 581.663 229.337L582 229C582.993 228.007 583.82 226.859 584.449 225.603L584.963 224.574C585.321 223.859 585.627 223.119 585.88 222.361C586.292 221.124 586.56 219.845 586.678 218.547L586.722 218.055C586.906 216.029 586.797 213.987 586.398 211.992L586.319 211.595C586.107 210.533 585.809 209.491 585.429 208.477L585.25 208.001C584.752 206.673 584.082 205.415 583.258 204.261C582.423 203.092 581.437 202.039 580.325 201.129L578.21 199.399C577.075 198.471 575.821 197.698 574.48 197.102C572.838 196.372 571.087 195.917 569.297 195.754L568.352 195.668C567.12 195.556 565.88 195.548 564.646 195.643L563.287 195.747C561.112 195.914 558.973 196.456 556.979 197.343C555.997 197.779 555.051 198.3 554.157 198.895L553.856 199.096C551.971 200.353 550.353 201.971 549.096 203.856C548.368 204.948 547.767 206.121 547.306 207.35L546.5 209.5L545.934 212.048C545.645 213.345 545.5 214.671 545.5 216C545.5 217.329 545.645 218.655 545.934 219.952L545.971 220.121C546.322 221.701 546.866 223.232 547.59 224.68L548 225.5L549.104 227.34C549.367 227.778 549.563 228.251 549.687 228.746C549.892 229.569 549.892 230.431 549.687 231.254L549.5 232L549.225 232.824C549.081 233.257 548.771 233.615 548.363 233.818C548.124 233.938 547.861 234 547.594 234H547.343C547.115 234 546.888 233.972 546.667 233.917L545 233.5L542 233L538 232.5L531 232H529.5C528.836 232 528.174 232.081 527.53 232.243L526.844 232.414C526.615 232.471 526.394 232.553 526.183 232.659C525.734 232.883 525.239 233 524.737 233H524L514.301 232.578C513.131 232.527 511.975 232.85 511 233.5C510.013 234.158 508.89 234.587 507.715 234.755L506.835 234.881C506.279 234.96 505.718 235 505.157 235H501.5L483.111 235.484C482.706 235.495 482.305 235.565 481.92 235.693C481.315 235.895 480.765 236.235 480.314 236.686L480.296 236.704C480.099 236.901 479.884 237.078 479.652 237.232L479.613 237.258C478.885 237.743 478.037 238.015 477.163 238.045L464.529 238.466C463.872 238.488 463.236 238.236 462.772 237.772C462.592 237.592 462.384 237.442 462.156 237.328L462.093 237.296C461.703 237.101 461.273 237 460.837 237H460.371C460.124 237 459.877 237.019 459.633 237.057L444 239.5L442.282 239.844C441.793 239.941 441.288 239.788 440.936 239.436C440.657 239.157 440.5 238.778 440.5 238.383V237.293C440.5 237.098 440.514 236.903 440.541 236.71L441 233.5L441.479 230.145C441.493 230.048 441.5 229.951 441.5 229.854C441.5 229.307 441.283 228.783 440.896 228.396L440.781 228.281C440.595 228.095 440.38 227.94 440.144 227.822L439.981 227.74C439.662 227.581 439.321 227.47 438.97 227.412L433.993 226.582C433.709 226.535 433.5 226.289 433.5 226C433.5 225.667 433.529 225.335 433.586 225.007L435.47 214.17C435.49 214.057 435.5 213.942 435.5 213.828C435.5 213.298 435.29 212.79 434.915 212.415L434.5 212C433.851 211.351 433.009 210.93 432.1 210.8L418.97 208.924C416.992 208.642 414.997 208.5 413 208.5H412.401C411.824 208.5 411.271 208.729 410.863 209.137C410.624 209.376 410.444 209.667 410.338 209.987L410.134 210.597C410.045 210.865 409.979 211.14 409.937 211.42L408.534 220.774C408.511 220.924 408.466 221.069 408.398 221.204C408.154 221.692 407.656 222 407.11 222H407C406.334 222 405.67 221.945 405.014 221.836L403.384 221.564C403.128 221.521 402.87 221.5 402.611 221.5H401.906C401.639 221.5 401.376 221.562 401.137 221.682C400.729 221.885 400.419 222.243 400.275 222.676L400 223.5L399.816 224.052C399.617 224.649 399.149 225.117 398.552 225.316C398.191 225.436 397.804 225.451 397.435 225.359L396 225L395.085 224.771C394.364 224.591 393.665 224.332 393 224C392.351 223.675 391.825 223.149 391.5 222.5L391 221.5L385.5 208.5L384.265 205.619C384.09 205.21 383.838 204.838 383.524 204.524C382.868 203.868 381.979 203.5 381.052 203.5H381H379.559C379.191 203.5 378.829 203.586 378.5 203.75L378.371 203.815C378.127 203.937 377.858 204 377.585 204C376.92 204 376.312 203.624 376.015 203.029L376 203L371 191L370.488 189.976C370.168 189.336 369.687 188.791 369.092 188.395C368.7 188.134 368.266 187.942 367.81 187.827L367.591 187.773C366.871 187.593 366.122 187.563 365.391 187.685L364.368 187.855C363.796 187.951 363.25 188.166 362.767 188.488C362.262 188.825 361.838 189.27 361.525 189.791L360.5 191.5L358.5 194.5L354 201L348.5 208.5L342 218L339.5 222.5L337.5 226.5L336.656 228.61C336.552 228.869 336.422 229.117 336.267 229.349L336.095 229.607C335.71 230.186 335.142 230.619 334.482 230.839C334.163 230.946 333.829 231 333.492 231H333.209C332.103 231 331.029 230.623 330.165 229.932L329.58 229.464C329.194 229.156 328.777 228.889 328.336 228.668L326.579 227.79C325.528 227.264 324.44 226.813 323.325 226.442C321.448 225.816 319.504 225.417 317.532 225.253L317.025 225.21C315.345 225.07 313.656 225.077 311.976 225.229L311.719 225.253C309.91 225.417 308.117 225.735 306.362 226.203L305.585 226.411C302.869 227.135 300.233 228.133 297.719 229.391L296.5 230L294.189 231.541C292.733 232.511 291.377 233.623 290.14 234.86C288.718 236.282 287.462 237.861 286.396 239.566L285.5 241L284.877 242.247C284.63 242.74 284.258 243.161 283.799 243.467L283.542 243.639C283.188 243.874 282.773 244 282.349 244C282.118 244 281.888 243.963 281.669 243.89L280.5 243.5L277 242L269 238.5L265.5 237C264.175 236.338 262.966 235.466 261.919 234.419L261.5 234L259 231L256.5 227.5L255 225.5L253 222.5C252.337 221.506 251.833 220.415 251.505 219.267L251.382 218.836C251.128 217.95 251 217.032 251 216.11C251 215.044 251.172 213.984 251.509 212.972L252 211.5C252.331 210.177 252.887 208.92 253.644 207.785L254.5 206.5L256 204L256.903 202.013C257.96 199.688 258.608 197.199 258.82 194.655L258.843 194.383C258.947 193.131 258.93 191.871 258.791 190.622C258.598 188.882 258.17 187.176 257.52 185.55L257.186 184.716C256.73 183.575 256.156 182.485 255.475 181.462L255.374 181.311C254.793 180.439 254.127 179.627 253.386 178.886L253.09 178.59C252.366 177.866 251.556 177.234 250.678 176.707C249.895 176.237 249.063 175.854 248.196 175.565L246.5 175L243.547 174.114C242.19 173.707 240.78 173.5 239.363 173.5C237.798 173.5 236.243 173.752 234.758 174.247L233.792 174.569C232.932 174.856 232.09 175.205 231.279 175.611C229.443 176.529 227.76 177.74 226.309 179.191L225.997 179.503C225.004 180.496 224.147 181.618 223.449 182.839C222.819 183.942 222.324 185.118 221.974 186.34L221.5 188L220.5 194L220.253 198V202V203.449C220.253 204.084 219.866 204.654 219.277 204.89C219.094 204.963 218.899 205 218.702 205H218.086C217.697 205 217.309 204.952 216.932 204.858L215.5 204.5L201 202.5H199.584C198.863 202.5 198.144 202.571 197.437 202.713L196.496 202.901C196.167 202.967 195.848 203.076 195.548 203.226C195.185 203.408 194.854 203.646 194.567 203.933L194.41 204.09C194.139 204.361 193.912 204.675 193.74 205.019C193.581 205.338 193.47 205.679 193.412 206.03L191.5 217.5L190 226L189.751 226.998C189.595 227.622 189.13 228.123 188.52 228.327C188.18 228.44 187.816 228.454 187.468 228.367L186 228L182.5 227L181.944 226.899C178.664 226.303 175.317 226.168 172 226.5C169.007 227.165 166.089 228.127 163.288 229.372L163 229.5L158 232.5L155.5 234.5L153 236C151.014 236.993 148.875 237.641 146.672 237.916L142 238.5H139L129.5 239L123.5 239.5L121 240C119.344 240.331 117.646 240.393 115.97 240.184L114.5 240H110L104.5 240.5L102.372 240.887C100.135 241.294 97.9679 242.016 95.9348 243.033C94.6475 243.676 93.4208 244.434 92.2695 245.298L91.7383 245.696C90.5829 246.563 89.5258 247.553 88.5859 248.65C87.5326 249.879 86.634 251.232 85.9102 252.68Z" fill="#272323" stroke="#272323" stroke-width="20"/>
<path d="M150.392 279.986L145.939 292.255C145.286 293.983 144.442 294.96 143.203 295.116C142.251 295.236 135.392 294.552 130.065 290.675C125.436 293.871 120.437 295.662 115.58 296.274C99.6733 298.278 84.4216 287.815 82.4893 272.48C81.0492 261.051 87.069 243.553 105.928 241.177C110.69 240.577 115.489 241.036 119.408 242.187C119.895 241.449 120.717 241.055 121.86 240.911L122.336 240.851L138.994 240.203C141.494 240.082 142.317 241.236 142.461 242.379L142.521 242.855C142.279 251.691 141.99 260.145 142.782 266.431C143.502 272.146 145.066 276.11 148.318 277.345C149.33 277.701 150.45 278.141 150.57 279.093C150.594 279.284 150.535 279.581 150.392 279.986ZM121.609 276.55C121.011 274.109 120.485 271.466 120.113 268.514C119.801 266.037 119.572 263.454 119.402 260.572C118.019 258.811 115.28 257.802 112.517 258.15C106.517 258.906 103.915 265.136 104.527 269.994C105.199 275.328 109.49 279.431 115.681 278.651C117.491 278.423 119.538 277.778 121.609 276.55Z" fill="#FF0000"/>
<path d="M215.145 274.713L208.792 286.137C207.846 287.875 206.795 288.735 205.362 288.591C205.362 288.591 197.233 286.909 192.42 281.024C186.774 283.45 181.1 284.232 175.846 283.706C159.894 282.109 147.458 268.515 148.998 253.136C150.165 241.482 159.92 225.96 178.833 227.854C182.941 228.265 186.962 229.536 190.276 231.122L194.559 205.695C194.817 204.08 196.441 203.278 198.352 203.469L214.848 205.411C217.523 205.678 218.163 206.997 218.029 208.334L218 208.621C217.685 209.843 210.64 249.37 209.98 255.961C209.196 263.794 209.759 269.735 213.503 271.847C214.506 272.43 215.509 273.013 215.423 273.872C215.394 274.159 215.365 274.445 215.145 274.713ZM187.13 265.444C186.891 261.078 187.016 255.977 187.628 249.864C186.769 247.848 184.228 246.243 181.362 245.956C175.631 245.382 171.475 250.273 170.939 255.622C170.404 260.971 173.67 265.929 179.784 266.541C181.885 266.752 184.331 266.418 187.13 265.444Z" fill="#FF0000"/>
<path d="M249.716 291.615L240.072 290.62C238.162 290.423 236.482 289.864 235.619 287.941L218.025 244.242C217.646 243.238 217.533 242.454 217.602 241.786C217.711 240.735 218.353 240.126 219.452 239.757C221.852 238.943 234.894 235.076 236.899 235.283C238.332 235.431 239.218 236.197 239.597 237.202L247.86 261.891C248.001 262.389 248.268 262.609 248.459 262.629C248.746 262.658 248.956 262.487 249.302 261.944C253.442 254.553 260.142 241.057 260.977 239.503C261.678 238.321 262.692 237.846 263.934 237.974C264.602 238.043 265.261 238.207 265.995 238.573L278.388 243.808C280.515 244.702 281.276 245.746 281.138 247.083C280.981 248.611 266.951 281.714 254.161 290.625C253.128 291.291 251.435 291.792 249.716 291.615Z" fill="#FF0000"/>
<path d="M320.835 283.647L319.694 283.806C298.11 286.81 285.219 273.581 283.207 259.128C281.315 245.531 288.933 229.932 310.612 226.914C334.193 223.632 338.164 244.5 338.6 247.638C339.209 252.012 337.905 255.876 332.56 258.559C328.303 260.702 321.412 262.727 316.495 263.606C314.973 263.818 314.405 263.218 313.866 262.13C312.288 259.151 309.621 253.222 309.569 252.842C309.423 251.796 310.117 251.215 311.314 250.757C316.099 248.928 316.739 248.645 316.553 247.314C316.434 246.458 314.204 243.667 310.211 244.223C305.647 244.858 302.399 249.381 303.22 255.276C304.159 262.027 310.162 268.946 322.048 267.291C322.713 267.199 323.474 267.093 324.126 266.905L324.316 266.879C325.648 266.694 327.383 267.324 327.608 268.941C327.74 269.892 326.168 276.701 325.192 280.133C324.643 281.76 323.592 283.263 320.835 283.647Z" fill="#FF0000"/>
<path d="M402.173 265.006L402.535 268.153C403.148 273.494 404.88 277.644 409.207 280.819C409.834 281.23 410.897 282.074 411.017 283.123C411.083 283.696 410.863 284.301 410.25 284.854C410.272 285.045 401.607 292.9 401.607 292.9C400.741 293.773 399.82 294.169 398.961 294.267C397.245 294.464 381.405 291.161 379.456 274.184L379.084 270.942C377.934 260.928 372.588 257.289 365.582 257.707L367.744 292.536C367.854 293.49 367.094 294.446 366.14 294.556L365.95 294.578L346.765 295.814C345.61 295.85 344.748 295.079 344.617 293.934L341.499 244.045C341.474 242.984 342.234 242.028 343.188 241.918L343.378 241.896L354.126 241.242C357.758 240.052 361.243 239.266 364.676 238.872C384.037 236.649 400.082 246.789 402.173 265.006Z" fill="#FF0000"/>
<path d="M434.501 267.297L428.312 278.826C427.363 280.563 426.407 281.431 424.974 281.285C424.687 281.256 424.401 281.227 424.124 281.102C409.058 276.484 404.563 267.536 406.541 243.324L399.416 242.214C398.376 242.011 397.613 240.969 397.72 239.918L400.477 224.181C400.679 223.14 401.626 222.367 402.772 222.484L408.846 223.487C409.406 219.877 409.994 215.981 410.698 211.903C410.91 210.766 411.286 208.971 413.769 209.224L414.151 209.262L432.115 211.956C433.728 212.216 434.395 213.249 434.23 214.873C433.632 218.865 432.918 223.038 432.224 227.02L438.776 228.072C439.826 228.179 440.589 229.221 440.472 230.367L437.715 246.105C437.523 247.05 436.671 247.832 435.621 247.726L435.43 247.706L429.155 246.779C428.272 255.47 428.749 262.177 432.767 264.419C433.769 265.003 434.876 265.501 434.769 266.552C434.75 266.743 434.625 267.02 434.501 267.297Z" fill="#FF0000"/>
<path d="M502.053 290.599L483.208 290.743C478.701 292.473 474.247 293.527 470.032 293.796C456.715 294.645 445.891 287.832 443.892 270.068C443.207 263.859 442.258 251.991 441.771 245.866C441.52 241.938 442.813 241.086 443.956 240.916C444.04 240.719 458.823 238.718 460.451 238.614C462.367 238.491 463.195 239.401 463.364 240.544C464.348 246.926 464.87 252.088 466.172 263.452C467.081 271.667 470.138 274.357 474.162 274.101C476.078 273.979 478.335 273.161 480.657 271.859L480.279 238.792C480.301 237.636 481.21 236.808 482.264 236.741L501.397 236.579C502.546 236.505 503.374 237.415 503.447 238.564L504.039 288.548C504.016 289.704 503.107 290.531 502.053 290.599Z" fill="#FF0000"/>
<path d="M528.834 288.566L509.751 287.184C508.608 287.038 507.753 286.154 507.9 285.012L511.58 235.155C511.726 234.012 512.705 233.17 513.752 233.304L524.871 234.148C530.221 233.189 535.27 233.061 540.031 233.672C543.268 234.086 546.362 234.87 549.228 235.915C550.608 236.479 551.082 237.314 550.935 238.457C550.886 238.837 550.742 239.206 550.586 239.67L546.104 252.742C545.647 254.039 544.61 254.583 543.467 254.437C543.181 254.4 542.813 254.256 542.444 254.112C540.982 253.441 539.399 252.948 537.781 252.74C536.448 252.569 535.09 252.589 533.518 252.775L531.007 286.715L530.982 286.905C530.848 287.953 529.881 288.7 528.834 288.566Z" fill="#FF0000"/>
<path d="M588.104 294.004L587.003 294.344C566.181 300.772 551.335 289.782 547.031 275.839C542.982 262.721 547.999 246.102 568.913 239.646C591.662 232.624 598.929 252.585 599.863 255.612C601.166 259.831 600.499 263.855 595.653 267.36C591.795 270.159 585.319 273.263 580.605 274.919C579.138 275.372 578.481 274.872 577.774 273.884C575.739 271.197 572.156 265.772 572.042 265.405C571.731 264.396 572.323 263.711 573.431 263.068C577.861 260.495 578.446 260.113 578.05 258.829C577.795 258.003 575.146 255.606 571.293 256.795C566.89 258.154 564.411 263.14 566.166 268.827C568.176 275.34 575.212 281.206 586.678 277.666C587.32 277.468 588.054 277.241 588.667 276.952L588.851 276.895C590.135 276.498 591.949 276.843 592.431 278.402C592.714 279.319 592.254 286.293 591.841 289.837C591.56 291.531 590.764 293.183 588.104 294.004Z" fill="#FF0000"/>
<path d="M232.811 186.237C232.549 186.226 232.351 185.905 232.368 185.52C232.39 185.138 232.616 184.835 232.876 184.851C233.14 184.861 233.336 185.185 233.319 185.567C233.3 185.951 233.071 186.25 232.811 186.237ZM234.265 186C234.595 186.017 234.885 185.634 234.906 185.149C234.932 184.662 234.679 184.253 234.348 184.241C234.017 184.223 233.728 184.605 233.703 185.093C233.68 185.578 233.929 185.984 234.265 186ZM234.351 195.332C234.299 193.601 234.864 192.511 234.963 192.264L235.124 191.867L235.145 191.821C235.388 191.282 236.128 191.054 236.667 191.297C237.047 191.469 236.898 191.65 237.495 191.816C238.089 191.983 239.44 191.233 239.798 190.443C240.412 189.085 240.075 188.082 238.715 187.467C238.715 187.467 237.696 187.083 237.33 187.001L234.911 186.445C233.522 186.13 232.14 186.996 231.822 188.385C231.667 189.065 231.814 190.861 231.747 191.197L231.415 195.157C231.259 195.937 230.654 197.606 230.424 198.458C229.92 200.314 230.735 202.148 232.249 202.558C233.761 202.972 234.547 202.359 235.348 200.277C236.143 197.409 234.405 197.06 234.351 195.332ZM235.872 186.011C236.245 186.085 236.628 185.706 236.733 185.165C236.838 184.626 236.625 184.129 236.254 184.056C235.883 183.982 235.498 184.363 235.395 184.902C235.288 185.443 235.499 185.942 235.872 186.011ZM239.308 187.315C239.874 187.571 240.632 187.108 241.006 186.282C241.379 185.457 241.225 184.581 240.66 184.325C240.097 184.07 239.335 184.534 238.963 185.358C238.589 186.183 238.745 187.06 239.308 187.315ZM237.509 186.318C237.933 186.439 238.425 186.04 238.601 185.421C238.784 184.801 238.585 184.203 238.163 184.077C237.74 183.953 237.251 184.358 237.07 184.974C236.892 185.596 237.088 186.196 237.509 186.318ZM248.941 188.38C249.238 188.61 249.753 188.444 250.086 188.007C250.424 187.57 250.456 187.031 250.158 186.799C249.86 186.569 249.346 186.736 249.008 187.175C248.672 187.61 248.644 188.151 248.941 188.38ZM249.25 189.388L247.235 187.934L245.972 187.204C244.611 186.588 243.638 186.996 243.022 188.357C242.664 189.148 242.994 190.655 243.512 190.992C244.027 191.329 244.066 191.103 244.447 191.275C244.985 191.519 245.302 192.221 245.058 192.76L245.037 192.808L244.849 193.191C244.724 193.425 244.28 194.567 242.948 195.672C241.613 196.772 240.204 195.699 238.574 198.189C237.54 200.164 237.596 201.161 238.907 202.025C240.214 202.888 242.13 202.291 243.19 200.689C243.679 199.949 244.531 198.393 245.015 197.758L247.768 194.895C247.975 194.627 249.423 193.552 249.833 192.983C250.669 191.828 250.404 190.219 249.25 189.388ZM251.793 189.862C251.608 189.672 251.236 189.735 250.96 190.002C250.685 190.27 250.609 190.639 250.793 190.828C250.976 191.013 251.346 190.952 251.619 190.684C251.897 190.419 251.975 190.051 251.793 189.862ZM250.011 189.581C250.243 189.818 250.711 189.737 251.063 189.397C251.411 189.061 251.505 188.59 251.278 188.35C251.046 188.112 250.573 188.195 250.222 188.533C249.873 188.87 249.78 189.339 250.011 189.581ZM256.496 200.365C252.338 209.559 223.483 229.032 223.483 229.032C223.483 229.032 219.049 194.501 223.207 185.308C227.365 176.116 238.189 172.035 247.382 176.194C256.575 180.352 260.654 191.172 256.496 200.365ZM252.733 198.662C255.945 191.561 252.781 183.17 245.68 179.958C238.58 176.747 230.186 179.909 226.974 187.011C223.762 194.111 226.928 202.507 234.028 205.718C241.13 208.928 249.521 205.763 252.733 198.662ZM245.695 186.658C246.258 186.913 247.019 186.45 247.392 185.626C247.767 184.796 247.611 183.924 247.047 183.669C246.481 183.413 245.723 183.872 245.348 184.702C244.973 185.525 245.129 186.403 245.695 186.658ZM247.629 187.348C248.002 187.584 248.582 187.333 248.927 186.792C249.272 186.248 249.251 185.618 248.879 185.383C248.51 185.145 247.929 185.395 247.582 185.938C247.237 186.483 247.255 187.114 247.629 187.348Z" fill="#FF0000"/>
<path d="M369.643 218.653L379.964 207.777L389.834 229.777L345.168 225.973C344.281 225.898 343.8 224.899 344.292 224.158L364.89 193.137C365.407 192.357 366.583 192.47 366.944 193.332L375.119 212.884" stroke="#FF0000" stroke-width="6" stroke-linecap="round" stroke-linejoin="round"/>
<path d="M566.117 216.117L566.136 216.112M583.128 212.012C585.396 221.407 579.617 230.861 570.222 233.128C560.826 235.396 551.372 229.617 549.105 220.222C546.838 210.826 552.616 201.372 562.012 199.105C571.407 196.838 580.861 202.616 583.128 212.012ZM571.853 206.731L560.251 212.531L560.38 225.502L571.982 219.702L571.853 206.731Z" stroke="#FF0000" stroke-width="4" stroke-linecap="round" stroke-linejoin="round"/>
<path d="M180.24 287.296L155.861 290.353L145.404 324.582L177.347 328.197L177.816 327.903L200.369 313.814L180.24 287.296ZM165.06 323.63L164.935 323.353L159.666 311.697L156.013 322.607L149.538 321.874L157.699 295.157L174.614 324.713L165.06 323.63ZM177.152 324.597L159.139 293.122L178.818 290.654L195.759 312.972L177.152 324.597Z" fill="#FF0000"/>
<path d="M323.031 332.056L327.502 311.537L313.683 308.526L309.212 329.044M325.515 320.656L311.696 317.645M328.992 304.697L315.174 301.686M330.464 297.945L330.483 297.858C330.946 295.733 331.177 294.671 331.009 293.757C330.785 292.538 330.082 291.455 329.054 290.746C328.283 290.214 327.21 289.981 325.064 289.513C322.917 289.045 321.844 288.811 320.922 288.974C319.693 289.191 318.603 289.883 317.892 290.899C317.358 291.66 317.127 292.722 316.664 294.847L316.645 294.934M330.464 297.945C329.035 297.543 327.25 297.154 324.955 296.654L322.191 296.051C319.896 295.551 318.112 295.162 316.645 294.934M330.464 297.945C332.246 298.448 333.475 298.973 334.449 299.763C335.991 301.015 337.097 302.717 337.606 304.626C338.185 306.795 337.629 309.349 336.516 314.456L333.833 326.767C333.277 329.321 332.998 330.598 332.284 331.464C331.655 332.226 330.799 332.77 329.837 333.018C328.743 333.3 327.453 333.019 324.873 332.457L307.37 328.643C304.79 328.081 303.5 327.8 302.623 327.088C301.852 326.462 301.299 325.611 301.045 324.657C300.755 323.572 301.033 322.295 301.59 319.742L304.272 307.43C305.385 302.323 305.942 299.77 307.371 298.038C308.628 296.514 310.341 295.426 312.265 294.93C313.479 294.616 314.815 294.65 316.645 294.934" stroke="#FF0000" stroke-width="4" stroke-linecap="round" stroke-linejoin="round"/>
<path d="M490.268 301.718L490.291 301.715M488.056 334.48L473.552 329.604L469.325 300.081L474.16 301.707M488.056 334.48L500.609 325.73M488.056 334.48L486.105 320.854M500.609 325.73L515.113 330.606L510.887 301.084L506.052 299.459M500.609 325.73L499.634 318.917M497.098 301.204C497.672 305.217 494.756 308.955 491.894 313.073C487.992 309.924 484.144 307.154 483.569 303.141C482.995 299.127 485.557 295.44 489.293 294.905C493.029 294.37 496.523 297.19 497.098 301.204Z" stroke="#FF0000" stroke-width="4" stroke-linecap="round" stroke-linejoin="round"/>
</svg>
